<svg width="51" height="50" viewBox="0 0 51 50" fill="none" xmlns="http://www.w3.org/2000/svg">
<path d="M44.6451 0H5.35741C3.93654 0 2.57386 0.564412 1.56915 1.56907C0.56444 2.57373 0 3.93634 0 5.35714L0 44.6429C0 46.0637 0.56444 47.4263 1.56915 48.4309C2.57386 49.4356 3.93654 50 5.35741 50H20.6763V33.0011H13.6447V25H20.6763V18.9018C20.6763 11.9654 24.8059 8.13393 31.131 8.13393C34.1602 8.13393 37.3278 8.67411 37.3278 8.67411V15.4821H33.8376C30.3988 15.4821 29.3262 17.6161 29.3262 19.8047V25H37.003L35.7752 33.0011H29.3262V50H44.6451C46.066 50 47.4286 49.4356 48.4334 48.4309C49.4381 47.4263 50.0025 46.0637 50.0025 44.6429V5.35714C50.0025 3.93634 49.4381 2.57373 48.4334 1.56907C47.4286 0.564412 46.066 0 44.6451 0Z" fill="#fff"/>
</svg>
