<svg width="25" height="26" viewBox="0 0 25 26" fill="none" xmlns="http://www.w3.org/2000/svg">
<path d="M22.3214 0.785645H2.67857C1.19978 0.785645 0 1.98536 0 3.46408V23.106C0 24.5847 1.19978 25.7844 2.67857 25.7844H22.3214C23.8002 25.7844 25 24.5847 25 23.106V3.46408C25 1.98536 23.8002 0.785645 22.3214 0.785645ZM21.4174 9.13344C21.3393 10.8688 20.1228 13.2515 17.7734 16.2704C15.346 19.4231 13.2924 21.0023 11.6127 21.0023C10.5692 21.0023 9.69308 20.0425 8.97321 18.1229C7.56696 12.9725 6.96987 9.95371 5.80915 9.95371C5.67522 9.95371 5.20647 10.2327 4.40848 10.7963L3.57143 9.71377C5.63058 7.90582 7.59487 5.897 8.82255 5.78539C10.2121 5.65147 11.0658 6.60009 11.3895 8.63681C12.5335 15.8686 13.0413 16.9623 15.1172 13.6868C15.865 12.5038 16.2667 11.611 16.317 10.9916C16.5067 9.16134 14.8884 9.2841 13.7946 9.75283C14.6708 6.87909 16.3504 5.48407 18.8225 5.56219C20.6585 5.61799 21.5234 6.81213 21.4174 9.13344Z" fill="white"/>
</svg>
