<?xml version="1.0" standalone="no"?>
<!DOCTYPE svg PUBLIC "-//W3C//DTD SVG 1.1//EN" "http://www.w3.org/Graphics/SVG/1.1/DTD/svg11.dtd" >
<svg xmlns="http://www.w3.org/2000/svg" xmlns:xlink="http://www.w3.org/1999/xlink" version="1.1">
<metadata>
Created by FontForge 20170731 at Wed Aug  9 15:51:32 2023
 By Aleksey,,,
Copyright (c) 2019 by Svet Simov. All rights reserved.
</metadata>
<defs>
<font id="Noah-Regular" horiz-adv-x="0" >
  <font-face 
    font-family="Noah"
    font-weight="400"
    font-stretch="normal"
    units-per-em="2048"
    panose-1="0 0 5 0 0 0 0 0 0 0"
    ascent="1638"
    descent="-410"
    x-height="905"
    cap-height="1393"
    bbox="-698 -602 2447 1944"
    underline-thickness="102"
    underline-position="-307"
    unicode-range="U+0020-FB02"
  />
<missing-glyph horiz-adv-x="954" 
d="M782 1458v-1909h-604v1909h604zM635 1331h-313v-63h122v-72h-125v-61h316v61h-125v72h125v63zM510 1083h-191v-198h316v65h-125v133zM444 1020v-70h-63v70h63zM635 834h-316v-64h125v-70h-125v-63h191v133h125v64zM635 719h-62v-125h-254v-66h316v191zM635 487h-191v-108
h66v45h63v-90h-192v153h-62v-217h316v217zM635 156h-316v-215h316v215zM573 94v-90h-192v90h192zM635 -102h-316v-64h134l-134 -90v-63h316v63h-195l135 90h60v64z" />
    <glyph glyph-name="fi" unicode="fi" horiz-adv-x="1130" 
d="M971 905v-905h-125v795h-496v-795h-125v795h-188v110h188v228q0 166 87.5 263t258.5 97q205 0 371 -147l-63 -86q-67 58 -136 87t-155 29q-113 0 -175.5 -59t-62.5 -184v-228h621z" />
    <glyph glyph-name="fl" unicode="fl" horiz-adv-x="1116" 
d="M856 1468h100v-1468h-125v1292q-121 84 -256 84q-108 0 -166.5 -59.5t-58.5 -173.5v-238h297v-110h-297v-795h-125v795h-188v110h188v238q0 156 85.5 253t250.5 97q157 0 281 -92z" />
    <glyph glyph-name="f_f" unicode="ff" horiz-adv-x="1343" 
d="M1204 1376q-85 0 -133.5 -54.5t-48.5 -156.5v-260h297v-110h-297v-795h-125v795h-547v-795h-125v795h-188v110h188v260q0 142 76 235t221 93q114 0 211 -47l-39 -103q-74 33 -157 33q-88 0 -137.5 -54t-49.5 -157v-260h547v260q0 142 74.5 235t218.5 93q123 0 233 -80
l-55 -90q-80 53 -164 53z" />
    <glyph glyph-name="f_f_i" unicode="ffi" horiz-adv-x="1806" 
d="M1647 905v-905h-125v795h-500v-795h-125v795h-547v-795h-125v795h-188v110h188v260q0 142 76 235t221 93q109 0 211 -47l-39 -103q-70 33 -155 33q-89 0 -139 -54t-50 -157v-260h547v228q0 166 87.5 263t260.5 97q194 0 354 -147l-67 -82q-67 56 -130.5 84t-141.5 28
q-238 0 -238 -243v-228h625z" />
    <glyph glyph-name="f_f_l" unicode="ffl" horiz-adv-x="1806" 
d="M1546 1468h101v-1468h-125v1290q-133 86 -275 86q-108 0 -166.5 -59.5t-58.5 -181.5v-230h287v-110h-287v-795h-125v795h-547v-795h-125v795h-188v110h188v260q0 142 76 235t221 93q114 0 211 -47l-39 -103q-75 33 -157 33q-88 0 -137.5 -54t-49.5 -157v-260h547v234
q0 158 85 256t251 98q170 0 299 -94z" />
    <glyph glyph-name=".notdef" horiz-adv-x="954" 
d="M782 1458v-1909h-604v1909h604zM635 1331h-313v-63h122v-72h-125v-61h316v61h-125v72h125v63zM510 1083h-191v-198h316v65h-125v133zM444 1020v-70h-63v70h63zM635 834h-316v-64h125v-70h-125v-63h191v133h125v64zM635 719h-62v-125h-254v-66h316v191zM635 487h-191v-108
h66v45h63v-90h-192v153h-62v-217h316v217zM635 156h-316v-215h316v215zM573 94v-90h-192v90h192zM635 -102h-316v-64h134l-134 -90v-63h316v63h-195l135 90h60v64z" />
    <glyph glyph-name=".null" 
 />
    <glyph glyph-name="nonmarkingreturn" horiz-adv-x="682" 
 />
    <glyph glyph-name="space" unicode=" " horiz-adv-x="466" 
 />
    <glyph glyph-name="exclam" unicode="!" horiz-adv-x="536" 
d="M207 332l-10 1061h145l-12 -1061h-123zM268 -20q-39 0 -67.5 25t-28.5 69q0 46 28.5 71t67.5 25q40 0 69.5 -25t29.5 -71q0 -45 -29.5 -69.5t-69.5 -24.5z" />
    <glyph glyph-name="quotedbl" unicode="&#x22;" horiz-adv-x="661" 
d="M109 985v408h137l-33 -408h-104zM416 985v408h135l-31 -408h-104z" />
    <glyph glyph-name="numbersign" unicode="#" horiz-adv-x="1067" 
d="M203 0l61 412h-196v108h211l45 307h-201v109h217l70 457h108l-67 -457h260l65 457h111l-66 -457h178v-109h-194l-47 -307h184v-108h-201l-59 -412h-111l62 412h-260l-62 -412h-108zM389 520h260l45 307h-260z" />
    <glyph glyph-name="dollar" unicode="$" horiz-adv-x="1136" 
d="M651 748q68 -27 118.5 -51.5t103 -61t86 -76.5t54.5 -95t21 -120q0 -147 -106 -246.5t-277 -113.5v-177h-135v179q-231 22 -407 166l75 96q145 -117 332 -139v553q-64 27 -109 48.5t-96 55.5t-82 70t-52 86.5t-21 109.5q0 143 100 233t260 105v176h135v-178
q172 -16 320 -121l-62 -108q-120 88 -258 106v-497zM289 1042q0 -81 59.5 -136.5t167.5 -102.5v446q-100 -11 -163.5 -62.5t-63.5 -144.5zM651 104q112 14 181 77t69 157q0 50 -18.5 91t-55.5 72.5t-77.5 54.5t-98.5 48v-500z" />
    <glyph glyph-name="percent" unicode="%" horiz-adv-x="1568" 
d="M395 807q-75 0 -134.5 27.5t-94 72.5t-52.5 97t-18 106t18 106t52.5 97t94 72.5t134.5 27.5q74 0 133.5 -27t94.5 -72t53 -97t18 -107q0 -54 -18 -106.5t-53 -97t-94.5 -72t-133.5 -27.5zM332 0l803 1393h114l-800 -1393h-117zM395 903q49 0 87.5 19t60.5 49.5t33.5 66
t11.5 72.5q0 81 -48.5 144t-144.5 63q-65 0 -110 -33t-63.5 -78t-18.5 -96t18.5 -96t63.5 -78t110 -33zM1174 -20q-75 0 -134.5 27.5t-94.5 72.5t-53 97t-18 106t18 106t53 97t94.5 72.5t134.5 27.5q74 0 133.5 -27t94.5 -72t53 -97t18 -107q0 -54 -18 -106.5t-53 -97
t-94.5 -72t-133.5 -27.5zM1174 76q65 0 110 33t63.5 78t18.5 96t-18.5 95.5t-63.5 77.5t-110 33t-110.5 -33t-64 -78t-18.5 -95q0 -37 11.5 -72.5t33.5 -66t60.5 -49.5t87.5 -19z" />
    <glyph glyph-name="ampersand" unicode="&#x26;" horiz-adv-x="1314" 
d="M524 -20q-190 0 -301.5 101t-111.5 243q0 125 77 237t230 195q-83 97 -122.5 172.5t-39.5 156.5q0 135 100.5 231.5t261.5 96.5q141 0 230.5 -85.5t89.5 -207.5q0 -64 -25.5 -122t-73.5 -106t-103.5 -87t-129.5 -78l344 -356q108 179 115 387h121q-2 -121 -40.5 -249.5
t-107.5 -232.5l250 -276h-153l-170 184q-81 -91 -195 -147.5t-246 -56.5zM526 817q65 35 108.5 63t86 65t63.5 79t21 90q0 74 -53 125t-140 51q-101 0 -162 -58.5t-61 -141.5q0 -65 32 -126.5t105 -146.5zM524 102q107 0 198 48t159 124l-383 394q-124 -62 -189 -153.5
t-65 -184.5q0 -95 76 -161.5t204 -66.5z" />
    <glyph glyph-name="quotesingle" unicode="'" horiz-adv-x="354" 
d="M109 985v408h137l-33 -408h-104z" />
    <glyph glyph-name="parenleft" unicode="(" horiz-adv-x="632" 
d="M475 -393q-143 171 -228 432.5t-85 546.5t85 546.5t228 432.5l82 -76q-127 -152 -200.5 -394t-73.5 -509t73.5 -509t200.5 -394z" />
    <glyph glyph-name="parenright" unicode=")" horiz-adv-x="632" 
d="M158 1565q143 -171 228 -432.5t85 -546.5t-85 -546.5t-228 -432.5l-80 76q126 152 199 394t73 509t-73 509t-199 394z" />
    <glyph glyph-name="asterisk" unicode="*" horiz-adv-x="745" 
d="M209 788l-76 58l182 217l-260 72l33 88l246 -90l-8 260h94l-8 -260l247 90l31 -88l-260 -72l180 -217l-73 -58l-164 232z" />
    <glyph glyph-name="plus" unicode="+" horiz-adv-x="1069" 
d="M475 313v328h-328v113h328v329h117v-329h328v-113h-328v-328h-117z" />
    <glyph glyph-name="comma" unicode="," horiz-adv-x="522" 
d="M260 170q43 0 70.5 -30.5t27.5 -94.5q0 -163 -143 -293l-41 39q50 54 75.5 97t31.5 94q-6 -2 -21 -2q-42 0 -69 26t-27 68q0 46 28.5 71t67.5 25z" />
    <glyph glyph-name="hyphen" unicode="-" horiz-adv-x="800" 
d="M137 414v108h525v-108h-525z" />
    <glyph glyph-name="period" unicode="." horiz-adv-x="520" 
d="M260 -20q-40 0 -68 24.5t-28 69.5q0 47 28 71.5t68 24.5q39 0 67.5 -25t28.5 -71q0 -44 -28.5 -69t-67.5 -25z" />
    <glyph glyph-name="slash" unicode="/" horiz-adv-x="808" 
d="M199 -20h-125l536 1433h125z" />
    <glyph glyph-name="zero" unicode="0" horiz-adv-x="1193" 
d="M596 -20q-222 0 -348.5 187.5t-126.5 510.5q0 321 126.5 508.5t348.5 187.5t349.5 -187.5t127.5 -508.5q0 -322 -127.5 -510t-349.5 -188zM596 104q160 0 251 155t91 419t-91 418.5t-251 154.5q-159 0 -249.5 -154.5t-90.5 -418.5t90.5 -419t249.5 -155z" />
    <glyph glyph-name="one" unicode="1" horiz-adv-x="694" 
d="M455 1374h34v-1374h-131v1092q0 48 4 73q-49 -31 -51 -32l-209 -132l-59 105z" />
    <glyph glyph-name="two" unicode="2" horiz-adv-x="954" 
d="M418 121h461v-121h-811v37l505 674q76 102 108 168.5t32 132.5q0 105 -63 172t-171 67q-161 0 -280 -166l-99 76q161 213 381 213q165 0 265 -99.5t100 -254.5q0 -94 -37.5 -176.5t-142.5 -222.5l-299 -394q-55 -72 -84 -108q45 2 135 2z" />
    <glyph glyph-name="three" unicode="3" horiz-adv-x="1069" 
d="M481 -20q-125 0 -233.5 56t-179.5 154l94 76q139 -162 319 -162q156 0 249 79.5t93 203.5q0 73 -29 127t-79 83.5t-106.5 43.5t-121.5 14h-174v123h156q139 0 212 72t73 170q0 100 -71 165.5t-189 65.5q-162 0 -301 -139l-82 78q156 184 387 184q176 0 284.5 -97.5
t108.5 -246.5q0 -92 -52 -177t-151 -128q134 -37 202 -134t68 -212q0 -173 -130 -286t-347 -113z" />
    <glyph glyph-name="four" unicode="4" horiz-adv-x="1064" 
d="M850 414h160v-119h-160v-295h-127v295h-684v33l776 1046h35v-960zM725 414v508q0 92 4 147q-12 -17 -41.5 -56t-44.5 -61l-317 -432q-46 -63 -84 -106h149h334z" />
    <glyph glyph-name="five" unicode="5" horiz-adv-x="985" 
d="M444 829q203 0 332 -110.5t129 -304.5q0 -193 -129.5 -315t-326.5 -122q-124 0 -224.5 49t-167.5 140l90 82q106 -146 310 -146q136 0 225.5 87t89.5 225q0 66 -20 118.5t-54 86t-81 55.5t-97.5 31.5t-107.5 9.5q-128 0 -240 -41l-22 22l86 658h624v-121h-516l-55 -420
q85 16 155 16z" />
    <glyph glyph-name="six" unicode="6" horiz-adv-x="1075" 
d="M571 838q83 0 156.5 -27t131 -78t91 -133t33.5 -184q0 -190 -118.5 -313t-307.5 -123q-139 0 -240 68t-149.5 181.5t-48.5 259.5v29q0 785 704 856l17 -119q-259 -21 -405.5 -163.5t-176.5 -389.5q108 136 313 136zM553 104q129 0 212 86t83 226q0 145 -82.5 224
t-210.5 79q-131 0 -216 -79.5t-85 -227.5q0 -131 82.5 -219.5t216.5 -88.5z" />
    <glyph glyph-name="seven" unicode="7" horiz-adv-x="897" 
d="M47 1354h811v-33l-524 -1321h-139l440 1106q15 39 53 127h-149h-492v121z" />
    <glyph glyph-name="eight" unicode="8" horiz-adv-x="1130" 
d="M565 -18q-207 0 -330.5 106t-123.5 287q0 131 72.5 224.5t191.5 123.5q-100 33 -161.5 108.5t-61.5 192.5q0 157 114.5 253.5t300.5 96.5q185 0 297.5 -96.5t112.5 -253.5q0 -112 -60.5 -189t-154.5 -112q107 -28 182.5 -124t75.5 -226q0 -181 -124 -286t-331 -105z
M567 784q125 0 201 65.5t76 172.5q0 101 -77 165t-200 64q-125 0 -203.5 -64t-78.5 -165q0 -111 77 -174.5t205 -63.5zM565 106q141 0 229.5 72.5t88.5 196.5q0 132 -87 208t-235 76q-140 0 -227.5 -78.5t-87.5 -205.5q0 -121 90 -195t229 -74z" />
    <glyph glyph-name="nine" unicode="9" horiz-adv-x="1083" 
d="M526 1374q144 0 245 -71t147.5 -186.5t46.5 -264.5q0 -188 -38.5 -335.5t-121 -263t-220 -185t-327.5 -88.5l-16 118q262 21 407.5 163t175.5 390q-107 -135 -313 -135q-83 0 -156.5 27t-131 78t-91 133t-33.5 184q0 190 118.5 313t307.5 123zM528 635q131 0 216 79.5
t85 225.5q0 132 -83 220.5t-218 88.5q-128 0 -210 -86t-82 -225q0 -145 82.5 -224t209.5 -79z" />
    <glyph glyph-name="colon" unicode=":" horiz-adv-x="520" 
d="M260 719q-40 0 -68 24.5t-28 71.5q0 46 28 70t68 24q39 0 67.5 -24t28.5 -70t-28.5 -71t-67.5 -25zM260 -20q-40 0 -68 24.5t-28 69.5q0 47 28 71.5t68 24.5q39 0 67.5 -25t28.5 -71q0 -44 -28.5 -69t-67.5 -25z" />
    <glyph glyph-name="semicolon" unicode=";" horiz-adv-x="522" 
d="M260 721q-40 0 -68 24.5t-28 71.5q0 45 28 69.5t68 24.5t68 -24.5t28 -69.5q0 -47 -28 -71.5t-68 -24.5zM260 170q43 0 70.5 -30t27.5 -93q0 -165 -143 -295l-41 39q50 55 75.5 97.5t29.5 93.5q-6 -2 -19 -2q-42 0 -69 26t-27 68q0 47 28 71.5t68 24.5z" />
    <glyph glyph-name="less" unicode="&#x3c;" horiz-adv-x="880" 
d="M754 356l-662 308v106l662 307v-127l-527 -233l527 -234v-127z" />
    <glyph glyph-name="equal" unicode="=" horiz-adv-x="1032" 
d="M152 831v113h729v-113h-729zM152 449v112h729v-112h-729z" />
    <glyph glyph-name="greater" unicode="&#x3e;" horiz-adv-x="880" 
d="M127 356v127l526 234l-526 233v127l661 -307v-106z" />
    <glyph glyph-name="question" unicode="?" horiz-adv-x="978" 
d="M356 334q-4 33 -4 90q0 61 11 114.5t25 89.5t43 77t47.5 62.5t56.5 61.5q5 5 26.5 28t26.5 28.5t22.5 25t22.5 26.5t18.5 25t17.5 27.5t12.5 26t11 29t5 29t2.5 32.5q0 76 -59 131t-164 55q-89 0 -154.5 -30.5t-125.5 -96.5l-82 92q80 82 166.5 119t201.5 37
q83 0 151 -26.5t111 -69.5t66 -95.5t23 -107.5q0 -68 -31.5 -135t-61.5 -103.5t-111 -124.5q-2 -3 -3.5 -4.5l-3.5 -3.5t-3.5 -4t-3.5 -4q-36 -38 -55 -62t-42 -64t-33.5 -86.5t-10.5 -104.5q0 -38 6 -84h-125zM422 -20q-39 0 -67.5 25t-28.5 69q0 46 28.5 71t67.5 25
q40 0 69 -25t29 -71q0 -45 -29 -69.5t-69 -24.5z" />
    <glyph glyph-name="at" unicode="@" horiz-adv-x="1722" 
d="M791 -295q-143 0 -267.5 51t-214 142t-141 222.5t-51.5 285.5q0 185 62.5 349t171.5 283t265 188.5t334 69.5q103 0 198.5 -25t179 -77t145.5 -127t97.5 -182t35.5 -234q0 -137 -37.5 -252t-118.5 -189.5t-193 -74.5q-66 0 -109.5 33.5t-57.5 89.5q-39 -64 -116 -103.5
t-171 -39.5q-132 0 -206.5 87.5t-74.5 215.5t51 233.5t151 169.5t232 64q74 0 132 -17.5t129 -60.5l-39 -434q-6 -68 17.5 -104t72.5 -36q77 0 131 62.5t77 152.5t23 195q0 113 -29.5 205.5t-80.5 156t-121.5 106.5t-151.5 63t-172 20q-152 0 -286 -61t-229.5 -165.5
t-150.5 -249.5t-55 -308q0 -272 160.5 -438.5t409.5 -166.5q147 0 311 66l41 -92q-178 -74 -354 -74zM815 209q103 0 174.5 71.5t89.5 198.5l27 271q-69 38 -160 38q-135 0 -223 -105t-88 -257q0 -93 48.5 -155t131.5 -62z" />
    <glyph glyph-name="A" unicode="A" horiz-adv-x="1396" 
d="M721 1403l647 -1399v-4h-141l-148 319h-762l-147 -319h-141v4l647 1399h45zM698 1165q-9 -21 -34.5 -86t-42.5 -100l-248 -537h649l-246 537q-33 67 -78 186z" />
    <glyph glyph-name="B" unicode="B" horiz-adv-x="1296" 
d="M954 737q105 -45 168.5 -139.5t63.5 -210.5q0 -171 -120 -279t-304 -108h-557v1393h520q168 0 282.5 -101.5t114.5 -259.5q0 -97 -45 -173t-123 -122zM340 1270v-484h381q126 0 197 64.5t71 181.5q0 108 -77 173t-195 65h-377zM756 123q130 0 212.5 74t82.5 198
q0 119 -80 194t-205 75h-426v-541h416z" />
    <glyph glyph-name="C" unicode="C" horiz-adv-x="1431" 
d="M823 -25q-154 0 -287 57.5t-224 155t-143 230t-52 280.5q0 204 89.5 368t251 257.5t365.5 93.5q161 0 286.5 -56t238.5 -171l-80 -82q-87 91 -194.5 137.5t-250.5 46.5q-165 0 -296 -77.5t-203 -213t-72 -303.5q0 -164 71.5 -300.5t203 -217t296.5 -80.5q142 0 258.5 62
t196.5 170l96 -76q-90 -130 -231.5 -205.5t-319.5 -75.5z" />
    <glyph glyph-name="D" unicode="D" horiz-adv-x="1478" 
d="M205 0v1393h446q156 0 289 -52.5t225.5 -144.5t144.5 -221.5t52 -280.5q0 -150 -51 -278.5t-142.5 -220t-224.5 -143.5t-291 -52h-448zM340 123h313q128 0 236.5 44t182.5 120t115.5 181t41.5 226q0 248 -160.5 412t-417.5 164h-311v-1147z" />
    <glyph glyph-name="E" unicode="E" horiz-adv-x="1144" 
d="M340 123h715v-123h-850v1393h831v-123h-696v-496h612v-121h-612v-530z" />
    <glyph glyph-name="F" unicode="F" horiz-adv-x="1116" 
d="M205 0v1393h837v-123h-702v-531h631v-123h-631v-616h-135z" />
    <glyph glyph-name="G" unicode="G" horiz-adv-x="1507" 
d="M821 739h570v-493q-95 -131 -240 -201t-320 -70q-205 0 -368.5 94t-254.5 259t-91 370q0 148 50 279t140 228.5t224 154.5t292 57q316 0 529 -239l-88 -84q-180 198 -441 198q-171 0 -302 -78.5t-200 -213t-69 -302.5q0 -171 72.5 -307t207.5 -213.5t310 -77.5
q130 0 237.5 47.5t182.5 137.5v331h-441v123z" />
    <glyph glyph-name="H" unicode="H" horiz-adv-x="1523" 
d="M205 0v1393h135v-629h846v629h133v-1393h-133v641h-846v-641h-135z" />
    <glyph glyph-name="I" unicode="I" horiz-adv-x="544" 
d="M205 0v1393h135v-1393h-135z" />
    <glyph glyph-name="J" unicode="J" horiz-adv-x="1038" 
d="M418 -25q-208 0 -381 127l67 109q137 -111 314 -111q143 0 220 86t77 248v959h133v-961q0 -222 -110.5 -339.5t-319.5 -117.5z" />
    <glyph glyph-name="K" unicode="K" horiz-adv-x="1193" 
d="M475 700l699 -694v-6h-170l-664 657v-657h-135v1393h135v-658l629 658h166v-7z" />
    <glyph glyph-name="L" unicode="L" horiz-adv-x="1073" 
d="M205 0v1393h135v-1270h672v-123h-807z" />
    <glyph glyph-name="M" unicode="M" horiz-adv-x="1765" 
d="M1446 1405l199 -1405h-132l-135 961q-12 85 -14 137q-60 -101 -76 -125l-389 -629h-31l-391 633q-14 21 -40.5 65.5t-30.5 51.5q-1 -8 -19 -133l-133 -961h-133l198 1405h41l437 -709q47 -72 86 -147q35 66 86 149l438 707h39z" />
    <glyph glyph-name="N" unicode="N" horiz-adv-x="1564" 
d="M1225 1393h135v-1403h-60l-866 1020q-32 39 -100 114q6 -65 6 -133v-991h-135v1403h57l864 -1016q73 -82 103 -117q-4 51 -4 146v977z" />
    <glyph glyph-name="O" unicode="O" horiz-adv-x="1644" 
d="M821 -25q-201 0 -363.5 98t-251.5 263t-89 362q0 205 89.5 369t250.5 257t364 93q206 0 367.5 -93t250.5 -257t89 -369q0 -198 -88.5 -362.5t-251.5 -262.5t-367 -98zM821 100q125 0 233 47t182 128t115.5 190.5t41.5 232.5q0 171 -71 306t-202 211.5t-299 76.5
q-166 0 -296.5 -76.5t-201.5 -211.5t-71 -306q0 -164 71 -300.5t202 -217t296 -80.5z" />
    <glyph glyph-name="P" unicode="P" horiz-adv-x="1224" 
d="M205 0v1393h514q105 0 190.5 -38t138 -100t81 -136t28.5 -150t-27.5 -147t-80 -131t-140.5 -96t-198 -36h-371v-559h-135zM340 682h369q150 0 231.5 85t81.5 204q0 124 -85.5 211.5t-219.5 87.5h-377v-588z" />
    <glyph glyph-name="Q" unicode="Q" horiz-adv-x="1644" 
d="M1528 698q0 -180 -75 -334t-208 -253l279 -199l-70 -102l-328 231q-138 -66 -305 -66q-201 0 -363.5 98t-251.5 263t-89 362q0 205 89.5 369t250.5 257t364 93q206 0 367.5 -93t250.5 -257t89 -369zM252 698q0 -164 71 -300.5t202 -217t296 -80.5q125 0 233 47t182 128
t115.5 190.5t41.5 232.5q0 171 -71 306t-202 211.5t-299 76.5q-166 0 -296.5 -76.5t-201.5 -211.5t-71 -306z" />
    <glyph glyph-name="R" unicode="R" horiz-adv-x="1280" 
d="M805 584l397 -578v-6h-155l-392 578h-315v-578h-135v1393h526q186 0 315.5 -118.5t129.5 -291.5q0 -157 -100.5 -265t-270.5 -134zM340 700h385q145 0 230 77.5t85 203.5q0 123 -87 206t-222 83h-391v-570z" />
    <glyph glyph-name="S" unicode="S" horiz-adv-x="1161" 
d="M596 -25q-137 0 -262 45.5t-217 122.5l69 107q79 -71 185 -110.5t225 -39.5q137 0 231.5 69t94.5 189q0 50 -19 92t-47.5 71t-77.5 56.5t-91.5 45t-106.5 39.5q-71 25 -124 48t-113 59.5t-98 76.5t-63.5 98t-25.5 125q0 106 60 186.5t156 121t210 40.5q233 0 422 -139
l-62 -102q-164 116 -354 116q-121 0 -208 -57t-87 -160q0 -35 10.5 -66.5t26 -55t44 -46t52 -37.5t64 -32.5t67 -27.5t72.5 -26q77 -28 133.5 -52.5t115.5 -62t95.5 -79t60 -99t23.5 -126.5q0 -178 -131.5 -284t-329.5 -106z" />
    <glyph glyph-name="T" unicode="T" horiz-adv-x="1085" 
d="M1038 1393v-123h-428v-1270h-135v1270h-428v123h991z" />
    <glyph glyph-name="U" unicode="U" horiz-adv-x="1441" 
d="M723 -25q-150 0 -269.5 56t-192.5 171.5t-73 274.5v916h136v-914q0 -187 108 -284t291 -97q180 0 287.5 97.5t107.5 283.5v914h135v-916q0 -159 -72.5 -274.5t-191 -171.5t-266.5 -56z" />
    <glyph glyph-name="V" unicode="V" horiz-adv-x="1396" 
d="M1223 1393h145v-4l-647 -1399h-45l-647 1399v4h141l453 -983q54 -116 75 -177q24 69 78 183z" />
    <glyph glyph-name="W" unicode="W" horiz-adv-x="1974" 
d="M1790 1393h139v-7l-481 -1396h-41l-367 903q-24 56 -55 158q-32 -109 -53 -158l-367 -903h-41l-479 1396v7h139l308 -912q58 -182 65 -211q32 111 72 209l336 840h39l323 -799q48 -119 90 -252q48 157 76 238z" />
    <glyph glyph-name="X" unicode="X" horiz-adv-x="1265" 
d="M41 0v4l514 719l-471 666v4h156l258 -363q75 -105 137 -207q67 108 137 211l254 359h154v-4l-469 -666l514 -719v-4h-156l-299 424q-91 128 -135 201q-62 -98 -137 -203l-301 -422h-156z" />
    <glyph glyph-name="Y" unicode="Y" horiz-adv-x="1280" 
d="M1077 1393h156v-7l-526 -761v-625h-134v625l-526 761v7h156l317 -463q75 -109 121 -193q50 92 119 193z" />
    <glyph glyph-name="Z" unicode="Z" horiz-adv-x="1173" 
d="M90 0v41l696 1094q2 3 35 56t53 81q-47 -2 -143 -2h-606v123h946v-41l-700 -1104q-80 -121 -84 -127q47 2 129 2h676v-123h-1002z" />
    <glyph glyph-name="bracketleft" unicode="[" horiz-adv-x="544" 
d="M160 -383v1937h313v-108h-194v-1720h194v-109h-313z" />
    <glyph glyph-name="backslash" unicode="\" horiz-adv-x="808" 
d="M610 -20l-536 1433h125l536 -1433h-125z" />
    <glyph glyph-name="bracketright" unicode="]" horiz-adv-x="544" 
d="M385 -383h-313v109h194v1720h-194v108h313v-1937z" />
    <glyph glyph-name="asciicircum" unicode="^" horiz-adv-x="948" 
d="M96 721l326 672h94l336 -672h-125l-258 530l-248 -530h-125z" />
    <glyph glyph-name="underscore" unicode="_" horiz-adv-x="1017" 
d="M106 -154v103h803v-103h-803z" />
    <glyph glyph-name="grave" unicode="`" horiz-adv-x="516" 
d="M379 1100l-291 207l86 98l268 -231z" />
    <glyph glyph-name="a" unicode="a" horiz-adv-x="980" 
d="M489 915q159 0 252 -81t93 -232v-602h-93l-22 164q-51 -85 -138 -132.5t-204 -47.5q-133 0 -211 67.5t-78 184.5q0 149 124.5 234t328.5 85q103 0 166 -8v61q0 93 -61.5 142t-168.5 49q-137 0 -299 -76l-43 106q186 86 354 86zM397 100q139 0 222 93t88 249q-74 9 -148 9
q-161 0 -250.5 -54t-89.5 -153q0 -68 47 -106t131 -38z" />
    <glyph glyph-name="b" unicode="b" horiz-adv-x="1179" 
d="M631 924q199 0 326.5 -132.5t127.5 -334.5q0 -208 -127 -342.5t-327 -134.5q-114 0 -206.5 47t-150.5 131l-18 -158h-96v1468h125v-471q0 -89 -4 -249q56 83 148 129.5t202 46.5zM623 98q150 0 244 99.5t94 255.5t-94 255t-244 99q-153 0 -248.5 -99.5t-95.5 -254.5
q0 -156 94.5 -255.5t249.5 -99.5z" />
    <glyph glyph-name="c" unicode="c" horiz-adv-x="942" 
d="M545 -23q-68 0 -133 19.5t-123 59.5t-101 96t-68.5 134t-25.5 169q0 109 37.5 199t101.5 149t147.5 91t176.5 32q186 0 324 -123l-72 -86q-57 48 -115.5 70t-136.5 22q-144 0 -240 -98.5t-96 -255.5q0 -160 95.5 -260.5t238.5 -100.5q88 0 149.5 26.5t120.5 82.5l70 -90
q-74 -69 -155 -102.5t-195 -33.5z" />
    <glyph glyph-name="d" unicode="d" horiz-adv-x="1179" 
d="M895 1468h125v-1468h-96l-19 162q-57 -86 -148 -134t-208 -48q-200 0 -327.5 134.5t-127.5 342.5q0 202 128 334.5t327 132.5q109 0 201.5 -46t148.5 -126q-4 156 -4 245v471zM557 98q155 0 248.5 99.5t93.5 255.5q0 155 -94.5 254.5t-247.5 99.5q-150 0 -244 -99
t-94 -255t94 -255.5t244 -99.5z" />
    <glyph glyph-name="e" unicode="e" horiz-adv-x="1034" 
d="M551 928q187 0 294 -119.5t107 -319.5q0 -41 -6 -88h-725q15 -141 110.5 -224t227.5 -83q92 0 157 27.5t120 83.5l71 -90q-144 -138 -346 -138q-206 0 -336.5 133.5t-130.5 344.5q0 199 129.5 336t327.5 137zM549 811q-126 0 -215.5 -82t-108.5 -217h604
q-3 143 -78.5 221t-201.5 78z" />
    <glyph glyph-name="f" unicode="f" horiz-adv-x="671" 
d="M225 0v795h-188v110h188v260q0 142 74.5 235t218.5 93q124 0 234 -80l-58 -90q-77 53 -162 53t-133.5 -54.5t-48.5 -156.5v-260h297v-110h-297v-795h-125z" />
    <glyph glyph-name="g" unicode="g" horiz-adv-x="1179" 
d="M928 905h92v-964q0 -101 -36 -181.5t-98 -130t-141.5 -75t-171.5 -25.5q-244 0 -409 162l78 88q136 -133 325 -133q145 0 236.5 76t91.5 221q0 136 2 204q-61 -80 -153 -121.5t-195 -41.5q-204 0 -329.5 135t-125.5 334q0 200 123.5 335.5t325.5 135.5q112 0 204.5 -43
t151.5 -125zM555 100q163 0 253.5 101t90.5 252t-89 252.5t-253 101.5q-155 0 -245.5 -99.5t-90.5 -252.5q0 -154 91.5 -254.5t242.5 -100.5z" />
    <glyph glyph-name="h" unicode="h" horiz-adv-x="1069" 
d="M596 924q162 0 244 -97t82 -274v-553h-125v557q0 250 -213 250q-140 0 -219.5 -103.5t-79.5 -257.5v-446h-125v1468h125v-585q0 -89 -2 -142q44 84 123 133.5t190 49.5z" />
    <glyph glyph-name="i" unicode="i" horiz-adv-x="444" 
d="M223 1143q-42 0 -68 26t-26 64q0 40 26 67t68 27t68 -27t26 -67q0 -39 -26.5 -64.5t-67.5 -25.5zM160 0v905h125v-905h-125z" />
    <glyph glyph-name="j" unicode="j" horiz-adv-x="450" 
d="M229 1143q-40 0 -66 26t-26 64q0 40 25.5 67t66.5 27q43 0 69 -27t26 -69q0 -37 -27 -62.5t-68 -25.5zM-63 -471l-17 111q77 6 125.5 25.5t75.5 58t37 88.5t10 127v966h125v-960q0 -105 -16.5 -177t-57 -125.5t-109.5 -80.5t-173 -33z" />
    <glyph glyph-name="k" unicode="k" horiz-adv-x="888" 
d="M397 467l471 -457v-10h-155l-428 420v-420h-125v1468h125v-960l391 397h151v-6z" />
    <glyph glyph-name="l" unicode="l" horiz-adv-x="446" 
d="M162 0l-2 1468h125l2 -1468h-125z" />
    <glyph glyph-name="m" unicode="m" horiz-adv-x="1638" 
d="M1174 924q153 0 235 -95t82 -262v-567h-125v573q0 109 -53 171.5t-148 62.5q-129 0 -202.5 -99.5t-73.5 -236.5v-471h-125v575q0 100 -51.5 166t-149.5 66q-88 0 -153 -49.5t-95 -124t-30 -162.5v-471h-125v905h94l29 -155q44 84 120.5 129t174.5 45q102 0 175 -48
t105 -135q46 86 125.5 134.5t190.5 48.5z" />
    <glyph glyph-name="n" unicode="n" horiz-adv-x="1069" 
d="M600 924q157 0 239.5 -96.5t82.5 -274.5v-553h-125v555q0 252 -209 252q-136 0 -219.5 -89t-83.5 -231v-487h-125v905h94l29 -153q42 76 124.5 124t192.5 48z" />
    <glyph glyph-name="o" unicode="o" horiz-adv-x="1126" 
d="M561 -23q-204 0 -335.5 133.5t-131.5 342.5t131.5 342t335.5 133q207 0 339 -133t132 -342t-132 -342.5t-339 -133.5zM561 94q152 0 248 100.5t96 258.5t-95.5 258t-248.5 100q-150 0 -245 -100.5t-95 -257.5q0 -158 94.5 -258.5t245.5 -100.5z" />
    <glyph glyph-name="p" unicode="p" horiz-adv-x="1177" 
d="M635 924q193 0 319.5 -132t126.5 -335q0 -209 -126.5 -343t-321.5 -134q-110 0 -201.5 45.5t-150.5 124.5q4 -140 4 -244v-357h-125v1356h94l27 -151q60 80 150.5 125t203.5 45zM625 96q146 0 238.5 99.5t92.5 255.5q0 157 -92.5 256.5t-238.5 99.5q-153 0 -249.5 -97.5
t-96.5 -252.5q0 -160 97 -260.5t249 -100.5z" />
    <glyph glyph-name="q" unicode="q" horiz-adv-x="1177" 
d="M924 905h94v-1356h-125v357q0 110 4 254q-56 -85 -148 -132.5t-204 -47.5q-198 0 -324.5 134t-126.5 343q0 203 127 335t322 132q227 0 352 -174zM553 96q151 0 247.5 100t96.5 261q0 155 -96 252.5t-248 97.5q-146 0 -239 -99.5t-93 -256.5q0 -156 93 -255.5t239 -99.5z
" />
    <glyph glyph-name="r" unicode="r" horiz-adv-x="716" 
d="M543 924q76 0 147 -31l-37 -111q-67 23 -121 23q-112 0 -179.5 -75.5t-67.5 -205.5v-524h-125v905h94l25 -133q82 152 264 152z" />
    <glyph glyph-name="s" unicode="s" horiz-adv-x="811" 
d="M418 -16q-185 0 -330 100l64 98q115 -82 266 -82q83 0 132.5 38t49.5 100q0 59 -53.5 97.5t-155.5 78.5q-62 24 -105.5 47t-83.5 55.5t-60.5 75t-20.5 94.5q0 109 85 169t208 60q149 0 274 -81l-55 -91q-103 58 -213 58q-76 0 -125 -28t-49 -87q0 -56 47.5 -91.5
t142.5 -72.5q68 -25 115.5 -49.5t89.5 -58t63 -77.5t21 -99q0 -113 -86 -183.5t-221 -70.5z" />
    <glyph glyph-name="t" unicode="t" horiz-adv-x="735" 
d="M463 -16q-114 0 -177 68t-63 204v539l-176 8v102h176v301h125v-301h324v-110h-324v-539q0 -83 32 -118.5t95 -35.5q92 0 178 62l56 -94q-115 -86 -246 -86z" />
    <glyph glyph-name="u" unicode="u" horiz-adv-x="1062" 
d="M778 905h125v-905h-96l-25 158q-43 -78 -120.5 -126t-184.5 -48q-164 0 -247 99t-83 271v551h125v-553q0 -252 220 -252q131 0 208.5 102.5t77.5 252.5v450z" />
    <glyph glyph-name="v" unicode="v" horiz-adv-x="950" 
d="M784 905h136v-4l-422 -911h-45l-424 911v4h135l262 -579q33 -75 49 -129q16 54 49 129z" />
    <glyph glyph-name="w" unicode="w" horiz-adv-x="1361" 
d="M1192 905h127v-4l-318 -911h-38l-281 626l-285 -626h-37l-317 911v4h127l188 -543q30 -99 35 -116q10 32 45 112l228 498h30l226 -496q30 -61 47 -114q20 72 37 119z" />
    <glyph glyph-name="x" unicode="x" horiz-adv-x="921" 
d="M53 0v4l336 473l-303 424v4h143l160 -227q32 -42 72 -111q33 55 74 113l161 225h140v-4l-304 -424l336 -473v-4h-143l-186 264q-37 50 -78 121q-56 -91 -80 -123l-188 -262h-140z" />
    <glyph glyph-name="y" unicode="y" horiz-adv-x="944" 
d="M786 905h129v-4l-557 -1352h-131v5l201 469l-395 878v4h131l260 -579q43 -100 65 -168q16 52 62 168z" />
    <glyph glyph-name="z" unicode="z" horiz-adv-x="849" 
d="M420 115h346v-115h-678v39l426 661l59 93q-51 -2 -110 -2h-352v114h649v-37l-402 -620q-32 -53 -88 -133h150z" />
    <glyph glyph-name="braceleft" unicode="{" horiz-adv-x="645" 
d="M573 -389q-156 -6 -222 59t-66 207v459q0 99 -34 146.5t-132 47.5v111q97 0 131.5 48t34.5 147v458q0 142 66 207.5t222 59.5v-111q-101 4 -135.5 -30t-34.5 -126v-471q0 -182 -137 -237q137 -55 137 -238v-471q0 -92 34.5 -126t135.5 -30v-110z" />
    <glyph glyph-name="bar" unicode="|" horiz-adv-x="473" 
d="M176 -340v1853h123v-1853h-123z" />
    <glyph glyph-name="braceright" unicode="}" horiz-adv-x="645" 
d="M72 -389v110q102 -4 137 30t35 126v471q0 184 135 238q-135 54 -135 237v471q0 92 -35 126t-137 30v111q156 6 222 -59.5t66 -207.5v-458q0 -99 34.5 -147t131.5 -48v-111q-98 0 -132 -47.5t-34 -146.5v-459q0 -142 -66 -207t-222 -59z" />
    <glyph glyph-name="asciitilde" unicode="~" horiz-adv-x="1169" 
d="M244 586l-92 55q40 88 97 136t150 48t207 -73q41 -28 61.5 -40.5t52.5 -25t60 -12.5q92 0 140 137l98 -51q-35 -92 -91 -144.5t-147 -52.5q-90 0 -200 74q-45 27 -63 37.5t-53.5 23.5t-64.5 13q-62 0 -95.5 -30.5t-59.5 -94.5z" />
    <glyph glyph-name="uni00A0" unicode="&#xa0;" horiz-adv-x="466" 
 />
    <glyph glyph-name="exclamdown" unicode="&#xa1;" horiz-adv-x="530" 
d="M264 840q40 0 69 -25t29 -70q0 -47 -29 -71.5t-69 -24.5q-39 0 -67.5 25t-28.5 71q0 45 29 70t67 25zM205 487h121l14 -1060h-147z" />
    <glyph glyph-name="cent" unicode="&#xa2;" horiz-adv-x="958" 
d="M881 309q-111 -134 -289 -153v-168h-107v170q-166 19 -272.5 142.5t-106.5 313.5q0 192 107 318t272 145v172h107v-170q162 -18 270 -147l-84 -78q-90 113 -235 113q-133 0 -221.5 -96.5t-88.5 -256.5q0 -154 87.5 -249t222.5 -95q82 0 142 29.5t116 91.5z" />
    <glyph glyph-name="sterling" unicode="&#xa3;" horiz-adv-x="989" 
d="M289 123h635v-123h-820l-24 59q126 121 200 256.5t74 249.5q0 17 -2 25h-221v115h186q-12 25 -40.5 73t-45.5 80.5t-32 84.5t-15 106q0 141 105 232t258 91q190 0 330 -125l-76 -88q-104 90 -242 90q-105 0 -173.5 -57.5t-68.5 -149.5q0 -54 23.5 -109t61.5 -119.5
t55 -108.5h307v-115h-283q2 -10 2 -29q0 -111 -53.5 -225t-140.5 -213z" />
    <glyph glyph-name="currency" unicode="&#xa4;" horiz-adv-x="1081" 
d="M174 283l-65 67l129 131q-70 98 -70 236q0 137 70 235l-129 131l65 68l129 -129q98 82 238 82q139 0 237 -82l129 129l66 -68l-129 -131q71 -99 71 -235q0 -137 -71 -236l129 -131l-66 -67l-129 129q-100 -84 -237 -84q-138 0 -238 84zM541 434q116 0 188 79.5t72 203.5
t-72 203t-188 79q-117 0 -188.5 -79t-71.5 -203t71.5 -203.5t188.5 -79.5z" />
    <glyph glyph-name="yen" unicode="&#xa5;" horiz-adv-x="1222" 
d="M543 0v352h-332v109h332v131h-332v110h281l-449 652h150l417 -623l420 623h150l-451 -652h283v-110h-334v-131h334v-109h-334v-352h-135z" />
    <glyph glyph-name="brokenbar" unicode="&#xa6;" horiz-adv-x="473" 
d="M176 723v790h123v-790h-123zM176 -340v827h123v-827h-123z" />
    <glyph glyph-name="section" unicode="&#xa7;" horiz-adv-x="1081" 
d="M530 -102q-221 0 -374 135l69 94q126 -117 307 -117q242 0 242 185q0 34 -14 63t-34.5 50.5t-56 42t-67.5 34t-80 31.5q-160 60 -220 93q-165 91 -165 228q0 69 37 127t102 90q-81 72 -81 185q0 133 98.5 203.5t245.5 70.5q175 0 321 -96l-55 -90q-116 78 -262 78
q-104 0 -168 -42.5t-64 -121.5q0 -38 19.5 -69.5t59 -57t76.5 -43t95 -39.5q48 -18 82.5 -33t83.5 -39t83 -49.5t66.5 -57t49 -70.5t16.5 -81q0 -64 -33 -120.5t-92 -96.5q78 -78 78 -186q0 -145 -100 -223t-265 -78zM741 442q84 54 84 144q0 35 -19 67t-46 54t-68 43.5
t-74 35t-76 29.5q-15 5 -22 8q-124 52 -162 72q-46 -26 -75 -64.5t-29 -80.5q0 -40 27 -75t74 -61.5t89 -44t93 -36.5q18 -6 26 -9q114 -43 178 -82z" />
    <glyph glyph-name="dieresis" unicode="&#xa8;" horiz-adv-x="782" 
d="M219 1149q-40 0 -65 25.5t-25 60.5q0 37 24 64.5t66 27.5q41 0 65.5 -26.5t24.5 -61.5t-24 -62.5t-66 -27.5zM571 1149q-40 0 -64 26.5t-24 61.5t24 62.5t64 27.5q42 0 66.5 -27.5t24.5 -62.5q0 -34 -25 -61t-66 -27z" />
    <glyph glyph-name="copyright" unicode="&#xa9;" horiz-adv-x="1617" 
d="M809 -6q-153 0 -283.5 55t-219.5 149.5t-139 223t-50 274.5t50 274.5t139 223t219.5 149t283.5 54.5t283.5 -54.5t219.5 -149t139 -223t50 -274.5t-50 -274.5t-139 -223t-219.5 -149.5t-283.5 -55zM809 102q174 0 308 78.5t205 213t71 302.5t-71 302t-205 212t-308 78
q-172 0 -306 -78t-206 -212.5t-72 -301.5t72 -302t206 -213.5t306 -78.5zM838 322q-70 0 -134.5 23.5t-117 68t-84 117.5t-31.5 165q0 115 51 201.5t132.5 129t179.5 42.5q150 0 251 -104l-57 -68q-85 76 -197 76q-113 0 -184.5 -77t-71.5 -200q0 -125 74 -200.5t189 -75.5
q117 0 204 90l58 -72q-107 -116 -262 -116z" />
    <glyph glyph-name="ordfeminine" unicode="&#xaa;" horiz-adv-x="643" 
d="M264 920q-69 0 -111 39.5t-42 107.5q0 83 72.5 126.5t174.5 43.5q34 0 68 -6v49q0 44 -28 67t-79 23q-80 0 -151 -41l-35 74q91 51 189 51q85 0 137.5 -43t52.5 -131v-348h-63l-17 76q-20 -35 -64.5 -61.5t-103.5 -26.5zM283 995q62 0 102.5 46t40.5 118q-27 6 -61 6
q-67 0 -116.5 -24t-49.5 -74q0 -72 84 -72zM117 717v82h395v-82h-395z" />
    <glyph glyph-name="guillemotleft" unicode="&#xab;" horiz-adv-x="817" 
d="M322 104l-248 398l243 385l93 -53l-191 -332l195 -344zM616 104l-247 398l243 385l93 -53l-191 -332l195 -344z" />
    <glyph glyph-name="logicalnot" unicode="&#xac;" horiz-adv-x="1112" 
d="M856 401v297h-717v111h830v-408h-113z" />
    <glyph glyph-name="registered" unicode="&#xae;" horiz-adv-x="1138" 
d="M569 485q-194 0 -323 132t-129 331q0 196 129 327.5t323 131.5t323.5 -131.5t129.5 -327.5q0 -199 -129.5 -331t-323.5 -132zM569 571q157 0 262 107.5t105 269.5q0 158 -105 264.5t-262 106.5q-155 0 -259.5 -106.5t-104.5 -264.5q0 -162 104 -269.5t260 -107.5z
M418 729v445h188q61 0 101.5 -37.5t40.5 -94.5q0 -53 -33.5 -88t-85.5 -41l131 -184h-80l-127 184h-70v-184h-65zM483 973h117q37 0 59.5 19t22.5 50t-23 51.5t-59 20.5h-117v-141z" />
    <glyph glyph-name="macron" unicode="&#xaf;" horiz-adv-x="776" 
d="M129 1147v108h526v-108h-526z" />
    <glyph glyph-name="degree" unicode="&#xb0;" horiz-adv-x="737" 
d="M369 874q-116 0 -197.5 71t-81.5 198t81.5 197.5t197.5 70.5t197 -70.5t81 -197.5t-81 -198t-197 -71zM369 969q72 0 120 46t48 128t-48 128t-120 46t-120 -46t-48 -128t48 -128t120 -46z" />
    <glyph glyph-name="plusminus" unicode="&#xb1;" horiz-adv-x="999" 
d="M442 500v297h-295v112h295v295h117v-295h293v-112h-293v-297h-117zM147 223v111h705v-111h-705z" />
    <glyph glyph-name="acute" unicode="&#xb4;" horiz-adv-x="546" 
d="M164 1100l-64 74l271 231l82 -96z" />
    <glyph glyph-name="uni00B5" unicode="&#xb5;" horiz-adv-x="1077" 
d="M793 905h125v-905h-105l-18 166q-95 -176 -291 -176q-160 0 -230 108q9 -175 9 -366v-170h-123v1343h125v-495q0 -304 225 -304q90 0 156 52t96.5 131t30.5 172v444z" />
    <glyph glyph-name="paragraph" unicode="&#xb6;" horiz-adv-x="1228" 
d="M471 -186v825q-173 1 -277 106t-104 271q0 167 104 272t277 105h553v-1579h-123v1468h-307v-1468h-123z" />
    <glyph glyph-name="periodcentered" unicode="&#xb7;" horiz-adv-x="520" 
d="M260 623q-40 0 -68 24t-28 70t28 70t68 24q39 0 67.5 -24t28.5 -70t-28.5 -70t-67.5 -24z" />
    <glyph glyph-name="cedilla" unicode="&#xb8;" horiz-adv-x="593" 
d="M297 -432q-115 0 -201 53l43 80q65 -43 148 -43q51 0 81.5 19.5t30.5 58.5q0 36 -32.5 58.5t-76 29.5t-97.5 6l71 164h101l-46 -105q83 -8 134 -49t51 -110q0 -75 -58 -118.5t-149 -43.5z" />
    <glyph glyph-name="ordmasculine" unicode="&#xba;" horiz-adv-x="663" 
d="M332 924q-109 0 -165 78t-56 188q0 109 56 186.5t165 77.5q110 0 165.5 -77.5t55.5 -186.5q0 -52 -12.5 -98t-38 -84.5t-69.5 -61t-101 -22.5zM332 1010q64 0 97.5 55t33.5 125q0 71 -33.5 125.5t-97.5 54.5q-44 0 -74.5 -29t-42.5 -68t-12 -83q0 -71 32 -125.5t97 -54.5
zM139 717v82h393v-82h-393z" />
    <glyph glyph-name="guillemotright" unicode="&#xbb;" horiz-adv-x="817" 
d="M199 104l-93 54l197 344l-192 332l92 53l243 -385zM494 104l-93 54l197 344l-192 332l92 53l243 -385z" />
    <glyph glyph-name="onequarter" unicode="&#xbc;" horiz-adv-x="1290" 
d="M213 813v412l-88 -84l-59 59l213 203h20v-590h-86zM180 0l723 1393h101l-721 -1393h-103zM1014 0v106h-287v19l354 465h21v-406h78v-78h-78v-106h-88zM870 184h146v195z" />
    <glyph glyph-name="onehalf" unicode="&#xbd;" horiz-adv-x="1329" 
d="M213 813v412l-88 -84l-59 59l213 203h20v-590h-86zM903 1393h101l-721 -1393h-103zM1012 82h225v-82h-385v18l223 297q51 67 51 119q0 38 -21.5 61t-62.5 23q-61 0 -102 -78l-72 33q20 60 66.5 93.5t109.5 33.5q76 0 124.5 -47.5t48.5 -118.5q0 -82 -66 -170z" />
    <glyph glyph-name="threequarters" unicode="&#xbe;" horiz-adv-x="1462" 
d="M287 793q-121 0 -185 73l54 60q49 -52 129 -52q56 0 88.5 29.5t32.5 77.5q0 50 -34 73t-85 23h-72v80h61q45 0 74 23t29 65q0 38 -26.5 61t-63.5 23q-66 0 -105 -39l-59 58q68 65 170 65q67 0 119.5 -43.5t52.5 -112.5q0 -94 -80 -135q46 -12 77.5 -53t31.5 -92
q0 -85 -57.5 -134.5t-151.5 -49.5zM352 0l723 1393h101l-721 -1393h-103zM1186 0v106h-287v19l354 465h21v-406h78v-78h-78v-106h-88zM1042 184h146v195z" />
    <glyph glyph-name="questiondown" unicode="&#xbf;" horiz-adv-x="862" 
d="M508 840q38 0 67 -25t29 -70q0 -46 -28.5 -71t-67.5 -25q-40 0 -69 24.5t-29 71.5q0 45 29 70t69 25zM573 485q5 -41 5 -90q0 -61 -11 -114.5t-25 -89.5t-43 -77t-47.5 -62.5t-56.5 -61.5q-5 -5 -29.5 -31t-29.5 -31.5t-24.5 -27.5t-24.5 -30t-18.5 -27.5t-17.5 -31
t-11 -29.5t-9 -34.5t-2 -34.5q0 -76 59.5 -131t164.5 -55q89 0 154.5 30.5t125.5 96.5l82 -92q-80 -82 -167 -119t-202 -37q-83 0 -151 26.5t-110.5 69.5t-65.5 95.5t-23 107.5q0 32 6.5 62.5t13 53t27 55t30.5 48t43 53l44 50t53 57.5q36 39 55 62.5t42.5 63.5t34 86.5
t10.5 104.5q0 37 -6 84h124z" />
    <glyph glyph-name="Agrave" unicode="&#xc0;" horiz-adv-x="1396" 
d="M770 1563l-291 204l86 99l269 -232zM721 1403l647 -1399v-4h-141l-148 319h-762l-147 -319h-141v4l647 1399h45zM698 1165q-9 -21 -34.5 -86t-42.5 -100l-248 -537h649l-246 537q-33 67 -78 186z" />
    <glyph glyph-name="Aacute" unicode="&#xc1;" horiz-adv-x="1396" 
d="M877 1769l-289 -206l-64 71l271 232zM721 1403l647 -1399v-4h-141l-148 319h-762l-147 -319h-141v4l647 1399h45zM698 1165q-46 -116 -77 -186l-246 -537h649l-248 537q-40 91 -78 186z" />
    <glyph glyph-name="Acircumflex" unicode="&#xc2;" horiz-adv-x="1396" 
d="M471 1540l-55 72l266 209h29l264 -211l-53 -70l-224 156zM721 1403l647 -1399v-4h-141l-148 319h-762l-147 -319h-141v4l647 1399h45zM698 1165q-9 -21 -34.5 -86t-42.5 -100l-248 -537h649l-246 537q-33 67 -78 186z" />
    <glyph glyph-name="Atilde" unicode="&#xc3;" horiz-adv-x="1396" 
d="M506 1591l-88 51q56 144 160 144q58 0 143 -43q68 -33 90 -33q50 0 78 72l88 -49q-55 -140 -158 -140q-58 0 -129 39q-68 35 -100 35q-56 0 -84 -76zM721 1403l647 -1399v-4h-141l-148 319h-762l-147 -319h-141v4l647 1399h45zM698 1165q-9 -21 -34.5 -86t-42.5 -100
l-248 -537h649l-246 537q-33 67 -78 186z" />
    <glyph glyph-name="Adieresis" unicode="&#xc4;" horiz-adv-x="1396" 
d="M502 1602q-41 0 -66.5 26.5t-25.5 63.5t24.5 65.5t67.5 28.5t68.5 -27.5t25.5 -62.5q0 -37 -25.5 -65.5t-68.5 -28.5zM893 1602q-43 0 -68.5 28t-25.5 64q0 35 25.5 63.5t68.5 28.5t67.5 -28t24.5 -64t-25 -64t-67 -28zM721 1403l647 -1399v-4h-141l-148 319h-762
l-147 -319h-141v4l647 1399h45zM698 1165q-9 -21 -34.5 -86t-42.5 -100l-248 -537h649l-246 537q-33 67 -78 186z" />
    <glyph glyph-name="Aring" unicode="&#xc5;" horiz-adv-x="1396" 
d="M698 1493q-89 0 -153 53.5t-64 147.5t62 147t151 53t153 -53.5t64 -146.5q0 -92 -63 -146.5t-150 -54.5zM696 1575q50 0 85.5 31.5t35.5 87.5q0 57 -36 89t-87 32q-49 0 -84 -32.5t-35 -88.5q0 -55 36 -87t85 -32zM721 1403l647 -1399v-4h-141l-148 319h-762l-147 -319
h-141v4l647 1399h45zM698 1165q-9 -21 -34.5 -86t-42.5 -100l-248 -537h649l-246 537q-33 67 -78 186z" />
    <glyph glyph-name="AE" unicode="&#xc6;" horiz-adv-x="1759" 
d="M1034 123h635v-123h-764v322h-540l-209 -322h-148v6l903 1387h738v-123h-615v-492h541v-121h-541v-534zM444 442h461v514v207q-29 -51 -78 -129z" />
    <glyph glyph-name="Ccedilla" unicode="&#xc7;" horiz-adv-x="1431" 
d="M1374 256q-81 -117 -204.5 -190.5t-278.5 -88.5l-37 -83q83 -8 135.5 -50.5t52.5 -113.5q0 -78 -60 -123t-153 -45q-126 0 -206 55l43 84q65 -45 153 -45q52 0 83.5 19.5t31.5 58.5q0 38 -33.5 61t-79 30t-100.5 5l63 145q-147 7 -272 67t-211.5 157t-135 226.5
t-48.5 272.5q0 204 89.5 368t251 257.5t365.5 93.5q161 0 286.5 -56t238.5 -171l-80 -82q-87 91 -194.5 137.5t-250.5 46.5q-165 0 -296 -77.5t-203 -213t-72 -303.5q0 -164 71.5 -300.5t203 -217t296.5 -80.5q142 0 258.5 62t196.5 170z" />
    <glyph glyph-name="Egrave" unicode="&#xc8;" horiz-adv-x="1144" 
d="M696 1563l-290 204l86 99l268 -232zM340 123h715v-123h-850v1393h831v-123h-696v-496h612v-121h-612v-530z" />
    <glyph glyph-name="Eacute" unicode="&#xc9;" horiz-adv-x="1144" 
d="M803 1769l-289 -206l-63 71l270 232zM340 123h715v-123h-850v1393h831v-123h-696v-496h612v-121h-612v-530z" />
    <glyph glyph-name="Ecircumflex" unicode="&#xca;" horiz-adv-x="1144" 
d="M397 1540l-55 72l266 209h29l264 -211l-53 -70l-223 156zM340 123h715v-123h-850v1393h831v-123h-696v-496h612v-121h-612v-530z" />
    <glyph glyph-name="Edieresis" unicode="&#xcb;" horiz-adv-x="1144" 
d="M428 1602q-41 0 -66.5 26.5t-25.5 63.5t24.5 65.5t67.5 28.5t68.5 -27.5t25.5 -62.5q0 -37 -25.5 -65.5t-68.5 -28.5zM819 1602q-43 0 -68.5 28t-25.5 64q0 35 25.5 63.5t68.5 28.5t67.5 -28t24.5 -64t-25 -64t-67 -28zM340 123h715v-123h-850v1393h831v-123h-696v-496
h612v-121h-612v-530z" />
    <glyph glyph-name="Igrave" unicode="&#xcc;" horiz-adv-x="544" 
d="M344 1563l-291 204l86 99l269 -232zM205 0v1393h135v-1393h-135z" />
    <glyph glyph-name="Iacute" unicode="&#xcd;" horiz-adv-x="544" 
d="M162 1563l-64 71l271 232l82 -97zM205 0v1393h135v-1393h-135z" />
    <glyph glyph-name="Icircumflex" unicode="&#xce;" horiz-adv-x="544" 
d="M45 1540l-55 72l266 209h29l264 -211l-53 -70l-224 156zM205 0v1393h135v-1393h-135z" />
    <glyph glyph-name="Idieresis" unicode="&#xcf;" horiz-adv-x="544" 
d="M76 1602q-41 0 -66.5 26.5t-25.5 63.5t24.5 65.5t67.5 28.5t68.5 -27.5t25.5 -62.5q0 -37 -25.5 -65.5t-68.5 -28.5zM467 1602q-43 0 -68.5 28t-25.5 64q0 35 25.5 63.5t68.5 28.5t67.5 -28t24.5 -64t-25 -64t-67 -28zM205 0v1393h135v-1393h-135z" />
    <glyph glyph-name="Eth" unicode="&#xd0;" horiz-adv-x="1484" 
d="M657 1393q156 0 289 -52.5t225.5 -144.5t144.5 -221.5t52 -280.5q0 -150 -51 -278.5t-142.5 -220t-224.5 -143.5t-291 -52h-450v664h-154v100h154v629h448zM659 123q170 0 301.5 75t202 205t70.5 291q0 162 -71 293t-203 207t-302 76h-313v-506h383v-100h-383v-541h315z
" />
    <glyph glyph-name="Ntilde" unicode="&#xd1;" horiz-adv-x="1564" 
d="M678 1667q-56 0 -84 -76l-88 51q56 144 160 144q61 0 143 -43q68 -33 90 -33q53 0 78 72l90 -49q-58 -140 -160 -140q-58 0 -129 39q-68 35 -100 35zM1225 1393h135v-1403h-60l-866 1020q-32 39 -100 114q6 -65 6 -133v-991h-135v1403h57l864 -1016q73 -82 103 -117
q-4 51 -4 146v977z" />
    <glyph glyph-name="Ograve" unicode="&#xd2;" horiz-adv-x="1644" 
d="M895 1563l-291 204l86 99l268 -232zM821 -25q-201 0 -363.5 98t-251.5 263t-89 362q0 205 89.5 369t250.5 257t364 93q206 0 367.5 -93t250.5 -257t89 -369q0 -198 -88.5 -362.5t-251.5 -262.5t-367 -98zM821 100q125 0 233 47t182 128t115.5 190.5t41.5 232.5
q0 171 -71 306t-202 211.5t-299 76.5q-166 0 -296.5 -76.5t-201.5 -211.5t-71 -306q0 -164 71 -300.5t202 -217t296 -80.5z" />
    <glyph glyph-name="Oacute" unicode="&#xd3;" horiz-adv-x="1644" 
d="M711 1563l-64 71l271 232l81 -97zM821 -25q-201 0 -363.5 98t-251.5 263t-89 362q0 205 89.5 369t250.5 257t364 93q206 0 367.5 -93t250.5 -257t89 -369q0 -198 -88.5 -362.5t-251.5 -262.5t-367 -98zM821 100q125 0 233 47t182 128t115.5 190.5t41.5 232.5
q0 171 -71 306t-202 211.5t-299 76.5q-166 0 -296.5 -76.5t-201.5 -211.5t-71 -306q0 -164 71 -300.5t202 -217t296 -80.5z" />
    <glyph glyph-name="Ocircumflex" unicode="&#xd4;" horiz-adv-x="1644" 
d="M596 1540l-55 72l266 209h29l264 -211l-53 -70l-224 156zM821 -25q-201 0 -363.5 98t-251.5 263t-89 362q0 205 89.5 369t250.5 257t364 93q206 0 367.5 -93t250.5 -257t89 -369q0 -198 -88.5 -362.5t-251.5 -262.5t-367 -98zM821 100q125 0 233 47t182 128t115.5 190.5
t41.5 232.5q0 171 -71 306t-202 211.5t-299 76.5q-166 0 -296.5 -76.5t-201.5 -211.5t-71 -306q0 -164 71 -300.5t202 -217t296 -80.5z" />
    <glyph glyph-name="Otilde" unicode="&#xd5;" horiz-adv-x="1644" 
d="M629 1591l-88 51q55 144 159 144q59 0 144 -43q68 -33 90 -33q50 0 78 72l88 -49q-55 -140 -158 -140q-58 0 -129 39q-68 35 -100 35q-56 0 -84 -76zM821 -25q-201 0 -363.5 98t-251.5 263t-89 362q0 205 89.5 369t250.5 257t364 93q206 0 367.5 -93t250.5 -257t89 -369
q0 -198 -88.5 -362.5t-251.5 -262.5t-367 -98zM821 100q125 0 233 47t182 128t115.5 190.5t41.5 232.5q0 171 -71 306t-202 211.5t-299 76.5q-166 0 -296.5 -76.5t-201.5 -211.5t-71 -306q0 -164 71 -300.5t202 -217t296 -80.5z" />
    <glyph glyph-name="Odieresis" unicode="&#xd6;" horiz-adv-x="1644" 
d="M625 1602q-41 0 -67 26.5t-26 63.5t25 65.5t68 28.5t68.5 -27.5t25.5 -62.5q0 -37 -25.5 -65.5t-68.5 -28.5zM1016 1602q-43 0 -68.5 28t-25.5 64q0 35 25.5 63.5t68.5 28.5t67.5 -28t24.5 -64t-25 -64t-67 -28zM821 -25q-201 0 -363.5 98t-251.5 263t-89 362
q0 205 89.5 369t250.5 257t364 93q206 0 367.5 -93t250.5 -257t89 -369q0 -198 -88.5 -362.5t-251.5 -262.5t-367 -98zM821 100q125 0 233 47t182 128t115.5 190.5t41.5 232.5q0 171 -71 306t-202 211.5t-299 76.5q-166 0 -296.5 -76.5t-201.5 -211.5t-71 -306
q0 -164 71 -300.5t202 -217t296 -80.5z" />
    <glyph glyph-name="multiply" unicode="&#xd7;" horiz-adv-x="1015" 
d="M252 362l-80 80l256 254l-256 254l80 80l256 -256l258 256l78 -78l-256 -256l256 -256l-78 -78l-258 256z" />
    <glyph glyph-name="Oslash" unicode="&#xd8;" horiz-adv-x="1644" 
d="M1278 1262q120 -98 185 -243.5t65 -320.5q0 -198 -88.5 -362.5t-251.5 -262.5t-367 -98q-201 0 -368 101l-119 -170l-86 59l121 172q-119 100 -185.5 246.5t-66.5 314.5q0 205 89.5 369t250.5 257t364 93q206 0 373 -96l137 199l86 -58zM252 698q0 -136 49.5 -254
t140.5 -200l678 970q-134 78 -299 78q-166 0 -296.5 -76.5t-201.5 -211.5t-71 -306zM821 100q125 0 233 47t182 128t115.5 190.5t41.5 232.5q0 142 -50 260.5t-141 196.5l-678 -973q130 -82 297 -82z" />
    <glyph glyph-name="Ugrave" unicode="&#xd9;" horiz-adv-x="1441" 
d="M797 1563l-291 204l86 99l268 -232zM723 -25q-150 0 -269.5 56t-192.5 171.5t-73 274.5v916h136v-914q0 -187 108 -284t291 -97q180 0 287.5 97.5t107.5 283.5v914h135v-916q0 -159 -72.5 -274.5t-191 -171.5t-266.5 -56z" />
    <glyph glyph-name="Uacute" unicode="&#xda;" horiz-adv-x="1441" 
d="M614 1563l-63 71l270 232l82 -97zM723 -25q-150 0 -269.5 56t-192.5 171.5t-73 274.5v916h136v-914q0 -187 108 -284t291 -97q180 0 287.5 97.5t107.5 283.5v914h135v-916q0 -159 -72.5 -274.5t-191 -171.5t-266.5 -56z" />
    <glyph glyph-name="Ucircumflex" unicode="&#xdb;" horiz-adv-x="1441" 
d="M498 1540l-56 72l267 209h28l264 -211l-53 -70l-223 156zM723 -25q-150 0 -269.5 56t-192.5 171.5t-73 274.5v916h136v-914q0 -187 108 -284t291 -97q180 0 287.5 97.5t107.5 283.5v914h135v-916q0 -159 -72.5 -274.5t-191 -171.5t-266.5 -56z" />
    <glyph glyph-name="Udieresis" unicode="&#xdc;" horiz-adv-x="1441" 
d="M528 1602q-41 0 -66.5 26.5t-25.5 63.5t24.5 65.5t67.5 28.5t69 -27.5t26 -62.5q0 -37 -26 -65.5t-69 -28.5zM920 1602q-43 0 -69 28t-26 64q0 35 26 63.5t69 28.5t67.5 -28t24.5 -64t-25 -64t-67 -28zM723 -25q-150 0 -269.5 56t-192.5 171.5t-73 274.5v916h136v-914
q0 -187 108 -284t291 -97q180 0 287.5 97.5t107.5 283.5v914h135v-916q0 -159 -72.5 -274.5t-191 -171.5t-266.5 -56z" />
    <glyph glyph-name="Yacute" unicode="&#xdd;" horiz-adv-x="1280" 
d="M817 1769l-289 -206l-63 71l270 232zM1077 1393h156v-7l-526 -761v-625h-134v625l-526 761v7h156l317 -463q79 -117 121 -195q48 92 119 195z" />
    <glyph glyph-name="Thorn" unicode="&#xde;" horiz-adv-x="1210" 
d="M205 0v1393h135v-254h362q104 0 189.5 -38t139 -99.5t82 -136.5t28.5 -154q0 -62 -17 -121t-53 -113t-87.5 -94t-126 -64t-163.5 -24h-354v-295h-135zM340 420h352q152 0 233 85.5t83 207.5q0 128 -85.5 215.5t-222.5 87.5h-360v-596z" />
    <glyph glyph-name="germandbls" unicode="&#xdf;" horiz-adv-x="1042" 
d="M618 -12q-101 0 -194 37l27 110q75 -35 159 -35q107 0 177.5 47t70.5 127q0 42 -21.5 79t-53 62.5t-69 57t-69 61.5t-53 76.5t-21.5 102.5q0 53 14 96t35.5 70.5t46 58t46 57.5t35.5 69.5t14 94.5q0 97 -59 153t-164 56q-127 0 -190.5 -86.5t-63.5 -243.5v-1038h-125
v1042q0 216 97.5 329.5t279.5 113.5q160 0 256 -91t96 -235q0 -73 -20 -130t-48.5 -92.5t-56.5 -67t-48 -69.5t-20 -83q0 -34 16 -64.5t41 -54t56 -47t61.5 -49.5t55.5 -56t41 -72.5t16 -92.5q0 -137 -105 -215t-260 -78z" />
    <glyph glyph-name="agrave" unicode="&#xe0;" horiz-adv-x="980" 
d="M635 1174l-64 -74l-290 207l86 98zM489 915q159 0 252 -81t93 -232v-602h-93l-22 164q-51 -85 -138 -132.5t-204 -47.5q-133 0 -211 67.5t-78 184.5q0 149 124.5 234t328.5 85q103 0 166 -8v61q0 93 -61.5 142t-168.5 49q-137 0 -299 -76l-43 106q186 86 354 86zM397 100
q139 0 222 93t88 249q-74 9 -148 9q-161 0 -250.5 -54t-89.5 -153q0 -68 47 -106t131 -38z" />
    <glyph glyph-name="aacute" unicode="&#xe1;" horiz-adv-x="980" 
d="M657 1309l-288 -209l-64 74l270 231zM489 915q159 0 252 -81t93 -232v-602h-93l-22 164q-51 -85 -138 -132.5t-204 -47.5q-133 0 -211 67.5t-78 184.5q0 149 124.5 234t328.5 85q103 0 166 -8v61q0 93 -61.5 142t-168.5 49q-137 0 -299 -76l-43 106q186 86 354 86z
M397 100q139 0 222 93t88 249q-74 9 -148 9q-161 0 -250.5 -54t-89.5 -153q0 -68 47 -106t131 -38z" />
    <glyph glyph-name="acircumflex" unicode="&#xe2;" horiz-adv-x="980" 
d="M479 1229l-200 -156l-58 72l242 209h29l237 -211l-53 -70zM489 915q159 0 252 -81t93 -232v-602h-93l-22 164q-51 -85 -138 -132.5t-204 -47.5q-133 0 -211 67.5t-78 184.5q0 149 124.5 234t328.5 85q103 0 166 -8v61q0 93 -61.5 142t-168.5 49q-137 0 -299 -76l-43 106
q186 86 354 86zM397 100q139 0 222 93t88 249q-74 9 -148 9q-161 0 -250.5 -54t-89.5 -153q0 -68 47 -106t131 -38z" />
    <glyph glyph-name="atilde" unicode="&#xe3;" horiz-adv-x="980" 
d="M375 1208q-53 0 -78 -75l-88 49q55 141 153 141q63 0 136 -43q64 -33 88 -33q47 0 73 72l89 -49q-54 -135 -154 -135q-56 0 -121 36q-72 37 -98 37zM489 915q159 0 252 -81t93 -232v-602h-93l-22 164q-51 -85 -138 -132.5t-204 -47.5q-133 0 -211 67.5t-78 184.5
q0 149 124.5 234t328.5 85q103 0 166 -8v61q0 93 -61.5 142t-168.5 49q-137 0 -299 -76l-43 106q186 86 354 86zM397 100q139 0 222 93t88 249q-74 9 -148 9q-161 0 -250.5 -54t-89.5 -153q0 -68 47 -106t131 -38z" />
    <glyph glyph-name="adieresis" unicode="&#xe4;" horiz-adv-x="980" 
d="M301 1149q-40 0 -65 25.5t-25 60.5q0 37 24 64.5t66 27.5q41 0 65.5 -26.5t24.5 -61.5t-24 -62.5t-66 -27.5zM653 1149q-40 0 -64 26.5t-24 61.5t24 62.5t64 27.5q42 0 66 -27.5t24 -62.5t-24.5 -61.5t-65.5 -26.5zM489 915q159 0 252 -81t93 -232v-602h-93l-22 164
q-51 -85 -138 -132.5t-204 -47.5q-133 0 -211 67.5t-78 184.5q0 149 124.5 234t328.5 85q103 0 166 -8v61q0 93 -61.5 142t-168.5 49q-137 0 -299 -76l-43 106q186 86 354 86zM397 100q139 0 222 93t88 249q-74 9 -148 9q-161 0 -250.5 -54t-89.5 -153q0 -68 47 -106
t131 -38z" />
    <glyph glyph-name="aring" unicode="&#xe5;" horiz-adv-x="980" 
d="M479 1036q-88 0 -151.5 52.5t-63.5 144.5t63 144.5t150 52.5t149 -52.5t62 -144.5t-61 -144.5t-148 -52.5zM477 1350q-49 0 -84 -31.5t-35 -85.5t35.5 -84.5t83.5 -30.5q49 0 83 30.5t34 84.5t-34 85.5t-83 31.5zM489 915q159 0 252 -81t93 -232v-602h-93l-22 164
q-51 -85 -138 -132.5t-204 -47.5q-133 0 -211 67.5t-78 184.5q0 149 124.5 234t328.5 85q103 0 166 -8v61q0 93 -61.5 142t-168.5 49q-137 0 -299 -76l-43 106q186 86 354 86zM397 100q139 0 222 93t88 249q-74 9 -148 9q-161 0 -250.5 -54t-89.5 -153q0 -68 47 -106
t131 -38z" />
    <glyph glyph-name="ae" unicode="&#xe6;" horiz-adv-x="1544" 
d="M1096 915q175 0 270.5 -119.5t95.5 -308.5q0 -21 -4 -71h-665q10 -148 92 -234t211 -86q147 0 254 107l69 -86q-66 -66 -149.5 -101.5t-171.5 -35.5q-127 0 -221 59.5t-142 165.5q-112 -221 -362 -221q-124 0 -204.5 69t-80.5 189q0 78 37.5 138t102 94.5t143 51.5
t168.5 17q73 0 141 -8v73q0 191 -213 191q-139 0 -291 -76l-41 106q179 86 342 86q109 0 183.5 -43.5t99.5 -134.5q44 84 129.5 131t206.5 47zM795 526h544q-3 125 -68.5 199t-180.5 74q-124 0 -200 -72t-95 -201zM389 100q124 0 207 88t84 240q-60 8 -131 8
q-68 0 -123.5 -9t-104 -29.5t-75.5 -59t-27 -92.5q0 -68 45.5 -107t124.5 -39z" />
    <glyph glyph-name="ccedilla" unicode="&#xe7;" horiz-adv-x="942" 
d="M549 -111q83 -8 133.5 -49t50.5 -110q0 -75 -58 -118.5t-149 -43.5q-114 0 -200 53l43 80q65 -43 147 -43q52 0 82.5 20t30.5 58q0 36 -32.5 58.5t-76.5 29.5t-98 6l65 152q-78 10 -148 45t-125 93t-87.5 145t-32.5 190q0 109 37.5 199t101.5 149t147.5 91t176.5 32
q186 0 324 -123l-72 -86q-57 48 -115.5 70t-136.5 22q-144 0 -240 -98.5t-96 -255.5q0 -160 95.5 -260.5t238.5 -100.5q88 0 149.5 26.5t120.5 82.5l70 -90q-68 -63 -139.5 -96t-167.5 -37z" />
    <glyph glyph-name="egrave" unicode="&#xe8;" horiz-adv-x="1034" 
d="M625 1100l-291 207l86 98l268 -231zM551 928q187 0 294 -119.5t107 -319.5q0 -41 -6 -88h-725q15 -141 110.5 -224t227.5 -83q92 0 157 27.5t120 83.5l71 -90q-144 -138 -346 -138q-206 0 -336.5 133.5t-130.5 344.5q0 199 129.5 336t327.5 137zM549 811
q-126 0 -215.5 -82t-108.5 -217h604q-3 143 -78.5 221t-201.5 78z" />
    <glyph glyph-name="eacute" unicode="&#xe9;" horiz-adv-x="1034" 
d="M709 1309l-289 -209l-64 74l271 231zM551 928q187 0 294 -119.5t107 -319.5q0 -41 -6 -88h-725q15 -141 110.5 -224t227.5 -83q92 0 157 27.5t120 83.5l71 -90q-144 -138 -346 -138q-206 0 -336.5 133.5t-130.5 344.5q0 199 129.5 336t327.5 137zM549 811
q-125 0 -215.5 -82.5t-110.5 -216.5h606q-4 143 -79.5 221t-200.5 78z" />
    <glyph glyph-name="ecircumflex" unicode="&#xea;" horiz-adv-x="1034" 
d="M530 1229l-200 -156l-58 72l242 209h29l237 -211l-53 -70zM551 928q187 0 294 -119.5t107 -319.5q0 -41 -6 -88h-725q15 -141 110.5 -224t227.5 -83q92 0 157 27.5t120 83.5l71 -90q-144 -138 -346 -138q-206 0 -336.5 133.5t-130.5 344.5q0 199 129.5 336t327.5 137z
M549 811q-125 0 -215.5 -82.5t-110.5 -216.5h606q-4 143 -79.5 221t-200.5 78z" />
    <glyph glyph-name="edieresis" unicode="&#xeb;" horiz-adv-x="1034" 
d="M354 1149q-40 0 -65 25.5t-25 60.5q0 37 24 64.5t66 27.5q41 0 65.5 -26.5t24.5 -61.5t-24 -62.5t-66 -27.5zM707 1149q-41 0 -65 26.5t-24 61.5t24.5 62.5t64.5 27.5q42 0 66 -27.5t24 -62.5t-24.5 -61.5t-65.5 -26.5zM551 928q187 0 294 -119.5t107 -319.5
q0 -41 -6 -88h-725q15 -141 110.5 -224t227.5 -83q92 0 157 27.5t120 83.5l71 -90q-144 -138 -346 -138q-206 0 -336.5 133.5t-130.5 344.5q0 199 129.5 336t327.5 137zM549 811q-126 0 -215.5 -82t-108.5 -217h604q-3 143 -78.5 221t-201.5 78z" />
    <glyph glyph-name="igrave" unicode="&#xec;" horiz-adv-x="444" 
d="M315 1100l-290 207l86 98l268 -231zM160 0v905h125v-905h-125z" />
    <glyph glyph-name="iacute" unicode="&#xed;" horiz-adv-x="444" 
d="M111 1114l-64 72l270 231l84 -96zM160 0v905h125v-905h-125z" />
    <glyph glyph-name="icircumflex" unicode="&#xee;" horiz-adv-x="444" 
d="M23 1087l-58 72l242 209h29l237 -211l-53 -70l-197 156zM160 0v905h125v-905h-125z" />
    <glyph glyph-name="idieresis" unicode="&#xef;" horiz-adv-x="444" 
d="M72 1143q-41 0 -66.5 26t-25.5 66q0 39 26 66.5t66 27.5q39 0 64.5 -27.5t25.5 -66.5t-25.5 -65.5t-64.5 -26.5zM371 1143q-39 0 -64.5 26.5t-25.5 65.5t25.5 66.5t64.5 27.5q42 0 67 -27t25 -67q0 -39 -25 -65.5t-67 -26.5zM160 0v905h125v-905h-125z" />
    <glyph glyph-name="eth" unicode="&#xf0;" horiz-adv-x="1069" 
d="M692 1221q273 -282 273 -729q0 -148 -49 -263t-148.5 -183.5t-237.5 -68.5q-84 0 -161 28.5t-139 82.5t-99 142t-37 198q0 199 121 325t299 126q188 0 309 -138q-62 243 -229 410l-191 -137l-69 92l172 123q-118 92 -254 145l53 103q165 -66 301 -177l146 105l71 -90z
M526 94q80 0 142 30.5t98 83t54 116t18 135.5q0 137 -90.5 222t-221.5 85q-134 0 -220.5 -92.5t-86.5 -241.5q0 -151 82.5 -244.5t224.5 -93.5z" />
    <glyph glyph-name="ntilde" unicode="&#xf1;" horiz-adv-x="1069" 
d="M428 1208q-53 0 -78 -75l-88 49q56 141 154 141q62 0 135 -43q64 -33 88 -33q48 0 74 72l88 -49q-54 -135 -154 -135q-56 0 -121 36q-72 37 -98 37zM600 924q157 0 239.5 -96.5t82.5 -274.5v-553h-125v555q0 252 -209 252q-136 0 -219.5 -89t-83.5 -231v-487h-125v905h94
l29 -153q42 76 124.5 124t192.5 48z" />
    <glyph glyph-name="ograve" unicode="&#xf2;" horiz-adv-x="1126" 
d="M655 1100l-290 207l86 98l268 -231zM561 -23q-204 0 -335.5 133.5t-131.5 342.5t131.5 342t335.5 133q207 0 339 -133t132 -342t-132 -342.5t-339 -133.5zM561 94q152 0 248 100.5t96 258.5t-95.5 258t-248.5 100q-150 0 -245 -100.5t-95 -257.5q0 -158 94.5 -258.5
t245.5 -100.5z" />
    <glyph glyph-name="oacute" unicode="&#xf3;" horiz-adv-x="1126" 
d="M453 1100l-64 74l270 231l82 -96zM561 -23q-204 0 -335.5 133.5t-131.5 342.5t131.5 342t335.5 133q207 0 339 -133t132 -342t-132 -342.5t-339 -133.5zM561 94q152 0 248 100.5t96 258.5t-95.5 258t-248.5 100q-150 0 -245 -100.5t-95 -257.5q0 -158 94.5 -258.5
t245.5 -100.5z" />
    <glyph glyph-name="ocircumflex" unicode="&#xf4;" horiz-adv-x="1126" 
d="M362 1073l-57 72l242 209h28l238 -211l-53 -70l-197 156zM561 -23q-204 0 -335.5 133.5t-131.5 342.5t131.5 342t335.5 133q207 0 339 -133t132 -342t-132 -342.5t-339 -133.5zM561 94q152 0 248 100.5t96 258.5t-95.5 258t-248.5 100q-150 0 -245 -100.5t-95 -257.5
q0 -158 94.5 -258.5t245.5 -100.5z" />
    <glyph glyph-name="otilde" unicode="&#xf5;" horiz-adv-x="1126" 
d="M379 1133l-88 49q55 141 153 141q63 0 136 -43q64 -33 88 -33q47 0 73 72l88 -49q-54 -135 -153 -135q-56 0 -121 36q-72 37 -98 37q-53 0 -78 -75zM561 -23q-204 0 -335.5 133.5t-131.5 342.5t131.5 342t335.5 133q207 0 339 -133t132 -342t-132 -342.5t-339 -133.5z
M561 94q152 0 248 100.5t96 258.5t-95.5 258t-248.5 100q-150 0 -245 -100.5t-95 -257.5q0 -158 94.5 -258.5t245.5 -100.5z" />
    <glyph glyph-name="odieresis" unicode="&#xf6;" horiz-adv-x="1126" 
d="M385 1149q-40 0 -65 25.5t-25 60.5q0 37 24 64.5t66 27.5q41 0 65.5 -26.5t24.5 -61.5t-24 -62.5t-66 -27.5zM737 1149q-40 0 -64 26.5t-24 61.5t24 62.5t64 27.5q42 0 66 -27.5t24 -62.5t-24.5 -61.5t-65.5 -26.5zM561 -23q-204 0 -335.5 133.5t-131.5 342.5t131.5 342
t335.5 133q207 0 339 -133t132 -342t-132 -342.5t-339 -133.5zM561 94q152 0 248 100.5t96 258.5t-95.5 258t-248.5 100q-150 0 -245 -100.5t-95 -257.5q0 -158 94.5 -258.5t245.5 -100.5z" />
    <glyph glyph-name="divide" unicode="&#xf7;" horiz-adv-x="1138" 
d="M569 928q-48 0 -73 27.5t-25 68.5t25 68.5t73 27.5q47 0 73 -27.5t26 -68.5t-26 -68.5t-73 -27.5zM152 641v113h835v-113h-835zM569 274q-48 0 -73 28t-25 69t25 68.5t73 27.5q47 0 73 -27.5t26 -68.5t-26 -69t-73 -28z" />
    <glyph glyph-name="oslash" unicode="&#xf8;" horiz-adv-x="1126" 
d="M872 821q76 -64 118 -158.5t42 -209.5q0 -209 -132 -342.5t-339 -133.5q-129 0 -229 56l-78 -115l-78 53l78 113q-76 64 -118 159.5t-42 209.5q0 209 131.5 342t335.5 133q130 0 232 -54l79 113l76 -53zM221 453q0 -169 105 -269l401 588q-73 39 -166 39
q-150 0 -245 -100.5t-95 -257.5zM561 94q152 0 248 100.5t96 258.5q0 170 -106 268l-402 -588q73 -39 164 -39z" />
    <glyph glyph-name="ugrave" unicode="&#xf9;" horiz-adv-x="1062" 
d="M623 1100l-291 207l86 98l268 -231zM778 905h125v-905h-96l-25 158q-43 -78 -120.5 -126t-184.5 -48q-164 0 -247 99t-83 271v551h125v-553q0 -252 220 -252q131 0 208.5 102.5t77.5 252.5v450z" />
    <glyph glyph-name="uacute" unicode="&#xfa;" horiz-adv-x="1062" 
d="M707 1309l-289 -209l-64 74l271 231zM778 905h125v-905h-96l-27 158q-41 -77 -119.5 -125.5t-183.5 -48.5q-164 0 -247 99t-83 271v551h125v-553q0 -252 220 -252q131 0 208.5 102.5t77.5 252.5v450z" />
    <glyph glyph-name="ucircumflex" unicode="&#xfb;" horiz-adv-x="1062" 
d="M530 1229l-200 -156l-58 72l242 209h29l237 -211l-53 -70zM778 905h125v-905h-96l-27 158q-41 -77 -119.5 -125.5t-183.5 -48.5q-164 0 -247 99t-83 271v551h125v-553q0 -252 220 -252q131 0 208.5 102.5t77.5 252.5v450z" />
    <glyph glyph-name="udieresis" unicode="&#xfc;" horiz-adv-x="1062" 
d="M352 1149q-40 0 -65 25.5t-25 60.5q0 37 24 64.5t66 27.5q41 0 65.5 -26.5t24.5 -61.5t-24 -62.5t-66 -27.5zM705 1149q-41 0 -65 26.5t-24 61.5t24.5 62.5t64.5 27.5q42 0 66 -27.5t24 -62.5t-24.5 -61.5t-65.5 -26.5zM778 905h125v-905h-96l-25 158
q-43 -78 -120.5 -126t-184.5 -48q-164 0 -247 99t-83 271v551h125v-553q0 -252 220 -252q131 0 208.5 102.5t77.5 252.5v450z" />
    <glyph glyph-name="yacute" unicode="&#xfd;" horiz-adv-x="944" 
d="M651 1309l-289 -209l-63 74l270 231zM786 905h129v-4l-557 -1352h-131v5l201 471l-395 876v4h131l260 -579q39 -87 65 -168q16 52 62 168z" />
    <glyph glyph-name="thorn" unicode="&#xfe;" horiz-adv-x="1177" 
d="M635 924q194 0 320 -134.5t126 -336.5t-126 -337.5t-320 -135.5q-108 0 -202.5 47t-153.5 129q6 -108 6 -250v-357h-125v1919h125v-471q0 -122 -9 -254q57 86 151 133.5t208 47.5zM625 96q148 0 239.5 100t91.5 257q0 156 -91.5 255t-241.5 99q-156 0 -250 -99t-94 -255
t95 -256.5t251 -100.5z" />
    <glyph glyph-name="ydieresis" unicode="&#xff;" horiz-adv-x="944" 
d="M295 1149q-40 0 -65 25.5t-25 60.5q0 37 24 64.5t66 27.5q41 0 65.5 -26.5t24.5 -61.5t-24 -62.5t-66 -27.5zM647 1149q-40 0 -64 26.5t-24 61.5t24 62.5t64 27.5q42 0 66 -27.5t24 -62.5t-24.5 -61.5t-65.5 -26.5zM786 905h129v-4l-557 -1352h-131v5l201 469l-395 878v4
h131l260 -579q43 -100 65 -168q16 52 62 168z" />
    <glyph glyph-name="Amacron" unicode="&#x100;" horiz-adv-x="1396" 
d="M420 1608v110h543v-110h-543zM721 1403l647 -1399v-4h-141l-148 319h-762l-147 -319h-141v4l647 1399h45zM698 1165q-9 -21 -34.5 -86t-42.5 -100l-248 -537h649l-246 537q-33 67 -78 186z" />
    <glyph glyph-name="amacron" unicode="&#x101;" horiz-adv-x="980" 
d="M741 1255v-108h-526v108h526zM489 915q159 0 252 -81t93 -232v-602h-93l-22 164q-51 -85 -138 -132.5t-204 -47.5q-133 0 -211 67.5t-78 184.5q0 149 124.5 234t328.5 85q103 0 166 -8v61q0 93 -61.5 142t-168.5 49q-137 0 -299 -76l-43 106q186 86 354 86zM397 100
q139 0 222 93t88 249q-74 9 -148 9q-161 0 -250.5 -54t-89.5 -153q0 -68 47 -106t131 -38z" />
    <glyph glyph-name="Abreve" unicode="&#x102;" horiz-adv-x="1396" 
d="M698 1542q-98 0 -169.5 56.5t-94.5 160.5l94 25q15 -61 63 -97t107 -36t107 36t63 97l95 -25q-23 -104 -95 -160.5t-170 -56.5zM721 1403l647 -1399v-4h-141l-148 319h-762l-147 -319h-141v4l647 1399h45zM698 1165q-9 -21 -34.5 -86t-42.5 -100l-248 -537h649l-246 537
q-33 67 -78 186z" />
    <glyph glyph-name="abreve" unicode="&#x103;" horiz-adv-x="980" 
d="M479 1081q-93 0 -160 56t-90 161l95 23q13 -61 58 -96t101 -35q52 0 95 36t55 95l94 -23q-21 -104 -88.5 -160.5t-159.5 -56.5zM489 915q159 0 252 -81t93 -232v-602h-93l-22 164q-51 -85 -138 -132.5t-204 -47.5q-133 0 -211 67.5t-78 184.5q0 149 124.5 234t328.5 85
q103 0 166 -8v61q0 93 -61.5 142t-168.5 49q-137 0 -299 -76l-43 106q186 86 354 86zM397 100q139 0 222 93t88 249q-74 9 -148 9q-161 0 -250.5 -54t-89.5 -153q0 -68 47 -106t131 -38z" />
    <glyph glyph-name="Aogonek" unicode="&#x104;" horiz-adv-x="1396" 
d="M1376 -291l39 -102q-73 -49 -166 -49q-92 0 -142 45.5t-50 120.5q0 129 168 278l-146 317h-762l-147 -319h-141v4l647 1399h45l647 -1399v-4q-180 -145 -180 -252q0 -35 22 -54.5t64 -19.5q51 0 102 35zM373 442h649l-246 537q-33 67 -78 186q-9 -21 -34.5 -86
t-42.5 -100z" />
    <glyph glyph-name="aogonek" unicode="&#x105;" horiz-adv-x="980" 
d="M842 -291l37 -96q-70 -49 -166 -49q-88 0 -136.5 46t-48.5 116q0 136 207 319l-16 119q-51 -85 -138 -132.5t-204 -47.5q-133 0 -211 67.5t-78 184.5q0 149 124.5 234t328.5 85q103 0 166 -8v61q0 93 -61.5 142t-168.5 49q-137 0 -299 -76l-43 106q186 86 354 86
q159 0 252 -81t93 -232v-602q-181 -146 -181 -252q0 -74 86 -74q49 0 103 35zM397 100q139 0 222 93t88 249q-74 9 -148 9q-161 0 -250.5 -54t-89.5 -153q0 -68 47 -106t131 -38z" />
    <glyph glyph-name="Cacute" unicode="&#x106;" horiz-adv-x="1431" 
d="M715 1563l-64 71l271 232l82 -97zM823 -25q-154 0 -287 57.5t-224 155t-143 230t-52 280.5q0 204 89.5 368t251 257.5t365.5 93.5q161 0 286.5 -56t238.5 -171l-80 -82q-87 91 -194.5 137.5t-250.5 46.5q-165 0 -296 -77.5t-203 -213t-72 -303.5q0 -164 71.5 -300.5
t203 -217t296.5 -80.5q142 0 258.5 62t196.5 170l96 -76q-90 -130 -231.5 -205.5t-319.5 -75.5z" />
    <glyph glyph-name="cacute" unicode="&#x107;" horiz-adv-x="942" 
d="M444 1100l-63 74l270 231l82 -96zM545 -23q-68 0 -133 19.5t-123 59.5t-101 96t-68.5 134t-25.5 169q0 109 37.5 199t101.5 149t147.5 91t176.5 32q186 0 324 -123l-72 -86q-57 48 -115.5 70t-136.5 22q-144 0 -240 -98.5t-96 -255.5q0 -160 95.5 -260.5t238.5 -100.5
q88 0 149.5 26.5t120.5 82.5l70 -90q-74 -69 -155 -102.5t-195 -33.5z" />
    <glyph glyph-name="Ccircumflex" unicode="&#x108;" horiz-adv-x="1431" 
d="M598 1540l-55 72l266 209h29l264 -211l-53 -70l-224 156zM823 -25q-154 0 -287 57.5t-224 155t-143 230t-52 280.5q0 204 89.5 368t251 257.5t365.5 93.5q161 0 286.5 -56t238.5 -171l-80 -82q-87 91 -194.5 137.5t-250.5 46.5q-165 0 -296 -77.5t-203 -213t-72 -303.5
q0 -164 71.5 -300.5t203 -217t296.5 -80.5q142 0 258.5 62t196.5 170l96 -76q-90 -130 -231.5 -205.5t-319.5 -75.5z" />
    <glyph glyph-name="ccircumflex" unicode="&#x109;" horiz-adv-x="942" 
d="M354 1073l-57 72l242 209h28l238 -211l-53 -70l-197 156zM545 -23q-68 0 -133 19.5t-123 59.5t-101 96t-68.5 134t-25.5 169q0 109 37.5 199t101.5 149t147.5 91t176.5 32q186 0 324 -123l-72 -86q-57 48 -115.5 70t-136.5 22q-144 0 -240 -98.5t-96 -255.5
q0 -160 95.5 -260.5t238.5 -100.5q88 0 149.5 26.5t120.5 82.5l70 -90q-74 -69 -155 -102.5t-195 -33.5z" />
    <glyph glyph-name="Cdotaccent" unicode="&#x10a;" horiz-adv-x="1431" 
d="M825 1597q-45 0 -70.5 28.5t-25.5 66.5q0 40 24.5 69t71.5 29t73 -29.5t26 -70.5q0 -37 -27 -65t-72 -28zM823 -25q-154 0 -287 57.5t-224 155t-143 230t-52 280.5q0 204 89.5 368t251 257.5t365.5 93.5q161 0 286.5 -56t238.5 -171l-80 -82q-87 91 -194.5 137.5
t-250.5 46.5q-165 0 -296 -77.5t-203 -213t-72 -303.5q0 -164 71.5 -300.5t203 -217t296.5 -80.5q142 0 258.5 62t196.5 170l96 -76q-90 -130 -231.5 -205.5t-319.5 -75.5z" />
    <glyph glyph-name="cdotaccent" unicode="&#x10b;" horiz-adv-x="942" 
d="M555 1139q-43 0 -69.5 27.5t-26.5 66.5q0 42 26.5 70t69.5 28q44 0 71 -28.5t27 -71.5q0 -39 -28 -65.5t-70 -26.5zM545 -23q-68 0 -133 19.5t-123 59.5t-101 96t-68.5 134t-25.5 169q0 109 37.5 199t101.5 149t147.5 91t176.5 32q186 0 324 -123l-72 -86
q-57 48 -115.5 70t-136.5 22q-144 0 -240 -98.5t-96 -255.5q0 -160 95.5 -260.5t238.5 -100.5q88 0 149.5 26.5t120.5 82.5l70 -90q-74 -69 -155 -102.5t-195 -33.5z" />
    <glyph glyph-name="Ccaron" unicode="&#x10c;" horiz-adv-x="1431" 
d="M809 1546l-262 213l53 68l223 -156l226 156l57 -70l-266 -211h-31zM823 -25q-154 0 -287 57.5t-224 155t-143 230t-52 280.5q0 204 89.5 368t251 257.5t365.5 93.5q161 0 286.5 -56t238.5 -171l-80 -82q-87 91 -194.5 137.5t-250.5 46.5q-165 0 -296 -77.5t-203 -213
t-72 -303.5q0 -164 71.5 -300.5t203 -217t296.5 -80.5q142 0 258.5 62t196.5 170l96 -76q-90 -130 -231.5 -205.5t-319.5 -75.5z" />
    <glyph glyph-name="ccaron" unicode="&#x10d;" horiz-adv-x="942" 
d="M539 1085l-238 211l53 70l199 -156l201 156l55 -72l-240 -209h-30zM545 -23q-68 0 -133 19.5t-123 59.5t-101 96t-68.5 134t-25.5 169q0 109 37.5 199t101.5 149t147.5 91t176.5 32q186 0 324 -123l-72 -86q-57 48 -115.5 70t-136.5 22q-144 0 -240 -98.5t-96 -255.5
q0 -160 95.5 -260.5t238.5 -100.5q88 0 149.5 26.5t120.5 82.5l70 -90q-74 -69 -155 -102.5t-195 -33.5z" />
    <glyph glyph-name="Dcaron" unicode="&#x10e;" horiz-adv-x="1478" 
d="M662 1546l-263 213l54 68l223 -156l225 156l57 -70l-266 -211h-30zM205 0v1393h446q156 0 289 -52.5t225.5 -144.5t144.5 -221.5t52 -280.5q0 -150 -51 -278.5t-142.5 -220t-224.5 -143.5t-291 -52h-448zM340 123h313q128 0 236.5 44t182.5 120t115.5 181t41.5 226
q0 248 -160.5 412t-417.5 164h-311v-1147z" />
    <glyph glyph-name="dcaron" unicode="&#x10f;" horiz-adv-x="1181" 
d="M895 997v471h125v-1468h-96l-19 160q-121 -180 -356 -180q-200 0 -327.5 134.5t-127.5 342.5q0 202 128 334.5t327 132.5q109 0 201.5 -46t148.5 -126q-4 156 -4 245zM1165 1468h138q-18 -193 -89 -333h-96q47 178 47 333zM557 98q155 0 248.5 99.5t93.5 255.5
q0 155 -94.5 254.5t-247.5 99.5q-150 0 -244 -99t-94 -255t94 -255.5t244 -99.5z" />
    <glyph glyph-name="Dcroat" unicode="&#x110;" horiz-adv-x="1484" 
d="M657 1393q156 0 289 -52.5t225.5 -144.5t144.5 -221.5t52 -280.5q0 -150 -51 -278.5t-142.5 -220t-224.5 -143.5t-291 -52h-450v664h-154v100h154v629h448zM659 123q170 0 301.5 75t202 205t70.5 291q0 162 -71 293t-203 207t-302 76h-313v-506h383v-100h-383v-541h315z
" />
    <glyph glyph-name="dcroat" unicode="&#x111;" horiz-adv-x="1179" 
d="M1147 1227v-94h-127v-1133h-96l-19 160q-58 -86 -149.5 -133t-206.5 -47q-200 0 -327.5 134.5t-127.5 342.5q0 202 128 334.5t327 132.5q109 0 201.5 -46t148.5 -126q-4 156 -4 245v136h-311v94h311v241h125v-241h127zM557 98q155 0 248.5 99.5t93.5 255.5
q0 155 -94.5 254.5t-247.5 99.5q-150 0 -244 -99t-94 -255t94 -255.5t244 -99.5z" />
    <glyph glyph-name="Emacron" unicode="&#x112;" horiz-adv-x="1144" 
d="M346 1608v110h543v-110h-543zM340 123h715v-123h-850v1393h831v-123h-696v-496h612v-121h-612v-530z" />
    <glyph glyph-name="emacron" unicode="&#x113;" horiz-adv-x="1034" 
d="M268 1147v108h527v-108h-527zM551 928q187 0 294 -119.5t107 -319.5q0 -41 -6 -88h-725q15 -141 110.5 -224t227.5 -83q92 0 157 27.5t120 83.5l71 -90q-144 -138 -346 -138q-206 0 -336.5 133.5t-130.5 344.5q0 199 129.5 336t327.5 137zM549 811q-126 0 -215.5 -82
t-108.5 -217h604q-3 143 -78.5 221t-201.5 78z" />
    <glyph glyph-name="Ebreve" unicode="&#x114;" horiz-adv-x="1144" 
d="M625 1542q-98 0 -170 56.5t-95 160.5l95 25q15 -61 63 -97t107 -36t107 36t63 97l94 -25q-23 -104 -94.5 -160.5t-169.5 -56.5zM340 123h715v-123h-850v1393h831v-123h-696v-496h612v-121h-612v-530z" />
    <glyph glyph-name="ebreve" unicode="&#x115;" horiz-adv-x="1034" 
d="M532 1081q-93 0 -159.5 56t-89.5 161l94 23q13 -61 58.5 -96t101.5 -35q52 0 94.5 36t54.5 95l94 -23q-21 -104 -88.5 -160.5t-159.5 -56.5zM551 928q187 0 294 -119.5t107 -319.5q0 -41 -6 -88h-725q15 -141 110.5 -224t227.5 -83q92 0 157 27.5t120 83.5l71 -90
q-144 -138 -346 -138q-206 0 -336.5 133.5t-130.5 344.5q0 199 129.5 336t327.5 137zM549 811q-125 0 -215.5 -82.5t-110.5 -216.5h606q-4 143 -79.5 221t-200.5 78z" />
    <glyph glyph-name="Edotaccent" unicode="&#x116;" horiz-adv-x="1144" 
d="M625 1597q-45 0 -71 28.5t-26 66.5q0 40 25 69t72 29t72.5 -29.5t25.5 -70.5q0 -38 -26.5 -65.5t-71.5 -27.5zM340 123h715v-123h-850v1393h831v-123h-696v-496h612v-121h-612v-530z" />
    <glyph glyph-name="edotaccent" unicode="&#x117;" horiz-adv-x="1034" 
d="M530 1139q-43 0 -69.5 27.5t-26.5 66.5q0 42 26.5 70t69.5 28q44 0 71.5 -28.5t27.5 -71.5q0 -39 -28.5 -65.5t-70.5 -26.5zM551 928q187 0 294 -119.5t107 -319.5q0 -41 -6 -88h-725q15 -141 110.5 -224t227.5 -83q92 0 157 27.5t120 83.5l71 -90q-144 -138 -346 -138
q-206 0 -336.5 133.5t-130.5 344.5q0 199 129.5 336t327.5 137zM549 811q-126 0 -215.5 -82t-108.5 -217h604q-3 143 -78.5 221t-201.5 78z" />
    <glyph glyph-name="Eogonek" unicode="&#x118;" horiz-adv-x="1144" 
d="M1042 -291l39 -102q-70 -49 -166 -49q-91 0 -140.5 45t-49.5 121q0 128 178 276h-698v1393h831v-123h-696v-496h612v-121h-612v-530h715v-123q-201 -149 -201 -252q0 -74 88 -74q49 0 100 35z" />
    <glyph glyph-name="eogonek" unicode="&#x119;" horiz-adv-x="1032" 
d="M541 926q193 0 300 -118.5t107 -320.5q0 -55 -4 -86h-723q15 -141 110.5 -223t229.5 -82q91 0 155 26t120 81l67 -86l-20 -21q-138 -130 -190 -208.5t-52 -139.5q0 -74 86 -74q48 0 102 35l37 -96q-70 -49 -166 -49q-88 0 -136 44.5t-48 117.5q0 119 152 264
q-55 -10 -109 -10q-210 0 -337.5 131.5t-127.5 343.5q0 199 125.5 335t321.5 136zM541 809q-124 0 -211.5 -81.5t-106.5 -215.5h602q0 144 -75 220.5t-209 76.5z" />
    <glyph glyph-name="Ecaron" unicode="&#x11a;" horiz-adv-x="1144" 
d="M608 1546l-262 213l53 68l224 -156l225 156l57 -70l-266 -211h-31zM340 123h715v-123h-850v1393h831v-123h-696v-496h612v-121h-612v-530z" />
    <glyph glyph-name="ecaron" unicode="&#x11b;" horiz-adv-x="1034" 
d="M545 1085h-31l-238 211l54 70l198 -156l201 156l55 -72zM551 928q187 0 294 -119.5t107 -319.5q0 -41 -6 -88h-725q15 -141 110.5 -224t227.5 -83q92 0 157 27.5t120 83.5l71 -90q-144 -138 -346 -138q-206 0 -336.5 133.5t-130.5 344.5q0 199 129.5 336t327.5 137z
M549 811q-125 0 -215.5 -82.5t-110.5 -216.5h606q-4 143 -79.5 221t-200.5 78z" />
    <glyph glyph-name="Gcircumflex" unicode="&#x11c;" horiz-adv-x="1507" 
d="M598 1540l-55 72l266 209h29l264 -211l-53 -70l-224 156zM821 739h570v-493q-95 -131 -240 -201t-320 -70q-205 0 -368.5 94t-254.5 259t-91 370q0 148 50 279t140 228.5t224 154.5t292 57q316 0 529 -239l-88 -84q-180 198 -441 198q-171 0 -302 -78.5t-200 -213
t-69 -302.5q0 -171 72.5 -307t207.5 -213.5t310 -77.5q130 0 237.5 47.5t182.5 137.5v331h-441v123z" />
    <glyph glyph-name="gcircumflex" unicode="&#x11d;" horiz-adv-x="1179" 
d="M563 1229l-201 -156l-57 72l242 209h28l238 -211l-53 -70zM928 905h92v-964q0 -101 -36 -181.5t-98 -130t-141.5 -75t-171.5 -25.5q-244 0 -409 162l78 88q136 -133 325 -133q145 0 236.5 76t91.5 221q0 138 2 204q-60 -79 -152.5 -121t-195.5 -42q-204 0 -329.5 135
t-125.5 334q0 200 123.5 335.5t325.5 135.5q112 0 204.5 -43t151.5 -125zM555 100q163 0 253.5 101t90.5 252t-89 252.5t-253 101.5q-155 0 -245.5 -99.5t-90.5 -252.5q0 -154 91.5 -254.5t242.5 -100.5z" />
    <glyph glyph-name="Gbreve" unicode="&#x11e;" horiz-adv-x="1507" 
d="M825 1542q-98 0 -169.5 56.5t-94.5 160.5l94 25q15 -61 63 -97t107 -36t107 36t63 97l95 -25q-23 -104 -95 -160.5t-170 -56.5zM821 739h570v-493q-95 -131 -240 -201t-320 -70q-205 0 -368.5 94t-254.5 259t-91 370q0 148 50 279t140 228.5t224 154.5t292 57
q316 0 529 -239l-88 -84q-180 198 -441 198q-171 0 -302 -78.5t-200 -213t-69 -302.5q0 -171 72.5 -307t207.5 -213.5t310 -77.5q130 0 237.5 47.5t182.5 137.5v331h-441v123z" />
    <glyph glyph-name="gbreve" unicode="&#x11f;" horiz-adv-x="1179" 
d="M563 1081q-93 0 -160 56t-90 161l95 23q13 -61 58 -96t101 -35q52 0 95 36t55 95l94 -23q-21 -104 -88.5 -160.5t-159.5 -56.5zM928 905h92v-964q0 -101 -36 -181.5t-98 -130t-141.5 -75t-171.5 -25.5q-244 0 -409 162l78 88q136 -133 325 -133q145 0 236.5 76t91.5 221
q0 138 2 204q-60 -79 -152.5 -121t-195.5 -42q-204 0 -329.5 135t-125.5 334q0 200 123.5 335.5t325.5 135.5q112 0 204.5 -43t151.5 -125zM555 100q163 0 253.5 101t90.5 252t-89 252.5t-253 101.5q-155 0 -245.5 -99.5t-90.5 -252.5q0 -154 91.5 -254.5t242.5 -100.5z" />
    <glyph glyph-name="Gdotaccent" unicode="&#x120;" horiz-adv-x="1507" 
d="M825 1597q-45 0 -70.5 28.5t-25.5 66.5q0 40 24.5 69t71.5 29t73 -29.5t26 -70.5q0 -37 -27 -65t-72 -28zM821 739h570v-493q-95 -131 -240 -201t-320 -70q-205 0 -368.5 94t-254.5 259t-91 370q0 148 50 279t140 228.5t224 154.5t292 57q316 0 529 -239l-88 -84
q-180 198 -441 198q-171 0 -302 -78.5t-200 -213t-69 -302.5q0 -171 72.5 -307t207.5 -213.5t310 -77.5q130 0 237.5 47.5t182.5 137.5v331h-441v123z" />
    <glyph glyph-name="gdotaccent" unicode="&#x121;" horiz-adv-x="1179" 
d="M561 1139q-43 0 -69.5 27.5t-26.5 66.5q0 42 26.5 70t69.5 28q44 0 71 -28.5t27 -71.5q0 -39 -28 -65.5t-70 -26.5zM928 905h92v-964q0 -101 -36 -181.5t-98 -130t-141.5 -75t-171.5 -25.5q-244 0 -409 162l78 88q136 -133 325 -133q145 0 236.5 76t91.5 221q0 136 2 204
q-61 -80 -153 -121.5t-195 -41.5q-204 0 -329.5 135t-125.5 334q0 200 123.5 335.5t325.5 135.5q112 0 204.5 -43t151.5 -125zM555 100q163 0 253.5 101t90.5 252t-89 252.5t-253 101.5q-155 0 -245.5 -99.5t-90.5 -252.5q0 -154 91.5 -254.5t242.5 -100.5z" />
    <glyph glyph-name="uni0122" unicode="&#x122;" horiz-adv-x="1507" 
d="M821 739h570v-493q-95 -131 -240 -201t-320 -70q-205 0 -368.5 94t-254.5 259t-91 370q0 148 50 279t140 228.5t224 154.5t292 57q316 0 529 -239l-88 -84q-180 198 -441 198q-171 0 -302 -78.5t-200 -213t-69 -302.5q0 -171 72.5 -307t207.5 -213.5t310 -77.5
q130 0 237.5 47.5t182.5 137.5v331h-441v123zM719 -565q63 173 63 350h138q-18 -210 -103 -350h-98z" />
    <glyph glyph-name="uni0123" unicode="&#x123;" horiz-adv-x="1179" 
d="M688 1458q-65 -167 -65 -350h-138q18 207 105 350h98zM928 905h92v-964q0 -101 -36 -181.5t-98 -130t-141.5 -75t-171.5 -25.5q-244 0 -409 162l78 88q136 -133 325 -133q145 0 236.5 76t91.5 221q0 138 2 204q-60 -79 -152.5 -121t-195.5 -42q-204 0 -329.5 135
t-125.5 334q0 200 123.5 335.5t325.5 135.5q112 0 204.5 -43t151.5 -125zM555 100q163 0 253.5 101t90.5 252t-89 252.5t-253 101.5q-155 0 -245.5 -99.5t-90.5 -252.5q0 -154 91.5 -254.5t242.5 -100.5z" />
    <glyph glyph-name="Hcircumflex" unicode="&#x124;" horiz-adv-x="1523" 
d="M535 1540l-56 72l266 209h29l264 -211l-53 -70l-223 156zM205 0v1393h135v-629h846v629h133v-1393h-133v641h-846v-641h-135z" />
    <glyph glyph-name="hcircumflex" unicode="&#x125;" horiz-adv-x="1069" 
d="M446 1616l-223 156l-227 -156l-55 72l266 208h29l264 -210zM596 924q162 0 244 -97t82 -274v-553h-125v557q0 250 -213 250q-140 0 -219.5 -103.5t-79.5 -257.5v-446h-125v1468h125v-585q0 -89 -2 -142q44 84 123 133.5t190 49.5z" />
    <glyph glyph-name="Hbar" unicode="&#x126;" horiz-adv-x="1523" 
d="M1440 1155v-92h-121v-1063h-133v641h-846v-641h-135v1063h-121v92h121v238h135v-238h846v238h133v-238h121zM1186 764v299h-846v-299h846z" />
    <glyph glyph-name="hbar" unicode="&#x127;" horiz-adv-x="1069" 
d="M600 920q158 0 240 -97t82 -262v-561h-125v565q0 238 -213 238q-141 0 -220 -103t-79 -258v-442h-125v1133h-135v94h135v241h125v-241h350v-94h-350v-254q0 -89 -2 -138q41 80 122 129.5t195 49.5z" />
    <glyph glyph-name="Itilde" unicode="&#x128;" horiz-adv-x="544" 
d="M80 1591l-88 51q56 144 160 144q58 0 143 -43q68 -33 90 -33q50 0 78 72l88 -49q-55 -140 -158 -140q-58 0 -129 39q-68 35 -100 35q-56 0 -84 -76zM205 0v1393h135v-1393h-135z" />
    <glyph glyph-name="itilde" unicode="&#x129;" horiz-adv-x="444" 
d="M39 1147l-86 49q55 141 153 141q60 0 136 -43q59 -32 88 -32q48 0 73 71l89 -49q-58 -137 -154 -137q-53 0 -123 39q-65 35 -96 35q-55 0 -80 -74zM160 0v905h125v-905h-125z" />
    <glyph glyph-name="Imacron" unicode="&#x12a;" horiz-adv-x="544" 
d="M-6 1608v110h543v-110h-543zM205 0v1393h135v-1393h-135z" />
    <glyph glyph-name="imacron" unicode="&#x12b;" horiz-adv-x="444" 
d="M16 1145v110h410v-110h-410zM160 0v905h125v-905h-125z" />
    <glyph glyph-name="Ibreve" unicode="&#x12c;" horiz-adv-x="544" 
d="M272 1542q-98 0 -169.5 56.5t-94.5 160.5l94 25q15 -61 63 -97t107 -36t107 36t63 97l95 -25q-23 -104 -95 -160.5t-170 -56.5zM205 0v1393h135v-1393h-135z" />
    <glyph glyph-name="ibreve" unicode="&#x12d;" horiz-adv-x="444" 
d="M223 1081q-93 0 -160 56t-90 161l95 23q13 -61 58 -96t101 -35q52 0 95 36t55 95l94 -23q-21 -104 -88.5 -160.5t-159.5 -56.5zM160 0v905h125v-905h-125z" />
    <glyph glyph-name="Iogonek" unicode="&#x12e;" horiz-adv-x="544" 
d="M401 -291l37 -102q-70 -49 -166 -49q-92 0 -143 46t-51 124q0 126 127 286v1379h135v-1393q-129 -149 -129 -252q0 -35 22.5 -54.5t65.5 -19.5q48 0 102 35z" />
    <glyph glyph-name="iogonek" unicode="&#x12f;" horiz-adv-x="444" 
d="M221 1141q-42 0 -68 26.5t-26 65.5q0 42 26 69t68 27q45 0 71.5 -27.5t26.5 -70.5q0 -39 -27 -64.5t-71 -25.5zM356 -291l39 -96q-73 -49 -166 -49q-90 0 -137 43t-47 117q0 118 115 278v903h125v-905q-117 -147 -117 -248q0 -78 86 -78q51 0 102 35z" />
    <glyph glyph-name="Idotaccent" unicode="&#x130;" horiz-adv-x="544" 
d="M272 1597q-45 0 -70.5 28.5t-25.5 66.5q0 40 25 69t71 29q47 0 73 -29.5t26 -70.5q0 -37 -27 -65t-72 -28zM205 0v1393h135v-1393h-135z" />
    <glyph glyph-name="dotlessi" unicode="&#x131;" horiz-adv-x="444" 
d="M160 0v905h125v-905h-125z" />
    <glyph glyph-name="IJ" unicode="&#x132;" horiz-adv-x="1585" 
d="M205 0v1393h135v-1393h-135zM963 -25q-208 0 -381 127l67 109q137 -111 314 -111q143 0 220 86t77 248v959h133v-961q0 -222 -110.5 -339.5t-319.5 -117.5z" />
    <glyph glyph-name="ij" unicode="&#x133;" horiz-adv-x="894" 
d="M223 1143q-42 0 -68 26t-26 64q0 40 26 67t68 27t68 -27t26 -67q0 -39 -26.5 -64.5t-67.5 -25.5zM674 1143q-40 0 -66 26t-26 64q0 40 25.5 67t66.5 27q43 0 68.5 -27t25.5 -69q0 -37 -26.5 -62.5t-67.5 -25.5zM160 0v905h125v-905h-125zM381 -471l-16 111
q77 6 125.5 25.5t75 58t36.5 88t10 127.5v966h125v-960q0 -105 -16.5 -177t-57 -125.5t-109.5 -80.5t-173 -33z" />
    <glyph glyph-name="Jcircumflex" unicode="&#x134;" horiz-adv-x="1040" 
d="M555 1540l-57 70l266 211h31l262 -211l-53 -70l-224 156zM418 -25q-208 0 -381 127l67 109q137 -111 314 -111q143 0 220 86t77 248v959h133v-961q0 -222 -110.5 -339.5t-319.5 -117.5z" />
    <glyph glyph-name="jcircumflex" unicode="&#x135;" horiz-adv-x="452" 
d="M29 1073l-58 72l242 209h29l237 -211l-53 -70l-197 156zM-63 -471l-17 111q77 6 125.5 25.5t75.5 58t37 88.5t10 127v966h125v-960q0 -105 -16.5 -177t-57 -125.5t-109.5 -80.5t-173 -33z" />
    <glyph glyph-name="uni0136" unicode="&#x136;" horiz-adv-x="1193" 
d="M475 700l699 -694v-6h-170l-664 657v-657h-135v1393h135v-658l629 658h166v-7zM524 -565q64 176 64 350h137q-18 -212 -102 -350h-99z" />
    <glyph glyph-name="uni0137" unicode="&#x137;" horiz-adv-x="888" 
d="M397 467l471 -457v-10h-155l-428 420v-420h-125v1468h125v-960l391 397h151v-6zM371 -565q63 173 63 350h137q-18 -212 -102 -350h-98z" />
    <glyph glyph-name="kgreenlandic" unicode="&#x138;" horiz-adv-x="888" 
d="M397 467l471 -457v-10h-155l-428 420v-420h-125v905h125v-397l391 397h151v-6z" />
    <glyph glyph-name="Lacute" unicode="&#x139;" horiz-adv-x="1073" 
d="M170 1563l-64 71l271 232l82 -97zM205 0v1393h135v-1270h672v-123h-807z" />
    <glyph glyph-name="lacute" unicode="&#x13a;" horiz-adv-x="446" 
d="M115 1638l-64 72l271 232l81 -97zM162 0l-2 1468h125l2 -1468h-125z" />
    <glyph glyph-name="uni013B" unicode="&#x13b;" horiz-adv-x="1073" 
d="M205 0v1393h135v-1270h672v-123h-807zM473 -565q64 176 64 350h137q-18 -210 -103 -350h-98z" />
    <glyph glyph-name="uni013C" unicode="&#x13c;" horiz-adv-x="446" 
d="M162 0l-2 1468h125l2 -1468h-125zM100 -565q64 176 64 350h137q-18 -212 -102 -350h-99z" />
    <glyph glyph-name="Lcaron" unicode="&#x13d;" horiz-adv-x="1073" 
d="M205 0v1393h135v-1270h672v-123h-807zM645 1067q64 156 64 326h137q-18 -203 -105 -326h-96z" />
    <glyph glyph-name="lcaron" unicode="&#x13e;" horiz-adv-x="448" 
d="M160 0v1468h125v-1468h-125zM385 1135q47 178 47 333h137q-18 -196 -88 -333h-96z" />
    <glyph glyph-name="Ldot" unicode="&#x13f;" horiz-adv-x="1073" 
d="M205 0v1393h135v-1270h672v-123h-807zM786 614q-40 0 -69 25t-29 72q0 48 29 73t69 25q41 0 70 -25t29 -73q0 -47 -29.5 -72t-69.5 -25z" />
    <glyph glyph-name="ldot" unicode="&#x140;" horiz-adv-x="679" 
d="M160 0v1468h125v-1468h-125zM539 621q-40 0 -69.5 25t-29.5 71t29.5 71t69.5 25t68 -24.5t28 -71.5t-28 -71.5t-68 -24.5z" />
    <glyph glyph-name="Lslash" unicode="&#x141;" horiz-adv-x="1079" 
d="M348 123h672v-123h-807v590l-129 -43l-37 100l166 58v688h135v-643l295 100l37 -100l-332 -113v-514z" />
    <glyph glyph-name="lslash" unicode="&#x142;" horiz-adv-x="526" 
d="M502 764l-176 -68v-696h-125v647l-144 -55l-34 92l178 68v716h125v-669l143 55z" />
    <glyph glyph-name="Nacute" unicode="&#x143;" horiz-adv-x="1564" 
d="M967 1769l-291 -206l-64 71l271 232zM1225 1393h135v-1403h-60l-866 1020q-32 39 -100 114q6 -65 6 -133v-991h-135v1403h57l864 -1016q73 -82 103 -117q-4 51 -4 146v977z" />
    <glyph glyph-name="nacute" unicode="&#x144;" horiz-adv-x="1069" 
d="M711 1309l-289 -209l-64 74l271 231zM600 924q157 0 239.5 -96.5t82.5 -274.5v-553h-125v555q0 252 -209 252q-136 0 -219.5 -89t-83.5 -231v-487h-125v905h94l29 -153q42 76 124.5 124t192.5 48z" />
    <glyph glyph-name="uni0145" unicode="&#x145;" horiz-adv-x="1564" 
d="M1225 1393h135v-1403h-60l-866 1020q-32 39 -100 114q6 -65 6 -133v-991h-135v1403h57l864 -1016q73 -82 103 -117q-4 51 -4 146v977zM653 -565q64 176 64 350h135q-18 -216 -100 -350h-99z" />
    <glyph glyph-name="uni0146" unicode="&#x146;" horiz-adv-x="1069" 
d="M600 924q157 0 239.5 -96.5t82.5 -274.5v-553h-125v555q0 252 -209 252q-136 0 -219.5 -89t-83.5 -231v-487h-125v905h94l29 -153q42 76 124.5 124t192.5 48zM422 -565q63 173 63 350h138q-18 -210 -103 -350h-98z" />
    <glyph glyph-name="Ncaron" unicode="&#x147;" horiz-adv-x="1564" 
d="M801 1546h-31l-262 213l53 68l223 -156l228 156l55 -70zM1225 1393h135v-1403h-60l-866 1020q-32 39 -100 114q6 -65 6 -133v-991h-135v1403h57l864 -1016q73 -82 103 -117q-4 51 -4 146v977z" />
    <glyph glyph-name="ncaron" unicode="&#x148;" horiz-adv-x="1069" 
d="M547 1085h-31l-237 211l53 70l198 -156l201 156l55 -72zM600 924q157 0 239.5 -96.5t82.5 -274.5v-553h-125v555q0 252 -209 252q-136 0 -219.5 -89t-83.5 -231v-487h-125v905h94l29 -153q42 76 124.5 124t192.5 48z" />
    <glyph glyph-name="napostrophe" unicode="&#x149;" horiz-adv-x="1069" 
d="M-35 963q63 174 66 350h135q-17 -207 -103 -350h-98zM160 0v905h94l29 -168q40 82 120.5 134.5t192.5 52.5q160 0 243 -96.5t83 -272.5v-555h-125v557q0 250 -211 250q-141 0 -221 -103t-80 -258v-446h-125z" />
    <glyph glyph-name="Eng" unicode="&#x14a;" horiz-adv-x="1566" 
d="M1227 1393h135v-1409q0 -214 -106 -329.5t-298 -113.5l-18 121q138 0 212.5 83.5t74.5 240.5v90l-815 954q-29 34 -76 94q4 -43 4 -112v-1012h-135v1403h57l875 -1030q85 -102 94 -113q-4 45 -4 117v1016z" />
    <glyph glyph-name="eng" unicode="&#x14b;" horiz-adv-x="1069" 
d="M596 -453l-12 111q117 3 165 58.5t48 181.5v657q0 252 -209 252q-136 0 -219.5 -89t-83.5 -231v-487h-125v905h94l27 -157q43 77 125.5 126.5t193.5 49.5q157 0 239.5 -96t82.5 -275v-657q0 -170 -83 -259.5t-243 -89.5z" />
    <glyph glyph-name="Omacron" unicode="&#x14c;" horiz-adv-x="1644" 
d="M545 1608v110h542v-110h-542zM821 -25q-201 0 -363.5 98t-251.5 263t-89 362q0 205 89.5 369t250.5 257t364 93q206 0 367.5 -93t250.5 -257t89 -369q0 -198 -88.5 -362.5t-251.5 -262.5t-367 -98zM821 100q125 0 233 47t182 128t115.5 190.5t41.5 232.5q0 171 -71 306
t-202 211.5t-299 76.5q-166 0 -296.5 -76.5t-201.5 -211.5t-71 -306q0 -164 71 -300.5t202 -217t296 -80.5z" />
    <glyph glyph-name="omacron" unicode="&#x14d;" horiz-adv-x="1126" 
d="M299 1147v108h526v-108h-526zM561 -23q-204 0 -335.5 133.5t-131.5 342.5t131.5 342t335.5 133q207 0 339 -133t132 -342t-132 -342.5t-339 -133.5zM561 94q152 0 248 100.5t96 258.5t-95.5 258t-248.5 100q-150 0 -245 -100.5t-95 -257.5q0 -158 94.5 -258.5
t245.5 -100.5z" />
    <glyph glyph-name="Obreve" unicode="&#x14e;" horiz-adv-x="1644" 
d="M823 1542q-98 0 -169.5 56.5t-94.5 160.5l94 25q15 -61 63 -97t107 -36t107 36t63 97l94 -25q-23 -104 -94.5 -160.5t-169.5 -56.5zM821 -25q-201 0 -363.5 98t-251.5 263t-89 362q0 205 89.5 369t250.5 257t364 93q206 0 367.5 -93t250.5 -257t89 -369
q0 -198 -88.5 -362.5t-251.5 -262.5t-367 -98zM821 100q125 0 233 47t182 128t115.5 190.5t41.5 232.5q0 171 -71 306t-202 211.5t-299 76.5q-166 0 -296.5 -76.5t-201.5 -211.5t-71 -306q0 -164 71 -300.5t202 -217t296 -80.5z" />
    <glyph glyph-name="obreve" unicode="&#x14f;" horiz-adv-x="1126" 
d="M563 1081q-93 0 -160 56t-90 161l95 23q13 -61 58 -96t101 -35q52 0 95 36t55 95l94 -23q-21 -104 -88.5 -160.5t-159.5 -56.5zM561 -23q-204 0 -335.5 133.5t-131.5 342.5t131.5 342t335.5 133q207 0 339 -133t132 -342t-132 -342.5t-339 -133.5zM561 94
q152 0 248 100.5t96 258.5t-95.5 258t-248.5 100q-150 0 -245 -100.5t-95 -257.5q0 -158 94.5 -258.5t245.5 -100.5z" />
    <glyph glyph-name="Ohungarumlaut" unicode="&#x150;" horiz-adv-x="1644" 
d="M631 1538l-80 55l199 285l106 -72zM961 1538l-80 55l198 285l107 -72zM821 -25q-201 0 -363.5 98t-251.5 263t-89 362q0 205 89.5 369t250.5 257t364 93q206 0 367.5 -93t250.5 -257t89 -369q0 -198 -88.5 -362.5t-251.5 -262.5t-367 -98zM821 100q125 0 233 47t182 128
t115.5 190.5t41.5 232.5q0 171 -71 306t-202 211.5t-299 76.5q-166 0 -296.5 -76.5t-201.5 -211.5t-71 -306q0 -164 71 -300.5t202 -217t296 -80.5z" />
    <glyph glyph-name="ohungarumlaut" unicode="&#x151;" horiz-adv-x="1126" 
d="M371 1077l-80 56l198 284l107 -71zM700 1077l-79 56l198 284l107 -71zM561 -23q-204 0 -335.5 133.5t-131.5 342.5t131.5 342t335.5 133q207 0 339 -133t132 -342t-132 -342.5t-339 -133.5zM561 94q152 0 248 100.5t96 258.5t-95.5 258t-248.5 100q-150 0 -245 -100.5
t-95 -257.5q0 -158 94.5 -258.5t245.5 -100.5z" />
    <glyph glyph-name="OE" unicode="&#x152;" horiz-adv-x="1843" 
d="M1126 123h627v-123h-754q-86 -25 -178 -25q-152 0 -284 56.5t-223.5 153.5t-144 229.5t-52.5 281.5q0 201 87.5 365t249.5 260t367 96q96 0 178 -24h736v-123h-609v-496h541v-121h-541v-530zM999 129v1135q-86 28 -178 28q-169 0 -300 -79.5t-200 -214.5t-69 -302
q0 -166 70.5 -301.5t201.5 -215t297 -79.5q89 0 178 29z" />
    <glyph glyph-name="oe" unicode="&#x153;" horiz-adv-x="1798" 
d="M1305 926q191 0 301 -118t110 -327q0 -22 -4 -80h-711q15 -144 101.5 -224.5t218.5 -80.5q85 0 151.5 25.5t131.5 81.5l67 -88q-153 -135 -344 -135q-135 0 -238 63.5t-147 173.5q-50 -112 -151.5 -174.5t-241.5 -62.5q-202 0 -328.5 133.5t-126.5 343.5q0 205 126.5 336
t328.5 131q141 0 242 -62t151 -176q41 107 138 173.5t225 66.5zM555 96q151 0 240.5 100t89.5 261q0 157 -89.5 254.5t-240.5 97.5q-154 0 -245 -97.5t-91 -254.5q0 -161 91 -261t245 -100zM1309 809q-130 0 -212 -80.5t-96 -216.5h594q0 138 -77 217.5t-209 79.5z" />
    <glyph glyph-name="Racute" unicode="&#x154;" horiz-adv-x="1280" 
d="M811 1769l-289 -206l-63 71l270 232zM805 584l397 -578v-6h-155l-392 578h-315v-578h-135v1393h526q186 0 315.5 -118.5t129.5 -291.5q0 -157 -100.5 -265t-270.5 -134zM340 700h385q145 0 230 77.5t85 203.5q0 123 -87 206t-222 83h-391v-570z" />
    <glyph glyph-name="racute" unicode="&#x155;" horiz-adv-x="716" 
d="M586 1309l-289 -209l-64 74l271 231zM543 924q76 0 147 -31l-37 -111q-67 23 -121 23q-112 0 -179.5 -75.5t-67.5 -205.5v-524h-125v905h94l25 -133q82 152 264 152z" />
    <glyph glyph-name="uni0156" unicode="&#x156;" horiz-adv-x="1280" 
d="M805 584l397 -578v-6h-155l-392 578h-315v-578h-135v1393h526q186 0 315.5 -118.5t129.5 -291.5q0 -157 -100.5 -265t-270.5 -134zM340 700h385q145 0 230 77.5t85 203.5q0 123 -87 206t-222 83h-391v-570zM530 -565q64 176 64 350h137q-18 -212 -102 -350h-99z" />
    <glyph glyph-name="uni0157" unicode="&#x157;" horiz-adv-x="716" 
d="M543 924q76 0 147 -31l-37 -111q-67 23 -121 23q-112 0 -179.5 -75.5t-67.5 -205.5v-524h-125v905h94l25 -133q82 152 264 152zM84 -565q63 173 63 350h138q-18 -210 -103 -350h-98z" />
    <glyph glyph-name="Rcaron" unicode="&#x158;" horiz-adv-x="1280" 
d="M649 1546h-31l-262 213l54 68l223 -156l225 156l57 -70zM805 584l397 -578v-6h-155l-392 578h-315v-578h-135v1393h526q186 0 315.5 -118.5t129.5 -291.5q0 -157 -100.5 -265t-270.5 -134zM340 700h385q145 0 230 77.5t85 203.5q0 123 -87 206t-222 83h-391v-570z" />
    <glyph glyph-name="rcaron" unicode="&#x159;" horiz-adv-x="716" 
d="M422 1085h-31l-237 211l53 70l199 -156l200 156l56 -72zM543 924q76 0 147 -31l-37 -111q-67 23 -121 23q-112 0 -179.5 -75.5t-67.5 -205.5v-524h-125v905h94l25 -133q82 152 264 152z" />
    <glyph glyph-name="Sacute" unicode="&#x15a;" horiz-adv-x="1161" 
d="M483 1563l-63 71l270 232l82 -97zM596 -25q-137 0 -262 45.5t-217 122.5l69 107q79 -71 185 -110.5t225 -39.5q137 0 231.5 69t94.5 189q0 50 -19 92t-47.5 71t-77.5 56.5t-91.5 45t-106.5 39.5q-71 25 -124 48t-113 59.5t-98 76.5t-63.5 98t-25.5 125q0 106 60 186.5
t156 121t210 40.5q233 0 422 -139l-62 -102q-164 116 -354 116q-121 0 -208 -57t-87 -160q0 -35 10.5 -66.5t26 -55t44 -46t52 -37.5t64 -32.5t67 -27.5t72.5 -26q77 -28 133.5 -52.5t115.5 -62t95.5 -79t60 -99t23.5 -126.5q0 -178 -131.5 -284t-329.5 -106z" />
    <glyph glyph-name="sacute" unicode="&#x15b;" horiz-adv-x="811" 
d="M293 1100l-64 74l271 231l82 -96zM418 -16q-185 0 -330 100l64 98q115 -82 266 -82q83 0 132.5 38t49.5 100q0 59 -53.5 97.5t-155.5 78.5q-62 24 -105.5 47t-83.5 55.5t-60.5 75t-20.5 94.5q0 109 85 169t208 60q149 0 274 -81l-55 -91q-103 58 -213 58q-76 0 -125 -28
t-49 -87q0 -56 47.5 -91.5t142.5 -72.5q68 -25 115.5 -49.5t89.5 -58t63 -77.5t21 -99q0 -113 -86 -183.5t-221 -70.5z" />
    <glyph glyph-name="Scircumflex" unicode="&#x15c;" horiz-adv-x="1161" 
d="M369 1540l-56 72l267 209h28l264 -211l-53 -70l-223 156zM596 -25q-137 0 -262 45.5t-217 122.5l69 107q79 -71 185 -110.5t225 -39.5q137 0 231.5 69t94.5 189q0 50 -19 92t-47.5 71t-77.5 56.5t-91.5 45t-106.5 39.5q-71 25 -124 48t-113 59.5t-98 76.5t-63.5 98
t-25.5 125q0 106 60 186.5t156 121t210 40.5q233 0 422 -139l-62 -102q-164 116 -354 116q-121 0 -208 -57t-87 -160q0 -35 10.5 -66.5t26 -55t44 -46t52 -37.5t64 -32.5t67 -27.5t72.5 -26q77 -28 133.5 -52.5t115.5 -62t95.5 -79t60 -99t23.5 -126.5q0 -178 -131.5 -284
t-329.5 -106z" />
    <glyph glyph-name="scircumflex" unicode="&#x15d;" horiz-adv-x="811" 
d="M205 1073l-58 72l242 209h29l237 -211l-53 -70l-196 156zM418 -16q-185 0 -330 100l64 98q115 -82 266 -82q83 0 132.5 38t49.5 100q0 59 -53.5 97.5t-155.5 78.5q-62 24 -105.5 47t-83.5 55.5t-60.5 75t-20.5 94.5q0 109 85 169t208 60q149 0 274 -81l-55 -91
q-103 58 -213 58q-76 0 -125 -28t-49 -87q0 -56 47.5 -91.5t142.5 -72.5q68 -25 115.5 -49.5t89.5 -58t63 -77.5t21 -99q0 -113 -86 -183.5t-221 -70.5z" />
    <glyph glyph-name="Scedilla" unicode="&#x15e;" horiz-adv-x="1161" 
d="M1057 365q0 -160 -107.5 -262t-277.5 -123l-39 -86q83 -8 135.5 -50.5t52.5 -113.5q0 -78 -60 -123t-153 -45q-127 0 -207 55l43 84q65 -45 154 -45q52 0 83.5 19.5t31.5 58.5q0 38 -33.5 61t-79 30t-100.5 5l63 145q-258 12 -446 168l69 107q79 -71 185 -110.5
t225 -39.5q137 0 231.5 69t94.5 189q0 50 -19 92t-47.5 71t-77.5 56.5t-91.5 45t-106.5 39.5q-71 25 -124 48t-113 59.5t-98 76.5t-63.5 98t-25.5 125q0 106 60 186.5t156 121t210 40.5q233 0 422 -139l-62 -102q-164 116 -354 116q-121 0 -208 -57t-87 -160
q0 -35 10.5 -66.5t26 -55t44 -46t52 -37.5t64 -32.5t67 -27.5t72.5 -26q77 -28 133.5 -52.5t115.5 -62t95.5 -79t60 -99t23.5 -126.5z" />
    <glyph glyph-name="scedilla" unicode="&#x15f;" horiz-adv-x="811" 
d="M725 238q0 -101 -69.5 -168.5t-182.5 -81.5l-43 -99q83 -8 133.5 -49t50.5 -110q0 -75 -57.5 -118.5t-148.5 -43.5q-115 0 -201 53l43 80q65 -43 147 -43q52 0 82.5 20t30.5 58q0 36 -32.5 58.5t-76.5 29.5t-98 6l68 156q-151 9 -283 98l64 98q115 -82 266 -82
q83 0 132.5 38t49.5 100q0 59 -53.5 97.5t-155.5 78.5q-62 24 -105.5 47t-83.5 55.5t-60.5 75t-20.5 94.5q0 109 85 169t208 60q149 0 274 -81l-55 -91q-103 58 -213 58q-76 0 -125 -28t-49 -87q0 -56 47.5 -91.5t142.5 -72.5q68 -25 115.5 -49.5t89.5 -58t63 -77.5t21 -99z
" />
    <glyph glyph-name="Scaron" unicode="&#x160;" horiz-adv-x="1161" 
d="M580 1546l-263 213l54 68l223 -156l225 156l58 -70l-267 -211h-30zM596 -25q-137 0 -262 45.5t-217 122.5l69 107q79 -71 185 -110.5t225 -39.5q137 0 231.5 69t94.5 189q0 50 -19 92t-47.5 71t-77.5 56.5t-91.5 45t-106.5 39.5q-71 25 -124 48t-113 59.5t-98 76.5
t-63.5 98t-25.5 125q0 106 60 186.5t156 121t210 40.5q233 0 422 -139l-62 -102q-164 116 -354 116q-121 0 -208 -57t-87 -160q0 -35 10.5 -66.5t26 -55t44 -46t52 -37.5t64 -32.5t67 -27.5t72.5 -26q77 -28 133.5 -52.5t115.5 -62t95.5 -79t60 -99t23.5 -126.5
q0 -178 -131.5 -284t-329.5 -106z" />
    <glyph glyph-name="scaron" unicode="&#x161;" horiz-adv-x="811" 
d="M389 1085l-237 211l53 70l198 -156l201 156l55 -72l-239 -209h-31zM418 -16q-185 0 -330 100l64 98q115 -82 266 -82q83 0 132.5 38t49.5 100q0 59 -53.5 97.5t-155.5 78.5q-62 24 -105.5 47t-83.5 55.5t-60.5 75t-20.5 94.5q0 109 85 169t208 60q149 0 274 -81l-55 -91
q-103 58 -213 58q-76 0 -125 -28t-49 -87q0 -56 47.5 -91.5t142.5 -72.5q68 -25 115.5 -49.5t89.5 -58t63 -77.5t21 -99q0 -113 -86 -183.5t-221 -70.5z" />
    <glyph glyph-name="uni0162" unicode="&#x162;" horiz-adv-x="1085" 
d="M610 0h-12l-47 -106q83 -8 136.5 -51t53.5 -111q0 -80 -61 -125t-156 -45q-124 0 -207 55l45 84q62 -45 152 -45q115 0 115 80q0 37 -33.5 59.5t-78.5 29.5t-99 5l74 170h-17v1270h-428v123h991v-123h-428v-1270z" />
    <glyph glyph-name="uni0163" unicode="&#x163;" horiz-adv-x="735" 
d="M463 -111q83 -8 133.5 -49t50.5 -110q0 -75 -58.5 -118.5t-148.5 -43.5q-114 0 -200 53l43 80q65 -43 147 -43q50 0 81.5 20t31.5 58q0 36 -32.5 58.5t-76.5 29.5t-98 6l70 158q-88 15 -135.5 82.5t-47.5 185.5v539l-176 8v102h176v301h125v-301h324v-110h-324v-539
q0 -83 32 -118.5t95 -35.5q92 0 178 62l56 -94q-97 -73 -205 -84z" />
    <glyph glyph-name="Tcaron" unicode="&#x164;" horiz-adv-x="1085" 
d="M557 1546h-31l-262 213l53 68l224 -156l225 156l57 -70zM1038 1393v-123h-428v-1270h-135v1270h-428v123h991z" />
    <glyph glyph-name="tcaron" unicode="&#x165;" horiz-adv-x="722" 
d="M469 1069q55 160 55 317h127q-12 -191 -90 -317h-92zM455 -16q-108 0 -170 68.5t-62 203.5v535l-176 8v106h176v301h125v-301h324v-114h-324v-535q0 -156 123 -156q85 3 170 64l57 -94q-118 -86 -243 -86z" />
    <glyph glyph-name="Tbar" unicode="&#x166;" horiz-adv-x="1085" 
d="M1038 1270h-428v-533h275v-94h-275v-643h-135v643h-274v94h274v533h-428v123h991v-123z" />
    <glyph glyph-name="tbar" unicode="&#x167;" horiz-adv-x="722" 
d="M641 164l57 -94q-118 -86 -243 -86q-108 0 -170 68.5t-62 203.5v164h-102v94h102v277l-176 8v106h176v301h125v-301h324v-114h-324v-277h232v-94h-232v-164q0 -83 31.5 -118.5t91.5 -35.5q84 0 170 62z" />
    <glyph glyph-name="Utilde" unicode="&#x168;" horiz-adv-x="1441" 
d="M532 1591l-88 51q56 144 160 144q59 0 144 -43q68 -33 90 -33q49 0 77 72l89 -49q-55 -140 -158 -140q-58 0 -129 39q-68 35 -101 35q-56 0 -84 -76zM723 -25q-150 0 -269.5 56t-192.5 171.5t-73 274.5v916h136v-914q0 -187 108 -284t291 -97q180 0 287.5 97.5
t107.5 283.5v914h135v-916q0 -159 -72.5 -274.5t-191 -171.5t-266.5 -56z" />
    <glyph glyph-name="utilde" unicode="&#x169;" horiz-adv-x="1062" 
d="M346 1133l-88 49q56 141 154 141q62 0 135 -43q64 -33 88 -33q48 0 74 72l88 -49q-54 -135 -154 -135q-56 0 -121 36q-72 37 -98 37q-53 0 -78 -75zM778 905h125v-905h-96l-25 158q-43 -78 -120.5 -126t-184.5 -48q-164 0 -247 99t-83 271v551h125v-553q0 -252 220 -252
q131 0 208.5 102.5t77.5 252.5v450z" />
    <glyph glyph-name="Umacron" unicode="&#x16a;" horiz-adv-x="1441" 
d="M446 1608v110h543v-110h-543zM723 -25q-150 0 -269.5 56t-192.5 171.5t-73 274.5v916h136v-914q0 -187 108 -284t291 -97q180 0 287.5 97.5t107.5 283.5v914h135v-916q0 -159 -72.5 -274.5t-191 -171.5t-266.5 -56z" />
    <glyph glyph-name="umacron" unicode="&#x16b;" horiz-adv-x="1062" 
d="M266 1147v108h527v-108h-527zM778 905h125v-905h-96l-25 158q-43 -78 -120.5 -126t-184.5 -48q-164 0 -247 99t-83 271v551h125v-553q0 -252 220 -252q131 0 208.5 102.5t77.5 252.5v450z" />
    <glyph glyph-name="Ubreve" unicode="&#x16c;" horiz-adv-x="1441" 
d="M725 1542q-98 0 -169.5 56.5t-94.5 160.5l94 25q15 -61 63 -97t107 -36t107 36t63 97l94 -25q-23 -104 -94.5 -160.5t-169.5 -56.5zM723 -25q-150 0 -269.5 56t-192.5 171.5t-73 274.5v916h136v-914q0 -187 108 -284t291 -97q180 0 287.5 97.5t107.5 283.5v914h135v-916
q0 -159 -72.5 -274.5t-191 -171.5t-266.5 -56z" />
    <glyph glyph-name="ubreve" unicode="&#x16d;" horiz-adv-x="1062" 
d="M530 1081q-93 0 -159.5 56t-89.5 161l94 23q13 -61 58.5 -96t101.5 -35q52 0 94.5 36t54.5 95l94 -23q-21 -104 -88.5 -160.5t-159.5 -56.5zM778 905h125v-905h-96l-27 158q-41 -77 -119.5 -125.5t-183.5 -48.5q-164 0 -247 99t-83 271v551h125v-553q0 -252 220 -252
q131 0 208.5 102.5t77.5 252.5v450z" />
    <glyph glyph-name="Uring" unicode="&#x16e;" horiz-adv-x="1441" 
d="M725 1493q-89 0 -153 53.5t-64 147.5t62 147t151 53t153 -53.5t64 -146.5q0 -92 -63 -146.5t-150 -54.5zM723 1575q50 0 85.5 31.5t35.5 87.5q0 57 -36 89t-87 32q-49 0 -84 -32.5t-35 -88.5q0 -55 36 -87t85 -32zM723 -25q-150 0 -269.5 56t-192.5 171.5t-73 274.5v916
h136v-914q0 -187 108 -284t291 -97q180 0 287.5 97.5t107.5 283.5v914h135v-916q0 -159 -72.5 -274.5t-191 -171.5t-266.5 -56z" />
    <glyph glyph-name="uring" unicode="&#x16f;" horiz-adv-x="1062" 
d="M530 1036q-88 0 -151.5 52.5t-63.5 144.5t63 144.5t150 52.5t149 -52.5t62 -144.5t-61 -144.5t-148 -52.5zM528 1118q49 0 83 30.5t34 84.5t-34 85.5t-83 31.5t-83.5 -31.5t-34.5 -85.5t35 -84.5t83 -30.5zM778 905h125v-905h-96l-25 158q-43 -78 -120.5 -126t-184.5 -48
q-164 0 -247 99t-83 271v551h125v-553q0 -252 220 -252q131 0 208.5 102.5t77.5 252.5v450z" />
    <glyph glyph-name="Uhungarumlaut" unicode="&#x170;" horiz-adv-x="1441" 
d="M532 1538l-79 55l198 285l107 -72zM862 1538l-80 55l199 285l106 -72zM723 -25q-150 0 -269.5 56t-192.5 171.5t-73 274.5v916h136v-914q0 -187 108 -284t291 -97q180 0 287.5 97.5t107.5 283.5v914h135v-916q0 -159 -72.5 -274.5t-191 -171.5t-266.5 -56z" />
    <glyph glyph-name="uhungarumlaut" unicode="&#x171;" horiz-adv-x="1062" 
d="M338 1077l-80 56l199 284l106 -71zM668 1077l-80 56l198 284l107 -71zM778 905h125v-905h-96l-25 158q-43 -78 -120.5 -126t-184.5 -48q-164 0 -247 99t-83 271v551h125v-553q0 -252 220 -252q131 0 208.5 102.5t77.5 252.5v450z" />
    <glyph glyph-name="Uogonek" unicode="&#x172;" horiz-adv-x="1441" 
d="M1118 1393h135v-916q0 -265 -192 -403q-140 -120 -192 -193t-52 -133q0 -35 22.5 -54.5t65.5 -19.5q50 0 101 35l38 -102q-70 -49 -165 -49q-92 0 -143.5 46t-51.5 122q0 118 135 256q-54 -7 -96 -7q-150 0 -269.5 56t-192.5 171.5t-73 274.5v916h136v-914
q0 -187 108 -284t291 -97q180 0 287.5 97.5t107.5 283.5v914z" />
    <glyph glyph-name="uogonek" unicode="&#x173;" horiz-adv-x="1062" 
d="M913 -291l37 -96q-70 -49 -166 -49q-88 0 -136 45.5t-48 116.5q0 134 201 313l-19 119q-43 -78 -120.5 -126t-184.5 -48q-164 0 -247 99t-83 271v551h125v-553q0 -252 220 -252q131 0 208.5 102.5t77.5 252.5v450h125v-903l2 -2q-180 -145 -180 -252q0 -74 86 -74
q48 0 102 35z" />
    <glyph glyph-name="Wcircumflex" unicode="&#x174;" horiz-adv-x="1974" 
d="M987 1696l-227 -156l-55 72l266 209h28l265 -211l-54 -70zM1790 1393h139v-7l-481 -1396h-41l-367 903q-24 56 -55 158q-36 -118 -53 -158l-367 -903h-41l-479 1396v7h139l308 -912q39 -108 65 -213q38 131 72 211l336 840h39l323 -799q50 -123 90 -254q27 100 76 240z
" />
    <glyph glyph-name="wcircumflex" unicode="&#x175;" horiz-adv-x="1361" 
d="M682 1229l-201 -156l-57 72l242 209h28l238 -211l-53 -70zM1192 905h127v-4l-318 -911h-38l-281 626l-285 -626h-37l-317 911v4h127l188 -543q23 -70 35 -114q10 28 45 110l228 498h30l226 -496q30 -61 47 -114q20 72 37 119z" />
    <glyph glyph-name="Ycircumflex" unicode="&#x176;" horiz-adv-x="1280" 
d="M641 1696l-227 -156l-56 72l267 209h28l265 -211l-54 -70zM1077 1393h156v-7l-526 -761v-625h-134v625l-526 761v7h156l317 -463q79 -117 121 -195q48 92 119 195z" />
    <glyph glyph-name="ycircumflex" unicode="&#x177;" horiz-adv-x="944" 
d="M473 1229l-201 -156l-57 72l242 209h28l238 -211l-53 -70zM786 905h129v-4l-557 -1352h-131v5l201 471l-395 876v4h131l260 -579q39 -87 65 -168q16 52 62 168z" />
    <glyph glyph-name="Ydieresis" unicode="&#x178;" horiz-adv-x="1280" 
d="M442 1602q-41 0 -66.5 26.5t-25.5 63.5t24.5 65.5t67.5 28.5t69 -27.5t26 -62.5q0 -37 -26 -65.5t-69 -28.5zM834 1602q-43 0 -69 28t-26 64q0 35 26 63.5t69 28.5t67.5 -28t24.5 -64t-25 -64t-67 -28zM1077 1393h156v-7l-526 -761v-625h-134v625l-526 761v7h156
l317 -463q75 -109 121 -193q50 92 119 193z" />
    <glyph glyph-name="Zacute" unicode="&#x179;" horiz-adv-x="1173" 
d="M483 1563l-63 71l270 232l82 -97zM90 0v41l696 1094q2 3 35 56t53 81q-47 -2 -143 -2h-606v123h946v-41l-700 -1104q-80 -121 -84 -127q47 2 129 2h676v-123h-1002z" />
    <glyph glyph-name="zacute" unicode="&#x17a;" horiz-adv-x="849" 
d="M610 1309l-288 -209l-64 74l270 231zM420 115h346v-115h-678v39l426 661q29 50 59 93q-49 -2 -110 -2h-352v114h649v-37l-402 -620q-68 -105 -90 -135q59 2 152 2z" />
    <glyph glyph-name="Zdotaccent" unicode="&#x17b;" horiz-adv-x="1173" 
d="M596 1597q-45 0 -70.5 28.5t-25.5 66.5q0 40 25 69t71 29q47 0 72.5 -29.5t25.5 -70.5q0 -38 -26.5 -65.5t-71.5 -27.5zM90 0v41l696 1094q2 3 35 56t53 81q-47 -2 -143 -2h-606v123h946v-41l-700 -1104q-80 -121 -84 -127q47 2 129 2h676v-123h-1002z" />
    <glyph glyph-name="zdotaccent" unicode="&#x17c;" horiz-adv-x="849" 
d="M432 1139q-43 0 -69.5 27.5t-26.5 66.5q0 42 26.5 70t69.5 28q44 0 71 -28.5t27 -71.5q0 -39 -28 -65.5t-70 -26.5zM420 115h346v-115h-678v39l426 661l59 93q-51 -2 -110 -2h-352v114h649v-37l-402 -620q-32 -53 -88 -133h150z" />
    <glyph glyph-name="Zcaron" unicode="&#x17d;" horiz-adv-x="1173" 
d="M580 1546l-263 213l54 68l223 -156l225 156l58 -70l-267 -211h-30zM90 0v41l696 1094q2 3 35 56t53 81q-47 -2 -143 -2h-606v123h946v-41l-700 -1104q-80 -121 -84 -127q47 2 129 2h676v-123h-1002z" />
    <glyph glyph-name="zcaron" unicode="&#x17e;" horiz-adv-x="849" 
d="M446 1085h-30l-238 211l53 70l199 -156l201 156l55 -72zM420 115h346v-115h-678v39l426 661q29 50 59 93q-49 -2 -110 -2h-352v114h649v-37l-402 -620q-68 -105 -90 -135q59 2 152 2z" />
    <glyph glyph-name="florin" unicode="&#x192;" horiz-adv-x="950" 
d="M764 1260q-165 0 -186 -218l-23 -223h264l-12 -123h-264l-74 -704q-18 -173 -102.5 -256.5t-221.5 -83.5q-118 0 -194 67l55 105q61 -49 137 -49q168 0 189 217l71 704l-249 6l10 117h252l22 225q17 163 103.5 251.5t220.5 88.5q122 0 194 -69l-55 -103q-60 48 -137 48z
" />
    <glyph glyph-name="AEacute" unicode="&#x1fc;" horiz-adv-x="1759" 
d="M1315 1769l-289 -206l-63 71l270 232zM1034 123h635v-123h-764v322h-540l-209 -322h-148v6l903 1387h738v-123h-615v-492h541v-121h-541v-534zM444 442h461v514v207q-29 -51 -78 -129z" />
    <glyph glyph-name="aeacute" unicode="&#x1fd;" horiz-adv-x="1544" 
d="M942 1309l-289 -209l-63 74l270 231zM1096 915q175 0 270.5 -119.5t95.5 -308.5q0 -21 -4 -71h-665q10 -148 92 -234t211 -86q147 0 254 107l69 -86q-66 -66 -149.5 -101.5t-171.5 -35.5q-127 0 -221 59.5t-142 165.5q-112 -221 -362 -221q-124 0 -204.5 69t-80.5 189
q0 78 37.5 138t102 94.5t143 51.5t168.5 17q73 0 141 -8v73q0 191 -213 191q-139 0 -291 -76l-41 106q179 86 342 86q109 0 183.5 -43.5t99.5 -134.5q44 84 129.5 131t206.5 47zM795 526h544q-3 125 -68.5 199t-180.5 74q-124 0 -200 -72t-95 -201zM389 100q124 0 207 88
t84 240q-60 8 -131 8q-68 0 -123.5 -9t-104 -29.5t-75.5 -59t-27 -92.5q0 -68 45.5 -107t124.5 -39z" />
    <glyph glyph-name="Oslashacute" unicode="&#x1fe;" horiz-adv-x="1644" 
d="M999 1769l-288 -206l-64 71l271 232zM1278 1262q120 -98 185 -243.5t65 -320.5q0 -198 -88.5 -362.5t-251.5 -262.5t-367 -98q-201 0 -368 101l-119 -170l-86 59l121 172q-119 100 -185.5 246.5t-66.5 314.5q0 205 89.5 369t250.5 257t364 93q206 0 373 -96l137 199
l86 -58zM252 698q0 -136 49.5 -254t140.5 -200l678 970q-134 78 -299 78q-166 0 -296.5 -76.5t-201.5 -211.5t-71 -306zM821 100q125 0 233 47t182 128t115.5 190.5t41.5 232.5q0 142 -50 260.5t-141 196.5l-678 -973q130 -82 297 -82z" />
    <glyph glyph-name="oslashacute" unicode="&#x1ff;" horiz-adv-x="1126" 
d="M741 1309l-288 -209l-64 74l270 231zM872 821q76 -64 118 -158.5t42 -209.5q0 -209 -132 -342.5t-339 -133.5q-129 0 -229 56l-78 -115l-78 53l78 113q-76 64 -118 159.5t-42 209.5q0 209 131.5 342t335.5 133q130 0 232 -54l79 113l76 -53zM221 453q0 -169 105 -269
l401 588q-73 39 -166 39q-150 0 -245 -100.5t-95 -257.5zM561 94q152 0 248 100.5t96 258.5q0 170 -106 268l-402 -588q73 -39 164 -39z" />
    <glyph glyph-name="uni0218" unicode="&#x218;" horiz-adv-x="1161" 
d="M596 -25q-137 0 -262 45.5t-217 122.5l69 107q79 -71 185 -110.5t225 -39.5q137 0 231.5 69t94.5 189q0 50 -19 92t-47.5 71t-77.5 56.5t-91.5 45t-106.5 39.5q-71 25 -124 48t-113 59.5t-98 76.5t-63.5 98t-25.5 125q0 106 60 186.5t156 121t210 40.5q233 0 422 -139
l-62 -102q-164 116 -354 116q-121 0 -208 -57t-87 -160q0 -35 10.5 -66.5t26 -55t44 -46t52 -37.5t64 -32.5t67 -27.5t72.5 -26q77 -28 133.5 -52.5t115.5 -62t95.5 -79t60 -99t23.5 -126.5q0 -178 -131.5 -284t-329.5 -106zM471 -565q64 176 64 350h137q-18 -210 -103 -350
h-98z" />
    <glyph glyph-name="uni0219" unicode="&#x219;" horiz-adv-x="811" 
d="M418 -16q-185 0 -330 100l64 98q115 -82 266 -82q83 0 132.5 38t49.5 100q0 59 -53.5 97.5t-155.5 78.5q-62 24 -105.5 47t-83.5 55.5t-60.5 75t-20.5 94.5q0 109 85 169t208 60q149 0 274 -81l-55 -91q-103 58 -213 58q-76 0 -125 -28t-49 -87q0 -56 47.5 -91.5
t142.5 -72.5q68 -25 115.5 -49.5t89.5 -58t63 -77.5t21 -99q0 -113 -86 -183.5t-221 -70.5zM289 -565q63 173 63 350h137q-18 -212 -102 -350h-98z" />
    <glyph glyph-name="uni021A" unicode="&#x21a;" horiz-adv-x="1085" 
d="M47 1393h991v-123h-428v-1270h-135v1270h-428v123zM412 -565q63 173 63 350h137q-18 -212 -102 -350h-98z" />
    <glyph glyph-name="uni021B" unicode="&#x21b;" horiz-adv-x="735" 
d="M463 -16q-114 0 -177 68t-63 204v539l-176 8v102h176v301h125v-301h324v-110h-324v-539q0 -83 32 -118.5t95 -35.5q92 0 178 62l56 -94q-115 -86 -246 -86zM324 -565q63 173 63 350h137q-18 -212 -102 -350h-98z" />
    <glyph glyph-name="uni0237" unicode="&#x237;" horiz-adv-x="452" 
d="M-63 -471l-17 111q77 6 125.5 25.5t75.5 58t37 88.5t10 127v966h125v-960q0 -105 -16.5 -177t-57 -125.5t-109.5 -80.5t-173 -33z" />
    <glyph glyph-name="circumflex" unicode="&#x2c6;" horiz-adv-x="722" 
d="M170 1073l-57 72l241 209h29l238 -211l-54 -70l-196 156z" />
    <glyph glyph-name="caron" unicode="&#x2c7;" horiz-adv-x="722" 
d="M352 1085l-237 211l53 70l199 -156l200 156l56 -72l-240 -209h-31z" />
    <glyph glyph-name="breve" unicode="&#x2d8;" horiz-adv-x="720" 
d="M365 1081q-93 0 -160 56t-90 161l94 23q13 -61 58.5 -96t101.5 -35q52 0 94.5 36t54.5 95l94 -23q-21 -104 -88 -160.5t-159 -56.5z" />
    <glyph glyph-name="dotaccent" unicode="&#x2d9;" horiz-adv-x="413" 
d="M207 1139q-43 0 -69.5 27.5t-26.5 66.5q0 42 26.5 70t69.5 28q44 0 71 -28.5t27 -71.5q0 -39 -28 -65.5t-70 -26.5z" />
    <glyph glyph-name="ring" unicode="&#x2da;" horiz-adv-x="579" 
d="M297 1036q-88 0 -151.5 52.5t-63.5 144.5t63 144.5t150 52.5t149 -52.5t62 -144.5t-61 -144.5t-148 -52.5zM295 1118q49 0 83 30.5t34 84.5t-34 85.5t-83 31.5t-84 -31.5t-35 -85.5t35.5 -84.5t83.5 -30.5z" />
    <glyph glyph-name="ogonek" unicode="&#x2db;" horiz-adv-x="493" 
d="M272 -436q-88 0 -136 45.5t-48 116.5q0 78 56 156.5t163 172.5l86 -55q-180 -145 -180 -252q0 -74 86 -74q48 0 102 35l37 -96q-70 -49 -166 -49z" />
    <glyph glyph-name="tilde" unicode="&#x2dc;" horiz-adv-x="729" 
d="M186 1133l-88 49q56 141 154 141q62 0 135 -43q64 -33 88 -33q48 0 74 72l88 -49q-54 -135 -154 -135q-56 0 -121 36q-72 37 -98 37q-53 0 -78 -75z" />
    <glyph glyph-name="hungarumlaut" unicode="&#x2dd;" horiz-adv-x="772" 
d="M160 1077l-80 56l199 284l106 -71zM489 1077l-79 56l198 284l107 -71z" />
    <glyph glyph-name="gravecomb" unicode="&#x300;" 
d="M-145 1100l-291 207l86 98l268 -231z" />
    <glyph glyph-name="acutecomb" unicode="&#x301;" 
d="M-389 1100l-64 74l271 231l82 -96z" />
    <glyph glyph-name="uni0302" unicode="&#x302;" 
d="M-559 1073l-57 72l241 209h29l237 -211l-53 -70l-196 156z" />
    <glyph glyph-name="tildecomb" unicode="&#x303;" 
d="M-549 1133l-88 49q55 141 154 141q62 0 135 -43q64 -33 88 -33q48 0 74 72l88 -49q-54 -135 -154 -135q-56 0 -121 36q-72 37 -98 37q-53 0 -78 -75z" />
    <glyph glyph-name="uni0304" unicode="&#x304;" 
d="M-655 1147v108h526v-108h-526z" />
    <glyph glyph-name="uni0306" unicode="&#x306;" 
d="M-362 1081q-93 0 -160 56t-90 161l94 23q13 -61 58.5 -96t101.5 -35q52 0 94.5 36t54.5 95l94 -23q-21 -104 -88 -160.5t-159 -56.5z" />
    <glyph glyph-name="uni0307" unicode="&#x307;" 
d="M-215 1139q-43 0 -69.5 27.5t-26.5 66.5q0 42 26.5 70t69.5 28q44 0 71 -28.5t27 -71.5q0 -39 -28 -65.5t-70 -26.5z" />
    <glyph glyph-name="uni0308" unicode="&#x308;" 
d="M-569 1149q-40 0 -65 25.5t-25 60.5q0 37 24 64.5t66 27.5q41 0 65.5 -26.5t24.5 -61.5t-24 -62.5t-66 -27.5zM-217 1149q-40 0 -64 26.5t-24 61.5t24 62.5t64 27.5q42 0 66 -27.5t24 -62.5t-24.5 -61.5t-65.5 -26.5z" />
    <glyph glyph-name="uni030A" unicode="&#x30a;" 
d="M-291 1036q-88 0 -151.5 52.5t-63.5 144.5t63 144.5t150 52.5t149 -52.5t62 -144.5t-61 -144.5t-148 -52.5zM-293 1118q49 0 83 30.5t34 84.5t-34 85.5t-83 31.5t-84 -31.5t-35 -85.5t35.5 -84.5t83.5 -30.5z" />
    <glyph glyph-name="uni030B" unicode="&#x30b;" 
d="M-618 1077l-80 56l198 284l107 -71zM-289 1077l-80 56l199 284l107 -71z" />
    <glyph glyph-name="uni030C" unicode="&#x30c;" 
d="M-379 1085l-237 211l53 70l198 -156l201 156l55 -72l-239 -209h-31z" />
    <glyph glyph-name="uni0312" unicode="&#x312;" 
d="M-301 1108q18 209 104 350h99q-66 -169 -66 -350h-137z" />
    <glyph glyph-name="uni0326" unicode="&#x326;" 
d="M-301 -565q63 173 63 350h138q-18 -210 -103 -350h-98z" />
    <glyph glyph-name="uni0327" unicode="&#x327;" 
d="M-305 -432q-115 0 -201 53l43 80q65 -43 148 -43q51 0 81.5 19.5t30.5 58.5q0 36 -32.5 58.5t-76.5 29.5t-98 6l72 164h100l-45 -105q83 -8 134 -49t51 -110q0 -75 -58 -118.5t-149 -43.5z" />
    <glyph glyph-name="uni0328" unicode="&#x328;" 
d="M-229 -436q-88 0 -136.5 46t-48.5 116q0 78 56 156.5t163 172.5l86 -55q-180 -145 -180 -252q0 -74 86 -74q49 0 103 35l37 -96q-70 -49 -166 -49z" />
    <glyph glyph-name="pi" unicode="&#x3c0;" horiz-adv-x="1216" 
d="M240 -4v792h-183v117h1114v-117h-182v-792h-125v792h-499v-792h-125z" />
    <glyph glyph-name="uni0400" unicode="&#x400;" horiz-adv-x="1144" 
d="M696 1563l-290 204l86 99l268 -232zM340 123h715v-123h-850v1393h831v-123h-696v-496h612v-121h-612v-530z" />
    <glyph glyph-name="uni0401" unicode="&#x401;" horiz-adv-x="1144" 
d="M428 1602q-41 0 -66.5 26.5t-25.5 63.5t24.5 65.5t67.5 28.5t68.5 -27.5t25.5 -62.5q0 -37 -25.5 -65.5t-68.5 -28.5zM819 1602q-43 0 -68.5 28t-25.5 64q0 35 25.5 63.5t68.5 28.5t67.5 -28t24.5 -64t-25 -64t-67 -28zM340 123h715v-123h-850v1393h831v-123h-696v-496
h612v-121h-612v-530z" />
    <glyph glyph-name="uni0402" unicode="&#x402;" horiz-adv-x="1427" 
d="M866 864q209 0 320.5 -110.5t111.5 -327.5q0 -46 -10 -95.5t-34.5 -104.5t-60.5 -102t-93.5 -86t-128.5 -58l-35 112q229 83 229 352q0 150 -73 222.5t-224 72.5q-157 0 -282 -53v-686h-135v1270h-404v123h1004v-123h-465v-457q130 51 280 51z" />
    <glyph glyph-name="uni0403" unicode="&#x403;" horiz-adv-x="1073" 
d="M532 1563l-63 71l270 232l82 -97zM205 0v1393h827v-123h-692v-1270h-135z" />
    <glyph glyph-name="uni0404" unicode="&#x404;" horiz-adv-x="1435" 
d="M1298 324l80 -88q-111 -118 -244 -187t-311 -69q-153 0 -285.5 57t-224 154t-144 228.5t-52.5 278.5q0 204 89.5 367t251 255.5t365.5 92.5q166 0 292.5 -57.5t230.5 -167.5l-82 -80q-97 94 -197.5 138t-237.5 44q-241 0 -397.5 -149t-177.5 -383h643v-123h-643
q22 -229 179 -381t390 -152q267 0 475 222z" />
    <glyph glyph-name="uni0405" unicode="&#x405;" horiz-adv-x="1161" 
d="M596 -25q-137 0 -262 45.5t-217 122.5l69 107q79 -71 185 -110.5t225 -39.5q137 0 231.5 69t94.5 189q0 50 -19 92t-47.5 71t-77.5 56.5t-91.5 45t-106.5 39.5q-71 25 -124 48t-113 59.5t-98 76.5t-63.5 98t-25.5 125q0 106 60 186.5t156 121t210 40.5q233 0 422 -139
l-62 -102q-164 116 -354 116q-121 0 -208 -57t-87 -160q0 -35 10.5 -66.5t26 -55t44 -46t52 -37.5t64 -32.5t67 -27.5t72.5 -26q77 -28 133.5 -52.5t115.5 -62t95.5 -79t60 -99t23.5 -126.5q0 -178 -131.5 -284t-329.5 -106z" />
    <glyph glyph-name="uni0406" unicode="&#x406;" horiz-adv-x="544" 
d="M205 0v1393h135v-1393h-135z" />
    <glyph glyph-name="uni0407" unicode="&#x407;" horiz-adv-x="544" 
d="M76 1583q-41 0 -66.5 26.5t-25.5 63.5t24.5 65.5t67.5 28.5q42 0 68 -28t26 -64q0 -35 -25.5 -63.5t-68.5 -28.5zM467 1583q-43 0 -68.5 27.5t-25.5 62.5q0 37 25.5 65.5t68.5 28.5t67.5 -28.5t24.5 -65.5q0 -35 -25 -62.5t-67 -27.5zM205 0v1393h135v-1393h-135z" />
    <glyph glyph-name="uni0408" unicode="&#x408;" horiz-adv-x="1038" 
d="M418 -25q-208 0 -381 127l67 109q137 -111 314 -111q143 0 220 86t77 248v959h133v-961q0 -222 -110.5 -339.5t-319.5 -117.5z" />
    <glyph glyph-name="uni0409" unicode="&#x409;" horiz-adv-x="2013" 
d="M1509 817q186 0 310.5 -117t124.5 -290t-125.5 -291.5t-309.5 -118.5h-462v1270h-478l-67 -608q-37 -341 -149.5 -506t-315.5 -166l-8 116q137 0 222 145.5t120 448.5l78 693h731v-576h329zM1509 123q133 0 216 77.5t83 209.5q0 131 -83 207.5t-216 76.5h-329v-571h329z
" />
    <glyph glyph-name="uni040A" unicode="&#x40a;" horiz-adv-x="2056" 
d="M1556 784q187 0 309 -112.5t122 -280.5t-122 -279.5t-309 -111.5h-466v659h-750v-659h-135v1393h135v-609h750v609h135v-609h331zM1556 123q128 0 212.5 77.5t84.5 190.5q0 115 -84.5 191.5t-212.5 76.5h-331v-536h331z" />
    <glyph glyph-name="uni040B" unicode="&#x40b;" horiz-adv-x="1431" 
d="M883 866q189 0 295 -99t106 -269v-498h-135v500q0 114 -72.5 178.5t-204.5 64.5q-149 0 -286 -55v-688h-135v1270h-404v123h1004v-123h-465v-449q140 45 297 45z" />
    <glyph glyph-name="uni040C" unicode="&#x40c;" horiz-adv-x="1193" 
d="M877 1769l-289 -206l-64 71l271 232zM475 700l699 -694v-6h-170l-664 657v-657h-135v1393h135v-658l629 658h166v-7z" />
    <glyph glyph-name="uni040D" unicode="&#x40d;" horiz-adv-x="1564" 
d="M956 1634l-63 -71l-291 204l86 99zM1319 1403h41v-1403h-135v942q0 92 6 186q-63 -80 -152 -180l-833 -958h-41v1403h135v-924q0 -103 -6 -205q80 99 166 195z" />
    <glyph glyph-name="uni040E" unicode="&#x40e;" horiz-adv-x="1253" 
d="M635 1534q-212 0 -301 168l84 59q35 -56 91.5 -88.5t125.5 -32.5q70 0 126 32.5t93 88.5l80 -59q-86 -168 -299 -168zM1087 1393h142l-467 -990q-75 -159 -143.5 -243t-159 -124t-230.5 -46l-8 119q98 2 167 30t113.5 75.5t90.5 129.5l-569 1049h143l496 -906z" />
    <glyph glyph-name="uni040F" unicode="&#x40f;" horiz-adv-x="1460" 
d="M1255 1393v-1393h-458v-311h-135v311h-457v1393h135v-1270h780v1270h135z" />
    <glyph glyph-name="uni0410" unicode="&#x410;" horiz-adv-x="1396" 
d="M721 1403l647 -1399v-4h-141l-148 319h-762l-147 -319h-141v4l647 1399h45zM698 1165q-9 -21 -34.5 -86t-42.5 -100l-248 -537h649l-246 537q-33 67 -78 186z" />
    <glyph glyph-name="uni0411" unicode="&#x411;" horiz-adv-x="1282" 
d="M205 0v1393h848v-123h-713v-453h385q197 0 324 -116t127 -291q0 -176 -127.5 -293t-323.5 -117h-520zM340 123h385q144 0 230.5 77.5t86.5 209.5q0 131 -86.5 206.5t-230.5 75.5h-385v-569z" />
    <glyph glyph-name="uni0412" unicode="&#x412;" horiz-adv-x="1296" 
d="M954 737q105 -45 168.5 -139.5t63.5 -210.5q0 -171 -120 -279t-304 -108h-557v1393h520q168 0 282.5 -101.5t114.5 -259.5q0 -97 -45 -173t-123 -122zM340 1270v-484h381q126 0 197 64.5t71 181.5q0 108 -77 173t-195 65h-377zM756 123q130 0 212.5 74t82.5 198
q0 119 -80 194t-205 75h-426v-541h416z" />
    <glyph glyph-name="uni0413" unicode="&#x413;" horiz-adv-x="1073" 
d="M205 0v1393h827v-123h-692v-1270h-135z" />
    <glyph glyph-name="uni0414" unicode="&#x414;" horiz-adv-x="1419" 
d="M1194 123h168v-434h-135v311h-1084v-311h-133v434h160q124 241 160 577l73 693h791v-1270zM459 668q-34 -305 -142 -545h744v1147h-539z" />
    <glyph glyph-name="uni0415" unicode="&#x415;" horiz-adv-x="1144" 
d="M340 123h715v-123h-850v1393h831v-123h-696v-496h612v-121h-612v-530z" />
    <glyph glyph-name="uni0416" unicode="&#x416;" horiz-adv-x="1693" 
d="M1032 700l641 -694v-6h-162l-598 645v-645h-133v645l-598 -645h-162v6l642 694l-623 689v4h158l583 -645v645h133v-645l584 645h156v-7z" />
    <glyph glyph-name="uni0417" unicode="&#x417;" horiz-adv-x="1148" 
d="M561 -18q-305 0 -498 190l72 92q170 -160 426 -160q150 0 247 79.5t97 209.5q0 124 -88 197.5t-229 73.5h-201v122h197q118 0 186 69.5t68 178.5q0 118 -86.5 187t-229.5 69q-192 0 -342 -127l-67 94q178 156 407 156q199 0 326 -107t127 -266q0 -101 -51 -184t-138 -121
q121 -39 188.5 -132.5t67.5 -215.5q0 -173 -132.5 -289t-346.5 -116z" />
    <glyph glyph-name="uni0418" unicode="&#x418;" horiz-adv-x="1564" 
d="M1319 1403h41v-1403h-135v942q0 92 6 186q-63 -80 -152 -180l-833 -958h-41v1403h135v-924q0 -103 -6 -205q80 99 166 195z" />
    <glyph glyph-name="uni0419" unicode="&#x419;" horiz-adv-x="1564" 
d="M821 1534q-212 0 -301 168l84 59q35 -56 91.5 -88.5t125.5 -32.5q70 0 126 32.5t93 88.5l80 -59q-86 -168 -299 -168zM1319 1403h41v-1403h-135v942q0 92 6 186q-63 -80 -152 -180l-833 -958h-41v1403h135v-924q0 -103 -6 -205q80 99 166 195z" />
    <glyph glyph-name="uni041A" unicode="&#x41a;" horiz-adv-x="1193" 
d="M475 700l699 -694v-6h-170l-664 657v-657h-135v1393h135v-658l629 658h166v-7z" />
    <glyph glyph-name="uni041B" unicode="&#x41b;" horiz-adv-x="1447" 
d="M45 -10l-16 114q156 12 234 137t110 418l82 734h788v-1393h-135v1270h-541l-67 -615q-37 -338 -142 -494t-313 -171z" />
    <glyph glyph-name="uni041C" unicode="&#x41c;" horiz-adv-x="1765" 
d="M1446 1405l199 -1405h-132l-135 961q-12 85 -14 137q-60 -101 -76 -125l-389 -629h-31l-391 633q-14 21 -40.5 65.5t-30.5 51.5q-1 -8 -19 -133l-133 -961h-133l198 1405h41l437 -709q47 -72 86 -147q35 66 86 149l438 707h39z" />
    <glyph glyph-name="uni041D" unicode="&#x41d;" horiz-adv-x="1523" 
d="M205 0v1393h135v-629h846v629h133v-1393h-133v641h-846v-641h-135z" />
    <glyph glyph-name="uni041E" unicode="&#x41e;" horiz-adv-x="1644" 
d="M821 -25q-201 0 -363.5 98t-251.5 263t-89 362q0 205 89.5 369t250.5 257t364 93q206 0 367.5 -93t250.5 -257t89 -369q0 -198 -88.5 -362.5t-251.5 -262.5t-367 -98zM821 100q125 0 233 47t182 128t115.5 190.5t41.5 232.5q0 171 -71 306t-202 211.5t-299 76.5
q-166 0 -296.5 -76.5t-201.5 -211.5t-71 -306q0 -164 71 -300.5t202 -217t296 -80.5z" />
    <glyph glyph-name="uni041F" unicode="&#x41f;" horiz-adv-x="1466" 
d="M205 0v1393h1057v-1393h-136v1270h-786v-1270h-135z" />
    <glyph glyph-name="uni0420" unicode="&#x420;" horiz-adv-x="1224" 
d="M205 0v1393h514q105 0 190.5 -38t138 -100t81 -136t28.5 -150t-27.5 -147t-80 -131t-140.5 -96t-198 -36h-371v-559h-135zM340 682h369q150 0 231.5 85t81.5 204q0 124 -85.5 211.5t-219.5 87.5h-377v-588z" />
    <glyph glyph-name="uni0421" unicode="&#x421;" horiz-adv-x="1431" 
d="M823 -25q-154 0 -287 57.5t-224 155t-143 230t-52 280.5q0 204 89.5 368t251 257.5t365.5 93.5q161 0 286.5 -56t238.5 -171l-80 -82q-87 91 -194.5 137.5t-250.5 46.5q-165 0 -296 -77.5t-203 -213t-72 -303.5q0 -164 71.5 -300.5t203 -217t296.5 -80.5q142 0 258.5 62
t196.5 170l96 -76q-90 -130 -231.5 -205.5t-319.5 -75.5z" />
    <glyph glyph-name="uni0422" unicode="&#x422;" horiz-adv-x="1085" 
d="M1038 1393v-123h-428v-1270h-135v1270h-428v123h991z" />
    <glyph glyph-name="uni0423" unicode="&#x423;" horiz-adv-x="1253" 
d="M1087 1393h142l-467 -990q-75 -159 -143.5 -243t-159 -124t-230.5 -46l-8 119q98 2 167 30t113.5 75.5t90.5 129.5l-569 1049h143l496 -906z" />
    <glyph glyph-name="uni0424" unicode="&#x424;" horiz-adv-x="1681" 
d="M1585 717q0 -259 -183.5 -427.5t-496.5 -185.5v-210h-129v210q-311 17 -495.5 186.5t-184.5 426.5q0 259 184.5 427t495.5 185v211h129v-211q314 -17 497 -184.5t183 -427.5zM903 227q256 15 402.5 148t146.5 342t-146.5 341.5t-402.5 147.5v-979zM231 717
q0 -209 146 -342t401 -148v979q-256 -15 -401.5 -147.5t-145.5 -341.5z" />
    <glyph glyph-name="uni0425" unicode="&#x425;" horiz-adv-x="1265" 
d="M41 0v4l514 719l-471 666v4h156l258 -363q75 -105 137 -207q67 108 137 211l254 359h154v-4l-469 -666l514 -719v-4h-156l-299 424q-91 128 -135 201q-62 -98 -137 -203l-301 -422h-156z" />
    <glyph glyph-name="uni0426" unicode="&#x426;" horiz-adv-x="1497" 
d="M1255 123h185v-434h-135v311h-1100v1393h135v-1270h780v1270h135v-1270z" />
    <glyph glyph-name="uni0427" unicode="&#x427;" horiz-adv-x="1318" 
d="M981 1393h133v-1393h-133v588q-188 -70 -367 -70q-493 0 -493 447v428h135v-422q0 -177 88 -253.5t268 -76.5q182 0 369 80v672z" />
    <glyph glyph-name="uni0428" unicode="&#x428;" horiz-adv-x="2076" 
d="M1737 1393h135v-1393h-1667v1393h135v-1270h631v1270h135v-1270h631v1270z" />
    <glyph glyph-name="uni0429" unicode="&#x429;" horiz-adv-x="2113" 
d="M1872 123h184v-434h-135v311h-1716v1393h135v-1270h631v1270h135v-1270h631v1270h135v-1270z" />
    <glyph glyph-name="uni042A" unicode="&#x42a;" horiz-adv-x="1452" 
d="M948 817q186 0 310 -116.5t124 -290.5q0 -173 -125 -291.5t-309 -118.5h-520v1270h-383v123h516v-576h387zM948 123q131 0 215 78t84 209t-83 207.5t-216 76.5h-387v-571h387z" />
    <glyph glyph-name="uni042B" unicode="&#x42b;" horiz-adv-x="1765" 
d="M205 0v1393h135v-576h385q186 0 310 -116.5t124 -290.5q0 -173 -125 -291.5t-309 -118.5h-520zM1425 0v1393h136v-1393h-136zM340 123h385q133 0 216 77.5t83 209.5q0 131 -83 207.5t-216 76.5h-385v-571z" />
    <glyph glyph-name="uni042C" unicode="&#x42c;" horiz-adv-x="1228" 
d="M725 817q186 0 310 -116.5t124 -290.5q0 -173 -125 -291.5t-309 -118.5h-520v1393h135v-576h385zM725 123q133 0 216 77.5t83 209.5q0 131 -83 207.5t-216 76.5h-385v-571h385z" />
    <glyph glyph-name="uni042D" unicode="&#x42d;" horiz-adv-x="1435" 
d="M612 1413q204 0 366 -92.5t251.5 -255.5t89.5 -367q0 -197 -89 -360.5t-252 -260.5t-366 -97q-177 0 -310.5 69t-244.5 187l80 88q208 -222 475 -222q233 0 390.5 152t179.5 381h-668v123h668q-21 233 -177.5 382.5t-392.5 149.5q-140 0 -242 -44.5t-198 -135.5l-78 82
q96 103 227 162t291 59z" />
    <glyph glyph-name="uni042E" unicode="&#x42e;" horiz-adv-x="2117" 
d="M1296 1413q205 0 366 -92.5t250 -255.5t89 -367q0 -197 -88.5 -360.5t-251 -260.5t-365.5 -97q-144 0 -271 51t-218 139.5t-147.5 210t-67.5 258.5h-252v-639h-135v1393h135v-631h252q22 286 217.5 468.5t486.5 182.5zM1296 102q125 0 232 47t181 127.5t115.5 190
t41.5 231.5q0 258 -158.5 425t-411.5 167t-412 -167t-159 -425q0 -164 71 -299.5t202.5 -216t297.5 -80.5z" />
    <glyph glyph-name="uni042F" unicode="&#x42f;" horiz-adv-x="1298" 
d="M561 1393h533v-1393h-136v580h-350l-399 -580h-154v6l400 584q-158 29 -252 137t-94 260q0 178 125 292t327 114zM958 705v565h-397q-143 0 -229 -76.5t-86 -206.5t86 -206t229 -76h397z" />
    <glyph glyph-name="uni0430" unicode="&#x430;" horiz-adv-x="980" 
d="M489 915q159 0 252 -81t93 -232v-602h-93l-22 164q-51 -85 -138 -132.5t-204 -47.5q-133 0 -211 67.5t-78 184.5q0 149 124.5 234t328.5 85q103 0 166 -8v61q0 93 -61.5 142t-168.5 49q-137 0 -299 -76l-43 106q186 86 354 86zM397 100q139 0 222 93t88 249q-74 9 -148 9
q-161 0 -250.5 -54t-89.5 -153q0 -68 47 -106t131 -38z" />
    <glyph glyph-name="uni0431" unicode="&#x431;" horiz-adv-x="1144" 
d="M614 915q86 0 164.5 -30t140.5 -86.5t99 -146t37 -199.5q0 -114 -36 -204.5t-99.5 -148t-147 -88t-180.5 -30.5q-99 0 -181.5 34t-146.5 101t-99.5 176t-35.5 250v119q0 183 64.5 342t201.5 251q66 44 140 74.5t128 44.5t118.5 38t113.5 56l51 -112q-68 -43 -154.5 -71.5
l-173 -57t-155.5 -72.5q-90 -56 -144.5 -168t-66.5 -260q130 188 362 188zM592 98q159 0 248.5 100t89.5 255q0 150 -90 248t-242 98q-146 0 -241 -98.5t-95 -249.5q0 -162 93 -257.5t237 -95.5z" />
    <glyph glyph-name="uni0432" unicode="&#x432;" horiz-adv-x="970" 
d="M709 465q79 -22 123.5 -77.5t44.5 -139.5q0 -117 -79.5 -182.5t-213.5 -65.5h-424v905h389q130 0 207.5 -65t77.5 -174q0 -142 -125 -201zM547 793h-262v-277h262q81 0 121.5 39t40.5 100q0 60 -41 99t-121 39zM582 113q84 0 127 39.5t43 105.5q0 65 -43 105t-127 40
h-297v-290h297z" />
    <glyph glyph-name="uni0433" unicode="&#x433;" horiz-adv-x="794" 
d="M160 0v905h585v-114h-460v-791h-125z" />
    <glyph glyph-name="uni0434" unicode="&#x434;" horiz-adv-x="1054" 
d="M883 115h129v-355h-121v240h-735v-240h-121v355h119q40 65 58 133t28 172l47 485h596v-790zM399 788l-39 -389q-10 -99 -24 -161.5t-45 -122.5h467v673h-359z" />
    <glyph glyph-name="uni0435" unicode="&#x435;" horiz-adv-x="1034" 
d="M551 928q187 0 294 -119.5t107 -319.5q0 -41 -6 -88h-725q15 -141 110.5 -224t227.5 -83q92 0 157 27.5t120 83.5l71 -90q-144 -138 -346 -138q-206 0 -336.5 133.5t-130.5 344.5q0 199 129.5 336t327.5 137zM549 811q-126 0 -215.5 -82t-108.5 -217h604
q-3 143 -78.5 221t-201.5 78z" />
    <glyph glyph-name="uni0436" unicode="&#x436;" horiz-adv-x="1245" 
d="M799 471l426 -461v-10h-146l-393 426v-426h-125v428l-395 -428h-146v10l426 461l-380 428v6h149l346 -399v399h125v-399l344 399h150v-6z" />
    <glyph glyph-name="uni0437" unicode="&#x437;" horiz-adv-x="843" 
d="M403 -16q-191 0 -346 104l58 100q125 -88 286 -88q111 0 167.5 46t56.5 118q0 68 -47.5 109t-141.5 41h-188v114h182q72 0 112 35.5t40 95.5q0 59 -49 99.5t-144 40.5q-120 0 -242 -66l-47 103q146 79 297 79q134 0 222 -66.5t88 -182.5q0 -61 -33 -113t-92 -74
q82 -22 125 -82.5t43 -138.5q0 -126 -95.5 -200t-251.5 -74z" />
    <glyph glyph-name="uni0438" unicode="&#x438;" horiz-adv-x="1079" 
d="M874 905h46v-905h-125v553q0 69 2 104q-45 -58 -86 -102l-506 -555h-45v905h125v-536q0 -43 -4 -121q42 52 102 119z" />
    <glyph glyph-name="uni0439" unicode="&#x439;" horiz-adv-x="1079" 
d="M547 1096q-177 0 -260 147l75 57q31 -48 80 -76t105 -28q55 0 103 28t81 76l74 -57q-79 -147 -258 -147zM874 905h46v-905h-125v553q0 69 2 104q-45 -58 -86 -102l-506 -555h-45v905h125v-536q0 -43 -4 -121q42 52 102 119z" />
    <glyph glyph-name="uni043A" unicode="&#x43a;" horiz-adv-x="888" 
d="M397 467l471 -457v-10h-155l-428 420v-420h-125v905h125v-397l391 397h151v-6z" />
    <glyph glyph-name="uni043B" unicode="&#x43b;" horiz-adv-x="1040" 
d="M31 -12l-15 112q122 13 174.5 91t65.5 237l39 477h586v-905h-125v788h-348l-29 -350q-17 -225 -94.5 -326t-253.5 -124z" />
    <glyph glyph-name="uni043C" unicode="&#x43c;" horiz-adv-x="1265" 
d="M1061 905l86 -905h-125l-51 535q-8 82 -10 110q-11 -16 -24.5 -34t-30.5 -40t-27 -36l-232 -306h-31l-221 291q-53 69 -94 127q-2 -35 -10 -125l-49 -522h-123l84 905h39l333 -430q5 -6 26.5 -33.5t31.5 -44.5q11 17 32.5 45.5t24.5 32.5l332 430h39z" />
    <glyph glyph-name="uni043D" unicode="&#x43d;" horiz-adv-x="1073" 
d="M788 905h125v-905h-125v399h-503v-399h-125v905h125v-391h503v391z" />
    <glyph glyph-name="uni043E" unicode="&#x43e;" horiz-adv-x="1126" 
d="M561 -23q-204 0 -335.5 133.5t-131.5 342.5t131.5 342t335.5 133q207 0 339 -133t132 -342t-132 -342.5t-339 -133.5zM561 94q152 0 248 100.5t96 258.5t-95.5 258t-248.5 100q-150 0 -245 -100.5t-95 -257.5q0 -158 94.5 -258.5t245.5 -100.5z" />
    <glyph glyph-name="uni043F" unicode="&#x43f;" horiz-adv-x="1071" 
d="M160 0v905h751v-905h-125v791h-501v-791h-125z" />
    <glyph glyph-name="uni0440" unicode="&#x440;" horiz-adv-x="1177" 
d="M635 924q193 0 319.5 -132t126.5 -335q0 -209 -126.5 -343t-321.5 -134q-110 0 -201.5 45.5t-150.5 124.5q4 -140 4 -244v-357h-125v1356h94l27 -151q60 80 150.5 125t203.5 45zM625 96q146 0 238.5 99.5t92.5 255.5q0 157 -92.5 256.5t-238.5 99.5q-153 0 -249.5 -97.5
t-96.5 -252.5q0 -160 97 -260.5t249 -100.5z" />
    <glyph glyph-name="uni0441" unicode="&#x441;" horiz-adv-x="942" 
d="M545 -23q-68 0 -133 19.5t-123 59.5t-101 96t-68.5 134t-25.5 169q0 109 37.5 199t101.5 149t147.5 91t176.5 32q186 0 324 -123l-72 -86q-57 48 -115.5 70t-136.5 22q-144 0 -240 -98.5t-96 -255.5q0 -160 95.5 -260.5t238.5 -100.5q88 0 149.5 26.5t120.5 82.5l70 -90
q-74 -69 -155 -102.5t-195 -33.5z" />
    <glyph glyph-name="uni0442" unicode="&#x442;" horiz-adv-x="786" 
d="M330 0v791h-289v114h704v-114h-290v-791h-125z" />
    <glyph glyph-name="uni0443" unicode="&#x443;" horiz-adv-x="944" 
d="M784 905h131v-4l-387 -946q-38 -93 -72 -155t-81 -117.5t-110 -89t-146 -50.5l-25 105q55 10 99 32.5t74.5 49t59 71t47 83.5t44.5 102l12 28l-397 887v4h131l217 -495q53 -118 108 -269q38 117 99 269z" />
    <glyph glyph-name="uni0444" unicode="&#x444;" horiz-adv-x="1286" 
d="M1192 453q0 -199 -132.5 -327.5t-354.5 -141.5v-435h-123v435q-227 13 -357.5 141t-130.5 328t131 329t357 142v501h123v-501q222 -13 354.5 -142.5t132.5 -328.5zM221 453q0 -154 96.5 -247.5t266.5 -105.5v707q-170 -12 -266.5 -106t-96.5 -248zM702 100
q171 12 268 106t97 247q0 154 -97.5 248t-267.5 106v-707z" />
    <glyph glyph-name="uni0445" unicode="&#x445;" horiz-adv-x="921" 
d="M53 0v4l336 473l-303 424v4h143l160 -227q32 -42 72 -111q33 55 74 113l161 225h140v-4l-304 -424l336 -473v-4h-143l-186 264q-37 50 -78 121q-56 -91 -80 -123l-188 -262h-140z" />
    <glyph glyph-name="uni0446" unicode="&#x446;" horiz-adv-x="1081" 
d="M907 115h131v-355h-120v240h-758v905h125v-790h497v790h125v-790z" />
    <glyph glyph-name="uni0447" unicode="&#x447;" horiz-adv-x="944" 
d="M659 905h125v-905h-125v358q-116 -55 -243 -55q-165 0 -250.5 78.5t-85.5 236.5v287h125v-289q0 -104 55 -150t170 -46q134 0 229 53v432z" />
    <glyph glyph-name="uni0448" unicode="&#x448;" horiz-adv-x="1486" 
d="M1202 905h125v-905h-1167v905h125v-790h395v790h125v-790h397v790z" />
    <glyph glyph-name="uni0449" unicode="&#x449;" horiz-adv-x="1501" 
d="M1327 115h129v-355h-121v240h-1175v905h125v-790h395v790h125v-790h397v790h125v-790z" />
    <glyph glyph-name="uni044A" unicode="&#x44a;" horiz-adv-x="1054" 
d="M653 580q155 0 244.5 -76t89.5 -213t-89.5 -214t-244.5 -77h-377v791h-247v114h372v-325h252zM653 115q100 0 154.5 45t54.5 131t-54.5 131t-154.5 45h-252v-352h252z" />
    <glyph glyph-name="uni044B" unicode="&#x44b;" horiz-adv-x="1331" 
d="M537 582q155 0 244 -77t89 -214t-89 -214t-244 -77h-377v905h125v-323h252zM1047 905h124v-905h-124v905zM537 115q101 0 154.5 45t53.5 131t-53.5 131t-154.5 45h-252v-352h252z" />
    <glyph glyph-name="uni044C" unicode="&#x44c;" horiz-adv-x="937" 
d="M537 582q155 0 244 -77t89 -214t-89 -214t-244 -77h-377v905h125v-323h252zM537 115q101 0 154.5 45t53.5 131t-53.5 131t-154.5 45h-252v-352h252z" />
    <glyph glyph-name="uni044D" unicode="&#x44d;" horiz-adv-x="950" 
d="M395 924q125 0 228.5 -54t168 -161.5t64.5 -249.5q0 -214 -132 -346.5t-333 -132.5q-200 0 -344 147l76 90q60 -62 123.5 -91.5t144.5 -29.5q137 0 228 85.5t106 221.5h-428v115h428q-20 129 -112 209t-218 80q-143 0 -256 -107l-78 82q139 142 334 142z" />
    <glyph glyph-name="uni044E" unicode="&#x44e;" horiz-adv-x="1511" 
d="M948 926q205 0 337 -133t132 -340t-132 -340t-337 -133q-191 0 -319.5 116t-147.5 303h-196v-399h-125v905h125v-391h198q20 184 147.5 298t317.5 114zM948 96q152 0 247 100t95 257q0 156 -95 256t-247 100t-247 -100t-95 -256q0 -157 95 -257t247 -100z" />
    <glyph glyph-name="uni044F" unicode="&#x44f;" horiz-adv-x="978" 
d="M449 905h370v-905h-125v348h-227l-260 -348h-144v10l269 352q-95 25 -149 92.5t-54 168.5q0 134 86 208t234 74zM451 457h243v336h-243q-101 0 -149 -45t-48 -125q0 -78 48 -122t149 -44z" />
    <glyph glyph-name="uni0450" unicode="&#x450;" horiz-adv-x="1034" 
d="M625 1100l-291 207l86 98l268 -231zM551 928q187 0 294 -119.5t107 -319.5q0 -41 -6 -88h-725q15 -141 110.5 -224t227.5 -83q92 0 157 27.5t120 83.5l71 -90q-144 -138 -346 -138q-206 0 -336.5 133.5t-130.5 344.5q0 199 129.5 336t327.5 137zM549 811
q-126 0 -215.5 -82t-108.5 -217h604q-3 143 -78.5 221t-201.5 78z" />
    <glyph glyph-name="uni0451" unicode="&#x451;" horiz-adv-x="1034" 
d="M354 1149q-40 0 -65 25.5t-25 60.5q0 37 24 64.5t66 27.5q41 0 65.5 -26.5t24.5 -61.5t-24 -62.5t-66 -27.5zM707 1149q-41 0 -65 26.5t-24 61.5t24.5 62.5t64.5 27.5q42 0 66 -27.5t24 -62.5t-24.5 -61.5t-65.5 -26.5zM551 928q187 0 294 -119.5t107 -319.5
q0 -41 -6 -88h-725q15 -141 110.5 -224t227.5 -83q92 0 157 27.5t120 83.5l71 -90q-144 -138 -346 -138q-206 0 -336.5 133.5t-130.5 344.5q0 199 129.5 336t327.5 137zM549 811q-126 0 -215.5 -82t-108.5 -217h604q-3 143 -78.5 221t-201.5 78z" />
    <glyph glyph-name="uni0452" unicode="&#x452;" horiz-adv-x="1069" 
d="M596 911q161 0 243.5 -96.5t82.5 -267.5v-668q0 -174 -84 -262t-248 -88l-4 111q117 1 164 59.5t47 196.5v661q0 108 -53 173t-160 65q-139 0 -219 -104t-80 -259v-432h-125v1133h-135v77h135v215h125v-215h340v-77h-340v-265q0 -88 -2 -139q39 80 120.5 131t192.5 51z
" />
    <glyph glyph-name="uni0453" unicode="&#x453;" horiz-adv-x="794" 
d="M356 1100l-63 74l270 231l82 -96zM160 0v905h585v-114h-460v-791h-125z" />
    <glyph glyph-name="uni0454" unicode="&#x454;" horiz-adv-x="937" 
d="M821 203l70 -90q-72 -68 -152.5 -100.5t-193.5 -32.5q-86 0 -166 31.5t-144 89.5t-102.5 150t-38.5 204q0 108 37.5 198t101.5 148.5t147.5 90.5t176.5 32q173 0 305 -123l-74 -86q-100 94 -235 94q-125 0 -216.5 -80t-111.5 -211h422v-115h-424q17 -140 108.5 -223.5
t223.5 -83.5q87 0 148 26.5t118 80.5z" />
    <glyph glyph-name="uni0455" unicode="&#x455;" horiz-adv-x="811" 
d="M418 -16q-185 0 -330 100l64 98q115 -82 266 -82q83 0 132.5 38t49.5 100q0 59 -53.5 97.5t-155.5 78.5q-62 24 -105.5 47t-83.5 55.5t-60.5 75t-20.5 94.5q0 109 85 169t208 60q149 0 274 -81l-55 -91q-103 58 -213 58q-76 0 -125 -28t-49 -87q0 -56 47.5 -91.5
t142.5 -72.5q68 -25 115.5 -49.5t89.5 -58t63 -77.5t21 -99q0 -113 -86 -183.5t-221 -70.5z" />
    <glyph glyph-name="uni0456" unicode="&#x456;" horiz-adv-x="444" 
d="M223 1143q-42 0 -68 26t-26 64q0 40 26 67t68 27t68 -27t26 -67q0 -39 -26.5 -64.5t-67.5 -25.5zM160 0v905h125v-905h-125z" />
    <glyph glyph-name="uni0457" unicode="&#x457;" horiz-adv-x="444" 
d="M72 1143q-41 0 -66.5 26t-25.5 66q0 39 26 66.5t66 27.5q39 0 64.5 -27.5t25.5 -66.5t-25.5 -65.5t-64.5 -26.5zM371 1143q-39 0 -64.5 26.5t-25.5 65.5t25.5 66.5t64.5 27.5q42 0 67 -27t25 -67q0 -39 -25 -65.5t-67 -26.5zM160 0v905h125v-905h-125z" />
    <glyph glyph-name="uni0458" unicode="&#x458;" horiz-adv-x="450" 
d="M229 1143q-40 0 -66 26t-26 64q0 40 25.5 67t66.5 27q43 0 69 -27t26 -69q0 -37 -27 -62.5t-68 -25.5zM-63 -471l-17 111q77 6 125.5 25.5t75.5 58t37 88.5t10 127v966h125v-960q0 -105 -16.5 -177t-57 -125.5t-109.5 -80.5t-173 -33z" />
    <glyph glyph-name="uni0459" unicode="&#x459;" horiz-adv-x="1466" 
d="M1090 541q142 0 225.5 -71t83.5 -200q0 -126 -84 -198t-225 -72h-357v788h-319l-31 -376q-30 -394 -352 -424l-15 104q107 8 171 97t77 253l39 463h555v-364h232zM1087 115q88 0 137.5 39.5t49.5 115.5q0 77 -49.5 116.5t-137.5 39.5h-229v-311h229z" />
    <glyph glyph-name="uni045A" unicode="&#x45a;" horiz-adv-x="1484" 
d="M1106 541q143 0 226 -71t83 -200q0 -126 -83.5 -197t-225.5 -73h-354v426h-467v-426h-125v905h125v-364h467v364h125v-364h229zM1106 115q88 0 136 39t48 116t-48 116.5t-136 39.5h-229v-311h229z" />
    <glyph glyph-name="uni045B" unicode="&#x45b;" horiz-adv-x="1069" 
d="M596 911q162 0 244 -96.5t82 -267.5v-547h-125v557q0 107 -51.5 172.5t-159.5 65.5q-141 0 -221 -104t-80 -259v-432h-125v1133h-135v77h135v215h125v-215h350v-77h-350v-265q0 -88 -2 -139q39 80 120.5 131t192.5 51z" />
    <glyph glyph-name="uni045C" unicode="&#x45c;" horiz-adv-x="888" 
d="M711 1309l-289 -209l-64 74l271 231zM397 467l471 -457v-10h-155l-428 420v-420h-125v905h125v-397l391 397h151v-6z" />
    <glyph glyph-name="uni045D" unicode="&#x45d;" horiz-adv-x="1079" 
d="M686 1186l-61 -72l-293 207l86 96zM874 905h46v-905h-125v553q0 69 2 104q-45 -58 -86 -102l-506 -555h-45v905h125v-536q0 -43 -4 -121q42 52 102 119z" />
    <glyph glyph-name="uni045E" unicode="&#x45e;" horiz-adv-x="944" 
d="M475 1096q-178 0 -260 147l76 57q31 -48 79.5 -76t104.5 -28q55 0 103 28t81 76l74 -57q-79 -147 -258 -147zM784 905h131v-4l-387 -946q-38 -93 -72 -155t-81 -117.5t-110 -89t-146 -50.5l-25 105q55 10 99 32.5t74.5 49t59 71t47 83.5t44.5 102l12 28l-397 887v4h131
l217 -495q53 -118 108 -269q38 117 99 269z" />
    <glyph glyph-name="uni045F" unicode="&#x45f;" horiz-adv-x="1067" 
d="M907 905v-905h-313v-240h-121v240h-313v905h125v-790h497v790h125z" />
    <glyph glyph-name="uni0490" unicode="&#x490;" horiz-adv-x="1071" 
d="M205 0v1393h700v311h123v-434h-688v-1270h-135z" />
    <glyph glyph-name="uni0491" unicode="&#x491;" horiz-adv-x="794" 
d="M160 0v905h469v232h116v-346h-460v-791h-125z" />
    <glyph glyph-name="Wgrave" unicode="&#x1e80;" horiz-adv-x="1974" 
d="M1059 1563l-291 204l86 99l268 -232zM1790 1393h139v-7l-481 -1396h-41l-367 903q-24 56 -55 158q-32 -109 -53 -158l-367 -903h-41l-479 1396v7h139l308 -912q58 -182 65 -211q32 111 72 209l336 840h39l323 -799q48 -119 90 -252q48 157 76 238z" />
    <glyph glyph-name="wgrave" unicode="&#x1e81;" horiz-adv-x="1361" 
d="M774 1100l-291 207l86 98l269 -231zM1192 905h127v-4l-318 -911h-38l-281 626l-285 -626h-37l-317 911v4h127l188 -543q30 -99 35 -116q10 32 45 112l228 498h30l226 -496q30 -61 47 -114q20 72 37 119z" />
    <glyph glyph-name="Wacute" unicode="&#x1e82;" horiz-adv-x="1974" 
d="M1163 1769l-289 -206l-63 71l270 232zM1790 1393h139v-7l-481 -1396h-41l-367 903q-24 56 -55 158q-36 -118 -53 -158l-367 -903h-41l-479 1396v7h139l308 -912q39 -108 65 -213q38 131 72 211l336 840h39l323 -799q50 -123 90 -254q27 100 76 240z" />
    <glyph glyph-name="wacute" unicode="&#x1e83;" horiz-adv-x="1361" 
d="M860 1309l-289 -209l-63 74l270 231zM1192 905h127v-4l-318 -911h-38l-281 626l-285 -626h-37l-317 911v4h127l188 -543q23 -70 35 -114q10 28 45 110l228 498h30l226 -496q30 -61 47 -114q20 72 37 119z" />
    <glyph glyph-name="Wdieresis" unicode="&#x1e84;" horiz-adv-x="1974" 
d="M788 1602q-41 0 -66.5 26.5t-25.5 63.5t24.5 65.5t67.5 28.5t69 -27.5t26 -62.5q0 -37 -26 -65.5t-69 -28.5zM1180 1602q-43 0 -69 28t-26 64q0 35 26 63.5t69 28.5t67.5 -28t24.5 -64t-25 -64t-67 -28zM1790 1393h139v-7l-481 -1396h-41l-367 903q-24 56 -55 158
q-32 -109 -53 -158l-367 -903h-41l-479 1396v7h139l308 -912q58 -182 65 -211q32 111 72 209l336 840h39l323 -799q48 -119 90 -252q48 157 76 238z" />
    <glyph glyph-name="wdieresis" unicode="&#x1e85;" horiz-adv-x="1361" 
d="M504 1149q-40 0 -65 25.5t-25 60.5q0 37 24 64.5t66 27.5q41 0 65.5 -26.5t24.5 -61.5t-24 -62.5t-66 -27.5zM856 1149q-40 0 -64 26.5t-24 61.5t24 62.5t64 27.5q42 0 66 -27.5t24 -62.5t-24.5 -61.5t-65.5 -26.5zM1192 905h127v-4l-318 -911h-38l-281 626l-285 -626
h-37l-317 911v4h127l188 -543q30 -99 35 -116q10 32 45 112l228 498h30l226 -496q30 -61 47 -114q20 72 37 119z" />
    <glyph glyph-name="uni1E9E" unicode="&#x1e9e;" horiz-adv-x="1359" 
d="M815 856q198 0 321.5 -119.5t123.5 -306.5q0 -190 -122.5 -310t-316.5 -120h-272v123h256q144 0 231.5 84.5t87.5 222.5q0 137 -87.5 221t-231.5 84h-164v96l301 439h-283q-155 0 -240 -99t-85 -278v-893h-135v893q0 244 120 372t349 128h483v-41l-344 -496h8z" />
    <glyph glyph-name="Ygrave" unicode="&#x1ef2;" horiz-adv-x="1280" 
d="M713 1563l-291 204l86 99l268 -232zM1077 1393h156v-7l-526 -761v-625h-134v625l-526 761v7h156l317 -463q75 -109 121 -193q50 92 119 193z" />
    <glyph glyph-name="ygrave" unicode="&#x1ef3;" horiz-adv-x="944" 
d="M565 1100l-291 207l86 98l269 -231zM786 905h129v-4l-557 -1352h-131v5l201 469l-395 878v4h131l260 -579q43 -100 65 -168q16 52 62 168z" />
    <glyph glyph-name="endash" unicode="&#x2013;" horiz-adv-x="1089" 
d="M137 418v102h813v-102h-813z" />
    <glyph glyph-name="emdash" unicode="&#x2014;" horiz-adv-x="1427" 
d="M137 418v102h1151v-102h-1151z" />
    <glyph glyph-name="quoteleft" unicode="&#x2018;" horiz-adv-x="378" 
d="M188 1180q40 0 67.5 -26t27.5 -67q0 -44 -28 -68t-67 -24q-36 0 -65 29.5t-29 93.5q0 80 43 157.5t111 135.5l39 -43q-102 -89 -117 -190q6 2 18 2z" />
    <glyph glyph-name="quoteright" unicode="&#x2019;" horiz-adv-x="378" 
d="M199 1403q37 0 65.5 -30.5t28.5 -94.5q0 -79 -43 -156t-111 -135l-37 43q100 90 115 191q-6 -2 -18 -2q-40 0 -66.5 25.5t-26.5 66.5q0 44 27.5 68t65.5 24z" />
    <glyph glyph-name="quotesinglbase" unicode="&#x201a;" horiz-adv-x="514" 
d="M258 166q38 0 66 -29.5t28 -95.5q0 -76 -41.5 -151t-111.5 -132l-35 39q97 87 112 187q-6 -2 -18 -2q-40 0 -66 25.5t-26 66.5q0 45 27 68.5t65 23.5z" />
    <glyph glyph-name="quotedblleft" unicode="&#x201c;" horiz-adv-x="661" 
d="M287 1370q-102 -94 -117 -192q6 2 18 2q40 0 67.5 -26t27.5 -67q0 -44 -28 -68t-67 -24q-36 0 -65 29.5t-29 93.5q0 80 43 157.5t111 135.5zM471 1180q40 0 67 -26t27 -67q0 -44 -27.5 -68t-66.5 -24q-37 0 -65.5 29.5t-28.5 93.5q0 81 43 158t110 135l39 -41
q-101 -93 -116 -192q6 2 18 2z" />
    <glyph glyph-name="quotedblright" unicode="&#x201d;" horiz-adv-x="661" 
d="M199 1403q37 0 65.5 -30t28.5 -93q0 -80 -43 -157.5t-111 -135.5l-37 43q100 90 115 191q-6 -2 -16 -2q-42 0 -68.5 25.5t-26.5 66.5q0 44 28 68t65 24zM481 1403q37 0 65.5 -30t28.5 -93q0 -81 -43 -158t-110 -135l-37 43q102 92 117 191q-6 -2 -21 -2q-40 0 -66 25.5
t-26 66.5q0 44 27.5 68t64.5 24z" />
    <glyph glyph-name="quotedblbase" unicode="&#x201e;" horiz-adv-x="798" 
d="M258 166q38 0 66 -29.5t28 -95.5q0 -76 -41.5 -151t-111.5 -132l-35 39q97 87 112 187q-6 -2 -18 -2q-40 0 -66 25.5t-26 66.5q0 45 27 68.5t65 23.5zM543 166q38 0 66 -29.5t28 -95.5q0 -76 -42.5 -151t-113.5 -132l-35 39q100 87 115 187q-6 -2 -18 -2q-40 0 -67 25.5
t-27 66.5q0 44 27.5 68t66.5 24z" />
    <glyph glyph-name="dagger" unicode="&#x2020;" horiz-adv-x="1216" 
d="M547 -602v1235h-418v112h418v650h123v-650h417v-112h-417v-1235h-123z" />
    <glyph glyph-name="daggerdbl" unicode="&#x2021;" horiz-adv-x="1216" 
d="M547 -602v649h-418v113h418v473h-418v112h418v650h123v-650h417v-112h-417v-473h417v-113h-417v-649h-123z" />
    <glyph glyph-name="bullet" unicode="&#x2022;" horiz-adv-x="634" 
d="M317 565q-64 0 -108.5 39t-44.5 113q0 73 44.5 112t108.5 39t109 -39t45 -112t-45 -112.5t-109 -39.5z" />
    <glyph glyph-name="ellipsis" unicode="&#x2026;" horiz-adv-x="1310" 
d="M260 -20q-40 0 -68 24.5t-28 69.5q0 47 28 71.5t68 24.5q39 0 67.5 -25t28.5 -71q0 -44 -28.5 -69t-67.5 -25zM655 -20q-40 0 -68 24.5t-28 69.5q0 47 28 71.5t68 24.5t68.5 -24.5t28.5 -71.5q0 -45 -28.5 -69.5t-68.5 -24.5zM1051 -20q-39 0 -68 25t-29 69q0 46 29 71
t68 25q40 0 68 -24.5t28 -71.5q0 -45 -28 -69.5t-68 -24.5z" />
    <glyph glyph-name="perthousand" unicode="&#x2030;" horiz-adv-x="2283" 
d="M395 807q-75 0 -134.5 27.5t-94 72.5t-52.5 97t-18 106t18 106t52.5 97t94 72.5t134.5 27.5q74 0 133.5 -27t94.5 -72t53 -97t18 -107q0 -54 -18 -106.5t-53 -97t-94.5 -72t-133.5 -27.5zM332 0l803 1393h114l-800 -1393h-117zM395 903q49 0 87.5 19t60.5 49.5t33.5 66
t11.5 72.5q0 81 -48.5 144t-144.5 63q-65 0 -110 -33t-63.5 -78t-18.5 -96t18.5 -96t63.5 -78t110 -33zM1174 -20q-75 0 -134.5 27.5t-94.5 72.5t-53 97t-18 106t18 106t53 97t94.5 72.5t134.5 27.5q74 0 133.5 -27t94.5 -72t53 -97t18 -107q0 -54 -18 -106.5t-53 -97
t-94.5 -72t-133.5 -27.5zM1888 -20q-75 0 -134.5 27.5t-94 72.5t-52.5 97t-18 106t18 106t52.5 97t94 72.5t134.5 27.5q74 0 133.5 -27t94.5 -72t53 -97t18 -107q0 -54 -18 -106.5t-53 -97t-94.5 -72t-133.5 -27.5zM1174 76q65 0 110 33t63.5 78t18.5 96t-18.5 95.5
t-63.5 77.5t-110 33t-110.5 -33t-64 -78t-18.5 -95q0 -37 11.5 -72.5t33.5 -66t60.5 -49.5t87.5 -19zM1888 76q49 0 87.5 19t60.5 49.5t33.5 66t11.5 72.5q0 50 -18.5 95t-64 78t-110.5 33t-110 -33t-63.5 -77.5t-18.5 -95.5t18.5 -96t63.5 -78t110 -33z" />
    <glyph glyph-name="guilsinglleft" unicode="&#x2039;" horiz-adv-x="522" 
d="M322 104l-248 398l243 385l93 -53l-191 -332l195 -344z" />
    <glyph glyph-name="guilsinglright" unicode="&#x203a;" horiz-adv-x="522" 
d="M199 104l-93 54l197 344l-192 332l92 53l243 -385z" />
    <glyph glyph-name="fraction" unicode="&#x2044;" horiz-adv-x="313" 
d="M-252 0l723 1393h100l-721 -1393h-102z" />
    <glyph glyph-name="Euro" unicode="&#x20ac;" horiz-adv-x="1204" 
d="M887 -20q-272 0 -444.5 144.5t-215.5 377.5h-164v110h150q-2 23 -2 70q0 55 4 84h-152v108h170q58 230 222 364t409 134q142 0 254 -47l-39 -113q-90 37 -213 37q-191 0 -315.5 -96.5t-177.5 -278.5h499l-34 -108h-486q-6 -44 -6 -90q0 -44 2 -64h440l-38 -110h-385
q39 -179 174 -289.5t348 -110.5q123 0 213 45l39 -114q-121 -53 -252 -53z" />
    <glyph glyph-name="uni20BD" unicode="&#x20bd;" horiz-adv-x="1243" 
d="M707 539h-314v-138h539v-114h-539v-287h-133v287h-182v114h182v138h-182v114h182v701h473q107 0 193 -35t138 -93t79.5 -128.5t27.5 -147.5q0 -79 -26.5 -150t-80 -130.5t-145.5 -95t-212 -35.5zM393 1231v-578h312q90 0 156.5 24.5t103.5 67.5t54 94t17 111
q0 124 -82.5 202.5t-222.5 78.5h-338z" />
    <glyph glyph-name="uni2113" unicode="&#x2113;" horiz-adv-x="937" 
d="M526 -20q-145 0 -212.5 87.5t-67.5 237.5v49l-150 -69l-43 84q142 65 193 92v551q0 184 80.5 292.5t234.5 108.5q74 0 132 -31.5t90.5 -82t48.5 -105t16 -109.5q0 -96 -25 -181.5t-67.5 -153t-106.5 -130t-133 -110.5t-156 -96v-109q0 -93 41 -158t125 -65q114 0 193 82
l63 -84q-103 -100 -256 -100zM360 524q85 51 150.5 106.5t119 125t81.5 154t28 180.5q0 34 -10 70t-30 70t-55.5 55.5t-80.5 21.5q-97 0 -150 -77.5t-53 -221.5v-484z" />
    <glyph glyph-name="uni2116" unicode="&#x2116;" horiz-adv-x="2185" 
d="M1833 874q-116 0 -197.5 71t-81.5 198t81.5 197.5t197.5 70.5t197 -70.5t81 -197.5t-81 -198t-197 -71zM1225 416v977h135v-1403h-60l-866 1020q-32 39 -100 114q6 -65 6 -133v-991h-135v1403h57l864 -1016q73 -82 103 -117q-4 51 -4 146zM1833 1317q-72 0 -121 -46
t-49 -128t49 -128t121 -46q71 0 119.5 46.5t48.5 127.5t-48.5 127.5t-119.5 46.5zM1571 645v88h522v-88h-522z" />
    <glyph glyph-name="uni2117" unicode="&#x2117;" horiz-adv-x="1617" 
d="M809 -6q-153 0 -283.5 55t-219.5 149.5t-139 223t-50 274.5t50 274.5t139 223t219.5 149t283.5 54.5t283.5 -54.5t219.5 -149t139 -223t50 -274.5t-50 -274.5t-139 -223t-219.5 -149.5t-283.5 -55zM809 102q174 0 308 78.5t205 213t71 302.5t-71 302t-205 212t-308 78
q-172 0 -306 -78t-206 -212.5t-72 -301.5t72 -302t206 -213.5t306 -78.5zM584 324v759h299q112 0 175.5 -71.5t63.5 -163.5q0 -99 -62 -168.5t-181 -69.5h-201v-286h-94zM678 698h180q87 0 127.5 42.5t40.5 111.5q0 63 -42.5 103t-121.5 40h-184v-297z" />
    <glyph glyph-name="trademark" unicode="&#x2122;" horiz-adv-x="1394" 
d="M299 823v484h-190v86h477v-86h-193v-484h-94zM631 823l80 570h16l223 -308l224 308h18l78 -570h-94l-46 363l-172 -238h-16l-172 238l-45 -363h-94z" />
    <glyph glyph-name="uni2126" unicode="&#x2126;" horiz-adv-x="1636" 
d="M152 0v123h258q-146 89 -225 238t-79 335q0 199 88.5 362.5t250.5 259t366 95.5q205 0 367.5 -95.5t251 -259t88.5 -362.5q0 -186 -79 -335t-225 -238h261v-123h-517v121q195 47 309.5 204.5t114.5 370.5q0 166 -70 300.5t-201.5 214t-299.5 79.5q-126 0 -233 -46.5
t-180.5 -126t-114.5 -188.5t-41 -233q0 -213 114.5 -370.5t307.5 -204.5v-121h-512z" />
    <glyph glyph-name="estimated" unicode="&#x212e;" horiz-adv-x="1630" 
d="M823 -20q-208 0 -370 98t-249 266t-87 375q0 204 88.5 371.5t250.5 265.5t367 98q153 0 282 -57.5t216 -156.5t135.5 -233.5t48.5 -287.5q0 -8 -1 -24.5t-1 -24.5h-1138v-348q78 -108 196 -168t262 -60q137 0 261 68t208 182l92 -70q-103 -140 -246.5 -217t-314.5 -77z
M365 772h901v356q-76 102 -190 157.5t-253 55.5q-144 0 -262.5 -58t-195.5 -165v-346z" />
    <glyph glyph-name="uni2153" unicode="&#x2153;" horiz-adv-x="1349" 
d="M213 813v412l-88 -84l-59 59l213 203h20v-590h-86zM180 0l723 1393h101l-721 -1393h-103zM1032 -20q-120 0 -184 73l53 60q49 -52 129 -52q56 0 88.5 29.5t32.5 77.5q0 50 -34 73t-85 23h-71v80h61q45 0 73.5 22.5t28.5 65.5q0 38 -26.5 61t-63.5 23q-65 0 -104 -39
l-60 58q68 65 170 65q67 0 119.5 -43.5t52.5 -112.5q0 -95 -79 -135q46 -12 77 -53t31 -92q0 -85 -57.5 -134.5t-151.5 -49.5z" />
    <glyph glyph-name="uni2154" unicode="&#x2154;" horiz-adv-x="1501" 
d="M492 895v-82h-386v18l224 297q51 67 51 119q0 38 -21.5 61t-62.5 23q-61 0 -102 -78l-72 33q20 60 66.5 93.5t109.5 33.5q76 0 124 -47.5t48 -118.5q0 -41 -13 -79.5t-52 -90.5l-140 -182h226zM1055 1393h100l-721 -1393h-102zM1284 309q46 -12 77.5 -53t31.5 -92
q0 -85 -57.5 -134.5t-151.5 -49.5q-121 0 -185 73l54 60q49 -52 129 -52q56 0 88.5 29.5t32.5 77.5q0 50 -34 73t-85 23h-72v80h62q45 0 73.5 22.5t28.5 65.5q0 38 -26.5 61t-63.5 23q-66 0 -105 -39l-59 58q68 65 170 65q67 0 119.5 -43.5t52.5 -112.5q0 -94 -80 -135z" />
    <glyph glyph-name="oneeighth" unicode="&#x215b;" horiz-adv-x="1368" 
d="M213 813v412l-88 -84l-59 59l213 203h20v-590h-86zM180 0l723 1393h101l-721 -1393h-103zM1057 -20q-89 0 -147 47.5t-58 136.5q0 47 25.5 87.5t70.5 61.5q-67 49 -67 129q0 72 52.5 115t125.5 43q72 0 122 -42t50 -112q0 -44 -19.5 -77.5t-50.5 -51.5q48 -24 73.5 -64.5
t25.5 -88.5q0 -91 -57 -137.5t-146 -46.5zM1059 354q38 0 60 24t22 56q0 38 -23 62t-59 24q-38 0 -62 -24t-24 -62q0 -33 23.5 -56.5t62.5 -23.5zM1057 61q50 0 81 29.5t31 75.5t-31.5 77t-82.5 31q-52 0 -82.5 -31t-30.5 -77t31.5 -75.5t83.5 -29.5z" />
    <glyph glyph-name="threeeighths" unicode="&#x215c;" horiz-adv-x="1540" 
d="M287 793q-121 0 -185 73l54 60q49 -52 129 -52q56 0 88.5 29.5t32.5 77.5q0 50 -34 73t-85 23h-72v80h61q45 0 74 23t29 65q0 38 -26.5 61t-63.5 23q-66 0 -105 -39l-59 58q68 65 170 65q67 0 119.5 -43.5t52.5 -112.5q0 -94 -80 -135q46 -12 77.5 -53t31.5 -92
q0 -85 -57.5 -134.5t-151.5 -49.5zM352 0l723 1393h101l-721 -1393h-103zM1229 -20q-89 0 -147 47.5t-58 136.5q0 47 25.5 87.5t70.5 61.5q-67 49 -67 129q0 72 52.5 115t125.5 43q72 0 122 -42t50 -112q0 -44 -19.5 -77.5t-50.5 -51.5q48 -24 73.5 -64.5t25.5 -88.5
q0 -91 -57 -137.5t-146 -46.5zM1231 354q38 0 60 24t22 56q0 38 -23 62t-59 24q-38 0 -62 -24t-24 -62q0 -33 23.5 -56.5t62.5 -23.5zM1229 61q50 0 81 29.5t31 75.5t-31.5 77t-82.5 31q-52 0 -82.5 -31t-30.5 -77t31.5 -75.5t83.5 -29.5z" />
    <glyph glyph-name="fiveeighths" unicode="&#x215d;" horiz-adv-x="1538" 
d="M289 793q-117 0 -183 81l68 56q40 -53 115 -53q53 0 83.5 31.5t30.5 82.5q0 55 -38.5 85t-100.5 30q-46 0 -102 -16l-15 12l35 291h283v-86h-209l-14 -133q24 6 51 6q85 0 143 -50t58 -139q0 -90 -56.5 -144t-148.5 -54zM350 0l723 1393h101l-721 -1393h-103zM1227 -20
q-89 0 -147 47.5t-58 136.5q0 47 25.5 87.5t70.5 61.5q-67 49 -67 129q0 72 52.5 115t125.5 43q72 0 122 -42t50 -112q0 -44 -19.5 -77.5t-50.5 -51.5q48 -24 73.5 -64.5t25.5 -88.5q0 -91 -57 -137.5t-146 -46.5zM1229 354q38 0 60 24t22 56q0 38 -23 62t-59 24
q-38 0 -62 -24t-24 -62q0 -33 23.5 -56.5t62.5 -23.5zM1227 61q50 0 81 29.5t31 75.5t-31.5 77t-82.5 31q-52 0 -82.5 -31t-30.5 -77t31.5 -75.5t83.5 -29.5z" />
    <glyph glyph-name="seveneighths" unicode="&#x215e;" horiz-adv-x="1406" 
d="M145 813l205 494h-244v86h363v-19l-233 -561h-91zM219 0l723 1393h100l-720 -1393h-103zM1096 -20q-89 0 -147 47.5t-58 136.5q0 47 25.5 87.5t70.5 61.5q-67 49 -67 129q0 72 52.5 115t125.5 43q72 0 122 -42t50 -112q0 -44 -19.5 -77.5t-50.5 -51.5q98 -49 98 -153
q0 -91 -56.5 -137.5t-145.5 -46.5zM1098 354q38 0 60 24t22 56q0 38 -23 62t-59 24q-38 0 -62 -24t-24 -62q0 -33 23.5 -56.5t62.5 -23.5zM1096 61q50 0 81 29.5t31 75.5t-31.5 77t-82.5 31q-52 0 -82.5 -31t-30.5 -77t31.5 -75.5t83.5 -29.5z" />
    <glyph glyph-name="arrowleft" unicode="&#x2190;" horiz-adv-x="1253" 
d="M1212 616h-860q-67 0 -108 2q57 -50 82 -77l266 -265l-84 -86l-485 488l487 487l82 -84l-258 -258q-11 -12 -90 -86q22 0 57 1t51 1h860v-123z" />
    <glyph glyph-name="arrowup" unicode="&#x2191;" horiz-adv-x="1046" 
d="M461 111v860q0 67 2 108q-27 -33 -76 -82l-266 -266l-84 84l487 488l488 -490l-84 -82l-260 258l-86 90q4 -78 4 -108v-860h-125z" />
    <glyph glyph-name="arrowright" unicode="&#x2192;" horiz-adv-x="1253" 
d="M41 829h860h109q-33 27 -82 76l-266 264l83 86l486 -487l-488 -487l-81 84l258 260q13 13 43 41t47 45q-82 -4 -109 -4h-860v122z" />
    <glyph glyph-name="arrowdown" unicode="&#x2193;" horiz-adv-x="1046" 
d="M586 1339v-860q0 -67 -2 -108q33 40 78 82l264 266l86 -84l-488 -488l-487 490l84 82l258 -258q24 -24 86 -90q-2 41 -2 108v860h123z" />
    <glyph glyph-name="arrowboth" unicode="&#x2194;" horiz-adv-x="1630" 
d="M508 240l-485 487l487 487l82 -84l-258 -260q-40 -40 -90 -84q22 0 57 1t51 1h926q67 0 108 -2q-27 23 -81 76l-267 266l84 84l488 -485l-490 -487l-82 84l258 258q2 2 36 34.5t54 49.5q-20 0 -55.5 -1t-52.5 -1h-926q-67 0 -108 2q33 -27 82 -76l266 -266z" />
    <glyph glyph-name="arrowupdn" unicode="&#x2195;" horiz-adv-x="1046" 
d="M37 1032l487 488l488 -488l-84 -82l-260 258q-45 45 -84 92q2 -43 2 -112v-924q0 -67 -2 -108q33 40 78 82l264 266l86 -84l-488 -488l-487 490l84 82l258 -258q40 -41 84 -90q-2 37 -2 108v926q0 67 2 108q-14 -16 -76 -84l-266 -266z" />
    <glyph glyph-name="uni2196" unicode="&#x2196;" horiz-adv-x="958" 
d="M842 217l-606 608q-41 37 -76 78q2 -43 2 -112l2 -375l-121 -2v690l692 -2l-2 -117h-366q-78 0 -125 2q51 -44 80 -76l608 -608z" />
    <glyph glyph-name="uni2197" unicode="&#x2197;" horiz-adv-x="958" 
d="M29 313l608 609q37 35 78 75q-41 -4 -113 -4l-375 -2v121h688l-2 -690h-116v366q0 19 1 60.5t1 64.5q-34 -39 -74 -79l-608 -609z" />
    <glyph glyph-name="uni2198" unicode="&#x2198;" horiz-adv-x="958" 
d="M117 1161l606 -608q41 -37 76 -78q-2 43 -2 113l-2 377h120v-689h-692l2 117l367 2q33 0 123 -4q-56 52 -78 76l-608 608z" />
    <glyph glyph-name="uni2199" unicode="&#x2199;" horiz-adv-x="958" 
d="M930 1075l-608 -608q-49 -49 -78 -76q41 4 112 4h375l2 -119h-690l2 691l117 -2v-365q0 -19 -1 -60.5t-1 -64.5l73 80l609 608z" />
    <glyph glyph-name="partialdiff" unicode="&#x2202;" horiz-adv-x="1044" 
d="M516 -20q-81 0 -156 27t-134.5 77.5t-95.5 131t-36 179.5q0 109 36 199t96 147t136 88t158 31q171 0 275 -121q-61 211 -207 366t-342 234l53 105q308 -130 479.5 -386t171.5 -581q0 -98 -28 -186t-80.5 -158t-136.5 -111.5t-189 -41.5zM518 96q77 0 137 32t96 86
t54 119.5t18 139.5q-3 119 -83.5 194.5t-202.5 75.5q-63 0 -119 -21.5t-101 -62.5t-71.5 -107.5t-26.5 -150.5q0 -132 83 -218.5t216 -86.5z" />
    <glyph glyph-name="emptyset" unicode="&#x2205;" horiz-adv-x="1654" 
d="M1341 1208q93 -97 144 -227.5t51 -282.5q0 -147 -52 -278.5t-143.5 -228.5t-224.5 -154t-287 -57q-266 0 -464 167l-148 -161h-94l192 209q-93 99 -143.5 228.5t-50.5 274.5q0 204 89.5 367t251.5 255.5t367 92.5q273 0 461 -158l137 150h97zM219 698q0 -125 41.5 -237
t118.5 -197l848 922q-160 135 -398 135q-272 0 -441 -175t-169 -448zM829 72q178 0 319 84t216.5 226.5t75.5 315.5q0 265 -162 441l-850 -924q165 -143 401 -143z" />
    <glyph glyph-name="uni2206" unicode="&#x2206;" horiz-adv-x="1409" 
d="M29 0v6l655 1397h39l657 -1397v-6h-1351zM225 123h951l-474 1016z" />
    <glyph glyph-name="product" unicode="&#x220f;" horiz-adv-x="1490" 
d="M205 0v1393h1081v-1393h-135v1270h-811v-1270h-135z" />
    <glyph glyph-name="summation" unicode="&#x2211;" horiz-adv-x="1150" 
d="M90 0v43l453 653l-453 654v43h995v-121h-794l405 -576l-405 -575h794v-121h-995z" />
    <glyph glyph-name="minus" unicode="&#x2212;" horiz-adv-x="1114" 
d="M152 641v113h811v-113h-811z" />
    <glyph glyph-name="radical" unicode="&#x221a;" horiz-adv-x="1140" 
d="M1063 1479h131l-639 -1479h-39l-328 719h-168v115h242l268 -603z" />
    <glyph glyph-name="infinity" unicode="&#x221e;" horiz-adv-x="1460" 
d="M408 434q-107 0 -194 77.5t-87 205.5q0 87 43.5 153t106.5 97.5t131 31.5q98 0 173 -51.5t150 -146.5q47 61 89.5 101t103.5 68.5t129 28.5q107 0 193.5 -77t86.5 -205t-86.5 -205.5t-193.5 -77.5q-68 0 -129.5 29.5t-103 69t-89.5 100.5q-77 -95 -151 -147t-172 -52z
M416 545q67 0 124.5 42.5t127.5 129.5q-70 87 -127.5 129.5t-124.5 42.5q-64 0 -117 -46t-53 -126t53 -126t117 -46zM1044 545q64 0 117 46t53 126t-53 126t-117 46q-67 0 -123.5 -42.5t-127.5 -129.5q71 -87 127.5 -129.5t123.5 -42.5z" />
    <glyph glyph-name="integral" unicode="&#x222b;" horiz-adv-x="946" 
d="M236 -373q-110 0 -213 80l49 88q85 -57 164 -57q170 0 170 213v1139q0 157 82.5 240t209.5 83q110 0 213 -80l-51 -88q-86 58 -162 58q-170 0 -170 -213v-1139q0 -157 -83 -240.5t-209 -83.5z" />
    <glyph glyph-name="approxequal" unicode="&#x2248;" horiz-adv-x="1189" 
d="M244 735l-92 56q40 88 97 136t150 48q88 0 207 -76q4 -3 25.5 -16t27 -16.5t23 -13.5t26 -13t22.5 -8.5t26 -7t24 -1.5q53 0 85.5 37t54.5 101l98 -52q-70 -196 -238 -196q-89 0 -200 71q-41 26 -62 38.5t-55.5 25t-63.5 12.5q-62 0 -95.5 -30.5t-59.5 -94.5zM264 383
l-92 57q39 87 97 135t151 48q95 0 207 -74q41 -27 62.5 -39.5t53 -24.5t58.5 -12q53 0 85 36.5t56 100.5l96 -51q-70 -197 -237 -197q-90 0 -199 72q-57 37 -98.5 55.5t-83.5 18.5q-61 0 -95 -30t-61 -95z" />
    <glyph glyph-name="notequal" unicode="&#x2260;" horiz-adv-x="1075" 
d="M903 834h-258l-156 -271h414v-112h-479l-135 -232l-72 45l109 187h-152v112h217l158 271h-375v112h440l134 230l73 -41l-110 -189h192v-112z" />
    <glyph glyph-name="lessequal" unicode="&#x2264;" horiz-adv-x="880" 
d="M754 457l-662 309v111l662 309v-131l-527 -234l527 -233v-131zM754 223h-662v111h662v-111z" />
    <glyph glyph-name="greaterequal" unicode="&#x2265;" horiz-adv-x="880" 
d="M127 457v131l526 233l-526 234v131l661 -309v-111zM127 223v111h661v-111h-661z" />
    <glyph glyph-name="lozenge" unicode="&#x25ca;" horiz-adv-x="1120" 
d="M547 0l-473 696l473 697h26l476 -697l-476 -696h-26zM561 201l342 495l-342 494l-344 -494z" />
    <glyph glyph-name="i.loclTRK" horiz-adv-x="444" 
d="M221 1153q-42 0 -68 25.5t-26 64.5q0 40 26 67t68 27q43 0 68.5 -27t25.5 -69q0 -38 -26 -63t-68 -25zM160 0v905h125v-905h-125z" />
    <glyph glyph-name="germandbls.calt" horiz-adv-x="1359" 
d="M815 856q198 0 321.5 -119.5t123.5 -306.5q0 -190 -122.5 -310t-316.5 -120h-272v123h256q144 0 231.5 84.5t87.5 222.5q0 137 -87.5 221t-231.5 84h-164v96l301 439h-283q-155 0 -240 -99t-85 -278v-893h-135v893q0 244 120 372t349 128h483v-41l-344 -496h8z" />
    <glyph glyph-name="a.ss01" horiz-adv-x="1179" 
d="M924 905h96v-905h-96l-19 156q-61 -84 -153.5 -130t-206.5 -46q-199 0 -325 133.5t-126 337.5q0 206 126.5 339.5t328.5 133.5q222 0 348 -170zM557 98q154 0 249 99t95 254q0 158 -94 257t-250 99q-151 0 -244.5 -99t-93.5 -257q0 -156 94 -254.5t244 -98.5z" />
    <glyph glyph-name="aacute.ss01" horiz-adv-x="1179" 
d="M745 1309l-288 -209l-64 74l271 231zM924 905h96v-905h-96l-19 156q-61 -84 -153.5 -130t-206.5 -46q-199 0 -325 133.5t-126 337.5q0 206 126.5 339.5t328.5 133.5q219 0 348 -170zM557 98q154 0 249 99t95 254q0 158 -94 257t-250 99q-151 0 -244.5 -99t-93.5 -257
q0 -156 94 -254.5t244 -98.5z" />
    <glyph glyph-name="abreve.ss01" horiz-adv-x="1179" 
d="M567 1081q-93 0 -160 56t-90 161l95 23q13 -61 58 -96t101 -35q52 0 95 36t55 95l94 -23q-21 -104 -88.5 -160.5t-159.5 -56.5zM924 905h96v-905h-96l-19 156q-61 -84 -153.5 -130t-206.5 -46q-199 0 -325 133.5t-126 337.5q0 206 126.5 339.5t328.5 133.5
q219 0 348 -170zM557 98q154 0 249 99t95 254q0 158 -94 257t-250 99q-151 0 -244.5 -99t-93.5 -257q0 -156 94 -254.5t244 -98.5z" />
    <glyph glyph-name="acircumflex.ss01" horiz-adv-x="1179" 
d="M567 1229l-200 -156l-58 72l242 209h29l237 -211l-53 -70zM924 905h96v-905h-96l-19 156q-61 -84 -153.5 -130t-206.5 -46q-199 0 -325 133.5t-126 337.5q0 206 126.5 339.5t328.5 133.5q219 0 348 -170zM557 98q154 0 249 99t95 254q0 158 -94 257t-250 99
q-151 0 -244.5 -99t-93.5 -257q0 -156 94 -254.5t244 -98.5z" />
    <glyph glyph-name="adieresis.ss01" horiz-adv-x="1179" 
d="M389 1149q-40 0 -65 25.5t-25 60.5q0 37 24 64.5t66 27.5q41 0 65.5 -26.5t24.5 -61.5t-24 -62.5t-66 -27.5zM741 1149q-40 0 -64 26.5t-24 61.5t24 62.5t64 27.5q42 0 66 -27.5t24 -62.5t-24.5 -61.5t-65.5 -26.5zM924 905h96v-905h-96l-19 156q-61 -84 -153.5 -130
t-206.5 -46q-199 0 -325 133.5t-126 337.5q0 206 126.5 339.5t328.5 133.5q222 0 348 -170zM557 98q154 0 249 99t95 254q0 158 -94 257t-250 99q-151 0 -244.5 -99t-93.5 -257q0 -156 94 -254.5t244 -98.5z" />
    <glyph glyph-name="agrave.ss01" horiz-adv-x="1179" 
d="M659 1100l-290 207l86 98l268 -231zM924 905h96v-905h-96l-19 156q-61 -84 -153.5 -130t-206.5 -46q-199 0 -325 133.5t-126 337.5q0 206 126.5 339.5t328.5 133.5q222 0 348 -170zM557 98q154 0 249 99t95 254q0 158 -94 257t-250 99q-151 0 -244.5 -99t-93.5 -257
q0 -156 94 -254.5t244 -98.5z" />
    <glyph glyph-name="amacron.ss01" horiz-adv-x="1179" 
d="M303 1147v108h526v-108h-526zM924 905h96v-905h-96l-19 156q-61 -84 -153.5 -130t-206.5 -46q-199 0 -325 133.5t-126 337.5q0 206 126.5 339.5t328.5 133.5q222 0 348 -170zM557 98q154 0 249 99t95 254q0 158 -94 257t-250 99q-151 0 -244.5 -99t-93.5 -257
q0 -156 94 -254.5t244 -98.5z" />
    <glyph glyph-name="aogonek.ss01" horiz-adv-x="1179" 
d="M1028 -291l37 -96q-70 -49 -166 -49q-87 0 -135.5 45.5t-48.5 116.5q0 75 53 151.5t152 163.5l-15 115q-61 -84 -153.5 -130t-206.5 -46q-199 0 -325 133.5t-126 337.5q0 206 126.5 339.5t328.5 133.5q222 0 348 -170l27 151h96v-905q-180 -145 -180 -252q0 -74 86 -74
q48 0 102 35zM557 98q154 0 249 99t95 254q0 158 -94 257t-250 99q-151 0 -244.5 -99t-93.5 -257q0 -156 94 -254.5t244 -98.5z" />
    <glyph glyph-name="atilde.ss01" horiz-adv-x="1179" 
d="M385 1133l-88 49q55 141 154 141q62 0 135 -43q64 -33 88 -33q48 0 74 72l88 -49q-54 -135 -154 -135q-56 0 -121 36q-72 37 -98 37q-53 0 -78 -75zM924 905h96v-905h-96l-19 156q-61 -84 -153.5 -130t-206.5 -46q-199 0 -325 133.5t-126 337.5q0 206 126.5 339.5
t328.5 133.5q222 0 348 -170zM557 98q154 0 249 99t95 254q0 158 -94 257t-250 99q-151 0 -244.5 -99t-93.5 -257q0 -156 94 -254.5t244 -98.5z" />
    <glyph glyph-name="ae.ss01" horiz-adv-x="1753" 
d="M1325 98q169 0 274 105l68 -82q-134 -137 -340 -137q-235 0 -332 163l-12 -147h-96l-13 145q-54 -75 -143.5 -118t-193.5 -43q-198 0 -320.5 134t-122.5 333q0 131 53 237t155.5 170t236.5 64q104 0 188.5 -40.5t140.5 -115.5l17 139h96l18 -145q107 166 332 166
q147 0 245.5 -79.5t98.5 -219.5q0 -137 -103.5 -196.5t-291.5 -59.5q-156 0 -281 16q17 -137 106 -213t220 -76zM1323 809q-133 0 -221 -83.5t-103 -229.5q144 -19 287 -19q130 0 199 36t69 124q0 80 -64.5 126t-166.5 46zM545 98q82 0 146 29t102 79t57.5 112t19.5 133
q0 72 -19.5 134.5t-57.5 112.5t-102 78.5t-146 28.5q-147 0 -236.5 -99t-89.5 -255q0 -155 90 -254t236 -99z" />
    <glyph glyph-name="aeacute.ss01" horiz-adv-x="1753" 
d="M1112 1309l-289 -209l-63 74l270 231zM1325 98q169 0 274 105l68 -82q-134 -137 -340 -137q-235 0 -332 163l-12 -147h-96l-13 145q-54 -75 -143.5 -118t-193.5 -43q-198 0 -320.5 134t-122.5 333q0 131 53 237t155.5 170t236.5 64q104 0 188.5 -40.5t140.5 -115.5
l17 139h96l18 -145q107 166 332 166q147 0 245.5 -79.5t98.5 -219.5q0 -137 -103.5 -196.5t-291.5 -59.5q-156 0 -281 16q17 -137 106 -213t220 -76zM1323 809q-133 0 -221 -83.5t-103 -229.5q144 -19 287 -19q130 0 199 36t69 124q0 80 -64.5 126t-166.5 46zM545 98
q82 0 146 29t102 79t57.5 112t19.5 133q0 72 -19.5 134.5t-57.5 112.5t-102 78.5t-146 28.5q-147 0 -236.5 -99t-89.5 -255q0 -155 90 -254t236 -99z" />
    <glyph glyph-name="e.ss01" horiz-adv-x="987" 
d="M561 94q167 0 273 109l69 -86q-137 -140 -344 -140q-211 0 -338 133.5t-127 340.5q0 131 53.5 238t160 173t247.5 66q154 0 254 -84.5t100 -216.5q0 -91 -51.5 -149.5t-134.5 -82.5t-199 -24q-175 0 -301 18q18 -136 111.5 -215.5t226.5 -79.5zM553 811
q-141 0 -229.5 -87.5t-102.5 -227.5q171 -19 291 -19q139 0 207.5 34.5t68.5 121.5q0 78 -66 128t-169 50z" />
    <glyph glyph-name="eacute.ss01" horiz-adv-x="987" 
d="M719 1309l-289 -209l-63 74l270 231zM561 94q167 0 273 109l69 -86q-137 -140 -344 -140q-211 0 -338 133.5t-127 340.5q0 131 53.5 238t160 173t247.5 66q154 0 254 -84.5t100 -216.5q0 -91 -51.5 -149.5t-134.5 -82.5t-199 -24q-178 0 -301 18q18 -136 111.5 -215.5
t226.5 -79.5zM553 811q-141 0 -229.5 -87.5t-102.5 -227.5q143 -19 291 -19q139 0 207.5 34.5t68.5 121.5q0 78 -66 128t-169 50z" />
    <glyph glyph-name="ebreve.ss01" horiz-adv-x="987" 
d="M541 1081q-93 0 -160 56t-90 161l94 23q13 -61 58.5 -96t101.5 -35q52 0 94.5 36t54.5 95l94 -23q-21 -104 -88 -160.5t-159 -56.5zM561 94q167 0 273 109l69 -86q-137 -140 -344 -140q-211 0 -338 133.5t-127 340.5q0 131 53.5 238t160 173t247.5 66q154 0 254 -84.5
t100 -216.5q0 -91 -51.5 -149.5t-134.5 -82.5t-199 -24q-178 0 -301 18q18 -136 111.5 -215.5t226.5 -79.5zM553 811q-141 0 -229.5 -87.5t-102.5 -227.5q143 -19 291 -19q139 0 207.5 34.5t68.5 121.5q0 78 -66 128t-169 50z" />
    <glyph glyph-name="ecaron.ss01" horiz-adv-x="987" 
d="M555 1085h-31l-237 211l53 70l199 -156l200 156l56 -72zM561 94q167 0 273 109l69 -86q-137 -140 -344 -140q-211 0 -338 133.5t-127 340.5q0 131 53.5 238t160 173t247.5 66q154 0 254 -84.5t100 -216.5q0 -91 -51.5 -149.5t-134.5 -82.5t-199 -24q-178 0 -301 18
q18 -136 111.5 -215.5t226.5 -79.5zM553 811q-141 0 -229.5 -87.5t-102.5 -227.5q143 -19 291 -19q139 0 207.5 34.5t68.5 121.5q0 78 -66 128t-169 50z" />
    <glyph glyph-name="ecircumflex.ss01" horiz-adv-x="987" 
d="M541 1229l-201 -156l-57 72l241 209h29l238 -211l-54 -70zM561 94q167 0 273 109l69 -86q-137 -140 -344 -140q-211 0 -338 133.5t-127 340.5q0 131 53.5 238t160 173t247.5 66q154 0 254 -84.5t100 -216.5q0 -91 -51.5 -149.5t-134.5 -82.5t-199 -24q-178 0 -301 18
q18 -136 111.5 -215.5t226.5 -79.5zM553 811q-141 0 -229.5 -87.5t-102.5 -227.5q143 -19 291 -19q139 0 207.5 34.5t68.5 121.5q0 78 -66 128t-169 50z" />
    <glyph glyph-name="edieresis.ss01" horiz-adv-x="987" 
d="M362 1149q-40 0 -65 25.5t-25 60.5q0 37 24 64.5t66 27.5q41 0 66 -27t25 -61q0 -35 -24.5 -62.5t-66.5 -27.5zM715 1149q-40 0 -64 26.5t-24 61.5t24 62.5t64 27.5q42 0 66 -27.5t24 -62.5t-24.5 -61.5t-65.5 -26.5zM561 94q167 0 273 109l69 -86q-137 -140 -344 -140
q-211 0 -338 133.5t-127 340.5q0 131 53.5 238t160 173t247.5 66q154 0 254 -84.5t100 -216.5q0 -91 -51.5 -149.5t-134.5 -82.5t-199 -24q-175 0 -301 18q18 -136 111.5 -215.5t226.5 -79.5zM553 811q-141 0 -229.5 -87.5t-102.5 -227.5q171 -19 291 -19q139 0 207.5 34.5
t68.5 121.5q0 78 -66 128t-169 50z" />
    <glyph glyph-name="edotaccent.ss01" horiz-adv-x="987" 
d="M541 1139q-43 0 -70 27.5t-27 66.5q0 42 27 70t70 28q44 0 71 -28.5t27 -71.5q0 -39 -28 -65.5t-70 -26.5zM561 94q167 0 273 109l69 -86q-137 -140 -344 -140q-211 0 -338 133.5t-127 340.5q0 131 53.5 238t160 173t247.5 66q154 0 254 -84.5t100 -216.5
q0 -91 -51.5 -149.5t-134.5 -82.5t-199 -24q-175 0 -301 18q18 -136 111.5 -215.5t226.5 -79.5zM553 811q-141 0 -229.5 -87.5t-102.5 -227.5q171 -19 291 -19q139 0 207.5 34.5t68.5 121.5q0 78 -66 128t-169 50z" />
    <glyph glyph-name="egrave.ss01" horiz-adv-x="987" 
d="M633 1100l-291 207l86 98l268 -231zM561 94q167 0 273 109l69 -86q-137 -140 -344 -140q-211 0 -338 133.5t-127 340.5q0 131 53.5 238t160 173t247.5 66q154 0 254 -84.5t100 -216.5q0 -91 -51.5 -149.5t-134.5 -82.5t-199 -24q-175 0 -301 18q18 -136 111.5 -215.5
t226.5 -79.5zM553 811q-141 0 -229.5 -87.5t-102.5 -227.5q171 -19 291 -19q139 0 207.5 34.5t68.5 121.5q0 78 -66 128t-169 50z" />
    <glyph glyph-name="emacron.ss01" horiz-adv-x="987" 
d="M276 1147v108h527v-108h-527zM561 94q167 0 273 109l69 -86q-137 -140 -344 -140q-211 0 -338 133.5t-127 340.5q0 131 53.5 238t160 173t247.5 66q154 0 254 -84.5t100 -216.5q0 -91 -51.5 -149.5t-134.5 -82.5t-199 -24q-175 0 -301 18q18 -136 111.5 -215.5
t226.5 -79.5zM553 811q-141 0 -229.5 -87.5t-102.5 -227.5q171 -19 291 -19q139 0 207.5 34.5t68.5 121.5q0 78 -66 128t-169 50z" />
    <glyph glyph-name="eogonek.ss01" horiz-adv-x="989" 
d="M913 123l-22 -23q-133 -135 -184.5 -215.5t-51.5 -140.5q0 -35 22 -54.5t64 -19.5q52 0 103 35l37 -96q-74 -49 -166 -49q-88 0 -136.5 44t-48.5 117q0 120 148 271q-56 -12 -117 -12q-211 0 -338 133t-127 338q0 130 53.5 236.5t160 172.5t247.5 66q154 -2 254 -85
t100 -212q0 -135 -103.5 -196.5t-281.5 -61.5t-301 18q18 -136 111.5 -214.5t226.5 -78.5q166 0 271 105zM555 809q-141 0 -229.5 -87t-102.5 -226q143 -19 291 -19q139 0 208 34.5t69 121.5q0 78 -66.5 127t-169.5 49z" />
    <glyph glyph-name="g.ss01" horiz-adv-x="933" 
d="M637 68q127 -8 200.5 -64t73.5 -166q0 -132 -123.5 -220.5t-300.5 -88.5q-102 0 -182 25t-128.5 68t-73.5 96.5t-25 113.5q0 64 25 122.5t73 98.5q-55 55 -55 140q0 97 82 163q-82 94 -82 226q0 145 98 243.5t262 98.5q69 0 207 -10.5t207 -10.5v-90l-158 -4
q105 -94 105 -227q0 -144 -98 -243t-263 -99q-116 0 -198 51q-41 -33 -41 -86q0 -49 41 -83t118 -40zM481 809q-111 0 -173 -65t-62 -162q0 -96 62 -161t173 -65q112 0 174 65t62 161q0 97 -62 162t-174 65zM487 -356q117 0 208 54t91 136q0 54 -42 84t-119 35l-219 14
q-61 3 -136 27q-67 -61 -67 -158q0 -80 71.5 -136t212.5 -56z" />
    <glyph glyph-name="gbreve.ss01" horiz-adv-x="933" 
d="M483 1081q-93 0 -160 56t-90 161l95 23q13 -61 58 -96t101 -35q52 0 95 36t55 95l94 -23q-21 -104 -88.5 -160.5t-159.5 -56.5zM637 68q127 -8 200.5 -64t73.5 -166q0 -132 -123.5 -220.5t-300.5 -88.5q-102 0 -182 25t-128.5 68t-73.5 96.5t-25 113.5q0 63 25 122t73 99
q-55 55 -55 140q0 97 82 163q-82 94 -82 226q0 145 98 243.5t262 98.5q69 0 207 -10.5t207 -10.5v-90l-158 -4q105 -91 105 -227q0 -144 -98 -243t-263 -99q-116 0 -198 51q-41 -33 -41 -86q0 -49 41 -83t118 -40zM481 809q-111 0 -173 -65t-62 -162q0 -96 62 -161t173 -65
q112 0 174 65t62 161q0 97 -62 162t-174 65zM487 -356q117 0 208 54t91 136q0 54 -42 84t-119 35l-219 14q-73 3 -134 27q-69 -57 -69 -158q0 -80 71.5 -136t212.5 -56z" />
    <glyph glyph-name="gcircumflex.ss01" horiz-adv-x="933" 
d="M481 1229l-200 -156l-58 72l242 209h29l237 -211l-53 -70zM637 68q127 -8 200.5 -64t73.5 -166q0 -132 -123.5 -220.5t-300.5 -88.5q-102 0 -182 25t-128.5 68t-73.5 96.5t-25 113.5q0 63 25 122t73 99q-55 55 -55 140q0 97 82 163q-82 94 -82 226q0 145 98 243.5
t262 98.5q69 0 207 -10.5t207 -10.5v-90l-158 -4q105 -91 105 -227q0 -144 -98 -243t-263 -99q-116 0 -198 51q-41 -33 -41 -86q0 -49 41 -83t118 -40zM481 809q-111 0 -173 -65t-62 -162q0 -96 62 -161t173 -65q112 0 174 65t62 161q0 97 -62 162t-174 65zM487 -356
q117 0 208 54t91 136q0 54 -42 84t-119 35l-219 14q-73 3 -134 27q-69 -57 -69 -158q0 -80 71.5 -136t212.5 -56z" />
    <glyph glyph-name="uni0123.ss01" horiz-adv-x="933" 
d="M608 1458q-65 -167 -65 -350h-137q18 209 104 350h98zM637 68q127 -8 200.5 -64t73.5 -166q0 -132 -123.5 -220.5t-300.5 -88.5q-102 0 -182 25t-128.5 68t-73.5 96.5t-25 113.5q0 63 25 122t73 99q-55 55 -55 140q0 97 82 163q-82 94 -82 226q0 145 98 243.5t262 98.5
q69 0 207 -10.5t207 -10.5v-90l-158 -4q105 -91 105 -227q0 -144 -98 -243t-263 -99q-116 0 -198 51q-41 -33 -41 -86q0 -49 41 -83t118 -40zM481 809q-111 0 -173 -65t-62 -162q0 -96 62 -161t173 -65q112 0 174 65t62 161q0 97 -62 162t-174 65zM487 -356q117 0 208 54
t91 136q0 54 -42 84t-119 35l-219 14q-73 3 -134 27q-69 -57 -69 -158q0 -80 71.5 -136t212.5 -56z" />
    <glyph glyph-name="gdotaccent.ss01" horiz-adv-x="933" 
d="M481 1139q-43 0 -69.5 27.5t-26.5 66.5q0 42 26.5 70t69.5 28q44 0 71.5 -28.5t27.5 -71.5q0 -39 -28.5 -65.5t-70.5 -26.5zM637 68q127 -8 200.5 -64t73.5 -166q0 -132 -123.5 -220.5t-300.5 -88.5q-102 0 -182 25t-128.5 68t-73.5 96.5t-25 113.5q0 64 25 122.5
t73 98.5q-55 55 -55 140q0 97 82 163q-82 94 -82 226q0 145 98 243.5t262 98.5q69 0 207 -10.5t207 -10.5v-90l-158 -4q105 -94 105 -227q0 -144 -98 -243t-263 -99q-116 0 -198 51q-41 -33 -41 -86q0 -49 41 -83t118 -40zM481 809q-111 0 -173 -65t-62 -162q0 -96 62 -161
t173 -65q112 0 174 65t62 161q0 97 -62 162t-174 65zM487 -356q117 0 208 54t91 136q0 54 -42 84t-119 35l-219 14q-61 3 -136 27q-67 -61 -67 -158q0 -80 71.5 -136t212.5 -56z" />
    <glyph glyph-name="y.ss01" horiz-adv-x="1064" 
d="M780 905h125v-977q0 -102 -34 -181t-91.5 -125t-125 -69.5t-140.5 -23.5q-119 0 -206.5 39.5t-155.5 122.5l81 84q111 -129 281 -129q110 0 188 73.5t78 212.5v222q-41 -76 -118.5 -123t-188.5 -47q-157 0 -241.5 98t-84.5 264v559h125v-569q0 -107 54.5 -171.5
t162.5 -64.5q133 0 212 101t79 260v444z" />
    <glyph glyph-name="yacute.ss01" horiz-adv-x="1064" 
d="M702 1309l-288 -209l-64 74l271 231zM780 905h125v-977q0 -102 -34 -181t-91.5 -125t-125 -69.5t-140.5 -23.5q-119 0 -206.5 39.5t-155.5 122.5l81 84q111 -129 281 -129q110 0 188 73.5t78 212.5v222q-43 -77 -120 -123.5t-187 -46.5q-157 0 -241.5 98t-84.5 264v559
h125v-569q0 -107 54.5 -171.5t162.5 -64.5q133 0 212 101t79 260v444z" />
    <glyph glyph-name="ycircumflex.ss01" horiz-adv-x="1064" 
d="M524 1229l-200 -156l-58 72l242 209h29l237 -211l-53 -70zM780 905h125v-977q0 -102 -34 -181t-91.5 -125t-125 -69.5t-140.5 -23.5q-119 0 -206.5 39.5t-155.5 122.5l81 84q111 -129 281 -129q110 0 188 73.5t78 212.5v222q-43 -77 -120 -123.5t-187 -46.5
q-157 0 -241.5 98t-84.5 264v559h125v-569q0 -107 54.5 -171.5t162.5 -64.5q133 0 212 101t79 260v444z" />
    <glyph glyph-name="ydieresis.ss01" horiz-adv-x="1064" 
d="M346 1149q-40 0 -65 25.5t-25 60.5q0 37 24 64.5t66 27.5q41 0 65.5 -26.5t24.5 -61.5t-24 -62.5t-66 -27.5zM698 1149q-40 0 -64 26.5t-24 61.5t24 62.5t64 27.5q42 0 66 -27.5t24 -62.5t-24.5 -61.5t-65.5 -26.5zM780 905h125v-977q0 -102 -34 -181t-91.5 -125
t-125 -69.5t-140.5 -23.5q-119 0 -206.5 39.5t-155.5 122.5l81 84q111 -129 281 -129q110 0 188 73.5t78 212.5v222q-41 -76 -118.5 -123t-188.5 -47q-157 0 -241.5 98t-84.5 264v559h125v-569q0 -107 54.5 -171.5t162.5 -64.5q133 0 212 101t79 260v444z" />
    <glyph glyph-name="ygrave.ss01" horiz-adv-x="1064" 
d="M616 1100l-290 207l86 98l268 -231zM780 905h125v-977q0 -102 -34 -181t-91.5 -125t-125 -69.5t-140.5 -23.5q-119 0 -206.5 39.5t-155.5 122.5l81 84q111 -129 281 -129q110 0 188 73.5t78 212.5v222q-41 -76 -118.5 -123t-188.5 -47q-157 0 -241.5 98t-84.5 264v559
h125v-569q0 -107 54.5 -171.5t162.5 -64.5q133 0 212 101t79 260v444z" />
    <glyph glyph-name="f_b" horiz-adv-x="1851" 
d="M1303 924q199 0 326.5 -132.5t127.5 -334.5q0 -208 -127 -342.5t-327 -134.5q-117 0 -209 48t-148 134l-18 -162h-97v1292q-65 44 -123 64t-133 20q-108 0 -166.5 -59.5t-58.5 -181.5v-230h297v-110h-297v-795h-125v795h-188v110h188v234q0 158 85 256t251 98
q153 0 281 -92l14 67h100v-471q0 -89 -4 -245q56 80 149 126t202 46zM1294 98q150 0 244 99.5t94 255.5t-94 255t-244 99q-153 0 -247.5 -99.5t-94.5 -254.5q0 -156 93.5 -255.5t248.5 -99.5z" />
    <glyph glyph-name="f_f_b" horiz-adv-x="2541" 
d="M1993 924q199 0 326.5 -132.5t127.5 -334.5q0 -208 -127 -342.5t-327 -134.5q-117 0 -209.5 49t-147.5 137l-18 -166h-96v1290q-70 45 -132 65.5t-143 20.5q-108 0 -166.5 -59.5t-58.5 -181.5v-230h289v-110h-289v-795h-125v795h-547v-795h-125v795h-188v110h188v260
q0 142 76 235t221 93q114 0 211 -47l-39 -103q-74 33 -157 33q-88 0 -137.5 -54t-49.5 -157v-260h547v234q0 158 85 256t251 98q162 0 299 -92l14 67h101v-471q0 -47 -5 -252q56 84 148.5 131.5t202.5 47.5zM1985 98q150 0 243.5 99.5t93.5 255.5t-93.5 255t-243.5 99
q-153 0 -248 -99.5t-95 -254.5q0 -156 94 -255.5t249 -99.5z" />
    <glyph glyph-name="f_f_h" horiz-adv-x="2430" 
d="M1950 924q158 0 247 -99t89 -262v-563h-125v569q0 106 -57 172t-167 66q-89 0 -156 -49.5t-100.5 -130.5t-33.5 -181v-446h-125v1282q-73 50 -134 72t-141 22q-108 0 -166.5 -59.5t-58.5 -181.5v-230h289v-110h-289v-795h-125v795h-547v-795h-125v795h-188v110h188v260
q0 142 76 235t221 93q114 0 211 -47l-39 -103q-75 33 -157 33q-88 0 -137.5 -54t-49.5 -157v-260h547v234q0 158 85 256t251 98t299 -100l16 75h99v-585q0 -91 -2 -140q40 80 120 130.5t185 50.5z" />
    <glyph glyph-name="f_f_j" horiz-adv-x="1806" 
d="M1647 905v-960q0 -105 -16.5 -177t-56.5 -125.5t-109 -80.5t-173 -33l-16 111q77 6 125 25.5t75 58t36.5 88t9.5 127.5v856h-500v-795h-125v795h-547v-795h-125v795h-188v110h188v260q0 142 76 235t221 93q111 0 211 -47l-39 -103q-74 33 -157 33q-88 0 -137.5 -54
t-49.5 -157v-260h547v228q0 166 87.5 263t260.5 97q102 0 186.5 -36.5t167.5 -110.5l-67 -82q-68 57 -130.5 84.5t-141.5 27.5q-238 0 -238 -243v-228h625z" />
    <glyph glyph-name="f_f_k" horiz-adv-x="2250" 
d="M1767 471l463 -461v-10h-155l-426 428h-2v-428h-125v1290q-133 86 -275 86q-108 0 -166.5 -59.5t-58.5 -181.5v-230h287v-110h-287v-795h-125v795h-547v-795h-125v795h-188v110h188v260q0 142 76 235t221 93q114 0 211 -47l-39 -103q-74 33 -157 33q-88 0 -137.5 -54
t-49.5 -157v-260h547v234q0 158 85 256t251 98q170 0 299 -94l14 69h101v-960h4l387 397h151v-6z" />
    <glyph glyph-name="f_h" horiz-adv-x="1740" 
d="M1260 924q158 0 245.5 -99t87.5 -262v-563h-125v569q0 106 -56.5 172t-164.5 66q-134 0 -212.5 -104t-78.5 -257v-446h-125v1292q-65 44 -123 64t-133 20q-108 0 -166.5 -59.5t-58.5 -181.5v-230h295v-110h-295v-795h-125v795h-188v110h188v234q0 158 85 256t251 98
q153 0 281 -92l14 67h100v-577q0 -97 -2 -148q40 81 120 131t186 50z" />
    <glyph glyph-name="f_j" horiz-adv-x="1130" 
d="M971 905v-960q0 -105 -16.5 -177t-56.5 -125.5t-109 -80.5t-173 -33l-16 111q77 6 125 25.5t75 58t36.5 88t9.5 127.5v856h-496v-795h-125v795h-188v110h188v228q0 166 87.5 263t258.5 97q205 0 371 -147l-63 -86q-67 58 -136 87t-155 29q-113 0 -175.5 -59t-62.5 -184
v-228h621z" />
    <glyph glyph-name="f_k" horiz-adv-x="1560" 
d="M1069 467l471 -457v-10h-156l-428 420v-420h-125v1292q-63 44 -121.5 64t-134.5 20q-109 0 -167 -60t-58 -181v-230h297v-110h-297v-795h-125v795h-188v110h188v234q0 157 84.5 255.5t251.5 98.5q156 0 281 -92l14 67h100v-960l392 397h151v-6z" />
    <glyph glyph-name="uni0414.loclBGR" horiz-adv-x="1507" 
d="M1346 123h141v-434h-133v311h-1200v-311h-134v434h142l569 1270h45zM754 1151q-4 -14 -41 -104l-408 -924h893l-403 924q-37 90 -41 104z" />
    <glyph glyph-name="uni041B.loclBGR" horiz-adv-x="1396" 
d="M721 1403l647 -1399v-4h-143l-480 1042q-34 79 -47 129q-16 -52 -49 -129l-479 -1042h-141v4l647 1399h45z" />
    <glyph glyph-name="uni0424.loclBGR" horiz-adv-x="1783" 
d="M1667 696q0 -197 -82 -356.5t-245 -257t-382 -102.5v-209h-133v209q-158 3 -291.5 60.5t-224.5 154.5t-141.5 226.5t-50.5 274.5q0 147 47.5 275t136 224.5t223.5 154.5t301 63v209h133v-209q210 -4 373 -102t249.5 -259t86.5 -356zM956 102q139 4 250 51.5t181.5 128
t107.5 186t37 228.5q0 119 -39.5 225.5t-111.5 187.5t-182 129.5t-243 51.5v-1188zM252 696q0 -161 66.5 -293t199.5 -215t311 -86v1188q-277 -9 -427 -174t-150 -420z" />
    <glyph glyph-name="uni0414.ss02" horiz-adv-x="1507" 
d="M1346 123h141v-434h-133v311h-1200v-311h-134v434h142l569 1270h45zM754 1151q-4 -14 -41 -104l-408 -924h893l-403 924q-37 90 -41 104z" />
    <glyph glyph-name="uni041B.ss02" horiz-adv-x="1396" 
d="M721 1403l647 -1399v-4h-143l-480 1042q-34 79 -47 129q-16 -52 -49 -129l-479 -1042h-141v4l647 1399h45z" />
    <glyph glyph-name="uni0424.ss02" horiz-adv-x="1783" 
d="M1667 696q0 -197 -82 -356.5t-245 -257t-382 -102.5v-209h-133v209q-158 3 -291.5 60.5t-224.5 154.5t-141.5 226.5t-50.5 274.5q0 147 47.5 275t136 224.5t223.5 154.5t301 63v209h133v-209q210 -4 373 -102t249.5 -259t86.5 -356zM956 102q139 4 250 51.5t181.5 128
t107.5 186t37 228.5q0 119 -39.5 225.5t-111.5 187.5t-182 129.5t-243 51.5v-1188zM252 696q0 -161 66.5 -293t199.5 -215t311 -86v1188q-277 -9 -427 -174t-150 -420z" />
    <glyph glyph-name="uni0414.ss03" horiz-adv-x="1507" 
d="M1346 123h141v-434h-133v311h-1200v-311h-134v434h142l569 1270h45zM754 1151q-4 -14 -41 -104l-408 -924h893l-403 924q-37 90 -41 104z" />
    <glyph glyph-name="uni041B.ss03" horiz-adv-x="1396" 
d="M721 1403l647 -1399v-4h-143l-480 1042q-34 79 -47 129q-16 -52 -49 -129l-479 -1042h-141v4l647 1399h45z" />
    <glyph glyph-name="uni0424.ss03" horiz-adv-x="1783" 
d="M1667 696q0 -197 -82 -356.5t-245 -257t-382 -102.5v-209h-133v209q-158 3 -291.5 60.5t-224.5 154.5t-141.5 226.5t-50.5 274.5q0 147 47.5 275t136 224.5t223.5 154.5t301 63v209h133v-209q210 -4 373 -102t249.5 -259t86.5 -356zM956 102q139 4 250 51.5t181.5 128
t107.5 186t37 228.5q0 119 -39.5 225.5t-111.5 187.5t-182 129.5t-243 51.5v-1188zM252 696q0 -161 66.5 -293t199.5 -215t311 -86v1188q-277 -9 -427 -174t-150 -420z" />
    <glyph glyph-name="uni0432.loclBGR" horiz-adv-x="1134" 
d="M748 788q136 -29 214 -131.5t78 -246.5q-2 -195 -126 -312.5t-332 -117.5q-200 0 -320.5 139.5t-120.5 408.5v295q0 306 130.5 464.5t353.5 158.5q159 0 250.5 -85t91.5 -224q0 -218 -219 -349zM621 1325q-160 0 -254.5 -132t-94.5 -372v-98l224 70q172 54 255 136
t83 197q0 93 -55.5 146t-157.5 53zM590 98q140 0 227.5 85t87.5 225q0 124 -73 204t-197 80q-83 0 -160 -24l-203 -64v-82q0 -213 84 -318.5t234 -105.5z" />
    <glyph glyph-name="uni0433.loclBGR" horiz-adv-x="794" 
d="M393 -20q-84 0 -150.5 23.5t-111.5 81t-45 142.5q0 106 71 175t208 112q114 38 156 74t42 92q0 59 -47.5 89t-116.5 30q-115 0 -221 -64l-51 103q123 77 279 77q123 0 201.5 -60t78.5 -171q0 -105 -66 -166.5t-214 -109.5q-96 -32 -144.5 -72.5t-48.5 -104.5
q0 -69 53 -102t133 -33q133 0 248 84l62 -98q-136 -102 -316 -102z" />
    <glyph glyph-name="uni0434.loclBGR" horiz-adv-x="1179" 
d="M928 905h92v-964q0 -101 -36 -181.5t-98 -130t-141.5 -75t-171.5 -25.5q-244 0 -409 162l78 88q136 -133 325 -133q145 0 236.5 76t91.5 221q0 136 2 204q-61 -80 -153 -121.5t-195 -41.5q-204 0 -329.5 135t-125.5 334q0 200 123.5 335.5t325.5 135.5q112 0 204.5 -43
t151.5 -125zM555 100q163 0 253.5 101t90.5 252t-89 252.5t-253 101.5q-155 0 -245.5 -99.5t-90.5 -252.5q0 -154 91.5 -254.5t242.5 -100.5z" />
    <glyph glyph-name="uni0436.loclBGR" horiz-adv-x="1245" 
d="M799 471l426 -461v-10h-146l-393 426v-426h-125v428l-395 -428h-146v10l426 461l-380 428v6h149l346 -399v919h125v-919l344 399h150v-6z" />
    <glyph glyph-name="uni0437.loclBGR" horiz-adv-x="821" 
d="M336 -471q-206 0 -350 113l57 98q124 -96 291 -96q152 0 238.5 75.5t86.5 208.5t-84.5 206t-228.5 73h-153v115h155q106 0 176 69t70 180q0 107 -67 168.5t-185 61.5q-66 0 -121 -16.5t-127 -55.5l-51 98q153 88 307 88q169 0 269 -91t100 -249q0 -102 -46.5 -180.5
t-127.5 -122.5q107 -31 173 -125t66 -223q0 -184 -119.5 -289.5t-328.5 -105.5z" />
    <glyph glyph-name="uni0438.loclBGR" horiz-adv-x="1062" 
d="M778 905h125v-905h-96l-25 158q-43 -78 -120.5 -126t-184.5 -48q-164 0 -247 99t-83 271v551h125v-553q0 -252 220 -252q131 0 208.5 102.5t77.5 252.5v450z" />
    <glyph glyph-name="uni0439.loclBGR" horiz-adv-x="1062" 
d="M528 1096q-178 0 -260 147l76 57q31 -48 79.5 -76t104.5 -28q55 0 103.5 28t81.5 76l73 -57q-80 -147 -258 -147zM778 905h125v-905h-96l-25 158q-43 -78 -120.5 -126t-184.5 -48q-164 0 -247 99t-83 271v551h125v-553q0 -252 220 -252q131 0 208.5 102.5t77.5 252.5v450
z" />
    <glyph glyph-name="uni045D.loclBGR" horiz-adv-x="1069" 
d="M604 1114l-293 207l86 96l271 -231zM778 905h125v-905h-96l-25 158q-43 -78 -120.5 -126t-184.5 -48q-164 0 -247 99t-83 271v551h125v-553q0 -252 220 -252q131 0 208.5 102.5t77.5 252.5v450z" />
    <glyph glyph-name="uni043A.loclBGR" horiz-adv-x="888" 
d="M399 471l469 -463v-8h-155l-428 424v-424h-125v1425h125v-915l391 395h151v-6z" />
    <glyph glyph-name="uni043B.loclBGR" horiz-adv-x="942" 
d="M494 913l419 -909v-4h-135l-258 578q-39 94 -49 129q-13 -51 -49 -129l-258 -578h-135v4l420 909h45z" />
    <glyph glyph-name="uni043F.loclBGR" horiz-adv-x="1069" 
d="M600 924q157 0 239.5 -96.5t82.5 -274.5v-553h-125v555q0 252 -209 252q-136 0 -219.5 -89t-83.5 -231v-487h-125v905h94l29 -153q42 76 124.5 124t192.5 48z" />
    <glyph glyph-name="uni0442.loclBGR" horiz-adv-x="1638" 
d="M1174 924q153 0 235 -95t82 -262v-567h-125v573q0 109 -53 171.5t-148 62.5q-129 0 -202.5 -99.5t-73.5 -236.5v-471h-125v575q0 100 -51.5 166t-149.5 66q-88 0 -153 -49.5t-95 -124t-30 -162.5v-471h-125v905h94l29 -155q44 84 120.5 129t174.5 45q102 0 175 -48
t105 -135q46 86 125.5 134.5t190.5 48.5z" />
    <glyph glyph-name="uni0446.loclBGR" horiz-adv-x="1079" 
d="M1012 115h24v-355h-121v246q-112 24 -127 156q-101 -178 -315 -178q-158 0 -242 98t-84 268v555h125v-563q0 -111 52.5 -176.5t160.5 -65.5q137 0 216 102.5t79 250.5v452h125v-688q0 -56 24.5 -79t82.5 -23z" />
    <glyph glyph-name="uni0448.loclBGR" horiz-adv-x="1634" 
d="M1350 905h125v-905h-97l-26 160q-45 -83 -121.5 -128.5t-173.5 -45.5q-102 0 -175.5 49t-105.5 137q-44 -87 -123 -136.5t-186 -49.5q-153 0 -236.5 94.5t-83.5 261.5v563h125v-571q0 -108 53 -170t148 -62q65 0 118.5 29.5t87 79t51.5 111.5t18 129v454h124v-571
q0 -99 51.5 -165.5t149.5 -66.5q128 0 202.5 104t74.5 245v454z" />
    <glyph glyph-name="uni0449.loclBGR" horiz-adv-x="1648" 
d="M1581 117h25v-357h-121v248q-112 27 -127 150q-47 -79 -122.5 -125.5t-172.5 -46.5q-214 0 -287 186q-91 -186 -309 -186q-154 0 -237 95.5t-83 258.5v565h125v-571q0 -105 52 -168.5t149 -63.5q65 0 118.5 29.5t87 79t51.5 111.5t18 129v454h124v-571q0 -99 51.5 -165.5
t149.5 -66.5q128 0 202.5 104t74.5 245v454h125v-686q0 -56 24 -79t82 -23z" />
    <glyph glyph-name="uni044C.loclBGR" horiz-adv-x="958" 
d="M535 645q159 0 256.5 -90.5t97.5 -239.5q0 -151 -100 -241t-267 -90q-175 0 -275 92t-100 256v573h125v-354q100 94 263 94zM522 94q109 0 175.5 60t66.5 161q0 98 -66.5 156.5t-175.5 58.5q-118 0 -187 -57.5t-69 -153.5q0 -106 68 -165.5t188 -59.5z" />
    <glyph glyph-name="uni044A.loclBGR" horiz-adv-x="1077" 
d="M651 645q158 0 257.5 -89t99.5 -239q0 -154 -100.5 -243.5t-266.5 -89.5q-176 0 -275.5 93t-99.5 251v463h-246v114h371v-352q95 92 260 92zM641 96q107 0 174.5 59.5t67.5 161.5q0 98 -67.5 155.5t-176.5 57.5q-112 0 -181 -54t-69 -159q0 -104 67.5 -162.5t184.5 -58.5
z" />
    <glyph glyph-name="uni044B.loclBGR" horiz-adv-x="1370" 
d="M535 645q159 0 256.5 -90.5t97.5 -239.5q0 -151 -100 -241t-267 -90q-175 0 -275 92t-100 256v573h125v-354q100 94 263 94zM1085 0v905h125v-905h-125zM522 94q109 0 175.5 60t66.5 161q0 98 -66.5 156.5t-175.5 58.5q-118 0 -187 -57.5t-69 -153.5q0 -106 68 -165.5
t188 -59.5z" />
    <glyph glyph-name="uni0430.ss01" horiz-adv-x="1179" 
d="M924 905h96v-905h-96l-19 156q-61 -84 -153.5 -130t-206.5 -46q-199 0 -325 133.5t-126 337.5q0 206 126.5 339.5t328.5 133.5q222 0 348 -170zM557 98q154 0 249 99t95 254q0 158 -94 257t-250 99q-151 0 -244.5 -99t-93.5 -257q0 -156 94 -254.5t244 -98.5z" />
    <glyph glyph-name="uni0435.ss01" horiz-adv-x="987" 
d="M561 94q167 0 273 109l69 -86q-137 -140 -344 -140q-211 0 -338 133.5t-127 340.5q0 131 53.5 238t160 173t247.5 66q154 0 254 -84.5t100 -216.5q0 -91 -51.5 -149.5t-134.5 -82.5t-199 -24q-175 0 -301 18q18 -136 111.5 -215.5t226.5 -79.5zM553 811
q-141 0 -229.5 -87.5t-102.5 -227.5q171 -19 291 -19q139 0 207.5 34.5t68.5 121.5q0 78 -66 128t-169 50z" />
    <glyph glyph-name="uni0443.ss01" horiz-adv-x="1064" 
d="M780 905h125v-977q0 -102 -34 -181t-91.5 -125t-125 -69.5t-140.5 -23.5q-119 0 -206.5 39.5t-155.5 122.5l81 84q111 -129 281 -129q110 0 188 73.5t78 212.5v222q-41 -76 -118.5 -123t-188.5 -47q-157 0 -241.5 98t-84.5 264v559h125v-569q0 -107 54.5 -171.5
t162.5 -64.5q133 0 212 101t79 260v444z" />
    <glyph glyph-name="uni0432.ss02" horiz-adv-x="1134" 
d="M748 788q136 -29 214 -131.5t78 -246.5q-2 -195 -126 -312.5t-332 -117.5q-200 0 -320.5 139.5t-120.5 408.5v295q0 306 130.5 464.5t353.5 158.5q159 0 250.5 -85t91.5 -224q0 -218 -219 -349zM621 1325q-160 0 -254.5 -132t-94.5 -372v-98l224 70q172 54 255 136
t83 197q0 93 -55.5 146t-157.5 53zM590 98q140 0 227.5 85t87.5 225q0 124 -73 204t-197 80q-83 0 -160 -24l-203 -64v-82q0 -213 84 -318.5t234 -105.5z" />
    <glyph glyph-name="uni0433.ss02" horiz-adv-x="794" 
d="M393 -20q-84 0 -150.5 23.5t-111.5 81t-45 142.5q0 106 71 175t208 112q114 38 156 74t42 92q0 59 -47.5 89t-116.5 30q-115 0 -221 -64l-51 103q123 77 279 77q123 0 201.5 -60t78.5 -171q0 -105 -66 -166.5t-214 -109.5q-96 -32 -144.5 -72.5t-48.5 -104.5
q0 -69 53 -102t133 -33q133 0 248 84l62 -98q-136 -102 -316 -102z" />
    <glyph glyph-name="uni0434.ss02" horiz-adv-x="1179" 
d="M928 905h92v-964q0 -101 -36 -181.5t-98 -130t-141.5 -75t-171.5 -25.5q-244 0 -409 162l78 88q136 -133 325 -133q145 0 236.5 76t91.5 221q0 136 2 204q-61 -80 -153 -121.5t-195 -41.5q-204 0 -329.5 135t-125.5 334q0 200 123.5 335.5t325.5 135.5q112 0 204.5 -43
t151.5 -125zM555 100q163 0 253.5 101t90.5 252t-89 252.5t-253 101.5q-155 0 -245.5 -99.5t-90.5 -252.5q0 -154 91.5 -254.5t242.5 -100.5z" />
    <glyph glyph-name="uni0436.ss02" horiz-adv-x="1245" 
d="M799 471l426 -461v-10h-146l-393 426v-426h-125v428l-395 -428h-146v10l426 461l-380 428v6h149l346 -399v919h125v-919l344 399h150v-6z" />
    <glyph glyph-name="uni0437.ss02" horiz-adv-x="821" 
d="M336 -471q-206 0 -350 113l57 98q124 -96 291 -96q152 0 238.5 75.5t86.5 208.5t-84.5 206t-228.5 73h-153v115h155q106 0 176 69t70 180q0 107 -67 168.5t-185 61.5q-66 0 -121 -16.5t-127 -55.5l-51 98q153 88 307 88q169 0 269 -91t100 -249q0 -102 -46.5 -180.5
t-127.5 -122.5q107 -31 173 -125t66 -223q0 -184 -119.5 -289.5t-328.5 -105.5z" />
    <glyph glyph-name="uni0438.ss02" horiz-adv-x="1062" 
d="M778 905h125v-905h-96l-25 158q-43 -78 -120.5 -126t-184.5 -48q-164 0 -247 99t-83 271v551h125v-553q0 -252 220 -252q131 0 208.5 102.5t77.5 252.5v450z" />
    <glyph glyph-name="uni0439.ss02" horiz-adv-x="1062" 
d="M528 1096q-178 0 -260 147l76 57q31 -48 79.5 -76t104.5 -28q55 0 103.5 28t81.5 76l73 -57q-80 -147 -258 -147zM778 905h125v-905h-96l-25 158q-43 -78 -120.5 -126t-184.5 -48q-164 0 -247 99t-83 271v551h125v-553q0 -252 220 -252q131 0 208.5 102.5t77.5 252.5v450
z" />
    <glyph glyph-name="uni045D.ss02" horiz-adv-x="1062" 
d="M623 1100l-291 207l86 98l268 -231zM778 905h125v-905h-96l-25 158q-43 -78 -120.5 -126t-184.5 -48q-164 0 -247 99t-83 271v551h125v-553q0 -252 220 -252q131 0 208.5 102.5t77.5 252.5v450z" />
    <glyph glyph-name="uni043A.ss02" horiz-adv-x="888" 
d="M399 471l469 -463v-8h-155l-428 424v-424h-125v1425h125v-915l391 395h151v-6z" />
    <glyph glyph-name="uni043B.ss02" horiz-adv-x="942" 
d="M494 913l419 -909v-4h-135l-258 578q-39 94 -49 129q-13 -51 -49 -129l-258 -578h-135v4l420 909h45z" />
    <glyph glyph-name="uni043F.ss02" horiz-adv-x="1069" 
d="M600 924q157 0 239.5 -96.5t82.5 -274.5v-553h-125v555q0 252 -209 252q-136 0 -219.5 -89t-83.5 -231v-487h-125v905h94l29 -153q42 76 124.5 124t192.5 48z" />
    <glyph glyph-name="uni0442.ss02" horiz-adv-x="1638" 
d="M1174 924q153 0 235 -95t82 -262v-567h-125v573q0 109 -53 171.5t-148 62.5q-129 0 -202.5 -99.5t-73.5 -236.5v-471h-125v575q0 100 -51.5 166t-149.5 66q-88 0 -153 -49.5t-95 -124t-30 -162.5v-471h-125v905h94l29 -155q44 84 120.5 129t174.5 45q102 0 175 -48
t105 -135q46 86 125.5 134.5t190.5 48.5z" />
    <glyph glyph-name="uni0446.ss02" horiz-adv-x="1079" 
d="M1012 115h24v-355h-121v246q-112 24 -127 156q-101 -178 -315 -178q-158 0 -242 98t-84 268v555h125v-563q0 -111 52.5 -176.5t160.5 -65.5q137 0 216 102.5t79 250.5v452h125v-688q0 -56 24.5 -79t82.5 -23z" />
    <glyph glyph-name="uni0448.ss02" horiz-adv-x="1634" 
d="M1350 905h125v-905h-97l-26 160q-45 -83 -121.5 -128.5t-173.5 -45.5q-102 0 -175.5 49t-105.5 137q-44 -87 -123 -136.5t-186 -49.5q-153 0 -236.5 94.5t-83.5 261.5v563h125v-571q0 -108 53 -170t148 -62q65 0 118.5 29.5t87 79t51.5 111.5t18 129v454h124v-571
q0 -99 51.5 -165.5t149.5 -66.5q128 0 202.5 104t74.5 245v454z" />
    <glyph glyph-name="uni0449.ss02" horiz-adv-x="1648" 
d="M1581 117h25v-357h-121v248q-112 27 -127 150q-47 -79 -122.5 -125.5t-172.5 -46.5q-214 0 -287 186q-91 -186 -309 -186q-154 0 -237 95.5t-83 258.5v565h125v-571q0 -105 52 -168.5t149 -63.5q65 0 118.5 29.5t87 79t51.5 111.5t18 129v454h124v-571q0 -99 51.5 -165.5
t149.5 -66.5q128 0 202.5 104t74.5 245v454h125v-686q0 -56 24 -79t82 -23z" />
    <glyph glyph-name="uni044C.ss02" horiz-adv-x="958" 
d="M535 645q159 0 256.5 -90.5t97.5 -239.5q0 -151 -100 -241t-267 -90q-175 0 -275 92t-100 256v573h125v-354q100 94 263 94zM522 94q109 0 175.5 60t66.5 161q0 98 -66.5 156.5t-175.5 58.5q-118 0 -187 -57.5t-69 -153.5q0 -106 68 -165.5t188 -59.5z" />
    <glyph glyph-name="uni044A.ss02" horiz-adv-x="1077" 
d="M651 645q158 0 257.5 -89t99.5 -239q0 -154 -100.5 -243.5t-266.5 -89.5q-176 0 -275.5 93t-99.5 251v463h-246v114h371v-352q95 92 260 92zM641 96q107 0 174.5 59.5t67.5 161.5q0 98 -67.5 155.5t-176.5 57.5q-112 0 -181 -54t-69 -159q0 -104 67.5 -162.5t184.5 -58.5
z" />
    <glyph glyph-name="uni044B.ss02" horiz-adv-x="1370" 
d="M535 645q159 0 256.5 -90.5t97.5 -239.5q0 -151 -100 -241t-267 -90q-175 0 -275 92t-100 256v573h125v-354q100 94 263 94zM1085 0v905h125v-905h-125zM522 94q109 0 175.5 60t66.5 161q0 98 -66.5 156.5t-175.5 58.5q-118 0 -187 -57.5t-69 -153.5q0 -106 68 -165.5
t188 -59.5z" />
    <glyph glyph-name="uni0430.ss03" horiz-adv-x="1179" 
d="M924 905h96v-905h-96l-19 156q-61 -84 -153.5 -130t-206.5 -46q-199 0 -325 133.5t-126 337.5q0 206 126.5 339.5t328.5 133.5q222 0 348 -170zM557 98q154 0 249 99t95 254q0 158 -94 257t-250 99q-151 0 -244.5 -99t-93.5 -257q0 -156 94 -254.5t244 -98.5z" />
    <glyph glyph-name="uni0432.ss03" horiz-adv-x="1134" 
d="M748 788q136 -29 214 -131.5t78 -246.5q-2 -195 -126 -312.5t-332 -117.5q-200 0 -320.5 139.5t-120.5 408.5v295q0 306 130.5 464.5t353.5 158.5q159 0 250.5 -85t91.5 -224q0 -218 -219 -349zM621 1325q-160 0 -254.5 -132t-94.5 -372v-98l224 70q172 54 255 136
t83 197q0 93 -55.5 146t-157.5 53zM590 98q140 0 227.5 85t87.5 225q0 124 -73 204t-197 80q-83 0 -160 -24l-203 -64v-82q0 -213 84 -318.5t234 -105.5z" />
    <glyph glyph-name="uni0433.ss03" horiz-adv-x="794" 
d="M393 -20q-84 0 -150.5 23.5t-111.5 81t-45 142.5q0 106 71 175t208 112q114 38 156 74t42 92q0 59 -47.5 89t-116.5 30q-115 0 -221 -64l-51 103q123 77 279 77q123 0 201.5 -60t78.5 -171q0 -105 -66 -166.5t-214 -109.5q-96 -32 -144.5 -72.5t-48.5 -104.5
q0 -69 53 -102t133 -33q133 0 248 84l62 -98q-136 -102 -316 -102z" />
    <glyph glyph-name="uni0434.ss03" horiz-adv-x="1179" 
d="M928 905h92v-964q0 -101 -36 -181.5t-98 -130t-141.5 -75t-171.5 -25.5q-244 0 -409 162l78 88q136 -133 325 -133q145 0 236.5 76t91.5 221q0 136 2 204q-61 -80 -153 -121.5t-195 -41.5q-204 0 -329.5 135t-125.5 334q0 200 123.5 335.5t325.5 135.5q112 0 204.5 -43
t151.5 -125zM555 100q163 0 253.5 101t90.5 252t-89 252.5t-253 101.5q-155 0 -245.5 -99.5t-90.5 -252.5q0 -154 91.5 -254.5t242.5 -100.5z" />
    <glyph glyph-name="uni0435.ss03" horiz-adv-x="987" 
d="M561 94q167 0 273 109l69 -86q-137 -140 -344 -140q-211 0 -338 133.5t-127 340.5q0 131 53.5 238t160 173t247.5 66q154 0 254 -84.5t100 -216.5q0 -91 -51.5 -149.5t-134.5 -82.5t-199 -24q-175 0 -301 18q18 -136 111.5 -215.5t226.5 -79.5zM553 811
q-141 0 -229.5 -87.5t-102.5 -227.5q171 -19 291 -19q139 0 207.5 34.5t68.5 121.5q0 78 -66 128t-169 50z" />
    <glyph glyph-name="uni0436.ss03" horiz-adv-x="1245" 
d="M799 471l426 -461v-10h-146l-393 426v-426h-125v428l-395 -428h-146v10l426 461l-380 428v6h149l346 -399v919h125v-919l344 399h150v-6z" />
    <glyph glyph-name="uni0437.ss03" horiz-adv-x="821" 
d="M336 -471q-206 0 -350 113l57 98q124 -96 291 -96q152 0 238.5 75.5t86.5 208.5t-84.5 206t-228.5 73h-153v115h155q106 0 176 69t70 180q0 107 -67 168.5t-185 61.5q-66 0 -121 -16.5t-127 -55.5l-51 98q153 88 307 88q169 0 269 -91t100 -249q0 -102 -46.5 -180.5
t-127.5 -122.5q107 -31 173 -125t66 -223q0 -184 -119.5 -289.5t-328.5 -105.5z" />
    <glyph glyph-name="uni0438.ss03" horiz-adv-x="1062" 
d="M778 905h125v-905h-96l-25 158q-43 -78 -120.5 -126t-184.5 -48q-164 0 -247 99t-83 271v551h125v-553q0 -252 220 -252q131 0 208.5 102.5t77.5 252.5v450z" />
    <glyph glyph-name="uni0439.ss03" horiz-adv-x="1062" 
d="M528 1096q-178 0 -260 147l76 57q31 -48 79.5 -76t104.5 -28q55 0 103.5 28t81.5 76l73 -57q-80 -147 -258 -147zM778 905h125v-905h-96l-25 158q-43 -78 -120.5 -126t-184.5 -48q-164 0 -247 99t-83 271v551h125v-553q0 -252 220 -252q131 0 208.5 102.5t77.5 252.5v450
z" />
    <glyph glyph-name="uni045D.ss03" horiz-adv-x="1069" 
d="M604 1114l-293 207l86 96l271 -231zM778 905h125v-905h-96l-25 158q-43 -78 -120.5 -126t-184.5 -48q-164 0 -247 99t-83 271v551h125v-553q0 -252 220 -252q131 0 208.5 102.5t77.5 252.5v450z" />
    <glyph glyph-name="uni043A.ss03" horiz-adv-x="888" 
d="M399 471l469 -463v-8h-155l-428 424v-424h-125v1425h125v-915l391 395h151v-6z" />
    <glyph glyph-name="uni043B.ss03" horiz-adv-x="942" 
d="M494 913l419 -909v-4h-135l-258 578q-39 94 -49 129q-13 -51 -49 -129l-258 -578h-135v4l420 909h45z" />
    <glyph glyph-name="uni043F.ss03" horiz-adv-x="1069" 
d="M600 924q157 0 239.5 -96.5t82.5 -274.5v-553h-125v555q0 252 -209 252q-136 0 -219.5 -89t-83.5 -231v-487h-125v905h94l29 -153q42 76 124.5 124t192.5 48z" />
    <glyph glyph-name="uni0442.ss03" horiz-adv-x="1638" 
d="M1174 924q153 0 235 -95t82 -262v-567h-125v573q0 109 -53 171.5t-148 62.5q-129 0 -202.5 -99.5t-73.5 -236.5v-471h-125v575q0 100 -51.5 166t-149.5 66q-88 0 -153 -49.5t-95 -124t-30 -162.5v-471h-125v905h94l29 -155q44 84 120.5 129t174.5 45q102 0 175 -48
t105 -135q46 86 125.5 134.5t190.5 48.5z" />
    <glyph glyph-name="uni0443.ss03" horiz-adv-x="1064" 
d="M780 905h125v-977q0 -102 -34 -181t-91.5 -125t-125 -69.5t-140.5 -23.5q-119 0 -206.5 39.5t-155.5 122.5l81 84q111 -129 281 -129q110 0 188 73.5t78 212.5v222q-41 -76 -118.5 -123t-188.5 -47q-157 0 -241.5 98t-84.5 264v559h125v-569q0 -107 54.5 -171.5
t162.5 -64.5q133 0 212 101t79 260v444z" />
    <glyph glyph-name="uni0446.ss03" horiz-adv-x="1079" 
d="M1012 115h24v-355h-121v246q-112 24 -127 156q-101 -178 -315 -178q-158 0 -242 98t-84 268v555h125v-563q0 -111 52.5 -176.5t160.5 -65.5q137 0 216 102.5t79 250.5v452h125v-688q0 -56 24.5 -79t82.5 -23z" />
    <glyph glyph-name="uni0448.ss03" horiz-adv-x="1634" 
d="M1350 905h125v-905h-97l-26 160q-45 -83 -121.5 -128.5t-173.5 -45.5q-102 0 -175.5 49t-105.5 137q-44 -87 -123 -136.5t-186 -49.5q-153 0 -236.5 94.5t-83.5 261.5v563h125v-571q0 -108 53 -170t148 -62q65 0 118.5 29.5t87 79t51.5 111.5t18 129v454h124v-571
q0 -99 51.5 -165.5t149.5 -66.5q128 0 202.5 104t74.5 245v454z" />
    <glyph glyph-name="uni0449.ss03" horiz-adv-x="1648" 
d="M1581 117h25v-357h-121v248q-112 27 -127 150q-47 -79 -122.5 -125.5t-172.5 -46.5q-214 0 -287 186q-91 -186 -309 -186q-154 0 -237 95.5t-83 258.5v565h125v-571q0 -105 52 -168.5t149 -63.5q65 0 118.5 29.5t87 79t51.5 111.5t18 129v454h124v-571q0 -99 51.5 -165.5
t149.5 -66.5q128 0 202.5 104t74.5 245v454h125v-686q0 -56 24 -79t82 -23z" />
    <glyph glyph-name="uni044C.ss03" horiz-adv-x="958" 
d="M535 645q159 0 256.5 -90.5t97.5 -239.5q0 -151 -100 -241t-267 -90q-175 0 -275 92t-100 256v573h125v-354q100 94 263 94zM522 94q109 0 175.5 60t66.5 161q0 98 -66.5 156.5t-175.5 58.5q-118 0 -187 -57.5t-69 -153.5q0 -106 68 -165.5t188 -59.5z" />
    <glyph glyph-name="uni044A.ss03" horiz-adv-x="1077" 
d="M651 645q158 0 257.5 -89t99.5 -239q0 -154 -100.5 -243.5t-266.5 -89.5q-176 0 -275.5 93t-99.5 251v463h-246v114h371v-352q95 92 260 92zM641 96q107 0 174.5 59.5t67.5 161.5q0 98 -67.5 155.5t-176.5 57.5q-112 0 -181 -54t-69 -159q0 -104 67.5 -162.5t184.5 -58.5
z" />
    <glyph glyph-name="uni044B.ss03" horiz-adv-x="1370" 
d="M535 645q159 0 256.5 -90.5t97.5 -239.5q0 -151 -100 -241t-267 -90q-175 0 -275 92t-100 256v573h125v-354q100 94 263 94zM1085 0v905h125v-905h-125zM522 94q109 0 175.5 60t66.5 161q0 98 -66.5 156.5t-175.5 58.5q-118 0 -187 -57.5t-69 -153.5q0 -106 68 -165.5
t188 -59.5z" />
    <glyph glyph-name="zero.sinf" horiz-adv-x="661" 
d="M332 -143q-61 0 -106.5 29t-70.5 76.5t-37 99.5t-12 106t12 105t37 98.5t70.5 76.5t106.5 29t106 -29t69.5 -76.5t36 -98.5t11.5 -105q0 -55 -11.5 -106.5t-36 -99t-69.5 -76.5t-106 -29zM332 -57q48 0 79.5 36t42.5 83.5t11 105.5q0 57 -11 104.5t-42.5 84t-79.5 36.5
q-37 0 -64.5 -20.5t-41.5 -54.5t-20.5 -71t-6.5 -79t6.5 -79.5t20.5 -71.5t41.5 -54t64.5 -20z" />
    <glyph glyph-name="one.sinf" horiz-adv-x="432" 
d="M213 -123v412l-88 -84l-59 59l213 203h20v-590h-86z" />
    <glyph glyph-name="two.sinf" horiz-adv-x="583" 
d="M266 -41h226v-82h-386v19l224 297q51 67 51 118q0 38 -21.5 61t-62.5 23q-61 0 -102 -78l-72 33q20 60 66.5 93.5t109.5 33.5q76 0 124 -47.5t48 -118.5q0 -41 -13 -79.5t-52 -90.5z" />
    <glyph glyph-name="three.sinf" horiz-adv-x="604" 
d="M287 -143q-121 0 -185 73l54 60q48 -51 129 -51q56 0 88.5 29t32.5 77q0 50 -34 73t-85 23h-72v80h61q45 0 74 23t29 65q0 38 -26.5 61t-63.5 23q-66 0 -105 -39l-59 58q68 65 170 65q67 0 119.5 -43t52.5 -112q0 -95 -80 -136q46 -12 77.5 -53t31.5 -92
q0 -85 -57.5 -134.5t-151.5 -49.5z" />
    <glyph glyph-name="four.sinf" horiz-adv-x="647" 
d="M371 -123v107h-287v18l354 465h21v-406h78v-77h-78v-107h-88zM227 61h146v195z" />
    <glyph glyph-name="five.sinf" horiz-adv-x="602" 
d="M289 -143q-116 0 -183 82l68 55q40 -53 115 -53q53 0 83.5 31.5t30.5 82.5q0 55 -38.5 85t-100.5 30q-46 0 -102 -16l-15 12l35 291h283v-86h-209l-14 -133q24 6 51 6q85 0 143 -50t58 -139q0 -90 -56.5 -144t-148.5 -54z" />
    <glyph glyph-name="six.sinf" horiz-adv-x="616" 
d="M328 242q78 0 130 -49.5t52 -139.5q0 -83 -54.5 -139.5t-142.5 -56.5q-101 0 -152.5 68.5t-51.5 172.5v25q0 157 82 255.5t235 98.5l14 -84q-94 3 -152.5 -42.5t-80.5 -153.5q45 45 121 45zM313 -57q51 0 79 30t28 78q0 52 -30.5 79.5t-78.5 27.5t-78 -29t-30 -78
q0 -46 29 -77t81 -31z" />
    <glyph glyph-name="seven.sinf" horiz-adv-x="577" 
d="M145 -123l205 494h-244v86h363v-19l-233 -561h-91z" />
    <glyph glyph-name="eight.sinf" horiz-adv-x="622" 
d="M311 -143q-89 0 -147 47.5t-58 136.5q0 46 26 87t71 62q-68 50 -68 129q0 72 52.5 115t125.5 43q72 0 122 -41.5t50 -111.5q0 -88 -69 -129q98 -49 98 -154q0 -91 -57 -137.5t-146 -46.5zM313 231q38 0 60 24t22 56q0 38 -23 62t-59 24q-38 0 -62 -24t-24 -62
q0 -33 23.5 -56.5t62.5 -23.5zM311 -61q51 0 82 29t31 75t-32 77.5t-83 31.5q-52 0 -82 -31.5t-30 -77.5t31 -75t83 -29z" />
    <glyph glyph-name="nine.sinf" horiz-adv-x="614" 
d="M303 477q102 0 153.5 -68.5t51.5 -172.5v-25q0 -157 -82 -255.5t-233 -98.5l-17 86q191 -10 236 192q-46 -43 -121 -43q-79 0 -132 49.5t-53 139.5q0 83 54.5 139.5t142.5 56.5zM305 176q48 0 79.5 29t31.5 78q0 46 -30 77t-83 31q-51 0 -78.5 -30t-27.5 -78
q0 -52 30 -79.5t78 -27.5z" />
    <glyph glyph-name="zero.tf" horiz-adv-x="1134" 
d="M567 -20q-223 0 -354 188.5t-131 509.5q0 320 131 508t354 188t354.5 -188.5t131.5 -507.5q0 -321 -131.5 -509.5t-354.5 -188.5zM567 104q160 0 255.5 156t95.5 418q0 261 -95.5 417t-255.5 156t-255 -156t-95 -417q0 -262 95 -418t255 -156z" />
    <glyph glyph-name="one.tf" horiz-adv-x="1134" 
d="M692 119h318v-119h-803v119h354v911q0 82 6 139l-86 -55l-331 -203l-58 97l565 366h35v-1255z" />
    <glyph glyph-name="two.tf" horiz-adv-x="1134" 
d="M465 121h493v-121h-833v37l537 674q76 96 107.5 164.5t31.5 136.5q0 107 -65.5 173t-186.5 66q-173 0 -295 -166l-96 76q161 213 393 213q179 0 281 -97.5t102 -256.5q0 -99 -36 -183.5t-140 -215.5l-330 -412q-7 -9 -72 -90q37 2 109 2z" />
    <glyph glyph-name="three.tf" horiz-adv-x="1134" 
d="M535 -20q-269 0 -431 180l93 84q125 -140 338 -140q139 0 227 80t88 205q0 73 -29 126t-80 82.5t-111.5 43.5t-133.5 14h-140v123h140q140 0 212 71.5t72 172.5q0 100 -72.5 164.5t-189.5 64.5q-172 0 -276 -131l-84 90q145 164 360 164q177 0 288.5 -99t111.5 -251
q0 -89 -53.5 -173t-155.5 -126q71 -16 126 -53t86.5 -85t47.5 -100t16 -106q0 -177 -125.5 -289t-324.5 -112z" />
    <glyph glyph-name="four.tf" horiz-adv-x="1134" 
d="M879 414h157v-119h-157v-295h-127v295h-678v33l770 1046h35v-960zM754 414v508q0 86 4 139q-18 -24 -47 -64.5t-35 -48.5l-314 -432q-76 -99 -79 -102h143h328z" />
    <glyph glyph-name="five.tf" horiz-adv-x="1134" 
d="M516 821q214 0 347.5 -107t133.5 -302q0 -185 -130 -307.5t-335 -122.5q-256 0 -409 184l92 84q111 -144 317 -144q146 0 239 87t93 219q0 77 -28 134.5t-79 91.5t-115 50.5t-142 16.5q-122 0 -260 -37l-25 24l68 662h653v-121h-539l-43 -426q77 14 162 14z" />
    <glyph glyph-name="six.tf" horiz-adv-x="1134" 
d="M604 838q87 0 163.5 -27t135.5 -78.5t93 -133t34 -183.5q0 -191 -120 -313.5t-316 -122.5q-149 0 -252.5 68t-151 181t-47.5 263v30q0 143 24 262.5t78 223t135.5 178.5t201.5 124t272 64l18 -119q-265 -21 -413 -164t-178 -391q110 138 323 138zM592 104q133 0 219 87
t86 225q0 144 -86 223.5t-221 79.5t-224.5 -80.5t-89.5 -224.5q0 -132 86.5 -221t229.5 -89z" />
    <glyph glyph-name="seven.tf" horiz-adv-x="1134" 
d="M94 1354h926v-33l-574 -1321h-137l477 1098q25 63 62 135h-146h-608v121z" />
    <glyph glyph-name="eight.tf" horiz-adv-x="1134" 
d="M567 -18q-207 0 -330.5 106t-123.5 287q0 131 72.5 224.5t191.5 123.5q-100 33 -161.5 108.5t-61.5 192.5q0 157 115.5 253.5t301.5 96.5q184 0 296 -96.5t112 -253.5q0 -111 -60 -188.5t-153 -112.5q105 -28 180.5 -124.5t75.5 -225.5q0 -181 -124 -286t-331 -105z
M571 784q124 0 199.5 65.5t75.5 172.5q0 101 -76.5 165t-198.5 64q-126 0 -204 -63.5t-78 -165.5q0 -111 76.5 -174.5t205.5 -63.5zM567 106q142 0 231 72.5t89 196.5q0 131 -88 207.5t-236 76.5q-139 0 -227 -78.5t-88 -205.5q0 -121 90 -195t229 -74z" />
    <glyph glyph-name="nine.tf" horiz-adv-x="1134" 
d="M537 1374q112 0 199 -38t141.5 -107.5t82 -162t27.5 -204.5v-31q0 -143 -24 -262.5t-78 -223t-136 -178.5t-202 -123.5t-273 -63.5l-18 118q266 21 414.5 163.5t179.5 391.5q-110 -137 -324 -137q-87 0 -163.5 27t-136 78.5t-94 133t-34.5 183.5q0 191 121 313.5
t318 122.5zM539 635q136 0 224.5 80.5t88.5 224.5q0 132 -86 220.5t-227 88.5q-134 0 -220 -86t-86 -225q0 -144 86 -223.5t220 -79.5z" />
    <glyph glyph-name="zero.dnom" horiz-adv-x="661" 
d="M332 -20q-61 0 -106.5 29t-70.5 76.5t-37 99.5t-12 106t12 105t37 98.5t70.5 76.5t106.5 29t106 -29t69.5 -76.5t36 -98.5t11.5 -105q0 -55 -11.5 -106.5t-36 -99t-69.5 -76.5t-106 -29zM332 66q48 0 79.5 36t42.5 83.5t11 105.5q0 57 -11 104.5t-42.5 84t-79.5 36.5
q-37 0 -64.5 -20.5t-41.5 -54.5t-20.5 -71t-6.5 -79t6.5 -79.5t20.5 -71.5t41.5 -54t64.5 -20z" />
    <glyph glyph-name="one.dnom" horiz-adv-x="432" 
d="M213 0v412l-88 -84l-59 59l213 203h20v-590h-86z" />
    <glyph glyph-name="two.dnom" horiz-adv-x="583" 
d="M266 82h226v-82h-386v18l224 297q51 67 51 119q0 38 -21.5 61t-62.5 23q-61 0 -102 -78l-72 33q20 60 66.5 93.5t109.5 33.5q76 0 124 -47.5t48 -118.5q0 -41 -13 -79.5t-52 -90.5z" />
    <glyph glyph-name="three.dnom" horiz-adv-x="604" 
d="M287 -20q-121 0 -185 73l54 60q49 -52 129 -52q56 0 88.5 29.5t32.5 77.5q0 50 -34 73t-85 23h-72v80h61q45 0 74 23t29 65q0 38 -26.5 61t-63.5 23q-66 0 -105 -39l-59 58q68 65 170 65q67 0 119.5 -43.5t52.5 -112.5q0 -94 -80 -135q46 -12 77.5 -53t31.5 -92
q0 -85 -57.5 -134.5t-151.5 -49.5z" />
    <glyph glyph-name="four.dnom" horiz-adv-x="647" 
d="M371 0v106h-287v19l354 465h21v-406h78v-78h-78v-106h-88zM227 184h146v195z" />
    <glyph glyph-name="five.dnom" horiz-adv-x="602" 
d="M289 -20q-117 0 -183 81l68 56q41 -54 115 -54q53 0 83.5 32t30.5 83q0 55 -38.5 85t-100.5 30q-42 0 -102 -17l-15 13l35 291h283v-86h-209l-14 -134q28 7 51 7q85 0 143 -50t58 -139q0 -90 -56.5 -144t-148.5 -54z" />
    <glyph glyph-name="six.dnom" horiz-adv-x="616" 
d="M328 365q78 0 130 -49.5t52 -139.5q0 -83 -54.5 -139.5t-142.5 -56.5q-101 0 -152.5 68.5t-51.5 172.5v25q0 157 82 255.5t235 98.5l14 -84q-94 3 -152.5 -43t-80.5 -154q46 46 121 46zM313 66q51 0 79 30t28 78q0 52 -30.5 79.5t-78.5 27.5t-78 -29t-30 -78
q0 -46 29 -77t81 -31z" />
    </font>
</defs>
</svg>
