<?xml version="1.0" standalone="no"?>
<!DOCTYPE svg PUBLIC "-//W3C//DTD SVG 1.1//EN" "http://www.w3.org/Graphics/SVG/1.1/DTD/svg11.dtd" >
<svg xmlns="http://www.w3.org/2000/svg" xmlns:xlink="http://www.w3.org/1999/xlink" version="1.1">
<metadata>
Created by FontForge 20170731 at Wed Aug  9 15:51:33 2023
 By Aleksey,,,
Copyright (c) 2018 by Svet Simov. All rights reserved.
</metadata>
<defs>
<font id="Noah-RegularItalic" horiz-adv-x="0" >
  <font-face 
    font-family="Noah"
    font-weight="400"
    font-style="italic"
    font-stretch="normal"
    units-per-em="2048"
    panose-1="0 0 5 0 0 0 0 0 0 0"
    ascent="1638"
    descent="-410"
    x-height="905"
    cap-height="1393"
    bbox="-664 -602 2433 1944"
    underline-thickness="102"
    underline-position="-307"
    slope="-10"
    unicode-range="U+0020-FB01"
  />
<missing-glyph horiz-adv-x="948" 
d="M778 1458v-1896h-602v1896h602zM631 1331h-312v-63h123v-70h-125v-61h314v61h-125v70h125v63zM506 1087h-189v-198h314v65h-125v133zM442 1022v-68h-63v68h63zM631 838h-314v-62h125v-71h-125v-62h189v133h125v62zM631 725h-62v-125h-252v-65h314v190zM631 494h-189v-107
h64v43h63v-88h-190v152h-62v-215h314v215zM631 164h-314v-213h314v213zM569 102v-90h-190v90h190zM631 -92h-314v-64h132l-132 -90v-61h314v61h-193l133 90h60v64z" />
    <glyph glyph-name="fi" unicode="fi" horiz-adv-x="1130" 
d="M1051 905l-160 -905h-125l139 795h-499l-140 -795h-125l142 795h-187l21 110h186l43 244q60 344 383 344q117 0 204 -36.5t169 -108.5l-76 -84q-119 112 -293 112q-221 0 -266 -237l-41 -234h625z" />
    <glyph glyph-name="f_f" unicode="ff" horiz-adv-x="1339" 
d="M1362 1376q-96 0 -151.5 -59.5t-73.5 -163.5l-43 -248h297l-19 -110h-299l-139 -795h-125l139 795h-542l-140 -795h-125l142 795h-187l21 110h186l45 258q26 154 111.5 242t234.5 88q113 0 209 -55l-53 -95q-67 33 -150 33q-192 0 -231 -223l-43 -248h543l45 258
q28 154 113 242t231 88q66 0 116.5 -19t110.5 -63l-67 -88q-69 53 -156 53z" />
    <glyph glyph-name="f_f_i" unicode="ffi" horiz-adv-x="1798" 
d="M1718 905l-159 -905h-125l139 795h-500l-139 -795h-125l139 795h-542l-140 -795h-125l142 795h-187l21 110h186l45 258q26 154 111.5 242t234.5 88q113 0 209 -55l-53 -95q-67 33 -150 33q-192 0 -231 -223l-43 -248h543l43 244q61 344 399 344q104 0 184 -34t156 -109
l-74 -80q-106 106 -256 106q-244 0 -286 -235l-41 -236h624z" />
    <glyph glyph-name="f_f_l" unicode="ffl" horiz-adv-x="1785" 
d="M1706 1468h98l-258 -1468h-125l230 1305q-92 71 -242 71q-114 0 -183.5 -63t-88.5 -172l-41 -236h297l-19 -110h-299l-139 -795h-125l139 795h-544l-140 -795h-125l142 795h-187l21 110h186l45 258q26 154 111.5 242t234.5 88q113 0 209 -55l-53 -95q-67 33 -150 33
q-192 0 -231 -223l-43 -248h545l43 244q29 162 125.5 253t263.5 91q159 0 274 -94z" />
    <glyph glyph-name="f_l" unicode="fl" horiz-adv-x="1112" 
d="M1028 1468h102l-258 -1468h-124l229 1305q-92 71 -240 71q-112 0 -181.5 -63t-88.5 -172l-41 -236h301l-18 -110h-303l-140 -795h-125l140 795h-185l21 110h184l43 244q29 162 125 253t262 91q154 0 270 -92z" />
    <glyph glyph-name=".notdef" horiz-adv-x="948" 
d="M778 1458v-1896h-602v1896h602zM631 1331h-312v-63h123v-70h-125v-61h314v61h-125v70h125v63zM506 1087h-189v-198h314v65h-125v133zM442 1022v-68h-63v68h63zM631 838h-314v-62h125v-71h-125v-62h189v133h125v62zM631 725h-62v-125h-252v-65h314v190zM631 494h-189v-107
h64v43h63v-88h-190v152h-62v-215h314v215zM631 164h-314v-213h314v213zM569 102v-90h-190v90h190zM631 -92h-314v-64h132l-132 -90v-61h314v61h-193l133 90h60v64z" />
    <glyph glyph-name=".null" 
 />
    <glyph glyph-name="nonmarkingreturn" horiz-adv-x="682" 
 />
    <glyph glyph-name="space" unicode=" " horiz-adv-x="512" 
 />
    <glyph glyph-name="exclam" unicode="!" horiz-adv-x="536" 
d="M186 332l176 1061h146l-201 -1061h-121zM195 -20q-41 0 -66 23t-25 60q0 46 31.5 76.5t73.5 30.5q45 0 69.5 -29.5t18.5 -74.5q-7 -38 -36 -62t-66 -24z" />
    <glyph glyph-name="quotedbl" unicode="&#x22;" horiz-adv-x="661" 
d="M203 985l71 408h138l-105 -408h-104zM510 985l72 408h135l-103 -408h-104z" />
    <glyph glyph-name="numbersign" unicode="#" horiz-adv-x="1069" 
d="M125 0l133 412h-197l19 108h213l100 307h-203l19 109h219l147 457h109l-147 -457h260l147 457h109l-148 -457h180l-18 -109h-197l-100 -307h184l-18 -108h-199l-135 -412h-110l135 412h-258l-136 -412h-108zM403 520h259l100 307h-258z" />
    <glyph glyph-name="dollar" unicode="$" horiz-adv-x="1157" 
d="M1051 1137q-113 90 -246 108l-94 -514q74 -33 127 -65.5t100 -76t71.5 -98.5t24.5 -122q0 -157 -131 -263t-330 -124l-30 -175h-133l30 177q-231 22 -383 174l86 92q137 -127 322 -146l100 553q-68 29 -118.5 60t-94.5 73t-67 97t-23 121q0 149 123.5 249.5t308.5 112.5
l31 176h133l-33 -180q167 -24 301 -131zM399 1016q0 -82 48.5 -134.5t140.5 -95.5l84 459q-118 -14 -195.5 -75.5t-77.5 -153.5zM899 356q0 81 -55 140.5t-156 107.5l-90 -495q129 18 215 86t86 161z" />
    <glyph glyph-name="percent" unicode="%" horiz-adv-x="1572" 
d="M469 807q-125 0 -192.5 76t-67.5 184q0 58 23.5 118t65.5 111.5t109.5 84t147.5 32.5q122 0 190 -75t68 -181q0 -60 -23.5 -121.5t-65.5 -112.5t-109 -83.5t-146 -32.5zM254 0l1042 1393h123l-1042 -1393h-123zM469 903q59 0 106.5 24t75.5 61.5t43 79.5t15 83
q0 69 -39.5 117.5t-118.5 48.5q-58 0 -105 -23.5t-75 -61t-43 -80t-15 -83.5q0 -68 38 -117t118 -49zM1104 -20q-122 0 -190 75.5t-68 182.5q0 59 23 119t65 112t109.5 84.5t148.5 32.5q122 0 189 -76t67 -182q0 -60 -23 -121t-65.5 -112t-109.5 -83t-146 -32zM1104 76
q58 0 105.5 23.5t76.5 61t44.5 80t15.5 83.5q0 67 -40 116t-118 49q-58 0 -105 -23.5t-75 -60.5t-43 -79.5t-15 -83.5q0 -68 38 -117t116 -49z" />
    <glyph glyph-name="ampersand" unicode="&#x26;" horiz-adv-x="1306" 
d="M449 -20q-163 0 -263 89.5t-100 217.5q0 137 106.5 262.5t280.5 214.5q-106 162 -106 276q0 164 117 268.5t290 104.5q129 0 207 -77t78 -187q0 -58 -24 -112t-61.5 -96.5t-94 -84t-109.5 -72t-121 -63.5l281 -354q143 181 190 391h121q-59 -278 -242 -488l203 -270h-139
l-139 186q-206 -206 -475 -206zM584 815q76 38 127 68t106.5 72.5t84 90t28.5 99.5q0 63 -44.5 104t-123.5 41q-115 0 -190.5 -70t-75.5 -184q0 -83 88 -221zM453 102q212 0 399 179l-309 385q-143 -67 -234.5 -164t-91.5 -201q0 -82 63.5 -140.5t172.5 -58.5z" />
    <glyph glyph-name="quotesingle" unicode="'" horiz-adv-x="354" 
d="M203 985l71 408h138l-105 -408h-104z" />
    <glyph glyph-name="parenleft" unicode="(" horiz-adv-x="636" 
d="M336 -393q-81 122 -125.5 307.5t-44.5 394.5q0 152 24 299q44 271 170 523t302 434l73 -84q-160 -174 -275 -408t-151 -473q-20 -140 -20 -295q0 -192 35 -358t100 -273z" />
    <glyph glyph-name="parenright" unicode=")" horiz-adv-x="636" 
d="M348 1565q82 -120 126 -305t44 -396q0 -151 -24 -301q-44 -271 -169.5 -522.5t-301.5 -433.5l-72 84q159 175 273.5 408t150.5 472q22 154 22 297q0 192 -35.5 357.5t-101.5 271.5z" />
    <glyph glyph-name="asterisk" unicode="*" horiz-adv-x="743" 
d="M272 788l-65 58l217 219l-246 74l43 84l234 -90l37 260h94l-56 -258l265 90l12 -90l-272 -72l145 -219l-76 -56l-125 232z" />
    <glyph glyph-name="plus" unicode="+" horiz-adv-x="1069" 
d="M455 313l59 328h-332l21 113h329l60 329h110l-57 -329h328l-19 -113h-329l-58 -328h-112z" />
    <glyph glyph-name="comma" unicode="," horiz-adv-x="520" 
d="M201 170q38 0 64 -22.5t26 -67.5q0 -21 -6 -45q-40 -156 -195 -283l-37 39q61 53 94.5 96.5t47.5 94.5q-8 -2 -21 -2q-32 0 -55 24.5t-23 61.5q0 12 2 18q9 39 39 62.5t64 23.5z" />
    <glyph glyph-name="hyphen" unicode="-" horiz-adv-x="800" 
d="M131 414l21 108h524l-21 -108h-524z" />
    <glyph glyph-name="period" unicode="." horiz-adv-x="518" 
d="M184 -20q-39 0 -63.5 22.5t-24.5 58.5q0 15 2 23q6 38 35 62t68 24q40 0 64 -24t24 -62q0 -45 -30.5 -74.5t-74.5 -29.5z" />
    <glyph glyph-name="slash" unicode="/" horiz-adv-x="804" 
d="M-10 -20l786 1433h125l-784 -1433h-127z" />
    <glyph glyph-name="zero" unicode="0" horiz-adv-x="1191" 
d="M518 -20q-175 0 -276 132t-101 361q0 99 21 213q58 324 209.5 506t380.5 182q177 0 277.5 -132t100.5 -363q0 -86 -20 -209q-56 -324 -209.5 -507t-382.5 -183zM524 104q164 0 286 153t169 419q18 108 18 201q0 176 -65.5 275t-186.5 99q-164 0 -285 -153.5t-167 -417.5
q-19 -117 -19 -203q0 -176 64.5 -274.5t185.5 -98.5z" />
    <glyph glyph-name="one" unicode="1" horiz-adv-x="688" 
d="M608 1370h35l-240 -1370h-131l187 1051q7 40 22 108q-18 -13 -47 -29l-229 -120l-47 102z" />
    <glyph glyph-name="two" unicode="2" horiz-adv-x="962" 
d="M319 207q-31 -33 -90 -92q43 4 129 4l469 2l-20 -121h-819l6 37l690 731q119 122 143 246q4 32 4 47q0 83 -51 135.5t-143 52.5q-169 0 -315 -170l-86 84q184 211 405 211q145 0 233.5 -86.5t88.5 -218.5q0 -28 -7 -68q-13 -81 -52.5 -151t-112.5 -148z" />
    <glyph glyph-name="three" unicode="3" horiz-adv-x="1079" 
d="M422 -20q-260 0 -402 202l105 80q59 -83 134.5 -120.5t178.5 -37.5q161 0 274 95t113 239q0 46 -15 83t-40.5 61.5t-59.5 41.5t-70 24t-75 7h-215l23 123h174q73 0 134.5 26.5t100.5 69t60.5 92.5t21.5 99q0 82 -56 134t-153 52q-87 0 -164.5 -33t-171.5 -108l-75 90
q113 95 211.5 134.5t208.5 39.5q146 0 239.5 -83.5t93.5 -215.5q0 -33 -6 -67q-15 -84 -78 -166.5t-168 -126.5q102 -26 154.5 -106t52.5 -181q0 -34 -6 -68q-32 -169 -171.5 -274.5t-352.5 -105.5z" />
    <glyph glyph-name="four" unicode="4" horiz-adv-x="1083" 
d="M1032 1374l-170 -960h162l-23 -119h-161l-49 -295h-127l49 295h-701l6 33l977 1046h37zM823 903q2 12 12.5 68t18.5 90q-22 -26 -57 -63.5t-45 -49.5l-410 -442q-58 -62 -94 -96q43 4 123 4h366z" />
    <glyph glyph-name="five" unicode="5" horiz-adv-x="985" 
d="M997 1233h-514l-127 -418q71 12 150 12q182 0 289.5 -91t107.5 -255q0 -40 -10 -98q-30 -185 -172 -295.5t-338 -110.5q-129 0 -227 51t-150 140l100 78q38 -70 111 -107t172 -37q140 0 246 79t133 225q6 34 6 65q0 120 -85 183t-220 63q-125 0 -252 -47l-22 24l200 660
h625z" />
    <glyph glyph-name="six" unicode="6" horiz-adv-x="1083" 
d="M633 838q159 0 257.5 -97.5t98.5 -255.5q0 -39 -6 -82q-34 -191 -166.5 -307t-318.5 -116q-184 0 -280.5 113.5t-96.5 295.5q0 57 14 143l6 39q27 135 72.5 250t117 217t163 174.5t217 115.5t274.5 46l6 -125q-258 6 -432.5 -142.5t-255.5 -414.5q140 146 330 146z
M848 401q6 37 6 74q0 111 -67 177.5t-187 66.5q-135 -3 -228 -82.5t-118 -212.5q-6 -34 -6 -64q0 -114 70 -186t188 -72q135 2 227 81.5t115 217.5z" />
    <glyph glyph-name="seven" unicode="7" horiz-adv-x="897" 
d="M205 1354h811l-6 -33l-754 -1321h-145l663 1155q3 6 47 80q-35 -2 -106 -2h-533z" />
    <glyph glyph-name="eight" unicode="8" horiz-adv-x="1144" 
d="M498 -18q-185 0 -292.5 85.5t-107.5 235.5q0 35 6 76q23 127 110.5 219.5t205.5 124.5q-71 29 -117.5 95t-46.5 153q0 27 6 57q28 161 156 255.5t315 94.5q162 0 260.5 -82.5t98.5 -210.5q0 -24 -7 -59q-20 -113 -92 -190.5t-168 -112.5q83 -35 137 -111.5t54 -183.5
q0 -34 -6 -72q-30 -179 -166 -276.5t-346 -97.5zM635 782q124 0 211 66.5t106 175.5q4 28 4 41q0 86 -65 138t-178 52q-143 0 -232.5 -78t-89.5 -202q0 -91 65 -142t179 -51zM518 106q157 0 262 90.5t105 237.5q0 105 -72.5 165t-200.5 60q-143 0 -247 -78.5t-127 -207.5
q-5 -40 -5 -47q0 -106 75.5 -163t209.5 -57z" />
    <glyph glyph-name="nine" unicode="9" horiz-adv-x="1091" 
d="M674 1378q181 0 278 -116t97 -304q0 -61 -13 -137l-8 -39q-34 -170 -98 -309t-164.5 -250.5t-248.5 -175t-333 -67.5l-6 114q255 4 426.5 147t253.5 398q-73 -67 -149.5 -96t-169.5 -29q-150 0 -252.5 102.5t-102.5 264.5q0 43 9 90q32 182 164 294.5t317 112.5zM567 635
q137 0 231 80.5t117 218.5q7 35 7 59q0 112 -71.5 187t-186.5 75q-135 -2 -225 -79t-115 -213q-7 -44 -7 -72q0 -114 67.5 -185t182.5 -71z" />
    <glyph glyph-name="colon" unicode=":" horiz-adv-x="520" 
d="M315 721q-39 0 -63.5 23t-24.5 59q0 12 2 20q4 39 33 62.5t70 23.5q39 0 63.5 -23.5t24.5 -60.5q0 -45 -31.5 -74.5t-73.5 -29.5zM184 -20q-39 0 -63.5 22.5t-24.5 58.5q0 15 2 23q6 38 35 62t68 24q40 0 64 -24t24 -62q0 -45 -30.5 -74.5t-74.5 -29.5z" />
    <glyph glyph-name="semicolon" unicode=";" horiz-adv-x="524" 
d="M332 911q39 0 63.5 -23t24.5 -59q0 -14 -2 -22q-6 -38 -36 -62t-67 -24q-38 0 -63 23.5t-25 60.5q0 12 2 20q6 38 35 62t68 24zM205 170q38 0 64 -22.5t26 -67.5q0 -19 -6 -43q-41 -161 -195 -285l-35 39q60 53 93 96.5t47 94.5q-6 -2 -19 -2q-33 0 -56.5 24.5
t-23.5 61.5q0 12 2 18q9 39 39 62.5t64 23.5z" />
    <glyph glyph-name="less" unicode="&#x3c;" horiz-adv-x="882" 
d="M737 356l-608 308l18 106l717 307l-22 -135l-570 -233l488 -234z" />
    <glyph glyph-name="equal" unicode="=" horiz-adv-x="1034" 
d="M221 831l19 113h729l-19 -113h-729zM154 449l18 112h729l-18 -112h-729z" />
    <glyph glyph-name="greater" unicode="&#x3e;" horiz-adv-x="882" 
d="M111 356l24 136l570 233l-488 233l21 119l608 -307l-19 -106z" />
    <glyph glyph-name="question" unicode="?" horiz-adv-x="980" 
d="M328 334q7 82 24.5 150t37.5 112.5t56 90.5t63 72t75 68q20 17 61.5 51t61.5 52.5t47 47t41 57.5t20 61q2 10 2 32q0 69 -47 116.5t-139 47.5q-165 0 -303 -129l-72 99q165 151 381 151q147 0 231 -83t84 -197q0 -18 -4 -46q-5 -26 -14.5 -51.5t-19 -45t-30 -45
t-33 -40.5t-42.5 -43t-44 -41t-53 -46.5t-55 -47.5q-47 -41 -75 -70.5t-59 -76.5t-48 -107.5t-22 -138.5h-125zM342 -20q-39 0 -63.5 22.5t-24.5 58.5q0 46 31 77.5t73 31.5q41 0 66 -24t25 -62q0 -45 -31.5 -74.5t-75.5 -29.5z" />
    <glyph glyph-name="at" unicode="@" horiz-adv-x="1726" 
d="M662 -295q-260 0 -412 148t-152 401q0 135 36 267.5t100.5 247t157.5 212.5t203 167t241 108.5t268 39.5q112 0 210.5 -32t175 -93t121 -159t44.5 -221q0 -116 -31.5 -232t-86 -211t-138 -154t-178.5 -59q-77 0 -119 34t-45 89q-52 -66 -127.5 -104.5t-167.5 -38.5
q-118 0 -182 70.5t-64 183.5q0 134 70 253t190.5 191t257.5 72q71 0 128 -17t122 -57l-119 -438q-8 -27 -8 -58q0 -77 80 -77q90 0 163 89t109.5 212.5t36.5 244.5q0 105 -35 184t-97.5 127t-144 71.5t-179.5 23.5q-180 0 -345 -78.5t-281.5 -207.5t-185.5 -298.5
t-69 -347.5q0 -220 122 -333t351 -113q153 0 324 63l26 -96q-196 -74 -370 -74zM778 213q97 0 182 73t127 201l70 261q-60 36 -141 36q-105 0 -195 -61.5t-140 -157t-50 -196.5q0 -72 38 -114t109 -42z" />
    <glyph glyph-name="A" unicode="A" horiz-adv-x="1392" 
d="M885 1403l405 -1397v-6h-135l-92 319h-764l-203 -319h-145v4l889 1399h45zM825 1155q-34 -65 -108 -180l-340 -533h653l-153 531q-9 32 -26.5 92t-25.5 90z" />
    <glyph glyph-name="B" unicode="B" horiz-adv-x="1282" 
d="M127 0l244 1393h493q150 0 246 -82t96 -219q0 -32 -6 -70q-36 -211 -233 -301q87 -25 138.5 -96.5t51.5 -173.5q0 -24 -8 -78q-30 -178 -161 -275.5t-331 -97.5h-530zM399 782h375q122 0 210.5 86.5t88.5 210.5q0 92 -65 141.5t-179 49.5h-346zM283 123h393q133 0 227 74
t117 198q4 18 4 51q0 99 -70.5 156t-177.5 57h-399z" />
    <glyph glyph-name="C" unicode="C" horiz-adv-x="1425" 
d="M745 -25q-181 0 -317.5 78t-207 211.5t-70.5 302.5q0 69 12 142q26 147 98 276.5t176.5 225t245.5 151t297 55.5q305 0 494 -227l-91 -74q-74 87 -171.5 132.5t-239.5 45.5q-169 0 -314.5 -80.5t-239.5 -216.5t-122 -303q-10 -68 -10 -119q0 -134 52.5 -240.5t160 -171.5
t254.5 -65q152 0 271.5 61t229.5 179l84 -82q-126 -139 -270.5 -210t-321.5 -71z" />
    <glyph glyph-name="D" unicode="D" horiz-adv-x="1478" 
d="M125 0l246 1393h446q136 0 248.5 -43t189 -119t118.5 -181.5t42 -228.5q0 -65 -12 -135q-56 -316 -276.5 -501t-548.5 -185h-453zM281 123h311q259 0 446.5 161.5t233.5 417.5q10 65 10 113q0 96 -31 177.5t-90 144t-153 98t-213 35.5h-312z" />
    <glyph glyph-name="E" unicode="E" horiz-adv-x="1144" 
d="M1192 1270h-707l-88 -496h617l-23 -119h-614l-94 -532h718l-22 -123h-852l244 1393h841z" />
    <glyph glyph-name="F" unicode="F" horiz-adv-x="1122" 
d="M1192 1270h-709l-94 -531h623l-21 -123h-624l-109 -616h-133l246 1393h843z" />
    <glyph glyph-name="G" unicode="G" horiz-adv-x="1505" 
d="M848 616l22 123h568l-88 -516q-248 -248 -588 -248q-147 0 -264 45t-192.5 125t-115.5 187.5t-40 234.5q0 80 14 154q36 197 152 356t290.5 249.5t372.5 90.5q281 0 479 -221l-88 -82q-75 92 -169 136t-234 44q-162 0 -305 -76t-239.5 -210.5t-125.5 -300.5
q-12 -67 -12 -132q0 -212 126.5 -344.5t356.5 -132.5q139 0 260 46t203 130l59 342h-442z" />
    <glyph glyph-name="H" unicode="H" horiz-adv-x="1525" 
d="M1352 1393h133l-244 -1393h-133l113 641h-848l-113 -641h-133l244 1393h133l-111 -629h848z" />
    <glyph glyph-name="I" unicode="I" horiz-adv-x="546" 
d="M127 0l244 1393h133l-244 -1393h-133z" />
    <glyph glyph-name="J" unicode="J" horiz-adv-x="1030" 
d="M334 -25q-205 0 -363 131l78 107q60 -55 135.5 -85t153.5 -30q153 0 246.5 87t122.5 255l165 953h134l-170 -977q-37 -215 -164.5 -328t-337.5 -113z" />
    <glyph glyph-name="K" unicode="K" horiz-adv-x="1196" 
d="M1280 1393v-7l-774 -692l590 -688v-6h-158l-563 662l-117 -662h-133l246 1393h133l-115 -650l725 650h166z" />
    <glyph glyph-name="L" unicode="L" horiz-adv-x="1073" 
d="M127 0l244 1393h133l-221 -1270h671l-22 -123h-805z" />
    <glyph glyph-name="M" unicode="M" horiz-adv-x="1765" 
d="M1571 1403h39l-45 -1403h-133l32 922q1 18 11 165q-89 -112 -113 -141l-479 -598h-31l-256 588l-70 164q-22 -91 -45 -166l-301 -934h-139l451 1403h40l297 -688q11 -26 33.5 -77.5t32.5 -76.5q22 32 117 152z" />
    <glyph glyph-name="N" unicode="N" horiz-adv-x="1564" 
d="M1391 1393h135l-248 -1403h-41l-674 981q-14 20 -50.5 72t-57.5 83q-16 -110 -35 -221l-160 -905h-135l248 1403h43l653 -942q96 -134 125 -178q17 95 33 194z" />
    <glyph glyph-name="O" unicode="O" horiz-adv-x="1642" 
d="M752 -25q-273 0 -439 163t-166 425q0 50 15 146q37 202 151 362.5t289.5 253t382.5 92.5q171 0 306.5 -77t211.5 -213t76 -306q0 -67 -12 -137q-26 -149 -99 -279.5t-178.5 -225.5t-245 -149.5t-292.5 -54.5zM756 98q257 0 445 168.5t233 427.5q10 51 10 119
q0 209 -128.5 345t-340.5 136q-256 0 -444 -167t-236 -429q-12 -64 -12 -127q0 -210 127 -341.5t346 -131.5z" />
    <glyph glyph-name="P" unicode="P" horiz-adv-x="1220" 
d="M881 1393q181 0 275.5 -99t94.5 -250q0 -25 -8 -83q-14 -78 -52 -148t-98.5 -128t-152.5 -92t-203 -34h-381l-98 -559h-133l246 1393h510zM1112 979q6 34 6 63q0 108 -66.5 168t-187.5 60h-381l-104 -588h354q160 0 259.5 87t119.5 210z" />
    <glyph glyph-name="Q" unicode="Q" horiz-adv-x="1644" 
d="M1567 684q-32 -183 -130.5 -334t-246.5 -246l237 -192l-79 -98l-283 225q-150 -64 -313 -64q-172 0 -309.5 77.5t-215 214.5t-77.5 308q0 67 12 134q37 200 153 361.5t292 254t378 92.5q259 0 426.5 -169.5t167.5 -430.5q0 -65 -12 -133zM756 98q257 0 445 168.5
t233 427.5q10 51 10 119q0 209 -128.5 345t-340.5 136q-165 0 -310.5 -77.5t-242.5 -213.5t-127 -305q-10 -51 -10 -118q0 -208 129 -345t342 -137z" />
    <glyph glyph-name="R" unicode="R" horiz-adv-x="1284" 
d="M891 1393q162 0 270.5 -98t108.5 -251q0 -32 -6 -69q-28 -163 -142 -263.5t-297 -125.5l305 -580v-6h-145l-303 580h-322l-102 -580h-133l246 1393h520zM1137 1040q0 105 -68.5 167.5t-191.5 62.5h-394l-100 -568h379q162 0 268.5 93t106.5 245z" />
    <glyph glyph-name="S" unicode="S" horiz-adv-x="1165" 
d="M539 -25q-286 0 -484 191l82 96q175 -164 410 -164q150 0 254 77t104 194q0 49 -20.5 89.5t-63 75t-86 59.5t-110.5 56q-62 29 -107 53.5t-95 61.5t-81 75t-51.5 89.5t-20.5 109.5q0 175 128.5 275t326.5 100q235 0 424 -147l-74 -97q-159 121 -348 121
q-137 0 -230.5 -63.5t-93.5 -179.5q0 -51 20 -92t63.5 -75.5t83.5 -57.5t108 -56q66 -31 113.5 -57.5t97.5 -63t80.5 -74.5t50.5 -88.5t20 -107.5q0 -174 -140 -287t-361 -113z" />
    <glyph glyph-name="T" unicode="T" horiz-adv-x="1085" 
d="M1204 1393l-20 -123h-428l-226 -1270h-133l224 1270h-431l23 123h991z" />
    <glyph glyph-name="U" unicode="U" horiz-adv-x="1441" 
d="M649 -25q-205 0 -335 106.5t-130 289.5q0 43 9 92l161 930h135l-165 -940q-7 -47 -7 -76q0 -135 90.5 -207t243.5 -72q195 0 317.5 97t153.5 272l162 926h133l-164 -940q-41 -233 -198 -355.5t-406 -122.5z" />
    <glyph glyph-name="V" unicode="V" horiz-adv-x="1396" 
d="M1382 1393h152v-4l-895 -1399h-45l-399 1399v4h133l288 -1024q29 -100 35 -127q44 74 78 125z" />
    <glyph glyph-name="W" unicode="W" horiz-adv-x="1976" 
d="M1954 1393h143v-4l-729 -1399h-41l-199 860q-29 139 -36 186q-43 -88 -103 -186l-500 -860h-40l-238 1399v4h129l154 -920q21 -117 28 -174q58 103 99 172l495 850h35l199 -848q6 -25 12.5 -53.5t14 -64.5t12.5 -58q22 45 90 176z" />
    <glyph glyph-name="X" unicode="X" horiz-adv-x="1263" 
d="M-39 0v4l647 731l-350 654v4h141l244 -449q43 -84 53 -108q46 54 88 100l406 457h162v-4l-592 -668l383 -717v-4h-142l-249 465q-47 89 -82 160q-56 -75 -109 -133l-438 -492h-162z" />
    <glyph glyph-name="Y" unicode="Y" horiz-adv-x="1284" 
d="M496 0l114 643l-397 750h139l256 -480q40 -73 80 -157q33 46 127 153l426 484h164l-662 -750l-112 -643h-135z" />
    <glyph glyph-name="Z" unicode="Z" horiz-adv-x="1148" 
d="M1214 1352l-942 -1172q-19 -27 -49 -57h78h719l-21 -123h-997l2 41l948 1178q27 35 43 53q-25 -2 -71 -2h-672l22 123h947z" />
    <glyph glyph-name="bracketleft" unicode="[" horiz-adv-x="546" 
d="M14 -383l340 1937h314l-19 -108h-194l-303 -1720h194l-18 -109h-314z" />
    <glyph glyph-name="backslash" unicode="\" horiz-adv-x="804" 
d="M535 -20l-291 1433h110l293 -1433h-112z" />
    <glyph glyph-name="bracketright" unicode="]" horiz-adv-x="546" 
d="M580 1554l-340 -1937h-314l19 109h194l303 1720h-194l18 108h314z" />
    <glyph glyph-name="asciicircum" unicode="^" horiz-adv-x="950" 
d="M152 762l442 672h94l219 -672h-119l-161 528l-340 -528h-135z" />
    <glyph glyph-name="underscore" unicode="_" horiz-adv-x="1017" 
d="M0 -154l18 103h803l-18 -103h-803z" />
    <glyph glyph-name="grave" unicode="`" horiz-adv-x="512" 
d="M498 1102l-258 205l92 90l233 -232z" />
    <glyph glyph-name="a" unicode="a" horiz-adv-x="1181" 
d="M1006 905h96l-160 -905h-98l10 143q-150 -163 -377 -163q-179 0 -283 109.5t-104 279.5q0 42 10 100q36 200 177 327.5t341 127.5q112 0 198 -47t134 -132zM901 449q8 36 8 79q0 123 -75.5 201t-217.5 78q-147 0 -254 -96t-137 -248q-8 -39 -8 -84q0 -128 76.5 -205.5
t208.5 -77.5q155 0 263 102.5t136 250.5z" />
    <glyph glyph-name="b" unicode="b" horiz-adv-x="1183" 
d="M707 924q182 0 284.5 -105t102.5 -274q0 -41 -11 -109q-37 -203 -173 -329.5t-347 -126.5q-114 0 -204 48t-134 134l-47 -162h-96l258 1468h125l-103 -577q-8 -57 -28 -129q70 80 168 121t205 41zM958 444q9 47 9 86q0 126 -75 201.5t-208 75.5q-156 0 -266 -100
t-137 -248q-7 -44 -7 -72q0 -127 76.5 -209t214.5 -82q152 0 257.5 96t135.5 252z" />
    <glyph glyph-name="c" unicode="c" horiz-adv-x="948" 
d="M477 -23q-162 0 -274.5 107t-112.5 285q0 42 10 100q37 210 187 333.5t342 123.5q97 0 170 -32.5t135 -100.5l-82 -80q-84 96 -225 96q-142 0 -259.5 -98t-144.5 -256q-6 -37 -6 -74q0 -127 74.5 -207t200.5 -80q88 0 152.5 25t135.5 86l58 -94q-155 -134 -361 -134z" />
    <glyph glyph-name="d" unicode="d" horiz-adv-x="1181" 
d="M1075 1468h125l-258 -1468h-96l8 154q-72 -86 -170.5 -130t-206.5 -44q-172 0 -279.5 112t-107.5 285q0 51 8 92q16 92 59.5 173.5t108.5 144.5t155.5 100t194.5 37q117 0 204 -50.5t132 -142.5q6 84 21 168zM899 451q8 36 8 77q0 123 -75 201t-214 78q-147 0 -257 -96
t-136 -248q-8 -39 -8 -84q0 -130 77.5 -206.5t205.5 -76.5q158 0 264 100.5t135 254.5z" />
    <glyph glyph-name="e" unicode="e" horiz-adv-x="966" 
d="M915 680q0 -91 -50 -159t-136 -106t-187 -55.5t-218 -17.5q-53 0 -107 4q9 -114 85.5 -182t191.5 -68q80 0 146.5 19t137.5 67l49 -98q-160 -104 -344 -104q-173 0 -283 109.5t-110 272.5q0 152 69.5 281.5t193 206t272.5 76.5q134 0 212 -66.5t78 -179.5zM223 457
q50 -4 99 -4q90 0 167.5 10.5t149.5 33.5t114 68.5t42 108.5q0 65 -46 100t-124 35q-152 0 -263 -103.5t-139 -248.5z" />
    <glyph glyph-name="f" unicode="f" horiz-adv-x="671" 
d="M696 1376q-97 0 -153 -59.5t-74 -163.5l-43 -248h301l-18 -110h-303l-140 -795h-125l142 795h-187l21 110h186l45 258q26 154 111 242t231 88q66 0 117 -19.5t111 -62.5l-66 -88q-72 53 -156 53z" />
    <glyph glyph-name="g" unicode="g" horiz-adv-x="1179" 
d="M1006 905h92l-170 -971q-18 -105 -67 -185t-117.5 -127t-148 -70t-167.5 -23q-245 0 -383 174l82 82q63 -71 135 -105t168 -34q141 0 244.5 78t130.5 225q20 107 43 196q-145 -161 -371 -161q-180 0 -283.5 107.5t-103.5 277.5q0 52 8 96q17 96 61.5 179t111 145.5
t157.5 98.5t195 36q111 0 195 -44.5t132 -125.5zM899 459q8 50 8 76q0 118 -73.5 195t-212.5 77q-152 0 -261 -96.5t-137 -255.5q-8 -54 -8 -78q0 -126 77 -202.5t206 -76.5q159 0 265.5 102t135.5 259z" />
    <glyph glyph-name="h" unicode="h" horiz-adv-x="1069" 
d="M82 0l258 1468h125l-100 -561q-9 -61 -33 -168q136 185 346 185q133 0 202.5 -71.5t69.5 -199.5q0 -42 -10 -100l-96 -553h-125l100 573q6 30 6 60q0 80 -45.5 127t-132.5 47q-139 0 -237.5 -106t-126.5 -261l-76 -440h-125z" />
    <glyph glyph-name="i" unicode="i" horiz-adv-x="444" 
d="M352 1141q-44 0 -66.5 26t-19.5 62q2 40 29 70t72 30q47 0 69 -27t19 -65q-2 -37 -30.5 -66.5t-72.5 -29.5zM80 0l160 905h125l-160 -905h-125z" />
    <glyph glyph-name="j" unicode="j" horiz-adv-x="464" 
d="M375 1141q-44 0 -66.5 26t-19.5 62q2 40 28.5 70t71.5 30q47 0 69 -27t19 -65q-2 -38 -30 -67t-72 -29zM-229 -471l2 106q87 3 142 19.5t89.5 54t52 86.5t31.5 131l172 979h125l-174 -987q-25 -148 -71 -229.5t-133.5 -120.5t-235.5 -39z" />
    <glyph glyph-name="k" unicode="k" horiz-adv-x="884" 
d="M903 905v-4l-506 -440l389 -457v-4h-143l-362 424l-74 -424h-125l258 1468h125l-166 -950l440 387h164z" />
    <glyph glyph-name="l" unicode="l" horiz-adv-x="444" 
d="M80 0l260 1468h125l-260 -1468h-125z" />
    <glyph glyph-name="m" unicode="m" horiz-adv-x="1636" 
d="M1249 924q125 0 197 -71t72 -198q0 -41 -9 -90l-98 -565h-125l103 582q4 20 4 57q0 81 -45 124.5t-125 43.5q-128 0 -220 -104t-118 -254l-78 -449h-125l100 580q6 30 6 61q0 76 -39 121t-118 45q-89 0 -164.5 -51t-121 -130t-62.5 -173l-78 -453h-125l160 905h92l2 -153
q124 172 317 172q103 0 167 -49t81 -140q132 189 350 189z" />
    <glyph glyph-name="n" unicode="n" horiz-adv-x="1069" 
d="M676 924q133 0 203.5 -69.5t70.5 -201.5q0 -38 -10 -100l-98 -553h-125l100 565q6 37 6 70q0 82 -44.5 127t-135.5 45q-138 0 -235.5 -103t-126.5 -264l-76 -440h-125l160 905h92l2 -160q59 79 147 129t195 50z" />
    <glyph glyph-name="o" unicode="o" horiz-adv-x="1134" 
d="M492 -20q-180 0 -291 110t-111 281q0 51 8 92q36 202 183 332.5t360 130.5q181 0 291 -109.5t110 -281.5q0 -51 -8 -95q-36 -204 -182 -332t-360 -128zM500 96q159 0 271 99t140 258q7 44 7 71q0 128 -76.5 206.5t-208.5 78.5q-158 0 -270.5 -102t-139.5 -254
q-6 -40 -6 -76q0 -126 76.5 -203.5t206.5 -77.5z" />
    <glyph glyph-name="p" unicode="p" horiz-adv-x="1179" 
d="M700 924q181 0 285.5 -109t104.5 -280q0 -37 -11 -101q-16 -91 -57.5 -171t-104 -144t-153.5 -101.5t-197 -37.5q-121 0 -211.5 52.5t-132.5 143.5q-8 -116 -18 -170l-80 -457h-125l240 1356h94l2 -139q70 77 164.5 117.5t199.5 40.5zM954 440q9 44 9 84
q0 128 -75.5 205.5t-211.5 77.5q-155 0 -262 -100t-133 -242q-9 -61 -9 -80q0 -128 77 -208.5t214 -80.5q148 0 255.5 96t135.5 248z" />
    <glyph glyph-name="q" unicode="q" horiz-adv-x="1181" 
d="M1010 905h92l-240 -1356h-125l84 469q10 63 27 119q-69 -74 -165 -115.5t-204 -41.5q-179 0 -284 110.5t-105 282.5q0 40 10 98q36 200 177 326.5t346 126.5q115 0 199.5 -49.5t129.5 -131.5zM903 444q6 41 6 76q0 128 -72.5 207.5t-211.5 79.5q-152 0 -261.5 -94
t-138.5 -248q-8 -41 -8 -88q0 -131 78.5 -206t214.5 -75q155 0 260 101t133 247z" />
    <glyph glyph-name="r" unicode="r" horiz-adv-x="720" 
d="M614 924q81 0 152 -33l-49 -109q-53 23 -113 23q-114 0 -200.5 -83.5t-114.5 -242.5l-84 -479h-125l160 905h94l2 -135q111 154 278 154z" />
    <glyph glyph-name="s" unicode="s" horiz-adv-x="804" 
d="M334 -16q-180 0 -309 104l65 96q102 -86 248 -86q93 0 156 40t63 110q0 49 -38.5 87t-129.5 81q-55 26 -90 47t-72 52t-55 70t-18 87q0 111 86 177t223 66q145 0 270 -84l-55 -94q-100 64 -217 64q-85 0 -133.5 -33.5t-48.5 -89.5q0 -49 39.5 -84.5t119.5 -73.5
q128 -62 185 -123t57 -145q0 -128 -96.5 -198t-249.5 -70z" />
    <glyph glyph-name="t" unicode="t" horiz-adv-x="722" 
d="M389 -16q-97 0 -152 51t-55 151q0 34 6 74l93 535l-185 8l19 102h184l53 301h125l-53 -301h321l-18 -110h-321l-95 -545q-6 -27 -6 -51q0 -99 105 -99q82 0 182 66l49 -98q-121 -84 -252 -84z" />
    <glyph glyph-name="u" unicode="u" horiz-adv-x="1064" 
d="M858 905h125l-158 -905h-98l2 154q-54 -76 -140.5 -123t-189.5 -47q-132 0 -205 76.5t-73 205.5q0 24 8 82l98 557h125l-102 -573q-4 -18 -4 -56q0 -80 43.5 -128t130.5 -48q140 0 236.5 102t125.5 263z" />
    <glyph glyph-name="v" unicode="v" horiz-adv-x="958" 
d="M379 -10l-273 911v4h127l175 -604q10 -36 20 -96q28 57 55 96l389 604h138v-4l-592 -911h-39z" />
    <glyph glyph-name="w" unicode="w" horiz-adv-x="1376" 
d="M1280 905h133v-4l-485 -911h-37l-174 612l-389 -612h-37l-170 911v4h123l104 -567q9 -52 14 -94q10 21 30.5 52t25.5 40l317 512h31l147 -520q3 -11 10.5 -36.5t10.5 -39.5q11 27 39 78z" />
    <glyph glyph-name="x" unicode="x" horiz-adv-x="901" 
d="M905 905v-4l-383 -432l254 -465v-4h-131l-149 274q-10 19 -28 53.5t-28 53.5q-31 -38 -88 -107l-241 -274h-146v4l420 479l-225 418v4h129l123 -229q31 -54 55 -109q63 78 92 111l201 227h145z" />
    <glyph glyph-name="y" unicode="y" horiz-adv-x="946" 
d="M858 905h137v-4l-778 -1352h-137v5l285 481l-254 866v4h125l184 -631q3 -11 12 -46t14 -56q7 18 16 34.5t21 37.5t17 30z" />
    <glyph glyph-name="z" unicode="z" horiz-adv-x="851" 
d="M834 868l-551 -680l-66 -75q37 2 94 2h398l-21 -115h-680l6 37l561 690q14 20 54 66q-33 -2 -86 -2h-379l20 114h656z" />
    <glyph glyph-name="braceleft" unicode="{" horiz-adv-x="645" 
d="M424 -391q-121 -4 -183.5 49t-62.5 154q0 32 6 69l82 459q8 58 8 76q0 59 -31.5 87t-109.5 27l21 109q93 0 137 51t63 150l80 458q25 140 93 201.5t194 61.5q31 0 47 -2l-18 -109q-99 3 -142.5 -34.5t-58.5 -129.5l-84 -471q-20 -106 -57 -158.5t-119 -74.5
q102 -35 102 -162q0 -20 -8 -78l-84 -471q-4 -20 -4 -53q0 -55 33.5 -78.5t115.5 -20.5z" />
    <glyph glyph-name="bar" unicode="|" horiz-adv-x="475" 
d="M37 -340l325 1853h123l-325 -1853h-123z" />
    <glyph glyph-name="braceright" unicode="}" horiz-adv-x="645" 
d="M268 1563q121 4 183.5 -49t62.5 -154q0 -32 -6 -70l-82 -459q-8 -58 -8 -77q0 -58 31.5 -86t109.5 -27l-20 -109q-94 0 -138 -50.5t-63 -149.5l-80 -459q-24 -140 -92.5 -201t-194.5 -61q-31 0 -47 2l19 108q97 -3 141 34.5t59 129.5l82 471q20 105 57.5 158.5
t118.5 75.5q-100 35 -100 162q0 19 8 77l84 471q4 18 4 52q0 56 -33.5 79.5t-115.5 20.5z" />
    <glyph glyph-name="asciitilde" unicode="~" horiz-adv-x="1171" 
d="M827 563q-94 0 -202 76q-41 26 -60 37t-51.5 23t-60.5 12q-19 0 -27 -2q-49 -8 -82 -37.5t-74 -89.5l-84 63q52 80 104 124.5t128 55.5q12 2 35 2q92 0 206 -82q96 -67 168 -67q91 0 158 137l90 -57q-98 -195 -248 -195z" />
    <glyph glyph-name="uni00A0" unicode="&#xa0;" horiz-adv-x="512" 
 />
    <glyph glyph-name="exclamdown" unicode="&#xa1;" horiz-adv-x="530" 
d="M324 840q41 0 65.5 -23.5t24.5 -60.5q0 -46 -31.5 -76.5t-75.5 -30.5q-40 0 -64 24t-24 62q0 45 31.5 75t73.5 30zM332 487l-176 -1060h-146l199 1060h123z" />
    <glyph glyph-name="cent" unicode="&#xa2;" horiz-adv-x="958" 
d="M780 393l74 -90q-138 -135 -317 -147l-29 -170h-107l31 172q-136 22 -218.5 122.5t-82.5 251.5q0 52 8 99q33 192 159.5 313t295.5 139l31 166h106l-31 -168q151 -21 238 -155l-92 -68q-72 109 -209 109q-132 0 -239.5 -92.5t-135.5 -251.5q-6 -44 -6 -80
q0 -123 66.5 -198t183.5 -75q82 0 146 30t128 93z" />
    <glyph glyph-name="sterling" unicode="&#xa3;" horiz-adv-x="991" 
d="M698 1251q-122 0 -199 -69.5t-77 -182.5q0 -51 11.5 -100t32.5 -107.5t28 -86.5h319l-20 -115h-285q-3 -115 -80.5 -239.5t-194.5 -231.5l633 4l-20 -123h-817l-17 68q150 123 258.5 265t108.5 251v6h-221l22 115h174q-2 6 -11 31.5t-12 34.5t-10.5 33t-11 36.5t-9 34.5
t-7.5 37.5t-4 35t-2 37.5q0 167 110.5 278t292.5 111q207 0 334 -127l-84 -82q-46 45 -103 65.5t-139 20.5z" />
    <glyph glyph-name="currency" unicode="&#xa4;" horiz-adv-x="1083" 
d="M156 283l-64 71l156 131q-39 70 -39 160q0 26 8 80q21 132 115 233l-113 129l72 64l106 -129q110 82 252 82q141 0 223 -82l148 129l65 -70l-153 -131q37 -72 37 -159q0 -24 -8 -82q-21 -126 -111 -234l106 -127l-71 -65l-107 129q-116 -84 -250 -84q-139 0 -223 84z
M530 434q120 0 208.5 79.5t111.5 205.5q6 30 6 61q0 99 -55.5 159t-153.5 60q-121 0 -209.5 -78.5t-111.5 -203.5q-7 -35 -7 -62q0 -99 56.5 -160t154.5 -61z" />
    <glyph glyph-name="yen" unicode="&#xa5;" horiz-adv-x="1232" 
d="M465 0l65 373h-333l20 108h332l22 131h-331l20 109h283l-340 639h139l317 -606l527 606h166l-572 -639h281l-21 -109h-333l-21 -131h332l-21 -108h-331l-66 -373h-135z" />
    <glyph glyph-name="brokenbar" unicode="&#xa6;" horiz-adv-x="475" 
d="M225 723l140 790h122l-139 -790h-123zM37 -340l147 827h123l-147 -827h-123z" />
    <glyph glyph-name="section" unicode="&#xa7;" horiz-adv-x="1075" 
d="M455 -102q-114 0 -212.5 36.5t-164.5 102.5l80 90q53 -56 129 -86.5t162 -30.5q102 0 173.5 39t94.5 111q8 24 8 53q0 120 -205 207q-55 23 -93 40t-87 46.5t-78.5 58.5t-50.5 70.5t-21 87.5q0 39 19 94q38 100 153 158q-55 68 -55 143q0 34 17 90q35 102 139 153.5
t233 51.5q184 0 312 -96l-68 -92q-97 82 -246 82q-113 0 -188.5 -49.5t-75.5 -135.5q0 -64 53 -107.5t152 -84.5q46 -19 74.5 -32t72.5 -36t72 -45t56 -50.5t41.5 -62t13.5 -71.5q0 -64 -41 -133q-38 -71 -123 -140q45 -61 45 -137q0 -51 -21 -112q-32 -98 -132.5 -155.5
t-237.5 -57.5zM725 432q60 41 98 109q25 45 25 80q0 29 -16.5 55.5t-38 45.5t-60.5 40t-66 33t-73 30q-94 38 -148 76q-65 -23 -100 -64.5t-35 -95.5q0 -65 63.5 -117.5t186.5 -103.5q106 -45 164 -88z" />
    <glyph glyph-name="dieresis" unicode="&#xa8;" horiz-adv-x="839" 
d="M352 1149q-41 0 -63.5 23t-22.5 57q0 36 28.5 67t70.5 31q39 0 61.5 -23.5t22.5 -56.5q0 -36 -27.5 -67t-69.5 -31zM764 1149q-40 0 -61 24t-21 58q0 37 26 66.5t68 29.5q40 0 62 -24t22 -58q0 -35 -27 -65.5t-69 -30.5z" />
    <glyph glyph-name="copyright" unicode="&#xa9;" horiz-adv-x="1619" 
d="M741 -6q-172 0 -307.5 75.5t-209.5 207.5t-74 298q0 65 12 130q26 146 97.5 273t175 219.5t242 146t292.5 53.5q258 0 422.5 -164t164.5 -416q0 -65 -12 -129q-26 -146 -96.5 -273t-174 -220.5t-241 -147t-291.5 -53.5zM743 100q266 0 458.5 167.5t238.5 426.5
q10 68 10 119q0 211 -129 344t-354 133q-265 0 -459 -167t-240 -425q-10 -51 -10 -118q0 -211 130.5 -345.5t354.5 -134.5zM813 322q-86 0 -156 31t-116.5 101.5t-46.5 170.5q0 43 8 84q30 164 149 262t269 98q148 0 239 -104l-67 -68q-73 76 -172 76q-120 0 -205 -76.5
t-109 -200.5q-6 -30 -6 -59q0 -99 58.5 -158t154.5 -59q120 0 223 92l51 -76q-137 -114 -274 -114z" />
    <glyph glyph-name="ordfeminine" unicode="&#xaa;" horiz-adv-x="645" 
d="M362 920q-64 0 -102.5 39t-38.5 96q0 92 83 140t192 48q36 0 71 -6l6 45q2 6 2 18q0 32 -23 51t-63 19q-77 0 -163 -39l-29 72q105 51 192 51q81 0 127 -38.5t46 -106.5q0 -4 -5 -39l-59 -338h-61l-7 80q-57 -92 -168 -92zM381 995q63 0 113 47.5t63 122.5q-32 4 -55 4
q-49 0 -91 -10.5t-73 -36.5t-31 -65q0 -30 20.5 -46t53.5 -16zM164 717l16 82h393l-14 -82h-395z" />
    <glyph glyph-name="guillemotleft" unicode="&#xab;" horiz-adv-x="817" 
d="M281 106l-197 398l301 385l88 -58l-248 -339l152 -336zM559 106l-180 398l309 385l88 -58l-256 -339l135 -336z" />
    <glyph glyph-name="logicalnot" unicode="&#xac;" horiz-adv-x="1114" 
d="M848 401l51 297h-717l19 111h829l-72 -408h-110z" />
    <glyph glyph-name="registered" unicode="&#xae;" horiz-adv-x="1142" 
d="M575 485q-169 0 -272.5 104t-103.5 271q0 48 8 92q33 198 176.5 326.5t355.5 128.5q174 0 277.5 -100t103.5 -265q0 -52 -8 -96q-37 -205 -184 -333t-353 -128zM582 571q169 0 290 106t152 284q8 58 8 79q0 128 -80.5 203.5t-222.5 75.5q-169 0 -287 -106t-149 -279
q-8 -58 -8 -80q0 -129 79.5 -206t217.5 -77zM463 729l80 445h188q55 0 88 -31t33 -82q0 -64 -40 -103t-101 -45l98 -184h-84l-94 184h-66l-33 -184h-69zM575 973h115q41 0 67.5 23.5t26.5 58.5q0 27 -17 43t-50 16h-117z" />
    <glyph glyph-name="macron" unicode="&#xaf;" horiz-adv-x="792" 
d="M246 1147l18 108h543l-19 -108h-542z" />
    <glyph glyph-name="degree" unicode="&#xb0;" horiz-adv-x="737" 
d="M453 877q-106 0 -174 63.5t-68 163.5q0 35 4 51q20 115 107.5 186.5t209.5 71.5q106 0 173 -63.5t67 -163.5q0 -33 -4 -51q-20 -115 -106.5 -186.5t-208.5 -71.5zM463 971q72 0 127 45.5t69 128.5q5 30 5 37q0 63 -40 100t-102 37q-73 0 -128.5 -45.5t-69.5 -128.5
q-5 -30 -5 -37q0 -62 41.5 -99.5t102.5 -37.5z" />
    <glyph glyph-name="plusminus" unicode="&#xb1;" horiz-adv-x="999" 
d="M457 500l51 299h-297l18 106h297l56 299h104l-55 -299h299l-19 -106h-299l-51 -299h-104zM125 229l18 105h674l-18 -105h-674z" />
    <glyph glyph-name="acute" unicode="&#xb4;" horiz-adv-x="548" 
d="M287 1100l-60 78l308 227l71 -109z" />
    <glyph glyph-name="uni00B5" unicode="&#xb5;" horiz-adv-x="1075" 
d="M868 899h127l-159 -899h-105l12 162q-124 -174 -311 -174q-157 0 -221 110q-9 -109 -41 -282l-43 -254h-125l236 1337h124l-90 -504q-8 -44 -8 -92q0 -199 176 -199q138 0 231 105t120 256z" />
    <glyph glyph-name="paragraph" unicode="&#xb6;" horiz-adv-x="1228" 
d="M358 -186l148 825q-142 2 -232 89t-90 224q0 34 6 72q30 167 147 268t296 101h555l-277 -1579h-120l256 1468h-308l-258 -1468h-123z" />
    <glyph glyph-name="periodcentered" unicode="&#xb7;" horiz-adv-x="520" 
d="M299 623q-45 0 -69.5 28.5t-18.5 73.5q7 38 36.5 62t67.5 24q39 0 63.5 -23t24.5 -59q0 -12 -2 -20q-6 -38 -34.5 -62t-67.5 -24z" />
    <glyph glyph-name="cedilla" unicode="&#xb8;" horiz-adv-x="608" 
d="M154 -434q-121 0 -203 57l51 80q58 -43 139 -43q54 0 93.5 20.5t46.5 59.5q10 44 -33 68t-117 24q-29 0 -43 -2l100 170h109l-72 -106q75 -6 120.5 -45t45.5 -99q0 -89 -69 -136.5t-168 -47.5z" />
    <glyph glyph-name="ordmasculine" unicode="&#xba;" horiz-adv-x="663" 
d="M424 924q-88 0 -138 55.5t-50 148.5q0 32 6 70q20 116 90.5 186t167.5 70q87 0 137.5 -56.5t50.5 -150.5q0 -31 -6 -65q-22 -118 -90.5 -188t-167.5 -70zM428 1010q74 0 122 66t48 171q0 59 -26.5 91t-75.5 32q-59 0 -104.5 -48.5t-57.5 -129.5q-6 -34 -6 -62
q0 -58 25.5 -89t74.5 -31zM184 717l17 82h393l-14 -82h-396z" />
    <glyph glyph-name="guillemotright" unicode="&#xbb;" horiz-adv-x="819" 
d="M143 106l-88 58l262 352l-133 326l97 47l178 -385zM446 106l-86 58l252 352l-149 326l96 47l195 -385z" />
    <glyph glyph-name="onequarter" unicode="&#xbc;" horiz-adv-x="1290" 
d="M276 813l76 412l-102 -84l-53 59l247 203h21l-103 -590h-86zM100 0l967 1393h104l-964 -1393h-107zM938 0l18 106h-286l2 19l434 465h20l-69 -406h73l-12 -78h-76l-18 -106h-86zM834 184h137l33 185z" />
    <glyph glyph-name="onehalf" unicode="&#xbd;" horiz-adv-x="1333" 
d="M352 1225l-102 -84l-53 59l247 203h21l-103 -590h-86zM1067 1393h104l-964 -1393h-107zM1214 420q-9 -81 -86 -158l-174 -180h222l-13 -82h-385v20l287 295q54 57 63 111q5 41 -12 64.5t-53 23.5q-73 0 -105 -72l-81 29q61 129 192 129q64 0 106 -42t42 -107
q0 -16 -3 -31z" />
    <glyph glyph-name="threequarters" unicode="&#xbe;" horiz-adv-x="1460" 
d="M356 793q-57 0 -104 21t-76 56l53 60q45 -56 127 -56q65 0 103.5 34t38.5 87q0 36 -24.5 59t-67.5 23h-84l16 80h57q44 0 78.5 23t42.5 67q2 6 2 17q0 31 -22 48t-56 17q-63 0 -106 -43l-55 66q75 61 174 61q60 0 106.5 -38.5t46.5 -100.5q0 -50 -27.5 -91.5t-80.5 -62.5
q37 -9 63.5 -47.5t26.5 -83.5q0 -14 -2 -20q-15 -84 -76.5 -130t-153.5 -46zM270 0l967 1393h104l-964 -1393h-107zM1108 0l18 106h-286l2 19l434 465h20l-69 -406h73l-12 -78h-76l-18 -106h-86zM1004 184h137l33 185z" />
    <glyph glyph-name="questiondown" unicode="&#xbf;" horiz-adv-x="864" 
d="M575 840q39 0 64 -23t25 -59q0 -15 -2 -23q-6 -38 -35 -62t-68 -24q-40 0 -64 24t-24 62q0 45 30.5 75t73.5 30zM590 485q-7 -82 -24 -149.5t-37 -113t-56 -90.5t-63.5 -72t-75.5 -68q-21 -18 -61.5 -51t-61.5 -52t-47.5 -47t-41 -57t-20.5 -61q-2 -10 -2 -33
q0 -69 47.5 -116.5t139.5 -47.5q164 0 305 129l70 -98q-166 -152 -381 -152q-146 0 -231 84t-85 197q0 17 4 45q5 26 14.5 51.5t18.5 45t30.5 45.5t32.5 40t43 43.5t44.5 40.5t54 46.5t55.5 47.5q47 41 74.5 70.5t58.5 76.5t48 107.5t22 138.5h125z" />
    <glyph glyph-name="Agrave" unicode="&#xc0;" horiz-adv-x="1392" 
d="M1040 1626l-65 -63l-260 204l92 93zM885 1403l405 -1397v-6h-135l-92 319h-764l-203 -319h-145v4l889 1399h45zM825 1155q-34 -65 -108 -180l-340 -533h653l-153 531q-9 32 -26.5 92t-25.5 90z" />
    <glyph glyph-name="Aacute" unicode="&#xc1;" horiz-adv-x="1392" 
d="M1110 1757l-319 -194l-58 75l307 228zM885 1403l405 -1397v-6h-135l-92 319h-764l-203 -319h-145v4l889 1399h45zM825 1155q-34 -65 -108 -180l-340 -533h653l-153 531q-9 32 -26.5 92t-25.5 90z" />
    <glyph glyph-name="Acircumflex" unicode="&#xc2;" horiz-adv-x="1392" 
d="M924 1694l-244 -154l-55 72l299 209h28l232 -215l-64 -66zM885 1403l405 -1397v-6h-135l-92 319h-764l-203 -319h-145v4l889 1399h45zM825 1155q-34 -65 -108 -180l-340 -533h653l-153 531q-9 32 -26.5 92t-25.5 90z" />
    <glyph glyph-name="Atilde" unicode="&#xc3;" horiz-adv-x="1392" 
d="M913 1636q-60 31 -94 31q-63 0 -100 -78l-88 58q59 133 168 133q61 0 141 -41q53 -29 86 -29q52 0 96 76l86 -60q-67 -129 -168 -129q-59 0 -127 39zM885 1403l405 -1397v-6h-135l-92 319h-764l-203 -319h-145v4l889 1399h45zM825 1155q-34 -65 -108 -180l-340 -533h653
l-153 531q-9 32 -26.5 92t-25.5 90z" />
    <glyph glyph-name="Adieresis" unicode="&#xc4;" horiz-adv-x="1392" 
d="M717 1608q-38 0 -60 21.5t-22 53.5q0 36 26.5 65.5t67.5 29.5q38 0 59 -22.5t21 -53.5q0 -35 -25 -64.5t-67 -29.5zM1110 1608q-38 0 -59 22t-21 53q0 35 26.5 65t65.5 30q38 0 59 -22t21 -52q0 -15 -2 -21q-5 -31 -29 -53t-61 -22zM885 1403l405 -1397v-6h-135l-92 319
h-764l-203 -319h-145v4l889 1399h45zM825 1155q-34 -65 -108 -180l-340 -533h653l-153 531q-9 32 -26.5 92t-25.5 90z" />
    <glyph glyph-name="Aring" unicode="&#xc5;" horiz-adv-x="1392" 
d="M895 1493q-83 0 -136.5 49t-53.5 127q0 95 70.5 160t168.5 65q84 0 137.5 -49t53.5 -127q0 -95 -71.5 -160t-168.5 -65zM795 1673q0 -43 27.5 -70.5t74.5 -27.5q63 0 105 40t42 99q0 45 -28.5 73t-75.5 28q-61 0 -103 -41t-42 -101zM885 1403l405 -1397v-6h-135l-92 319
h-764l-203 -319h-145v4l889 1399h45zM825 1155q-34 -65 -108 -180l-340 -533h653l-153 531q-9 32 -26.5 92t-25.5 90z" />
    <glyph glyph-name="AE" unicode="&#xc6;" horiz-adv-x="1746" 
d="M1786 1270h-617l-86 -492h539l-18 -119h-543l-94 -536h637l-23 -123h-764l57 324h-536l-266 -324h-154v6l1149 1387h741zM987 963q4 28 10 59.5t14 72.5t13 68q-54 -75 -125 -159l-463 -562h459z" />
    <glyph glyph-name="Ccedilla" unicode="&#xc7;" horiz-adv-x="1425" 
d="M979 1417q305 0 494 -227l-91 -74q-74 87 -171.5 132.5t-239.5 45.5q-169 0 -314.5 -80.5t-239.5 -216.5t-122 -303q-10 -68 -10 -119q0 -134 52.5 -240.5t160 -171.5t254.5 -65q152 0 271.5 61t229.5 179l84 -82q-233 -257 -530 -279l-57 -83q74 -6 121 -44.5t47 -99.5
q0 -17 -7 -45q-20 -69 -82.5 -106t-148.5 -37q-126 0 -203 57l51 80q57 -45 140 -45q53 0 90.5 21t46.5 59q4 16 4 22q0 43 -56.5 60t-138.5 14l84 147q-252 15 -400 178.5t-148 409.5q0 71 12 144q26 147 98 276.5t176.5 225t245.5 151t297 55.5z" />
    <glyph glyph-name="Egrave" unicode="&#xc8;" horiz-adv-x="1144" 
d="M961 1626l-66 -63l-260 204l92 93zM1192 1270h-707l-88 -496h617l-23 -119h-614l-94 -532h718l-22 -123h-852l244 1393h841z" />
    <glyph glyph-name="Eacute" unicode="&#xc9;" horiz-adv-x="1144" 
d="M1030 1757l-319 -194l-58 75l308 228zM1192 1270h-707l-88 -496h617l-23 -119h-614l-94 -532h718l-22 -123h-852l244 1393h841z" />
    <glyph glyph-name="Ecircumflex" unicode="&#xca;" horiz-adv-x="1144" 
d="M844 1694l-244 -154l-55 72l299 209h28l232 -215l-64 -66zM1192 1270h-707l-88 -496h617l-23 -119h-614l-94 -532h718l-22 -123h-852l244 1393h841z" />
    <glyph glyph-name="Edieresis" unicode="&#xcb;" horiz-adv-x="1144" 
d="M637 1608q-38 0 -60 21.5t-22 53.5q0 36 26.5 65.5t67.5 29.5q38 0 59 -22.5t21 -53.5q0 -35 -25 -64.5t-67 -29.5zM1030 1608q-38 0 -59 22t-21 53q0 35 26.5 65t65.5 30q38 0 59 -22t21 -52q0 -15 -2 -21q-5 -31 -29 -53t-61 -22zM1192 1270h-707l-88 -496h617
l-23 -119h-614l-94 -532h718l-22 -123h-852l244 1393h841z" />
    <glyph glyph-name="Igrave" unicode="&#xcc;" horiz-adv-x="546" 
d="M547 1563l-260 204l92 93l233 -234zM127 0l244 1393h133l-244 -1393h-133z" />
    <glyph glyph-name="Iacute" unicode="&#xcd;" horiz-adv-x="546" 
d="M362 1563l-57 75l307 228l70 -109zM127 0l244 1393h133l-244 -1393h-133z" />
    <glyph glyph-name="Icircumflex" unicode="&#xce;" horiz-adv-x="546" 
d="M252 1540l-55 72l299 209h28l232 -215l-64 -66l-196 154zM127 0l244 1393h133l-244 -1393h-133z" />
    <glyph glyph-name="Idieresis" unicode="&#xcf;" horiz-adv-x="546" 
d="M289 1608q-38 0 -60 21.5t-22 53.5q0 36 26.5 65.5t67.5 29.5q38 0 59 -22.5t21 -53.5q0 -35 -25 -64.5t-67 -29.5zM682 1608q-38 0 -59 22t-21 53q0 35 26.5 65t65.5 30q38 0 59 -22t21 -52q0 -15 -2 -21q-5 -31 -29 -53t-61 -22zM127 0l244 1393h133l-244 -1393h-133z
" />
    <glyph glyph-name="Eth" unicode="&#xd0;" horiz-adv-x="1482" 
d="M821 1393q136 0 248.5 -43t189 -119t118.5 -181.5t42 -228.5q0 -65 -12 -135q-56 -316 -276.5 -501t-548.5 -185h-453l117 662h-137l18 100h137l111 631h446zM1276 702q10 65 10 113q0 96 -31 177.5t-90 144t-153 98t-213 35.5h-312l-90 -508h402l-19 -100h-401l-94 -539
h311q259 0 446.5 161.5t233.5 417.5z" />
    <glyph glyph-name="Ntilde" unicode="&#xd1;" horiz-adv-x="1564" 
d="M993 1636q-60 31 -94 31q-63 0 -100 -78l-88 58q59 133 168 133q61 0 141 -41q53 -29 86 -29q52 0 96 76l86 -60q-67 -129 -168 -129q-59 0 -127 39zM1391 1393h135l-248 -1403h-41l-674 981q-14 20 -50.5 72t-57.5 83q-16 -110 -35 -221l-160 -905h-135l248 1403h43
l653 -942q96 -134 125 -178q17 95 33 194z" />
    <glyph glyph-name="Ograve" unicode="&#xd2;" horiz-adv-x="1642" 
d="M1098 1563l-260 204l92 93l233 -234zM752 -25q-273 0 -439 163t-166 425q0 50 15 146q37 202 151 362.5t289.5 253t382.5 92.5q171 0 306.5 -77t211.5 -213t76 -306q0 -67 -12 -137q-26 -149 -99 -279.5t-178.5 -225.5t-245 -149.5t-292.5 -54.5zM756 98q257 0 445 168.5
t233 427.5q10 51 10 119q0 209 -128.5 345t-340.5 136q-256 0 -444 -167t-236 -429q-12 -64 -12 -127q0 -210 127 -341.5t346 -131.5z" />
    <glyph glyph-name="Oacute" unicode="&#xd3;" horiz-adv-x="1642" 
d="M913 1563l-57 75l307 228l70 -109zM752 -25q-273 0 -439 163t-166 425q0 50 15 146q37 202 151 362.5t289.5 253t382.5 92.5q171 0 306.5 -77t211.5 -213t76 -306q0 -67 -12 -137q-26 -149 -99 -279.5t-178.5 -225.5t-245 -149.5t-292.5 -54.5zM756 98q257 0 445 168.5
t233 427.5q10 51 10 119q0 209 -128.5 345t-340.5 136q-256 0 -444 -167t-236 -429q-12 -64 -12 -127q0 -210 127 -341.5t346 -131.5z" />
    <glyph glyph-name="Ocircumflex" unicode="&#xd4;" horiz-adv-x="1642" 
d="M803 1540l-55 72l299 209h28l232 -215l-64 -66l-196 154zM752 -25q-273 0 -439 163t-166 425q0 50 15 146q37 202 151 362.5t289.5 253t382.5 92.5q171 0 306.5 -77t211.5 -213t76 -306q0 -67 -12 -137q-26 -149 -99 -279.5t-178.5 -225.5t-245 -149.5t-292.5 -54.5z
M756 98q257 0 445 168.5t233 427.5q10 51 10 119q0 209 -128.5 345t-340.5 136q-256 0 -444 -167t-236 -429q-12 -64 -12 -127q0 -210 127 -341.5t346 -131.5z" />
    <glyph glyph-name="Otilde" unicode="&#xd5;" horiz-adv-x="1642" 
d="M840 1589l-88 58q59 133 168 133q61 0 141 -41q53 -29 86 -29q52 0 96 76l86 -60q-67 -129 -168 -129q-59 0 -127 39q-60 31 -94 31q-63 0 -100 -78zM752 -25q-273 0 -439 163t-166 425q0 50 15 146q37 202 151 362.5t289.5 253t382.5 92.5q171 0 306.5 -77t211.5 -213
t76 -306q0 -67 -12 -137q-26 -149 -99 -279.5t-178.5 -225.5t-245 -149.5t-292.5 -54.5zM756 98q257 0 445 168.5t233 427.5q10 51 10 119q0 209 -128.5 345t-340.5 136q-256 0 -444 -167t-236 -429q-12 -64 -12 -127q0 -210 127 -341.5t346 -131.5z" />
    <glyph glyph-name="Odieresis" unicode="&#xd6;" horiz-adv-x="1642" 
d="M838 1608q-38 0 -60 21.5t-22 53.5q0 36 26.5 65.5t67.5 29.5q38 0 59 -22.5t21 -53.5q0 -35 -25 -64.5t-67 -29.5zM1231 1608q-38 0 -59 22t-21 53q0 35 26.5 65t65.5 30q38 0 59 -22t21 -52q0 -15 -2 -21q-5 -31 -29 -53t-61 -22zM752 -25q-273 0 -439 163t-166 425
q0 50 15 146q37 202 151 362.5t289.5 253t382.5 92.5q171 0 306.5 -77t211.5 -213t76 -306q0 -67 -12 -137q-26 -149 -99 -279.5t-178.5 -225.5t-245 -149.5t-292.5 -54.5zM756 98q257 0 445 168.5t233 427.5q10 51 10 119q0 209 -128.5 345t-340.5 136q-256 0 -444 -167
t-236 -429q-12 -64 -12 -127q0 -210 127 -341.5t346 -131.5z" />
    <glyph glyph-name="multiply" unicode="&#xd7;" horiz-adv-x="1015" 
d="M248 362l-76 82l299 258l-207 254l86 74l209 -254l295 254l76 -82l-299 -258l207 -254l-86 -74l-209 254z" />
    <glyph glyph-name="Oslash" unicode="&#xd8;" horiz-adv-x="1642" 
d="M1391 1268q90 -80 139 -195.5t49 -251.5q0 -67 -12 -137q-26 -149 -99 -279t-178.5 -224.5t-245 -149t-292.5 -54.5q-226 0 -381 115l-168 -192l-80 61l172 197q-148 161 -148 403q0 52 15 148q28 150 101 280t179.5 224t247 148t295.5 54q186 0 328 -90l164 188l79 -57z
M295 698q-12 -64 -12 -127q0 -189 104 -311l842 965q-111 65 -254 65q-256 0 -444 -166t-236 -426zM1434 694q10 51 10 119q0 221 -141 356l-846 -976q121 -91 299 -91q257 0 445 167t233 425z" />
    <glyph glyph-name="Ugrave" unicode="&#xd9;" horiz-adv-x="1441" 
d="M987 1563l-260 204l92 93l234 -234zM649 -25q-205 0 -335 106.5t-130 289.5q0 43 9 92l161 930h135l-165 -940q-7 -47 -7 -76q0 -135 90.5 -207t243.5 -72q195 0 317.5 97t153.5 272l162 926h133l-164 -940q-41 -233 -198 -355.5t-406 -122.5z" />
    <glyph glyph-name="Uacute" unicode="&#xda;" horiz-adv-x="1441" 
d="M803 1563l-58 75l308 228l69 -109zM649 -25q-205 0 -335 106.5t-130 289.5q0 43 9 92l161 930h135l-165 -940q-7 -47 -7 -76q0 -135 90.5 -207t243.5 -72q195 0 317.5 97t153.5 272l162 926h133l-164 -940q-41 -233 -198 -355.5t-406 -122.5z" />
    <glyph glyph-name="Ucircumflex" unicode="&#xdb;" horiz-adv-x="1441" 
d="M692 1540l-55 72l299 209h29l231 -215l-63 -66l-197 154zM649 -25q-205 0 -335 106.5t-130 289.5q0 43 9 92l161 930h135l-165 -940q-7 -47 -7 -76q0 -135 90.5 -207t243.5 -72q195 0 317.5 97t153.5 272l162 926h133l-164 -940q-41 -233 -198 -355.5t-406 -122.5z" />
    <glyph glyph-name="Udieresis" unicode="&#xdc;" horiz-adv-x="1441" 
d="M727 1608q-38 0 -60 21.5t-22 53.5q0 36 26.5 65.5t67.5 29.5q38 0 59 -22.5t21 -53.5q0 -35 -25 -64.5t-67 -29.5zM1120 1608q-38 0 -59 22t-21 53q0 35 27 65t66 30q37 0 58 -22t21 -52q0 -15 -2 -21q-5 -31 -29 -53t-61 -22zM649 -25q-205 0 -335 106.5t-130 289.5
q0 43 9 92l161 930h135l-165 -940q-7 -47 -7 -76q0 -135 90.5 -207t243.5 -72q195 0 317.5 97t153.5 272l162 926h133l-164 -940q-41 -233 -198 -355.5t-406 -122.5z" />
    <glyph glyph-name="Yacute" unicode="&#xdd;" horiz-adv-x="1284" 
d="M717 1563l-58 75l308 228l69 -109zM496 0l114 643l-397 750h139l256 -480q40 -73 80 -157q33 46 127 153l426 484h164l-662 -750l-112 -643h-135z" />
    <glyph glyph-name="Thorn" unicode="&#xde;" horiz-adv-x="1212" 
d="M127 0l244 1393h137l-45 -254h358q92 0 165 -31t117.5 -82.5t67.5 -115.5t23 -134q0 -34 -6 -69q-14 -83 -50 -154t-97 -130.5t-158.5 -93.5t-220.5 -34h-347l-53 -295h-135zM338 418h336q85 0 155 24.5t115.5 67t73 94t37.5 109.5q6 35 6 63q0 109 -67.5 174.5
t-188.5 65.5h-363z" />
    <glyph glyph-name="germandbls" unicode="&#xdf;" horiz-adv-x="1042" 
d="M569 -12q-113 0 -223 49l43 102q78 -37 172 -37q110 0 190 55.5t80 149.5q0 46 -23.5 87.5t-57.5 74.5t-67.5 67t-57 79t-23.5 96q0 15 4 43q11 58 41 106.5t66.5 82.5t72.5 67t65 76.5t38 93.5q4 24 4 34q0 72 -52 113t-132 41q-266 -3 -326 -360l-178 -1008h-125
l180 1024q37 214 150 337.5t307 123.5q133 0 219 -68.5t86 -191.5q0 -32 -6 -62q-11 -63 -42 -115t-68.5 -87.5t-74 -67.5t-65 -70t-35.5 -80q-2 -8 -2 -22q0 -37 23.5 -72t56.5 -66.5t66.5 -66.5t57 -85.5t23.5 -108.5q0 -108 -56 -185.5t-142 -113t-189 -35.5z" />
    <glyph glyph-name="agrave" unicode="&#xe0;" horiz-adv-x="1181" 
d="M836 1163l-68 -63l-258 205l92 90zM1006 905h96l-160 -905h-98l10 143q-150 -163 -377 -163q-179 0 -283 109.5t-104 279.5q0 42 10 100q36 200 177 327.5t341 127.5q112 0 198 -47t134 -132zM901 449q8 36 8 79q0 123 -75.5 201t-217.5 78q-147 0 -254 -96t-137 -248
q-8 -39 -8 -84q0 -128 76.5 -205.5t208.5 -77.5q155 0 263 102.5t136 250.5z" />
    <glyph glyph-name="aacute" unicode="&#xe1;" horiz-adv-x="1181" 
d="M905 1294l-319 -196l-60 78l308 227zM1006 905h96l-160 -905h-98l10 143q-150 -163 -377 -163q-179 0 -283 109.5t-104 279.5q0 42 10 100q36 200 177 327.5t341 127.5q112 0 198 -47t134 -132zM901 449q8 36 8 79q0 123 -75.5 201t-217.5 78q-147 0 -254 -96t-137 -248
q-8 -39 -8 -84q0 -128 76.5 -205.5t208.5 -77.5q155 0 263 102.5t136 250.5z" />
    <glyph glyph-name="acircumflex" unicode="&#xe2;" horiz-adv-x="1181" 
d="M721 1231l-244 -154l-55 72l299 209h31l229 -215l-63 -66zM1006 905h96l-160 -905h-98l10 143q-150 -163 -377 -163q-179 0 -283 109.5t-104 279.5q0 42 10 100q36 200 177 327.5t341 127.5q112 0 198 -47t134 -132zM901 449q8 36 8 79q0 123 -75.5 201t-217.5 78
q-147 0 -254 -96t-137 -248q-8 -39 -8 -84q0 -128 76.5 -205.5t208.5 -77.5q155 0 263 102.5t136 250.5z" />
    <glyph glyph-name="atilde" unicode="&#xe3;" horiz-adv-x="1181" 
d="M614 1200q-55 0 -94 -76l-84 56q59 127 162 127q47 0 119.5 -34t97.5 -34q51 0 90 74l84 -58q-67 -122 -162 -122q-43 0 -113.5 33.5t-99.5 33.5zM1006 905h96l-160 -905h-98l10 143q-150 -163 -377 -163q-179 0 -283 109.5t-104 279.5q0 42 10 100q36 200 177 327.5
t341 127.5q112 0 198 -47t134 -132zM901 449q8 36 8 79q0 123 -75.5 201t-217.5 78q-147 0 -254 -96t-137 -248q-8 -39 -8 -84q0 -128 76.5 -205.5t208.5 -77.5q155 0 263 102.5t136 250.5z" />
    <glyph glyph-name="adieresis" unicode="&#xe4;" horiz-adv-x="1181" 
d="M506 1147q-41 0 -63.5 23t-22.5 57q0 36 28 67t70 31q39 0 61.5 -23.5t22.5 -56.5q0 -36 -27 -67t-69 -31zM918 1147q-40 0 -61 24t-21 58q0 37 26 66.5t68 29.5q40 0 62 -24t22 -58q0 -35 -27 -65.5t-69 -30.5zM1006 905h96l-160 -905h-98l10 143q-150 -163 -377 -163
q-179 0 -283 109.5t-104 279.5q0 42 10 100q36 200 177 327.5t341 127.5q112 0 198 -47t134 -132zM901 449q8 36 8 79q0 123 -75.5 201t-217.5 78q-147 0 -254 -96t-137 -248q-8 -39 -8 -84q0 -128 76.5 -205.5t208.5 -77.5q155 0 263 102.5t136 250.5z" />
    <glyph glyph-name="aring" unicode="&#xe5;" horiz-adv-x="1181" 
d="M690 1032q-83 0 -135.5 48.5t-52.5 125.5q0 93 71 157t166 64q82 0 135.5 -48t53.5 -124q0 -92 -71.5 -157.5t-166.5 -65.5zM592 1208q0 -42 27.5 -68t72.5 -26q63 0 104.5 39t41.5 98q0 43 -28 71t-75 28q-61 0 -102 -41.5t-41 -100.5zM1006 905h96l-160 -905h-98
l10 143q-150 -163 -377 -163q-179 0 -283 109.5t-104 279.5q0 42 10 100q36 200 177 327.5t341 127.5q112 0 198 -47t134 -132zM901 449q8 36 8 79q0 123 -75.5 201t-217.5 78q-147 0 -254 -96t-137 -248q-8 -39 -8 -84q0 -128 76.5 -205.5t208.5 -77.5q155 0 263 102.5
t136 250.5z" />
    <glyph glyph-name="ae" unicode="&#xe6;" horiz-adv-x="1710" 
d="M1376 924q130 0 206.5 -65.5t76.5 -176.5q0 -110 -78 -188.5t-209 -116t-303 -37.5q-32 0 -102 4q5 -117 71 -182.5t187 -65.5q91 0 159.5 21t137.5 67l51 -90q-162 -114 -352 -114q-103 0 -179.5 43.5t-115.5 119.5l-37 -143h-98l12 141q-70 -76 -164 -118.5t-195 -42.5
q-167 0 -260.5 103t-93.5 271q0 244 145.5 407t368.5 163q213 0 305 -164l41 145h97l-11 -139q62 76 150 117t190 41zM975 453q31 -2 90 -2q137 0 240.5 22.5t167 73t65.5 125.5q0 66 -44 101.5t-130 35.5q-153 0 -257.5 -99t-131.5 -257zM479 96q167 0 276 127t109 309
q0 127 -66.5 201t-193.5 74q-168 0 -278.5 -125.5t-110.5 -312.5q0 -127 67 -200t197 -73z" />
    <glyph glyph-name="ccedilla" unicode="&#xe7;" horiz-adv-x="948" 
d="M629 926q97 0 170 -32.5t135 -100.5l-82 -80q-84 96 -225 96q-142 0 -259.5 -98t-144.5 -256q-6 -37 -6 -74q0 -127 74.5 -207t200.5 -80q88 0 152.5 25t135.5 86l58 -94q-133 -116 -299 -131l-60 -86q75 -6 120.5 -45t45.5 -99q0 -89 -69 -136.5t-168 -47.5
q-121 0 -203 57l51 80q58 -43 139 -43q54 0 93.5 20.5t46.5 59.5q10 44 -33 68t-117 24q-29 0 -43 -2l88 150q-146 18 -243 122t-97 267q0 42 10 100q37 210 187 333.5t342 123.5z" />
    <glyph glyph-name="egrave" unicode="&#xe8;" horiz-adv-x="966" 
d="M786 1165l-67 -63l-258 205l92 90zM915 680q0 -91 -50 -159t-136 -106t-187 -55.5t-218 -17.5q-53 0 -107 4q9 -114 85.5 -182t191.5 -68q80 0 146.5 19t137.5 67l49 -98q-160 -104 -344 -104q-173 0 -283 109.5t-110 272.5q0 152 69.5 281.5t193 206t272.5 76.5
q134 0 212 -66.5t78 -179.5zM223 457q50 -4 99 -4q90 0 167.5 10.5t149.5 33.5t114 68.5t42 108.5q0 65 -46 100t-124 35q-152 0 -263 -103.5t-139 -248.5z" />
    <glyph glyph-name="eacute" unicode="&#xe9;" horiz-adv-x="966" 
d="M856 1296l-319 -196l-60 78l307 227zM915 680q0 -91 -50 -159t-136 -106t-187 -55.5t-218 -17.5q-53 0 -107 4q9 -114 85.5 -182t191.5 -68q80 0 146.5 19t137.5 67l49 -98q-160 -104 -344 -104q-173 0 -283 109.5t-110 272.5q0 152 69.5 281.5t193 206t272.5 76.5
q134 0 212 -66.5t78 -179.5zM223 457q50 -4 99 -4q90 0 167.5 10.5t149.5 33.5t114 68.5t42 108.5q0 65 -46 100t-124 35q-152 0 -263 -103.5t-139 -248.5z" />
    <glyph glyph-name="ecircumflex" unicode="&#xea;" horiz-adv-x="966" 
d="M670 1233l-244 -154l-55 72l299 209h30l230 -215l-64 -66zM625 926q134 0 212 -66.5t78 -179.5q0 -91 -50 -159t-136 -106t-187 -55.5t-218 -17.5q-53 0 -107 4q9 -114 85.5 -182t191.5 -68q80 0 146.5 19t137.5 67l49 -98q-160 -104 -344 -104q-173 0 -283 109.5
t-110 272.5q0 152 69.5 281.5t193 206t272.5 76.5zM322 453q90 0 167.5 10.5t149.5 33.5t114 68.5t42 108.5q0 65 -46 100t-124 35q-152 0 -263 -103.5t-139 -248.5q50 -4 99 -4z" />
    <glyph glyph-name="edieresis" unicode="&#xeb;" horiz-adv-x="966" 
d="M455 1149q-41 0 -63.5 23t-22.5 57q0 36 28 67t70 31q39 0 61.5 -23.5t22.5 -56.5q0 -36 -27 -67t-69 -31zM879 1327q40 0 62 -24t22 -58q0 -35 -27.5 -65.5t-69.5 -30.5q-40 0 -61 24t-21 58q0 36 26.5 66t68.5 30zM625 926q134 0 212 -66.5t78 -179.5q0 -91 -50 -159
t-136 -106t-187 -55.5t-218 -17.5q-53 0 -107 4q9 -114 85.5 -182t191.5 -68q80 0 146.5 19t137.5 67l49 -98q-160 -104 -344 -104q-173 0 -283 109.5t-110 272.5q0 152 69.5 281.5t193 206t272.5 76.5zM322 453q90 0 167.5 10.5t149.5 33.5t114 68.5t42 108.5q0 65 -46 100
t-124 35q-152 0 -263 -103.5t-139 -248.5q50 -4 99 -4z" />
    <glyph glyph-name="igrave" unicode="&#xec;" horiz-adv-x="444" 
d="M414 1102l-258 205l92 90l233 -232zM80 0l160 905h125l-160 -905h-125z" />
    <glyph glyph-name="iacute" unicode="&#xed;" horiz-adv-x="444" 
d="M231 1100l-59 78l307 227l72 -109zM80 0l160 905h125l-160 -905h-125z" />
    <glyph glyph-name="icircumflex" unicode="&#xee;" horiz-adv-x="444" 
d="M121 1079l-55 72l299 209h30l230 -215l-64 -66l-196 154zM80 0l160 905h125l-160 -905h-125z" />
    <glyph glyph-name="idieresis" unicode="&#xef;" horiz-adv-x="444" 
d="M203 1149q-43 0 -64.5 27.5t-15.5 64.5q7 32 31.5 55t60.5 23q38 0 59 -21.5t21 -52.5q0 -36 -25.5 -66t-66.5 -30zM504 1149q-39 0 -58.5 23t-19.5 57t25 62t65 28q38 0 59 -22.5t21 -53.5q0 -37 -25 -65.5t-67 -28.5zM80 0l160 905h125l-160 -905h-125z" />
    <glyph glyph-name="eth" unicode="&#xf0;" horiz-adv-x="1071" 
d="M813 1229q178 -224 178 -543q0 -101 -18 -209q-25 -140 -92.5 -252t-177.5 -180t-244 -68q-160 0 -265.5 100t-105.5 269q0 50 8 94q35 200 170 319.5t316 119.5q193 0 295 -152q-18 263 -160 438l-207 -133l-59 92l188 123q-87 79 -215 133l59 99q152 -70 256 -168
l179 114l59 -92zM848 481q2 14 2 39q0 110 -72 178t-188 68q-138 0 -242.5 -95t-130.5 -247q-6 -40 -6 -76q0 -119 65 -186.5t181 -67.5q155 0 258 111t133 276z" />
    <glyph glyph-name="ntilde" unicode="&#xf1;" horiz-adv-x="1069" 
d="M557 1202q-55 0 -94 -76l-84 56q59 127 162 127q47 0 119.5 -34t97.5 -34q51 0 90 74l84 -58q-67 -122 -162 -122q-43 0 -113.5 33.5t-99.5 33.5zM676 924q133 0 203.5 -69.5t70.5 -201.5q0 -38 -10 -100l-98 -553h-125l100 565q6 37 6 70q0 82 -44.5 127t-135.5 45
q-138 0 -235.5 -103t-126.5 -264l-76 -440h-125l160 905h92l2 -160q59 79 147 129t195 50z" />
    <glyph glyph-name="ograve" unicode="&#xf2;" horiz-adv-x="1134" 
d="M750 1102l-258 205l92 90l233 -232zM492 -20q-180 0 -291 110t-111 281q0 51 8 92q36 202 183 332.5t360 130.5q181 0 291 -109.5t110 -281.5q0 -51 -8 -95q-36 -204 -182 -332t-360 -128zM500 96q159 0 271 99t140 258q7 44 7 71q0 128 -76.5 206.5t-208.5 78.5
q-158 0 -270.5 -102t-139.5 -254q-6 -40 -6 -76q0 -126 76.5 -203.5t206.5 -77.5z" />
    <glyph glyph-name="oacute" unicode="&#xf3;" horiz-adv-x="1134" 
d="M567 1100l-59 78l307 227l72 -109zM492 -20q-180 0 -291 110t-111 281q0 51 8 92q36 202 183 332.5t360 130.5q181 0 291 -109.5t110 -281.5q0 -51 -8 -95q-36 -204 -182 -332t-360 -128zM500 96q159 0 271 99t140 258q7 44 7 71q0 128 -76.5 206.5t-208.5 78.5
q-158 0 -270.5 -102t-139.5 -254q-6 -40 -6 -76q0 -126 76.5 -203.5t206.5 -77.5z" />
    <glyph glyph-name="ocircumflex" unicode="&#xf4;" horiz-adv-x="1134" 
d="M459 1079l-56 72l299 209h31l230 -215l-64 -66l-197 154zM492 -20q-180 0 -291 110t-111 281q0 51 8 92q36 202 183 332.5t360 130.5q181 0 291 -109.5t110 -281.5q0 -51 -8 -95q-36 -204 -182 -332t-360 -128zM500 96q159 0 271 99t140 258q7 44 7 71q0 128 -76.5 206.5
t-208.5 78.5q-158 0 -270.5 -102t-139.5 -254q-6 -40 -6 -76q0 -126 76.5 -203.5t206.5 -77.5z" />
    <glyph glyph-name="otilde" unicode="&#xf5;" horiz-adv-x="1134" 
d="M502 1126l-84 56q59 127 162 127q47 0 119.5 -34t97.5 -34q51 0 90 74l84 -58q-67 -122 -162 -122q-43 0 -113.5 33.5t-99.5 33.5q-55 0 -94 -76zM492 -20q-180 0 -291 110t-111 281q0 51 8 92q36 202 183 332.5t360 130.5q181 0 291 -109.5t110 -281.5q0 -51 -8 -95
q-36 -204 -182 -332t-360 -128zM500 96q159 0 271 99t140 258q7 44 7 71q0 128 -76.5 206.5t-208.5 78.5q-158 0 -270.5 -102t-139.5 -254q-6 -40 -6 -76q0 -126 76.5 -203.5t206.5 -77.5z" />
    <glyph glyph-name="odieresis" unicode="&#xf6;" horiz-adv-x="1134" 
d="M487 1149q-41 0 -63.5 23t-22.5 57q0 36 28.5 67t70.5 31q39 0 61.5 -23.5t22.5 -56.5q0 -36 -27.5 -67t-69.5 -31zM899 1149q-40 0 -61 24t-21 58q0 37 26 66.5t68 29.5q40 0 62 -24t22 -58q0 -35 -27 -65.5t-69 -30.5zM492 -20q-180 0 -291 110t-111 281q0 51 8 92
q36 202 183 332.5t360 130.5q181 0 291 -109.5t110 -281.5q0 -51 -8 -95q-36 -204 -182 -332t-360 -128zM500 96q159 0 271 99t140 258q7 44 7 71q0 128 -76.5 206.5t-208.5 78.5q-158 0 -270.5 -102t-139.5 -254q-6 -40 -6 -76q0 -126 76.5 -203.5t206.5 -77.5z" />
    <glyph glyph-name="divide" unicode="&#xf7;" horiz-adv-x="1138" 
d="M659 954q-40 0 -64 24t-24 62q0 43 32 75t73 32t65.5 -23.5t24.5 -62.5q0 -44 -32 -75.5t-75 -31.5zM188 655l19 111h835l-18 -111h-836zM545 289q-40 0 -65 22.5t-25 59.5q0 12 2 20q6 38 35.5 64t66.5 26q39 0 63.5 -23.5t24.5 -60.5q0 -14 -2 -22q-4 -36 -33.5 -61
t-66.5 -25z" />
    <glyph glyph-name="oslash" unicode="&#xf8;" horiz-adv-x="1134" 
d="M936 817q108 -108 108 -278q0 -41 -10 -99q-36 -204 -182.5 -332t-359.5 -128q-127 0 -224 57l-96 -115l-70 58l97 112q-109 109 -109 279q0 51 8 92q36 202 184.5 332.5t360.5 130.5q123 0 221 -56l97 113l71 -53zM223 453q-6 -40 -6 -74q0 -118 66 -193l501 588
q-62 35 -149 35q-159 0 -272 -102t-140 -254zM911 453q7 44 7 73q0 120 -66 195l-504 -588q61 -37 152 -37q158 0 270.5 99.5t140.5 257.5z" />
    <glyph glyph-name="ugrave" unicode="&#xf9;" horiz-adv-x="1064" 
d="M782 1165l-67 -63l-258 205l92 90zM858 905h125l-158 -905h-98l2 154q-54 -76 -140.5 -123t-189.5 -47q-132 0 -205 76.5t-73 205.5q0 24 8 82l98 557h125l-102 -573q-4 -18 -4 -56q0 -80 43.5 -128t130.5 -48q140 0 236.5 102t125.5 263z" />
    <glyph glyph-name="uacute" unicode="&#xfa;" horiz-adv-x="1064" 
d="M850 1296l-320 -196l-59 78l307 227zM858 905h125l-158 -905h-98l2 154q-54 -76 -140.5 -123t-189.5 -47q-132 0 -205 76.5t-73 205.5q0 24 8 82l98 557h125l-102 -573q-4 -18 -4 -56q0 -80 43.5 -128t130.5 -48q140 0 236.5 102t125.5 263z" />
    <glyph glyph-name="ucircumflex" unicode="&#xfb;" horiz-adv-x="1064" 
d="M666 1233l-244 -154l-55 72l299 209h30l230 -215l-64 -66zM858 905h125l-158 -905h-98l2 154q-54 -76 -140.5 -123t-189.5 -47q-132 0 -205 76.5t-73 205.5q0 24 8 82l98 557h125l-102 -573q-4 -18 -4 -56q0 -80 43.5 -128t130.5 -48q140 0 236.5 102t125.5 263z" />
    <glyph glyph-name="udieresis" unicode="&#xfc;" horiz-adv-x="1064" 
d="M451 1149q-41 0 -63.5 23t-22.5 57q0 36 28 67t70 31q39 0 61.5 -23.5t22.5 -56.5q0 -36 -27 -67t-69 -31zM862 1149q-40 0 -61 24t-21 58q0 37 26 66.5t68 29.5q40 0 62 -24t22 -58q0 -35 -27 -65.5t-69 -30.5zM858 905h125l-158 -905h-98l2 154q-54 -76 -140.5 -123
t-189.5 -47q-132 0 -205 76.5t-73 205.5q0 24 8 82l98 557h125l-102 -573q-4 -18 -4 -56q0 -80 43.5 -128t130.5 -48q140 0 236.5 102t125.5 263z" />
    <glyph glyph-name="yacute" unicode="&#xfd;" horiz-adv-x="946" 
d="M786 1296l-319 -196l-59 78l307 227zM858 905h137v-4l-778 -1352h-137v5l285 481l-254 866v4h125l184 -631q3 -11 12 -46t14 -56q7 18 16 34.5t21 37.5t17 30z" />
    <glyph glyph-name="thorn" unicode="&#xfe;" horiz-adv-x="1181" 
d="M705 924q177 0 282 -109.5t105 -277.5q0 -37 -11 -97q-18 -97 -61 -180t-107.5 -146t-156 -98.5t-199.5 -35.5q-110 0 -199 51.5t-133 140.5q-5 -70 -20 -166l-80 -457h-123l338 1919h123l-107 -610q-7 -43 -20 -92q146 158 369 158zM956 453q9 61 9 77q0 123 -76 200
t-209 77q-158 0 -265.5 -101t-135.5 -251q-7 -44 -7 -74q0 -124 73.5 -204.5t205.5 -80.5q159 0 267 98.5t138 258.5z" />
    <glyph glyph-name="ydieresis" unicode="&#xff;" horiz-adv-x="946" 
d="M385 1149q-41 0 -63.5 23t-22.5 57q0 36 28 67t70 31q39 0 61.5 -23.5t22.5 -56.5q0 -36 -27 -67t-69 -31zM797 1149q-40 0 -61 24t-21 58q0 37 26 66.5t68 29.5q40 0 62 -24t22 -58q0 -35 -27 -65.5t-69 -30.5zM858 905h137v-4l-778 -1352h-137v5l285 481l-254 866v4
h125l184 -631q3 -11 12 -46t14 -56q7 18 16 34.5t21 37.5t17 30z" />
    <glyph glyph-name="Amacron" unicode="&#x100;" horiz-adv-x="1392" 
d="M1190 1718l-19 -110h-542l18 110h543zM885 1403l405 -1397v-6h-135l-92 319h-764l-203 -319h-145v4l889 1399h45zM825 1155q-34 -65 -108 -180l-340 -533h653l-153 531q-9 32 -26.5 92t-25.5 90z" />
    <glyph glyph-name="amacron" unicode="&#x101;" horiz-adv-x="1181" 
d="M987 1253l-18 -108h-543l18 108h543zM1006 905h96l-160 -905h-98l10 143q-150 -163 -377 -163q-179 0 -283 109.5t-104 279.5q0 42 10 100q36 200 177 327.5t341 127.5q112 0 198 -47t134 -132zM901 449q8 36 8 79q0 123 -75.5 201t-217.5 78q-147 0 -254 -96t-137 -248
q-8 -39 -8 -84q0 -128 76.5 -205.5t208.5 -77.5q155 0 263 102.5t136 250.5z" />
    <glyph glyph-name="Abreve" unicode="&#x102;" horiz-adv-x="1392" 
d="M891 1542q-100 0 -167 58.5t-71 158.5l90 25q10 -65 50 -99t98 -34q72 0 123.5 36.5t72.5 96.5l95 -25q-30 -106 -108 -161.5t-183 -55.5zM885 1403l405 -1397v-6h-135l-92 319h-764l-203 -319h-145v4l889 1399h45zM825 1155q-34 -65 -108 -180l-340 -533h653l-153 531
q-9 32 -26.5 92t-25.5 90z" />
    <glyph glyph-name="abreve" unicode="&#x103;" horiz-adv-x="1181" 
d="M700 1079q-99 0 -166 58.5t-71 158.5l90 23q9 -65 48 -99t99 -34q72 0 124 36.5t73 96.5l94 -23q-30 -106 -108.5 -161.5t-182.5 -55.5zM1006 905h96l-160 -905h-98l10 143q-150 -163 -377 -163q-179 0 -283 109.5t-104 279.5q0 42 10 100q36 200 177 327.5t341 127.5
q112 0 198 -47t134 -132zM901 449q8 36 8 79q0 123 -75.5 201t-217.5 78q-147 0 -254 -96t-137 -248q-8 -39 -8 -84q0 -128 76.5 -205.5t208.5 -77.5q155 0 263 102.5t136 250.5z" />
    <glyph glyph-name="Aogonek" unicode="&#x104;" horiz-adv-x="1392" 
d="M1290 0q-102 -69 -166.5 -140.5t-64.5 -123.5q0 -60 69 -60q57 0 111 35l27 -104q-77 -47 -168 -47q-82 0 -127 38.5t-45 104.5q0 77 55.5 149.5t169.5 163.5l-88 303h-764l-203 -319h-145v4l889 1399h45l405 -1397v-6zM825 1155q-34 -65 -108 -180l-340 -533h653
l-153 531q-9 32 -26.5 92t-25.5 90z" />
    <glyph glyph-name="aogonek" unicode="&#x105;" horiz-adv-x="1181" 
d="M944 0q-104 -72 -167.5 -144.5t-63.5 -127.5q0 -54 61 -54q53 0 107 35l26 -104q-77 -47 -168 -47q-74 0 -117.5 39t-43.5 104q0 85 67 165t203 179l6 98q-150 -163 -377 -163q-179 0 -283 109.5t-104 279.5q0 42 10 100q36 200 177 327.5t341 127.5q112 0 198 -47
t134 -132l56 160h96l-160 -903zM502 96q155 0 263 102.5t136 250.5q8 36 8 79q0 123 -75.5 201t-217.5 78q-147 0 -254 -96t-137 -248q-8 -39 -8 -84q0 -128 76.5 -205.5t208.5 -77.5z" />
    <glyph glyph-name="Cacute" unicode="&#x106;" horiz-adv-x="1425" 
d="M883 1563l-58 75l308 228l69 -109zM745 -25q-181 0 -317.5 78t-207 211.5t-70.5 302.5q0 69 12 142q26 147 98 276.5t176.5 225t245.5 151t297 55.5q305 0 494 -227l-91 -74q-74 87 -171.5 132.5t-239.5 45.5q-169 0 -314.5 -80.5t-239.5 -216.5t-122 -303
q-10 -68 -10 -119q0 -134 52.5 -240.5t160 -171.5t254.5 -65q152 0 271.5 61t229.5 179l84 -82q-126 -139 -270.5 -210t-321.5 -71z" />
    <glyph glyph-name="cacute" unicode="&#x107;" horiz-adv-x="948" 
d="M535 1100l-60 78l307 227l72 -109zM477 -23q-162 0 -274.5 107t-112.5 285q0 42 10 100q37 210 187 333.5t342 123.5q97 0 170 -32.5t135 -100.5l-82 -80q-84 96 -225 96q-142 0 -259.5 -98t-144.5 -256q-6 -37 -6 -74q0 -127 74.5 -207t200.5 -80q88 0 152.5 25
t135.5 86l58 -94q-155 -134 -361 -134z" />
    <glyph glyph-name="Ccircumflex" unicode="&#x108;" horiz-adv-x="1425" 
d="M772 1540l-55 72l299 209h28l232 -215l-64 -66l-196 154zM745 -25q-181 0 -317.5 78t-207 211.5t-70.5 302.5q0 69 12 142q26 147 98 276.5t176.5 225t245.5 151t297 55.5q305 0 494 -227l-91 -74q-74 87 -171.5 132.5t-239.5 45.5q-169 0 -314.5 -80.5t-239.5 -216.5
t-122 -303q-10 -68 -10 -119q0 -134 52.5 -240.5t160 -171.5t254.5 -65q152 0 271.5 61t229.5 179l84 -82q-126 -139 -270.5 -210t-321.5 -71z" />
    <glyph glyph-name="ccircumflex" unicode="&#x109;" horiz-adv-x="948" 
d="M426 1079l-55 72l299 209h30l230 -215l-64 -66l-196 154zM477 -23q-162 0 -274.5 107t-112.5 285q0 42 10 100q37 210 187 333.5t342 123.5q97 0 170 -32.5t135 -100.5l-82 -80q-84 96 -225 96q-142 0 -259.5 -98t-144.5 -256q-6 -37 -6 -74q0 -127 74.5 -207t200.5 -80
q88 0 152.5 25t135.5 86l58 -94q-155 -134 -361 -134z" />
    <glyph glyph-name="Cdotaccent" unicode="&#x10a;" horiz-adv-x="1425" 
d="M1006 1597q-42 0 -65 24.5t-23 59.5q0 42 27.5 75.5t76.5 33.5q42 0 65 -24.5t23 -61.5q0 -15 -2 -23q-5 -35 -33 -59.5t-69 -24.5zM745 -25q-181 0 -317.5 78t-207 211.5t-70.5 302.5q0 69 12 142q26 147 98 276.5t176.5 225t245.5 151t297 55.5q305 0 494 -227l-91 -74
q-74 87 -171.5 132.5t-239.5 45.5q-169 0 -314.5 -80.5t-239.5 -216.5t-122 -303q-10 -68 -10 -119q0 -134 52.5 -240.5t160 -171.5t254.5 -65q152 0 271.5 61t229.5 179l84 -82q-126 -139 -270.5 -210t-321.5 -71z" />
    <glyph glyph-name="cdotaccent" unicode="&#x10b;" horiz-adv-x="948" 
d="M655 1139q-45 0 -68 26t-20 64q2 41 29 71.5t74 30.5t70 -27.5t20 -66.5q-2 -39 -31 -68.5t-74 -29.5zM477 -23q-162 0 -274.5 107t-112.5 285q0 42 10 100q37 210 187 333.5t342 123.5q97 0 170 -32.5t135 -100.5l-82 -80q-84 96 -225 96q-142 0 -259.5 -98t-144.5 -256
q-6 -37 -6 -74q0 -127 74.5 -207t200.5 -80q88 0 152.5 25t135.5 86l58 -94q-155 -134 -361 -134z" />
    <glyph glyph-name="Ccaron" unicode="&#x10c;" horiz-adv-x="1425" 
d="M973 1548l-225 213l63 66l186 -156l246 156l62 -66l-301 -213h-31zM745 -25q-181 0 -317.5 78t-207 211.5t-70.5 302.5q0 69 12 142q26 147 98 276.5t176.5 225t245.5 151t297 55.5q305 0 494 -227l-91 -74q-74 87 -171.5 132.5t-239.5 45.5q-169 0 -314.5 -80.5
t-239.5 -216.5t-122 -303q-10 -68 -10 -119q0 -134 52.5 -240.5t160 -171.5t254.5 -65q152 0 271.5 61t229.5 179l84 -82q-126 -139 -270.5 -210t-321.5 -71z" />
    <glyph glyph-name="ccaron" unicode="&#x10d;" horiz-adv-x="948" 
d="M625 1085l-228 215l66 66l186 -156l246 156l61 -66l-303 -215h-28zM477 -23q-162 0 -274.5 107t-112.5 285q0 42 10 100q37 210 187 333.5t342 123.5q97 0 170 -32.5t135 -100.5l-82 -80q-84 96 -225 96q-142 0 -259.5 -98t-144.5 -256q-6 -37 -6 -74q0 -127 74.5 -207
t200.5 -80q88 0 152.5 25t135.5 86l58 -94q-155 -134 -361 -134z" />
    <glyph glyph-name="Dcaron" unicode="&#x10e;" horiz-adv-x="1478" 
d="M856 1548l-225 213l63 66l187 -156l245 156l62 -66l-301 -213h-31zM125 0l246 1393h446q136 0 248.5 -43t189 -119t118.5 -181.5t42 -228.5q0 -65 -12 -135q-56 -316 -276.5 -501t-548.5 -185h-453zM281 123h311q259 0 446.5 161.5t233.5 417.5q10 65 10 113
q0 96 -31 177.5t-90 144t-153 98t-213 35.5h-312z" />
    <glyph glyph-name="dcaron" unicode="&#x10f;" horiz-adv-x="1181" 
d="M973 899l102 569h125l-258 -1468h-96l8 154q-72 -86 -170.5 -130t-206.5 -44q-172 0 -279.5 112t-107.5 285q0 51 8 92q16 92 59.5 173.5t108.5 144.5t155.5 100t194.5 37q117 0 204 -50.5t132 -142.5q6 84 21 168zM1352 1468h133q-51 -208 -144 -333h-98q85 173 109 333
zM899 451q8 36 8 77q0 123 -75 201t-214 78q-147 0 -257 -96t-136 -248q-8 -39 -8 -84q0 -130 77.5 -206.5t205.5 -76.5q158 0 264 100.5t135 254.5z" />
    <glyph glyph-name="Dcroat" unicode="&#x110;" horiz-adv-x="1482" 
d="M821 1393q136 0 248.5 -43t189 -119t118.5 -181.5t42 -228.5q0 -65 -12 -135q-56 -316 -276.5 -501t-548.5 -185h-453l117 662h-137l18 100h137l111 631h446zM1276 702q10 65 10 113q0 96 -31 177.5t-90 144t-153 98t-213 35.5h-312l-90 -508h402l-19 -100h-401l-94 -539
h311q259 0 446.5 161.5t233.5 417.5z" />
    <glyph glyph-name="dcroat" unicode="&#x111;" horiz-adv-x="1183" 
d="M1284 1225l-14 -92h-129l-199 -1133h-96l8 152q-150 -172 -377 -172q-176 0 -281.5 109t-105.5 282q0 54 8 98q17 92 59.5 173.5t106.5 144.5t155 100t197 37q115 0 203.5 -47.5t134.5 -133.5q2 46 19 156l43 234h-332l16 92h332l43 243h125l-43 -243h127zM899 451
q8 36 8 77q0 123 -75 201t-214 78q-147 0 -257 -96.5t-136 -247.5q-8 -39 -8 -84q0 -129 77.5 -206t205.5 -77q158 0 264 100.5t135 254.5z" />
    <glyph glyph-name="Emacron" unicode="&#x112;" horiz-adv-x="1144" 
d="M1110 1718l-18 -110h-543l18 110h543zM1192 1270h-707l-88 -496h617l-23 -119h-614l-94 -532h718l-22 -123h-852l244 1393h841z" />
    <glyph glyph-name="emacron" unicode="&#x113;" horiz-adv-x="966" 
d="M393 1255h543l-18 -108h-543zM625 926q134 0 212 -66.5t78 -179.5q0 -91 -50 -159t-136 -106t-187 -55.5t-218 -17.5q-53 0 -107 4q9 -114 85.5 -182t191.5 -68q80 0 146.5 19t137.5 67l49 -98q-160 -104 -344 -104q-173 0 -283 109.5t-110 272.5q0 152 69.5 281.5
t193 206t272.5 76.5zM322 453q90 0 167.5 10.5t149.5 33.5t114 68.5t42 108.5q0 65 -46 100t-124 35q-152 0 -263 -103.5t-139 -248.5q50 -4 99 -4z" />
    <glyph glyph-name="Ebreve" unicode="&#x114;" horiz-adv-x="1144" 
d="M811 1542q-100 0 -167 58.5t-71 158.5l91 25q10 -65 49.5 -99t97.5 -34q72 0 124 36.5t73 96.5l94 -25q-30 -106 -108 -161.5t-183 -55.5zM1192 1270h-707l-88 -496h617l-23 -119h-614l-94 -532h718l-22 -123h-852l244 1393h841z" />
    <glyph glyph-name="ebreve" unicode="&#x115;" horiz-adv-x="966" 
d="M651 1081q-99 0 -166 58.5t-71 158.5l90 23q9 -65 48 -99t99 -34q72 0 124 36.5t73 96.5l94 -23q-30 -106 -108.5 -161.5t-182.5 -55.5zM625 926q134 0 212 -66.5t78 -179.5q0 -91 -50 -159t-136 -106t-187 -55.5t-218 -17.5q-53 0 -107 4q9 -114 85.5 -182t191.5 -68
q80 0 146.5 19t137.5 67l49 -98q-160 -104 -344 -104q-173 0 -283 109.5t-110 272.5q0 152 69.5 281.5t193 206t272.5 76.5zM322 453q90 0 167.5 10.5t149.5 33.5t114 68.5t42 108.5q0 65 -46 100t-124 35q-152 0 -263 -103.5t-139 -248.5q50 -4 99 -4z" />
    <glyph glyph-name="Edotaccent" unicode="&#x116;" horiz-adv-x="1144" 
d="M831 1597q-42 0 -65 24.5t-23 59.5q0 42 28 75.5t77 33.5q42 0 65 -24.5t23 -61.5q0 -15 -2 -23q-5 -35 -33.5 -59.5t-69.5 -24.5zM1192 1270h-707l-88 -496h617l-23 -119h-614l-94 -532h718l-22 -123h-852l244 1393h841z" />
    <glyph glyph-name="edotaccent" unicode="&#x117;" horiz-adv-x="966" 
d="M655 1139q-45 0 -68 26t-20 64q2 41 29 71.5t74 30.5t70 -27.5t20 -66.5q-2 -39 -31 -68.5t-74 -29.5zM915 680q0 -91 -50 -159t-136 -106t-187 -55.5t-218 -17.5q-53 0 -107 4q9 -114 85.5 -182t191.5 -68q80 0 146.5 19t137.5 67l49 -98q-160 -104 -344 -104
q-173 0 -283 109.5t-110 272.5q0 152 69.5 281.5t193 206t272.5 76.5q134 0 212 -66.5t78 -179.5zM223 457q50 -4 99 -4q90 0 167.5 10.5t149.5 33.5t114 68.5t42 108.5q0 65 -46 100t-124 35q-152 0 -263 -103.5t-139 -248.5z" />
    <glyph glyph-name="Eogonek" unicode="&#x118;" horiz-adv-x="1144" 
d="M1192 1270h-707l-88 -496h617l-23 -119h-614l-94 -532h718l-22 -123q-102 -69 -166.5 -140.5t-64.5 -123.5q0 -60 69 -60q57 0 111 35l26 -104q-77 -47 -168 -47q-82 0 -127 38.5t-45 104.5q0 72 52 144t153 153h-692l244 1393h841z" />
    <glyph glyph-name="eogonek" unicode="&#x119;" horiz-adv-x="966" 
d="M915 680q0 -91 -50 -159t-136 -106t-187 -55.5t-218 -17.5q-53 0 -107 4q9 -114 85.5 -182t191.5 -68q80 0 146.5 19t137.5 67l49 -98q-152 -108 -238.5 -194.5t-86.5 -157.5q0 -58 69 -58q57 0 113 39l29 -102q-77 -47 -162 -47q-80 0 -124 39.5t-44 99.5
q0 65 43.5 139.5t122.5 141.5q-40 -4 -66 -4q-173 0 -283 109.5t-110 272.5q0 152 69.5 281.5t193 206t272.5 76.5q134 0 212 -66.5t78 -179.5zM223 457q50 -4 99 -4q90 0 167.5 10.5t149.5 33.5t114 68.5t42 108.5q0 65 -46 100t-124 35q-152 0 -263 -103.5t-139 -248.5z
" />
    <glyph glyph-name="Ecaron" unicode="&#x11a;" horiz-adv-x="1144" 
d="M831 1548h-30l-226 213l64 66l186 -156l246 156l62 -66zM1192 1270h-707l-88 -496h617l-23 -119h-614l-94 -532h718l-22 -123h-852l244 1393h841z" />
    <glyph glyph-name="ecaron" unicode="&#x11b;" horiz-adv-x="966" 
d="M655 1085h-28l-228 215l66 66l186 -156l246 156l61 -66zM625 926q134 0 212 -66.5t78 -179.5q0 -91 -50 -159t-136 -106t-187 -55.5t-218 -17.5q-53 0 -107 4q9 -114 85.5 -182t191.5 -68q80 0 146.5 19t137.5 67l49 -98q-160 -104 -344 -104q-173 0 -283 109.5
t-110 272.5q0 152 69.5 281.5t193 206t272.5 76.5zM322 453q90 0 167.5 10.5t149.5 33.5t114 68.5t42 108.5q0 65 -46 100t-124 35q-152 0 -263 -103.5t-139 -248.5q50 -4 99 -4z" />
    <glyph glyph-name="Gcircumflex" unicode="&#x11c;" horiz-adv-x="1505" 
d="M1014 1694l-244 -154l-55 72l299 209h28l232 -215l-64 -66zM848 616l22 123h568l-88 -516q-248 -248 -588 -248q-147 0 -264 45t-192.5 125t-115.5 187.5t-40 234.5q0 80 14 154q36 197 152 356t290.5 249.5t372.5 90.5q281 0 479 -221l-88 -82q-75 92 -169 136t-234 44
q-162 0 -305 -76t-239.5 -210.5t-125.5 -300.5q-12 -67 -12 -132q0 -212 126.5 -344.5t356.5 -132.5q139 0 260 46t203 130l59 342h-442z" />
    <glyph glyph-name="gcircumflex" unicode="&#x11d;" horiz-adv-x="1179" 
d="M705 1233l-244 -154l-55 72l299 209h30l230 -215l-64 -66zM1006 905h92l-170 -971q-18 -105 -67 -185t-117.5 -127t-148 -70t-167.5 -23q-245 0 -383 174l82 82q63 -71 135 -105t168 -34q141 0 244.5 78t130.5 225q20 107 43 196q-145 -161 -371 -161
q-180 0 -283.5 107.5t-103.5 277.5q0 52 8 96q17 96 61.5 179t111 145.5t157.5 98.5t195 36q111 0 195 -44.5t132 -125.5zM899 459q8 50 8 76q0 118 -73.5 195t-212.5 77q-152 0 -261 -96.5t-137 -255.5q-8 -54 -8 -78q0 -126 77 -202.5t206 -76.5q159 0 265.5 102
t135.5 259z" />
    <glyph glyph-name="Gbreve" unicode="&#x11e;" horiz-adv-x="1505" 
d="M981 1542q-100 0 -167 58.5t-71 158.5l91 25q10 -65 49.5 -99t97.5 -34q72 0 124 36.5t73 96.5l94 -25q-30 -106 -108 -161.5t-183 -55.5zM848 616l22 123h568l-88 -516q-248 -248 -588 -248q-147 0 -264 45t-192.5 125t-115.5 187.5t-40 234.5q0 80 14 154
q36 197 152 356t290.5 249.5t372.5 90.5q281 0 479 -221l-88 -82q-75 92 -169 136t-234 44q-162 0 -305 -76t-239.5 -210.5t-125.5 -300.5q-12 -67 -12 -132q0 -212 126.5 -344.5t356.5 -132.5q139 0 260 46t203 130l59 342h-442z" />
    <glyph glyph-name="gbreve" unicode="&#x11f;" horiz-adv-x="1179" 
d="M684 1081q-100 0 -167 58.5t-71 158.5l91 23q9 -65 48 -99t99 -34q72 0 124 36.5t73 96.5l94 -23q-30 -106 -108.5 -161.5t-182.5 -55.5zM1006 905h92l-170 -971q-18 -105 -67 -185t-117.5 -127t-148 -70t-167.5 -23q-245 0 -383 174l82 82q63 -71 135 -105t168 -34
q141 0 244.5 78t130.5 225q20 107 43 196q-145 -161 -371 -161q-180 0 -283.5 107.5t-103.5 277.5q0 52 8 96q17 96 61.5 179t111 145.5t157.5 98.5t195 36q111 0 195 -44.5t132 -125.5zM899 459q8 50 8 76q0 118 -73.5 195t-212.5 77q-152 0 -261 -96.5t-137 -255.5
q-8 -54 -8 -78q0 -126 77 -202.5t206 -76.5q159 0 265.5 102t135.5 259z" />
    <glyph glyph-name="Gdotaccent" unicode="&#x120;" horiz-adv-x="1505" 
d="M1004 1597q-42 0 -65.5 24.5t-23.5 59.5q0 42 28 75.5t77 33.5q42 0 65 -24.5t23 -61.5q0 -15 -2 -23q-5 -35 -33 -59.5t-69 -24.5zM848 616l22 123h568l-88 -516q-248 -248 -588 -248q-147 0 -264 45t-192.5 125t-115.5 187.5t-40 234.5q0 80 14 154q36 197 152 356
t290.5 249.5t372.5 90.5q281 0 479 -221l-88 -82q-75 92 -169 136t-234 44q-162 0 -305 -76t-239.5 -210.5t-125.5 -300.5q-12 -67 -12 -132q0 -212 126.5 -344.5t356.5 -132.5q139 0 260 46t203 130l59 342h-442z" />
    <glyph glyph-name="gdotaccent" unicode="&#x121;" horiz-adv-x="1179" 
d="M690 1139q-45 0 -68 26t-20 64q2 41 29 71.5t74 30.5t70 -27.5t20 -66.5q-2 -39 -31 -68.5t-74 -29.5zM1006 905h92l-170 -971q-18 -105 -67 -185t-117.5 -127t-148 -70t-167.5 -23q-245 0 -383 174l82 82q63 -71 135 -105t168 -34q141 0 244.5 78t130.5 225
q20 107 43 196q-145 -161 -371 -161q-180 0 -283.5 107.5t-103.5 277.5q0 52 8 96q17 96 61.5 179t111 145.5t157.5 98.5t195 36q111 0 195 -44.5t132 -125.5zM899 459q8 50 8 76q0 118 -73.5 195t-212.5 77q-152 0 -261 -96.5t-137 -255.5q-8 -54 -8 -78q0 -126 77 -202.5
t206 -76.5q159 0 265.5 102t135.5 259z" />
    <glyph glyph-name="uni0122" unicode="&#x122;" horiz-adv-x="1505" 
d="M848 616l22 123h568l-88 -516q-248 -248 -588 -248q-147 0 -264 45t-192.5 125t-115.5 187.5t-40 234.5q0 80 14 154q36 197 152 356t290.5 249.5t372.5 90.5q281 0 479 -221l-88 -82q-75 92 -169 136t-234 44q-162 0 -305 -76t-239.5 -210.5t-125.5 -300.5
q-12 -67 -12 -132q0 -212 126.5 -344.5t356.5 -132.5q139 0 260 46t203 130l59 342h-442zM551 -565q92 174 129 350h133q-55 -220 -164 -350h-98z" />
    <glyph glyph-name="uni0123" unicode="&#x123;" horiz-adv-x="1179" 
d="M866 1458q-96 -182 -129 -350h-133q58 227 164 350h98zM1006 905h92l-170 -971q-18 -105 -67 -185t-117.5 -127t-148 -70t-167.5 -23q-245 0 -383 174l82 82q63 -71 135 -105t168 -34q141 0 244.5 78t130.5 225q20 107 43 196q-145 -161 -371 -161q-180 0 -283.5 107.5
t-103.5 277.5q0 52 8 96q17 96 61.5 179t111 145.5t157.5 98.5t195 36q111 0 195 -44.5t132 -125.5zM899 459q8 50 8 76q0 118 -73.5 195t-212.5 77q-152 0 -261 -96.5t-137 -255.5q-8 -54 -8 -78q0 -126 77 -202.5t206 -76.5q159 0 265.5 102t135.5 259z" />
    <glyph glyph-name="Hcircumflex" unicode="&#x124;" horiz-adv-x="1525" 
d="M969 1694l-244 -154l-55 72l299 209h28l232 -215l-64 -66zM1352 1393h133l-244 -1393h-133l113 641h-848l-113 -641h-133l244 1393h133l-111 -629h848z" />
    <glyph glyph-name="hcircumflex" unicode="&#x125;" horiz-adv-x="1069" 
d="M215 1616l-55 72l299 208h28l232 -215l-64 -65l-196 153zM82 0l258 1468h125l-100 -561q-9 -61 -33 -168q136 185 346 185q133 0 202.5 -71.5t69.5 -199.5q0 -42 -10 -100l-96 -553h-125l100 573q6 30 6 60q0 80 -45.5 127t-132.5 47q-139 0 -237.5 -106t-126.5 -261
l-76 -440h-125z" />
    <glyph glyph-name="Hbar" unicode="&#x126;" horiz-adv-x="1529" 
d="M1569 1171l-17 -94h-120l-189 -1077h-135l113 641h-846l-113 -641h-133l188 1077h-118l16 94h119l39 222h133l-39 -222h848l39 222h133l-39 -222h121zM1243 764l55 313h-847l-56 -313h848z" />
    <glyph glyph-name="hbar" unicode="&#x127;" horiz-adv-x="1071" 
d="M680 920q131 0 200.5 -72.5t69.5 -202.5q0 -49 -8 -96l-98 -549h-125l102 569q6 30 6 60q0 82 -46 129t-134 47q-137 0 -236.5 -107.5t-125.5 -261.5l-78 -436h-125l199 1133h-127l14 92h129l43 243h125l-43 -243h338l-15 -92h-339l-39 -226q-13 -70 -35 -168
q138 181 348 181z" />
    <glyph glyph-name="Itilde" unicode="&#x128;" horiz-adv-x="546" 
d="M289 1589l-88 58q59 133 168 133q61 0 141 -41q53 -29 86 -29q52 0 96 76l86 -60q-67 -129 -168 -129q-59 0 -127 39q-60 31 -94 31q-63 0 -100 -78zM127 0l244 1393h133l-244 -1393h-133z" />
    <glyph glyph-name="itilde" unicode="&#x129;" horiz-adv-x="444" 
d="M164 1126l-84 56q59 127 162 127q47 0 119.5 -34t97.5 -34q51 0 90 74l84 -58q-67 -122 -162 -122q-43 0 -113.5 33.5t-99.5 33.5q-55 0 -94 -76zM80 0l160 905h125l-160 -905h-125z" />
    <glyph glyph-name="Imacron" unicode="&#x12a;" horiz-adv-x="546" 
d="M201 1608l18 110h543l-19 -110h-542zM127 0l244 1393h133l-244 -1393h-133z" />
    <glyph glyph-name="imacron" unicode="&#x12b;" horiz-adv-x="444" 
d="M137 1145l21 110h409l-20 -110h-410zM80 0l160 905h125l-160 -905h-125z" />
    <glyph glyph-name="Ibreve" unicode="&#x12c;" horiz-adv-x="546" 
d="M463 1542q-100 0 -167 58.5t-71 158.5l90 25q10 -65 50 -99t98 -34q72 0 123.5 36.5t72.5 96.5l95 -25q-30 -106 -108 -161.5t-183 -55.5zM127 0l244 1393h133l-244 -1393h-133z" />
    <glyph glyph-name="ibreve" unicode="&#x12d;" horiz-adv-x="444" 
d="M346 1081q-99 0 -166 58.5t-71 158.5l90 23q9 -65 48 -99t99 -34q72 0 124 36.5t73 96.5l94 -23q-30 -106 -108.5 -161.5t-182.5 -55.5zM80 0l160 905h125l-160 -905h-125z" />
    <glyph glyph-name="Iogonek" unicode="&#x12e;" horiz-adv-x="546" 
d="M162 -326q50 0 108 35l21 -102q-79 -49 -174 -49q-82 0 -125 36.5t-43 100.5q0 78 46 153t134 166l242 1379h133l-244 -1393q-172 -168 -172 -264q0 -62 74 -62z" />
    <glyph glyph-name="iogonek" unicode="&#x12f;" horiz-adv-x="444" 
d="M367 1329q43 0 65.5 -23.5t22.5 -58.5q0 -14 -2 -22q-5 -35 -32.5 -59.5t-68.5 -24.5q-42 0 -65 24.5t-23 59.5q0 40 27.5 72t75.5 32zM365 905l-160 -905q-64 -68 -112 -144.5t-48 -127.5q0 -54 68 -54q48 0 112 39l29 -102q-80 -47 -170 -47q-81 0 -123.5 37t-42.5 100
q0 128 164 311l158 893h125z" />
    <glyph glyph-name="Idotaccent" unicode="&#x130;" horiz-adv-x="546" 
d="M483 1597q-42 0 -65 24.5t-23 59.5q0 42 28 75.5t77 33.5q42 0 65 -24.5t23 -61.5q0 -15 -2 -23q-5 -35 -33.5 -59.5t-69.5 -24.5zM127 0l244 1393h133l-244 -1393h-133z" />
    <glyph glyph-name="dotlessi" unicode="&#x131;" horiz-adv-x="444" 
d="M80 0l160 905h125l-160 -905h-125z" />
    <glyph glyph-name="IJ" unicode="&#x132;" horiz-adv-x="1576" 
d="M127 0l244 1393h133l-244 -1393h-133zM881 -25q-205 0 -363 131l78 107q60 -55 135.5 -85t153.5 -30q153 0 246 87t122 255l166 953h133l-170 -977q-37 -215 -164 -328t-337 -113z" />
    <glyph glyph-name="ij" unicode="&#x133;" horiz-adv-x="909" 
d="M352 1141q-44 0 -66.5 26t-19.5 62q2 40 29 70t72 30q47 0 69 -27t19 -65q-2 -37 -30.5 -66.5t-72.5 -29.5zM819 1141q-44 0 -66.5 26t-19.5 62q2 40 29 70t72 30q47 0 69 -27t19 -65q-2 -37 -30.5 -66.5t-72.5 -29.5zM80 0l160 905h125l-160 -905h-125zM215 -471l2 106
q87 3 142 19.5t89.5 54t52 86.5t31.5 131l173 979h124l-174 -987q-25 -148 -71 -229.5t-133.5 -120.5t-235.5 -39z" />
    <glyph glyph-name="Jcircumflex" unicode="&#x134;" horiz-adv-x="1030" 
d="M750 1540l-56 72l299 209h29l231 -215l-63 -66l-197 154zM334 -25q-205 0 -363 131l78 107q60 -55 135.5 -85t153.5 -30q153 0 246.5 87t122.5 255l165 953h134l-170 -977q-37 -215 -164.5 -328t-337.5 -113z" />
    <glyph glyph-name="jcircumflex" unicode="&#x135;" horiz-adv-x="464" 
d="M143 1079l-55 72l299 209h31l229 -215l-63 -66l-197 154zM-229 -471l2 106q87 3 142 19.5t89.5 54t52 86.5t31.5 131l172 979h125l-174 -987q-25 -148 -71 -229.5t-133.5 -120.5t-235.5 -39z" />
    <glyph glyph-name="uni0136" unicode="&#x136;" horiz-adv-x="1196" 
d="M1280 1393v-7l-774 -692l590 -688v-6h-158l-563 662l-117 -662h-133l246 1393h133l-115 -650l725 650h166zM356 -565q92 174 129 350h133q-56 -222 -163 -350h-99z" />
    <glyph glyph-name="uni0137" unicode="&#x137;" horiz-adv-x="884" 
d="M903 905v-4l-506 -440l389 -457v-4h-143l-362 424l-74 -424h-125l258 1468h125l-166 -950l440 387h164zM190 -565q92 174 129 350h134q-55 -220 -164 -350h-99z" />
    <glyph glyph-name="kgreenlandic" unicode="&#x138;" horiz-adv-x="882" 
d="M901 905l-2 -6l-502 -436l385 -453v-10h-143l-360 422l-74 -422h-125l160 905h125l-70 -391l444 391h162z" />
    <glyph glyph-name="Lacute" unicode="&#x139;" horiz-adv-x="1073" 
d="M371 1563l-58 75l308 228l69 -109zM127 0l244 1393h133l-221 -1270h671l-22 -123h-805z" />
    <glyph glyph-name="lacute" unicode="&#x13a;" horiz-adv-x="444" 
d="M326 1638l-58 76l307 228l70 -109zM80 0l260 1468h125l-260 -1468h-125z" />
    <glyph glyph-name="uni013B" unicode="&#x13b;" horiz-adv-x="1073" 
d="M127 0l244 1393h133l-221 -1270h671l-22 -123h-805zM303 -565q92 174 129 350h133q-55 -220 -164 -350h-98z" />
    <glyph glyph-name="uni013C" unicode="&#x13c;" horiz-adv-x="444" 
d="M80 0l260 1468h125l-260 -1468h-125zM-84 -565q92 174 129 350h133q-55 -220 -164 -350h-98z" />
    <glyph glyph-name="Lcaron" unicode="&#x13d;" horiz-adv-x="1073" 
d="M127 0l244 1393h133l-221 -1270h671l-22 -123h-805zM772 1067q96 180 125 326h131q-48 -192 -158 -326h-98z" />
    <glyph glyph-name="lcaron" unicode="&#x13e;" horiz-adv-x="438" 
d="M80 0l260 1468h125l-260 -1468h-125zM500 1135q83 170 108 333h133q-51 -210 -143 -333h-98z" />
    <glyph glyph-name="Ldot" unicode="&#x13f;" horiz-adv-x="1073" 
d="M127 0l244 1393h133l-221 -1270h671l-22 -123h-805zM817 616q-42 0 -67 23.5t-25 62.5q0 48 31 78.5t75 30.5q42 0 67.5 -23.5t25.5 -62.5q0 -45 -32 -77t-75 -32z" />
    <glyph glyph-name="ldot" unicode="&#x140;" horiz-adv-x="636" 
d="M80 0l260 1468h125l-260 -1468h-125zM532 621q-44 0 -69 30t-19 74q7 39 36.5 63.5t68.5 24.5q40 0 65 -23.5t25 -60.5q0 -12 -2 -20q-6 -39 -35.5 -63.5t-69.5 -24.5z" />
    <glyph glyph-name="Lslash" unicode="&#x141;" horiz-adv-x="1081" 
d="M291 123h672l-21 -123h-807l107 606l-131 -43l-25 103l176 57l117 670h133l-109 -625l312 100l22 -102l-354 -115z" />
    <glyph glyph-name="lslash" unicode="&#x142;" horiz-adv-x="526" 
d="M555 752l-188 -64l-123 -688h-123l112 645l-155 -51l-15 88l189 61l127 725h125l-121 -680l156 52z" />
    <glyph glyph-name="Nacute" unicode="&#x143;" horiz-adv-x="1564" 
d="M1192 1757l-320 -194l-57 75l307 228zM1391 1393h135l-248 -1403h-41l-674 981q-14 20 -50.5 72t-57.5 83q-16 -110 -35 -221l-160 -905h-135l248 1403h43l653 -942q96 -134 125 -178q17 95 33 194z" />
    <glyph glyph-name="nacute" unicode="&#x144;" horiz-adv-x="1069" 
d="M850 1296l-320 -196l-59 78l307 227zM676 924q133 0 203.5 -69.5t70.5 -201.5q0 -38 -10 -100l-98 -553h-125l100 565q6 37 6 70q0 82 -44.5 127t-135.5 45q-138 0 -235.5 -103t-126.5 -264l-76 -440h-125l160 905h92l2 -160q59 79 147 129t195 50z" />
    <glyph glyph-name="uni0145" unicode="&#x145;" horiz-adv-x="1564" 
d="M1391 1393h135l-248 -1403h-41l-674 981q-14 20 -50.5 72t-57.5 83q-16 -110 -35 -221l-160 -905h-135l248 1403h43l653 -942q96 -134 125 -178q17 95 33 194zM481 -565q92 174 129 350h133q-56 -222 -163 -350h-99z" />
    <glyph glyph-name="uni0146" unicode="&#x146;" horiz-adv-x="1069" 
d="M676 924q133 0 203.5 -69.5t70.5 -201.5q0 -38 -10 -100l-98 -553h-125l100 565q6 37 6 70q0 82 -44.5 127t-135.5 45q-138 0 -235.5 -103t-126.5 -264l-76 -440h-125l160 905h92l2 -160q59 79 147 129t195 50zM248 -565q92 174 129 350h133q-55 -220 -164 -350h-98z" />
    <glyph glyph-name="Ncaron" unicode="&#x147;" horiz-adv-x="1564" 
d="M991 1548h-30l-226 213l64 66l186 -156l246 156l61 -66zM1391 1393h135l-248 -1403h-41l-674 981q-14 20 -50.5 72t-57.5 83q-16 -110 -35 -221l-160 -905h-135l248 1403h43l653 -942q96 -134 125 -178q17 95 33 194z" />
    <glyph glyph-name="ncaron" unicode="&#x148;" horiz-adv-x="1069" 
d="M649 1085h-28l-228 215l66 66l186 -156l246 156l61 -66zM676 924q133 0 203.5 -69.5t70.5 -201.5q0 -38 -10 -100l-98 -553h-125l100 565q6 37 6 70q0 82 -44.5 127t-135.5 45q-138 0 -235.5 -103t-126.5 -264l-76 -440h-125l160 905h92l2 -160q59 79 147 129t195 50z
" />
    <glyph glyph-name="napostrophe" unicode="&#x149;" horiz-adv-x="1097" 
d="M59 963q95 185 129 350h134q-55 -220 -164 -350h-99zM109 0l159 905h105l-11 -168q55 82 144.5 134.5t198.5 52.5q133 0 203.5 -69.5t70.5 -201.5q0 -38 -10 -100l-99 -553h-125l101 565q6 37 6 70q0 82 -44.5 127t-135.5 45q-135 0 -234.5 -104.5t-126.5 -262.5
l-78 -440h-124z" />
    <glyph glyph-name="Eng" unicode="&#x14a;" horiz-adv-x="1566" 
d="M1393 1393h135l-252 -1422q-36 -209 -157.5 -316.5t-315.5 -113.5l-6 121q282 3 348 328l20 106l-608 885q-59 83 -100 145q-9 -70 -27 -161l-170 -965h-133l246 1403h39l678 -967q1 -1 44.5 -63t65.5 -97q4 44 29 187z" />
    <glyph glyph-name="eng" unicode="&#x14b;" horiz-adv-x="1067" 
d="M674 924q135 0 204.5 -68t69.5 -197q0 -41 -10 -106l-119 -680q-29 -161 -117 -242.5t-227 -81.5l-10 111q102 3 156.5 60t76.5 180l121 675q4 20 4 58q0 81 -43.5 127.5t-132.5 46.5q-143 0 -241 -104t-125 -263l-76 -440h-125l160 905h92l2 -157q63 81 150.5 128.5
t189.5 47.5z" />
    <glyph glyph-name="Omacron" unicode="&#x14c;" horiz-adv-x="1642" 
d="M750 1608l18 110h543l-19 -110h-542zM752 -25q-273 0 -439 163t-166 425q0 50 15 146q37 202 151 362.5t289.5 253t382.5 92.5q171 0 306.5 -77t211.5 -213t76 -306q0 -67 -12 -137q-26 -149 -99 -279.5t-178.5 -225.5t-245 -149.5t-292.5 -54.5zM756 98q257 0 445 168.5
t233 427.5q10 51 10 119q0 209 -128.5 345t-340.5 136q-256 0 -444 -167t-236 -429q-12 -64 -12 -127q0 -210 127 -341.5t346 -131.5z" />
    <glyph glyph-name="omacron" unicode="&#x14d;" horiz-adv-x="1134" 
d="M408 1147l18 108h543l-19 -108h-542zM492 -20q-180 0 -291 110t-111 281q0 51 8 92q36 202 183 332.5t360 130.5q181 0 291 -109.5t110 -281.5q0 -51 -8 -95q-36 -204 -182 -332t-360 -128zM500 96q159 0 271 99t140 258q7 44 7 71q0 128 -76.5 206.5t-208.5 78.5
q-158 0 -270.5 -102t-139.5 -254q-6 -40 -6 -76q0 -126 76.5 -203.5t206.5 -77.5z" />
    <glyph glyph-name="Obreve" unicode="&#x14e;" horiz-adv-x="1642" 
d="M1014 1542q-100 0 -167 58.5t-71 158.5l90 25q10 -65 50 -99t98 -34q72 0 123.5 36.5t72.5 96.5l95 -25q-30 -106 -108 -161.5t-183 -55.5zM752 -25q-273 0 -439 163t-166 425q0 50 15 146q37 202 151 362.5t289.5 253t382.5 92.5q171 0 306.5 -77t211.5 -213t76 -306
q0 -67 -12 -137q-26 -149 -99 -279.5t-178.5 -225.5t-245 -149.5t-292.5 -54.5zM756 98q257 0 445 168.5t233 427.5q10 51 10 119q0 209 -128.5 345t-340.5 136q-256 0 -444 -167t-236 -429q-12 -64 -12 -127q0 -210 127 -341.5t346 -131.5z" />
    <glyph glyph-name="obreve" unicode="&#x14f;" horiz-adv-x="1134" 
d="M682 1081q-100 0 -167 58.5t-71 158.5l91 23q9 -65 48 -99t99 -34q72 0 124 36.5t73 96.5l94 -23q-30 -106 -108.5 -161.5t-182.5 -55.5zM492 -20q-180 0 -291 110t-111 281q0 51 8 92q36 202 183 332.5t360 130.5q181 0 291 -109.5t110 -281.5q0 -51 -8 -95
q-36 -204 -182 -332t-360 -128zM500 96q159 0 271 99t140 258q7 44 7 71q0 128 -76.5 206.5t-208.5 78.5q-158 0 -270.5 -102t-139.5 -254q-6 -40 -6 -76q0 -126 76.5 -203.5t206.5 -77.5z" />
    <glyph glyph-name="Ohungarumlaut" unicode="&#x150;" horiz-adv-x="1642" 
d="M827 1538l-73 55l243 285l99 -72zM1157 1538l-74 55l244 285l98 -72zM752 -25q-273 0 -439 163t-166 425q0 50 15 146q37 202 151 362.5t289.5 253t382.5 92.5q171 0 306.5 -77t211.5 -213t76 -306q0 -67 -12 -137q-26 -149 -99 -279.5t-178.5 -225.5t-245 -149.5
t-292.5 -54.5zM756 98q257 0 445 168.5t233 427.5q10 51 10 119q0 209 -128.5 345t-340.5 136q-256 0 -444 -167t-236 -429q-12 -64 -12 -127q0 -210 127 -341.5t346 -131.5z" />
    <glyph glyph-name="ohungarumlaut" unicode="&#x151;" horiz-adv-x="1134" 
d="M483 1077l-73 56l229 284l96 -71zM813 1077l-74 56l244 284l98 -71zM492 -20q-180 0 -291 110t-111 281q0 51 8 92q36 202 183 332.5t360 130.5q181 0 291 -109.5t110 -281.5q0 -51 -8 -95q-36 -204 -182 -332t-360 -128zM500 96q159 0 271 99t140 258q7 44 7 71
q0 128 -76.5 206.5t-208.5 78.5q-158 0 -270.5 -102t-139.5 -254q-6 -40 -6 -76q0 -126 76.5 -203.5t206.5 -77.5z" />
    <glyph glyph-name="OE" unicode="&#x152;" horiz-adv-x="1841" 
d="M750 -25q-172 0 -308.5 78t-212 216t-75.5 311q0 70 12 143q26 146 102 274.5t184.5 221t248 145.5t288.5 53q87 0 178 -24h742l-23 -123h-612l-88 -488h543l-21 -123h-545l-92 -536h627l-23 -123h-753q-98 -25 -172 -25zM754 98q86 0 190 33l203 1135q-76 28 -162 28
q-250 0 -447.5 -166.5t-240.5 -412.5q-12 -65 -12 -125q0 -216 129.5 -354t339.5 -138z" />
    <glyph glyph-name="oe" unicode="&#x153;" horiz-adv-x="1695" 
d="M1362 926q135 0 214 -66.5t79 -179.5q0 -73 -32.5 -131t-87 -96t-130 -63t-156.5 -36t-172 -12q-33 -2 -98 2q3 -122 71.5 -185t186.5 -63q131 0 266 86l49 -96q-152 -106 -327 -106q-123 0 -209.5 58.5t-122.5 162.5q-151 -221 -404 -221q-178 0 -287.5 106t-109.5 285
q0 153 68.5 280t190.5 201t272 74q129 0 218.5 -61t127.5 -177q67 110 169.5 173.5t223.5 64.5zM494 96q115 0 205.5 62.5t137 161t46.5 212.5q0 129 -67 203t-193 74q-115 0 -209 -60.5t-145.5 -159.5t-51.5 -214q0 -133 77 -206t200 -73zM1085 453q93 1 170.5 13t142 36.5
t100.5 68.5t36 103q0 65 -49 100t-125 35q-147 0 -246.5 -100.5t-126.5 -253.5q65 -4 98 -2z" />
    <glyph glyph-name="Racute" unicode="&#x154;" horiz-adv-x="1284" 
d="M979 1757l-320 -194l-57 75l307 228zM891 1393q162 0 270.5 -98t108.5 -251q0 -32 -6 -69q-28 -163 -142 -263.5t-297 -125.5l305 -580v-6h-145l-303 580h-322l-102 -580h-133l246 1393h520zM1137 1040q0 105 -68.5 167.5t-191.5 62.5h-394l-100 -568h379q162 0 268.5 93
t106.5 245z" />
    <glyph glyph-name="racute" unicode="&#x155;" horiz-adv-x="720" 
d="M733 1298l-319 -196l-60 78l308 227zM614 924q81 0 152 -33l-49 -109q-53 23 -113 23q-114 0 -200.5 -83.5t-114.5 -242.5l-84 -479h-125l160 905h94l2 -135q111 154 278 154z" />
    <glyph glyph-name="uni0156" unicode="&#x156;" horiz-adv-x="1284" 
d="M891 1393q162 0 270.5 -98t108.5 -251q0 -32 -6 -69q-28 -163 -142 -263.5t-297 -125.5l305 -580v-6h-145l-303 580h-322l-102 -580h-133l246 1393h520zM1137 1040q0 105 -68.5 167.5t-191.5 62.5h-394l-100 -568h379q162 0 268.5 93t106.5 245zM369 -565q92 174 129 350
h133q-55 -220 -164 -350h-98z" />
    <glyph glyph-name="uni0157" unicode="&#x157;" horiz-adv-x="720" 
d="M614 924q81 0 152 -33l-49 -109q-53 23 -113 23q-114 0 -200.5 -83.5t-114.5 -242.5l-84 -479h-125l160 905h94l2 -135q111 154 278 154zM-96 -565q92 174 129 350h133q-55 -220 -164 -350h-98z" />
    <glyph glyph-name="Rcaron" unicode="&#x158;" horiz-adv-x="1284" 
d="M778 1548h-30l-226 213l64 66l186 -156l246 156l61 -66zM891 1393q162 0 270.5 -98t108.5 -251q0 -32 -6 -69q-28 -163 -142 -263.5t-297 -125.5l305 -580v-6h-145l-303 580h-322l-102 -580h-133l246 1393h520zM1137 1040q0 105 -68.5 167.5t-191.5 62.5h-394l-100 -568
h379q162 0 268.5 93t106.5 245z" />
    <glyph glyph-name="rcaron" unicode="&#x159;" horiz-adv-x="720" 
d="M532 1087h-28l-228 216l66 65l186 -156l246 156l62 -65zM336 770q111 154 278 154q81 0 152 -33l-49 -109q-53 23 -113 23q-114 0 -200.5 -83.5t-114.5 -242.5l-84 -479h-125l160 905h94z" />
    <glyph glyph-name="Sacute" unicode="&#x15a;" horiz-adv-x="1165" 
d="M668 1563l-58 75l308 228l69 -109zM539 -25q-286 0 -484 191l82 96q175 -164 410 -164q150 0 254 77t104 194q0 49 -20.5 89.5t-63 75t-86 59.5t-110.5 56q-62 29 -107 53.5t-95 61.5t-81 75t-51.5 89.5t-20.5 109.5q0 175 128.5 275t326.5 100q235 0 424 -147l-74 -97
q-159 121 -348 121q-137 0 -230.5 -63.5t-93.5 -179.5q0 -51 20 -92t63.5 -75.5t83.5 -57.5t108 -56q66 -31 113.5 -57.5t97.5 -63t80.5 -74.5t50.5 -88.5t20 -107.5q0 -174 -140 -287t-361 -113z" />
    <glyph glyph-name="sacute" unicode="&#x15b;" horiz-adv-x="804" 
d="M410 1100l-60 78l307 227l72 -109zM334 -16q-180 0 -309 104l65 96q102 -86 248 -86q93 0 156 40t63 110q0 49 -38.5 87t-129.5 81q-55 26 -90 47t-72 52t-55 70t-18 87q0 111 86 177t223 66q145 0 270 -84l-55 -94q-100 64 -217 64q-85 0 -133.5 -33.5t-48.5 -89.5
q0 -49 39.5 -84.5t119.5 -73.5q128 -62 185 -123t57 -145q0 -128 -96.5 -198t-249.5 -70z" />
    <glyph glyph-name="Scircumflex" unicode="&#x15c;" horiz-adv-x="1165" 
d="M557 1540l-55 72l299 209h28l232 -215l-64 -66l-196 154zM539 -25q-286 0 -484 191l82 96q175 -164 410 -164q150 0 254 77t104 194q0 49 -20.5 89.5t-63 75t-86 59.5t-110.5 56q-62 29 -107 53.5t-95 61.5t-81 75t-51.5 89.5t-20.5 109.5q0 175 128.5 275t326.5 100
q235 0 424 -147l-74 -97q-159 121 -348 121q-137 0 -230.5 -63.5t-93.5 -179.5q0 -51 20 -92t63.5 -75.5t83.5 -57.5t108 -56q66 -31 113.5 -57.5t97.5 -63t80.5 -74.5t50.5 -88.5t20 -107.5q0 -174 -140 -287t-361 -113z" />
    <glyph glyph-name="scircumflex" unicode="&#x15d;" horiz-adv-x="804" 
d="M299 1079l-55 72l299 209h30l230 -215l-64 -66l-196 154zM334 -16q-180 0 -309 104l65 96q102 -86 248 -86q93 0 156 40t63 110q0 49 -38.5 87t-129.5 81q-55 26 -90 47t-72 52t-55 70t-18 87q0 111 86 177t223 66q145 0 270 -84l-55 -94q-100 64 -217 64
q-85 0 -133.5 -33.5t-48.5 -89.5q0 -49 39.5 -84.5t119.5 -73.5q128 -62 185 -123t57 -145q0 -128 -96.5 -198t-249.5 -70z" />
    <glyph glyph-name="Scedilla" unicode="&#x15e;" horiz-adv-x="1165" 
d="M727 1290q-137 0 -230.5 -63.5t-93.5 -179.5q0 -51 20 -92t63.5 -75.5t83.5 -57.5t108 -56q66 -31 113.5 -57.5t97.5 -63t80.5 -74.5t50.5 -88.5t20 -107.5q0 -165 -126 -275.5t-328 -122.5l-58 -83q74 -6 121 -44.5t47 -99.5q0 -21 -6 -45q-20 -69 -82.5 -106
t-148.5 -37q-126 0 -203 57l51 80q57 -45 139 -45q53 0 91 21t47 59q4 16 4 22q0 43 -56.5 60t-138.5 14l86 147q-247 20 -424 189l82 96q175 -164 410 -164q150 0 254 77t104 194q0 49 -20.5 89.5t-63 75t-86 59.5t-110.5 56q-62 29 -107 53.5t-95 61.5t-81 75t-51.5 89.5
t-20.5 109.5q0 175 128.5 275t326.5 100q235 0 424 -147l-74 -97q-159 121 -348 121z" />
    <glyph glyph-name="scedilla" unicode="&#x15f;" horiz-adv-x="804" 
d="M438 520q128 -62 185 -123t57 -145q0 -115 -78 -183.5t-207 -80.5l-63 -94q75 -6 120.5 -45t45.5 -99q0 -89 -69 -136.5t-169 -47.5q-121 0 -203 57l52 80q58 -43 139 -43q54 0 93 20.5t46 59.5q10 44 -32.5 68t-116.5 24q-29 0 -43 -2l92 156q-150 12 -262 102l65 96
q102 -86 248 -86q93 0 156 40t63 110q0 49 -38.5 87t-129.5 81q-55 26 -90 47t-72 52t-55 70t-18 87q0 111 86 177t223 66q145 0 270 -84l-55 -94q-100 64 -217 64q-85 0 -133.5 -33.5t-48.5 -89.5q0 -49 39.5 -84.5t119.5 -73.5z" />
    <glyph glyph-name="Scaron" unicode="&#x160;" horiz-adv-x="1165" 
d="M758 1548l-226 213l64 66l186 -156l246 156l62 -66l-302 -213h-30zM539 -25q-286 0 -484 191l82 96q175 -164 410 -164q150 0 254 77t104 194q0 49 -20.5 89.5t-63 75t-86 59.5t-110.5 56q-62 29 -107 53.5t-95 61.5t-81 75t-51.5 89.5t-20.5 109.5q0 175 128.5 275
t326.5 100q235 0 424 -147l-74 -97q-159 121 -348 121q-137 0 -230.5 -63.5t-93.5 -179.5q0 -51 20 -92t63.5 -75.5t83.5 -57.5t108 -56q66 -31 113.5 -57.5t97.5 -63t80.5 -74.5t50.5 -88.5t20 -107.5q0 -174 -140 -287t-361 -113z" />
    <glyph glyph-name="scaron" unicode="&#x161;" horiz-adv-x="804" 
d="M500 1085l-228 215l66 66l186 -156l246 156l61 -66l-303 -215h-28zM334 -16q-180 0 -309 104l65 96q102 -86 248 -86q93 0 156 40t63 110q0 49 -38.5 87t-129.5 81q-55 26 -90 47t-72 52t-55 70t-18 87q0 111 86 177t223 66q145 0 270 -84l-55 -94q-100 64 -217 64
q-85 0 -133.5 -33.5t-48.5 -89.5q0 -49 39.5 -84.5t119.5 -73.5q128 -62 185 -123t57 -145q0 -128 -96.5 -198t-249.5 -70z" />
    <glyph glyph-name="uni0162" unicode="&#x162;" horiz-adv-x="1083" 
d="M530 0h-10l-74 -106q74 -6 121 -44.5t47 -99.5q0 -21 -6 -45q-20 -69 -83 -106t-150 -37q-126 0 -203 57l53 80q57 -45 140 -45q52 0 88.5 21t48.5 59q4 16 4 22q0 43 -56.5 60t-138.5 14l99 170h-13l224 1270h-431l23 123h989l-20 -123h-428z" />
    <glyph glyph-name="uni0163" unicode="&#x163;" horiz-adv-x="722" 
d="M406 795l-95 -545q-6 -27 -6 -51q0 -99 105 -99q82 0 182 66l49 -98q-108 -76 -219 -82l-62 -92q75 -6 120.5 -45t45.5 -99q0 -89 -69 -136.5t-168 -47.5q-121 0 -203 57l51 80q58 -43 139 -43q54 0 93.5 20.5t46.5 59.5q10 44 -33 68t-117 24q-29 0 -43 -2l96 162
q-137 37 -137 196q0 32 6 72l93 535l-185 8l19 102h184l53 301h125l-53 -301h321l-18 -110h-321z" />
    <glyph glyph-name="Tcaron" unicode="&#x164;" horiz-adv-x="1085" 
d="M754 1548h-31l-225 213l63 66l187 -156l245 156l62 -66zM1204 1393l-20 -123h-428l-226 -1270h-133l224 1270h-431l23 123h991z" />
    <glyph glyph-name="tcaron" unicode="&#x165;" horiz-adv-x="733" 
d="M598 1069q81 156 113 317h127q-51 -201 -144 -317h-96zM379 -16q-97 0 -153 50.5t-56 149.5q0 22 8 76l92 535l-174 8l19 102h174l53 301h125l-53 -301h323l-20 -110h-322l-94 -545q-6 -27 -6 -51q0 -99 104 -99q83 0 181 64l49 -98q-119 -82 -250 -82z" />
    <glyph glyph-name="Tbar" unicode="&#x166;" horiz-adv-x="1085" 
d="M1184 1270h-428l-94 -533h272l-16 -92h-273l-115 -645h-135l115 645h-277l17 92h276l95 533h-431l23 123h991z" />
    <glyph glyph-name="tbar" unicode="&#x167;" horiz-adv-x="710" 
d="M717 795h-324l-49 -281h236l-19 -92h-231l-31 -172q-4 -18 -4 -49q0 -101 96 -101q94 0 189 66l49 -100q-119 -82 -258 -82q-92 0 -146.5 52t-54.5 152q0 32 6 72l29 162h-101l17 92h98l49 281l-172 8l19 102h174l53 303h125l-53 -303h323z" />
    <glyph glyph-name="Utilde" unicode="&#x168;" horiz-adv-x="1441" 
d="M729 1589l-88 58q59 133 168 133q61 0 141 -41q53 -29 86 -29q53 0 97 76l86 -60q-67 -129 -168 -129q-59 0 -127 39q-60 31 -95 31q-63 0 -100 -78zM649 -25q-205 0 -335 106.5t-130 289.5q0 43 9 92l161 930h135l-165 -940q-7 -47 -7 -76q0 -135 90.5 -207t243.5 -72
q195 0 317.5 97t153.5 272l162 926h133l-164 -940q-41 -233 -198 -355.5t-406 -122.5z" />
    <glyph glyph-name="utilde" unicode="&#x169;" horiz-adv-x="1064" 
d="M559 1202q-55 0 -94 -76l-84 56q59 127 162 127q47 0 119.5 -34t97.5 -34q51 0 90 74l84 -58q-67 -122 -162 -122q-43 0 -113.5 33.5t-99.5 33.5zM858 905h125l-158 -905h-98l2 154q-54 -76 -140.5 -123t-189.5 -47q-132 0 -205 76.5t-73 205.5q0 24 8 82l98 557h125
l-102 -573q-4 -18 -4 -56q0 -80 43.5 -128t130.5 -48q140 0 236.5 102t125.5 263z" />
    <glyph glyph-name="Umacron" unicode="&#x16a;" horiz-adv-x="1441" 
d="M639 1608l18 110h543l-18 -110h-543zM649 -25q-205 0 -335 106.5t-130 289.5q0 43 9 92l161 930h135l-165 -940q-7 -47 -7 -76q0 -135 90.5 -207t243.5 -72q195 0 317.5 97t153.5 272l162 926h133l-164 -940q-41 -233 -198 -355.5t-406 -122.5z" />
    <glyph glyph-name="umacron" unicode="&#x16b;" horiz-adv-x="1064" 
d="M932 1255l-19 -108h-542l18 108h543zM858 905h125l-158 -905h-98l2 154q-54 -76 -140.5 -123t-189.5 -47q-132 0 -205 76.5t-73 205.5q0 24 8 82l98 557h125l-102 -573q-4 -18 -4 -56q0 -80 43.5 -128t130.5 -48q140 0 236.5 102t125.5 263z" />
    <glyph glyph-name="Ubreve" unicode="&#x16c;" horiz-adv-x="1441" 
d="M903 1542q-99 0 -166 58.5t-71 158.5l90 25q10 -65 49.5 -99t97.5 -34q72 0 124 36.5t73 96.5l94 -25q-30 -106 -108 -161.5t-183 -55.5zM649 -25q-205 0 -335 106.5t-130 289.5q0 43 9 92l161 930h135l-165 -940q-7 -47 -7 -76q0 -135 90.5 -207t243.5 -72
q195 0 317.5 97t153.5 272l162 926h133l-164 -940q-41 -233 -198 -355.5t-406 -122.5z" />
    <glyph glyph-name="ubreve" unicode="&#x16d;" horiz-adv-x="1064" 
d="M647 1081q-99 0 -166 58.5t-71 158.5l90 23q9 -65 48 -99t99 -34q72 0 124 36.5t73 96.5l94 -23q-30 -106 -108.5 -161.5t-182.5 -55.5zM858 905h125l-158 -905h-98l2 154q-54 -76 -140.5 -123t-189.5 -47q-132 0 -205 76.5t-73 205.5q0 24 8 82l98 557h125l-102 -573
q-4 -18 -4 -56q0 -80 43.5 -128t130.5 -48q140 0 236.5 102t125.5 263z" />
    <glyph glyph-name="Uring" unicode="&#x16e;" horiz-adv-x="1441" 
d="M905 1493q-83 0 -136.5 49t-53.5 127q0 95 70.5 160t168.5 65q84 0 137.5 -49t53.5 -127q0 -95 -71.5 -160t-168.5 -65zM907 1575q63 0 105.5 40t42.5 99q0 45 -29 73t-76 28q-61 0 -103 -41t-42 -101q0 -43 27.5 -70.5t74.5 -27.5zM649 -25q-205 0 -335 106.5
t-130 289.5q0 43 9 92l161 930h135l-165 -940q-7 -47 -7 -76q0 -135 90.5 -207t243.5 -72q195 0 317.5 97t153.5 272l162 926h133l-164 -940q-41 -233 -198 -355.5t-406 -122.5z" />
    <glyph glyph-name="uring" unicode="&#x16f;" horiz-adv-x="1064" 
d="M635 1034q-83 0 -136 48.5t-53 125.5q0 93 71.5 157.5t166.5 64.5q82 0 135 -48.5t53 -124.5q0 -92 -71 -157.5t-166 -65.5zM537 1210q0 -42 27.5 -68t72.5 -26q63 0 104 39t41 98q0 43 -28 71t-74 28q-61 0 -102 -41.5t-41 -100.5zM858 905h125l-158 -905h-98l2 154
q-54 -76 -140.5 -123t-189.5 -47q-132 0 -205 76.5t-73 205.5q0 24 8 82l98 557h125l-102 -573q-4 -18 -4 -56q0 -80 43.5 -128t130.5 -48q140 0 236.5 102t125.5 263z" />
    <glyph glyph-name="Uhungarumlaut" unicode="&#x170;" horiz-adv-x="1441" 
d="M717 1538l-74 55l244 285l98 -72zM1047 1538l-74 55l244 285l98 -72zM649 -25q-205 0 -335 106.5t-130 289.5q0 43 9 92l161 930h135l-165 -940q-7 -47 -7 -76q0 -135 90.5 -207t243.5 -72q195 0 317.5 97t153.5 272l162 926h133l-164 -940q-41 -233 -198 -355.5
t-406 -122.5z" />
    <glyph glyph-name="uhungarumlaut" unicode="&#x171;" horiz-adv-x="1064" 
d="M698 1346l-252 -269l-73 56l229 284zM1044 1346l-268 -269l-74 56l244 284zM782 465l76 440h125l-158 -905h-98l2 154q-54 -76 -140.5 -123t-189.5 -47q-132 0 -205 76.5t-73 205.5q0 24 8 82l98 557h125l-102 -573q-4 -18 -4 -56q0 -80 43.5 -128t130.5 -48
q140 0 236.5 102t125.5 263z" />
    <glyph glyph-name="Uogonek" unicode="&#x172;" horiz-adv-x="1441" 
d="M1284 1393h133l-164 -938q-47 -257 -223 -377q-136 -92 -228.5 -186t-92.5 -164q0 -54 69 -54q60 0 113 39l27 -108q-73 -47 -168 -47q-83 0 -130 38.5t-47 102.5q0 129 181 283q-10 -1 -31 -3t-39.5 -3t-34.5 -1q-205 0 -335 106.5t-130 289.5q0 43 9 92l161 930h135
l-165 -940q-7 -47 -7 -76q0 -135 90.5 -207t243.5 -72q196 0 318 97t153 272z" />
    <glyph glyph-name="uogonek" unicode="&#x173;" horiz-adv-x="1064" 
d="M825 0q-104 -72 -167.5 -144.5t-63.5 -127.5q0 -54 61 -54q53 0 107 35l26 -104q-77 -47 -167 -47q-75 0 -118.5 39t-43.5 104q0 85 66.5 164.5t201.5 179.5l2 109q-54 -76 -140.5 -123t-189.5 -47q-132 0 -205 76.5t-73 205.5q0 24 8 82l98 557h125l-102 -573
q-4 -18 -4 -56q0 -80 43.5 -128t130.5 -48q140 0 236.5 102t125.5 263l76 440h125z" />
    <glyph glyph-name="Wcircumflex" unicode="&#x174;" horiz-adv-x="1976" 
d="M1212 1694l-243 -154l-56 72l299 209h29l232 -215l-64 -66zM1954 1393h143v-4l-729 -1399h-41l-199 860q-29 139 -36 186q-43 -88 -103 -186l-500 -860h-40l-238 1399v4h129l154 -920q21 -117 28 -174q58 103 99 172l495 850h35l199 -848q6 -25 12.5 -53.5t14 -64.5
t12.5 -58q22 45 90 176z" />
    <glyph glyph-name="wcircumflex" unicode="&#x175;" horiz-adv-x="1376" 
d="M829 1233l-243 -154l-56 72l299 209h31l230 -215l-64 -66zM1280 905h133v-4l-485 -911h-37l-174 612l-389 -612h-37l-170 911v4h123l104 -567q9 -52 14 -94q10 21 30.5 52t25.5 40l317 512h31l147 -520q3 -11 10.5 -36.5t10.5 -39.5q11 27 39 78z" />
    <glyph glyph-name="Ycircumflex" unicode="&#x176;" horiz-adv-x="1284" 
d="M606 1540l-55 72l299 209h29l231 -215l-63 -66l-197 154zM496 0l114 643l-397 750h139l256 -480q40 -73 80 -157q33 46 127 153l426 484h164l-662 -750l-112 -643h-135z" />
    <glyph glyph-name="ycircumflex" unicode="&#x177;" horiz-adv-x="946" 
d="M600 1233l-244 -154l-55 72l299 209h31l229 -215l-63 -66zM858 905h137v-4l-778 -1352h-137v5l285 481l-254 866v4h125l184 -631q3 -11 12 -46t14 -56q7 18 16 34.5t21 37.5t17 30z" />
    <glyph glyph-name="Ydieresis" unicode="&#x178;" horiz-adv-x="1284" 
d="M643 1608q-38 0 -60 21.5t-22 53.5q0 36 26.5 65.5t67.5 29.5q38 0 59 -22.5t21 -53.5q0 -35 -25 -64.5t-67 -29.5zM1036 1608q-38 0 -59 22t-21 53q0 35 27 65t66 30q37 0 58 -22t21 -52q0 -15 -2 -21q-5 -31 -29 -53t-61 -22zM496 0l114 643l-397 750h139l256 -480
q40 -73 80 -157q33 46 127 153l426 484h164l-662 -750l-112 -643h-135z" />
    <glyph glyph-name="Zacute" unicode="&#x179;" horiz-adv-x="1148" 
d="M989 1757l-319 -194l-58 75l308 228zM1214 1352l-942 -1172q-19 -27 -49 -57h78h719l-21 -123h-997l2 41l948 1178q27 35 43 53q-25 -2 -71 -2h-672l22 123h947z" />
    <glyph glyph-name="zacute" unicode="&#x17a;" horiz-adv-x="851" 
d="M760 1296l-320 -196l-59 78l307 227zM834 868l-551 -680l-66 -75q37 2 94 2h398l-21 -115h-680l6 37l561 690q14 20 54 66q-33 -2 -86 -2h-379l20 114h656z" />
    <glyph glyph-name="Zdotaccent" unicode="&#x17b;" horiz-adv-x="1148" 
d="M793 1597q-42 0 -65 24.5t-23 59.5q0 42 27.5 75.5t76.5 33.5q42 0 65 -24.5t23 -61.5q0 -15 -2 -23q-5 -35 -33 -59.5t-69 -24.5zM1214 1352l-942 -1172q-19 -27 -49 -57h78h719l-21 -123h-997l2 41l948 1178q27 35 43 53q-25 -2 -71 -2h-672l22 123h947z" />
    <glyph glyph-name="zdotaccent" unicode="&#x17c;" horiz-adv-x="851" 
d="M561 1139q-45 0 -68 26t-20 64q2 42 28.5 72t73.5 30t70.5 -27.5t20.5 -66.5q-2 -39 -31 -68.5t-74 -29.5zM834 868l-551 -680l-66 -75q37 2 94 2h398l-21 -115h-680l6 37l561 690q14 20 54 66q-33 -2 -86 -2h-379l20 114h656z" />
    <glyph glyph-name="Zcaron" unicode="&#x17d;" horiz-adv-x="1148" 
d="M791 1548h-31l-225 213l63 66l186 -156l246 156l62 -66zM1214 1352l-942 -1172q-19 -27 -49 -57h78h719l-21 -123h-997l2 41l948 1178q27 35 43 53q-25 -2 -71 -2h-672l22 123h947z" />
    <glyph glyph-name="zcaron" unicode="&#x17e;" horiz-adv-x="851" 
d="M559 1085h-29l-227 215l66 66l186 -156l246 156l61 -66zM164 791l20 114h656l-6 -37l-551 -680l-66 -75q37 2 94 2h398l-21 -115h-680l6 37l561 690q14 20 54 66q-33 -2 -86 -2h-379z" />
    <glyph glyph-name="florin" unicode="&#x192;" horiz-adv-x="937" 
d="M907 1374q115 0 189 -67l-66 -101q-48 45 -125 45q-85 0 -144.5 -57t-90.5 -166l-58 -209h269l-35 -123h-268l-195 -710q-50 -181 -142.5 -257.5t-228.5 -76.5q-111 0 -190 67l67 105q49 -49 125 -49q85 0 145 57t89 166l192 698l-247 4l32 119h248l62 221
q93 334 372 334z" />
    <glyph glyph-name="AEacute" unicode="&#x1fc;" horiz-adv-x="1746" 
d="M1534 1757l-320 -194l-57 75l307 228zM1786 1270h-617l-86 -492h539l-18 -119h-543l-94 -536h637l-23 -123h-764l57 324h-536l-266 -324h-154v6l1149 1387h741zM987 963q4 28 10 59.5t14 72.5t13 68q-54 -75 -125 -159l-463 -562h459z" />
    <glyph glyph-name="aeacute" unicode="&#x1fd;" horiz-adv-x="1710" 
d="M1245 1296l-319 -196l-60 78l308 227zM1376 924q130 0 206.5 -65.5t76.5 -176.5q0 -110 -78 -188.5t-209 -116t-303 -37.5q-32 0 -102 4q5 -117 71 -182.5t187 -65.5q91 0 159.5 21t137.5 67l51 -90q-162 -114 -352 -114q-103 0 -179.5 43.5t-115.5 119.5l-37 -143h-98
l12 141q-70 -76 -164 -118.5t-195 -42.5q-167 0 -260.5 103t-93.5 271q0 244 145.5 407t368.5 163q213 0 305 -164l41 145h97l-11 -139q62 76 150 117t190 41zM975 453q31 -2 90 -2q137 0 240.5 22.5t167 73t65.5 125.5q0 66 -44 101.5t-130 35.5q-153 0 -257.5 -99
t-131.5 -257zM479 96q167 0 276 127t109 309q0 127 -66.5 201t-193.5 74q-168 0 -278.5 -125.5t-110.5 -312.5q0 -127 67 -200t197 -73z" />
    <glyph glyph-name="Oslashacute" unicode="&#x1fe;" horiz-adv-x="1642" 
d="M1233 1757l-320 -194l-57 75l307 228zM1391 1268q90 -80 139 -195.5t49 -251.5q0 -67 -12 -137q-26 -149 -99 -279t-178.5 -224.5t-245 -149t-292.5 -54.5q-226 0 -381 115l-168 -192l-80 61l172 197q-148 161 -148 403q0 52 15 148q28 150 101 280t179.5 224t247 148
t295.5 54q186 0 328 -90l164 188l79 -57zM295 698q-12 -64 -12 -127q0 -189 104 -311l842 965q-111 65 -254 65q-256 0 -444 -166t-236 -426zM1434 694q10 51 10 119q0 221 -141 356l-846 -976q121 -91 299 -91q257 0 445 167t233 425z" />
    <glyph glyph-name="oslashacute" unicode="&#x1ff;" horiz-adv-x="1134" 
d="M883 1296l-320 -196l-59 78l307 227zM936 817q108 -108 108 -278q0 -41 -10 -99q-36 -204 -182.5 -332t-359.5 -128q-127 0 -224 57l-96 -115l-70 58l97 112q-109 109 -109 279q0 51 8 92q36 202 184.5 332.5t360.5 130.5q123 0 221 -56l97 113l71 -53zM223 453
q-6 -40 -6 -74q0 -118 66 -193l501 588q-62 35 -149 35q-159 0 -272 -102t-140 -254zM911 453q7 44 7 73q0 120 -66 195l-504 -588q61 -37 152 -37q158 0 270.5 99.5t140.5 257.5z" />
    <glyph glyph-name="uni0218" unicode="&#x218;" horiz-adv-x="1165" 
d="M539 -25q-286 0 -484 191l82 96q175 -164 410 -164q150 0 254 77t104 194q0 49 -20.5 89.5t-63 75t-86 59.5t-110.5 56q-62 29 -107 53.5t-95 61.5t-81 75t-51.5 89.5t-20.5 109.5q0 175 128.5 275t326.5 100q235 0 424 -147l-74 -97q-159 121 -348 121
q-137 0 -230.5 -63.5t-93.5 -179.5q0 -51 20 -92t63.5 -75.5t83.5 -57.5t108 -56q66 -31 113.5 -57.5t97.5 -63t80.5 -74.5t50.5 -88.5t20 -107.5q0 -174 -140 -287t-361 -113zM301 -565q92 174 129 350h133q-55 -220 -164 -350h-98z" />
    <glyph glyph-name="uni0219" unicode="&#x219;" horiz-adv-x="804" 
d="M334 -16q-180 0 -309 104l65 96q102 -86 248 -86q93 0 156 40t63 110q0 49 -38.5 87t-129.5 81q-55 26 -90 47t-72 52t-55 70t-18 87q0 111 86 177t223 66q145 0 270 -84l-55 -94q-100 64 -217 64q-85 0 -133.5 -33.5t-48.5 -89.5q0 -49 39.5 -84.5t119.5 -73.5
q128 -62 185 -123t57 -145q0 -128 -96.5 -198t-249.5 -70zM104 -565q92 174 129 350h134q-55 -220 -164 -350h-99z" />
    <glyph glyph-name="uni021A" unicode="&#x21a;" horiz-adv-x="1085" 
d="M1204 1393l-20 -123h-428l-226 -1270h-133l224 1270h-431l23 123h991zM244 -565q92 174 129 350h133q-55 -220 -164 -350h-98z" />
    <glyph glyph-name="uni021B" unicode="&#x21b;" horiz-adv-x="722" 
d="M389 -16q-97 0 -152 51t-55 151q0 34 6 74l93 535l-185 8l19 102h184l53 301h125l-53 -301h321l-18 -110h-321l-95 -545q-6 -27 -6 -51q0 -99 105 -99q82 0 182 66l49 -98q-121 -84 -252 -84zM131 -565q92 174 129 350h133q-55 -220 -164 -350h-98z" />
    <glyph glyph-name="uni0237" unicode="&#x237;" horiz-adv-x="464" 
d="M-229 -471l2 106q87 3 142 19.5t89.5 54t52 86.5t31.5 131l172 979h125l-174 -987q-25 -148 -71 -229.5t-133.5 -120.5t-235.5 -39z" />
    <glyph glyph-name="circumflex" unicode="&#x2c6;" horiz-adv-x="776" 
d="M293 1079l-55 72l299 209h30l230 -215l-64 -66l-196 154z" />
    <glyph glyph-name="caron" unicode="&#x2c7;" horiz-adv-x="776" 
d="M492 1085l-228 215l66 66l186 -156l246 156l61 -66l-303 -215h-28z" />
    <glyph glyph-name="breve" unicode="&#x2d8;" horiz-adv-x="751" 
d="M502 1081q-100 0 -167 58.5t-71 158.5l90 23q9 -65 48.5 -99t99.5 -34q72 0 123.5 36.5t72.5 96.5l95 -23q-30 -106 -108.5 -161.5t-182.5 -55.5z" />
    <glyph glyph-name="dotaccent" unicode="&#x2d9;" horiz-adv-x="413" 
d="M336 1139q-45 0 -68 26t-20 64q2 42 28.5 72t73.5 30t70 -27.5t20 -66.5q-2 -39 -30.5 -68.5t-73.5 -29.5z" />
    <glyph glyph-name="ring" unicode="&#x2da;" horiz-adv-x="579" 
d="M408 1034q-83 0 -136 48.5t-53 125.5q0 93 71.5 157.5t166.5 64.5q82 0 135 -48.5t53 -124.5q0 -92 -71 -157.5t-166 -65.5zM410 1116q63 0 104 39t41 98q0 43 -27.5 71t-74.5 28q-61 0 -102.5 -41.5t-41.5 -100.5q0 -42 28 -68t73 -26z" />
    <glyph glyph-name="ogonek" unicode="&#x2db;" horiz-adv-x="493" 
d="M119 -442q-75 0 -118.5 39t-43.5 104q0 86 69.5 167.5t211.5 184.5l86 -53q-105 -72 -168.5 -144.5t-63.5 -127.5q0 -24 15.5 -39t46.5 -15q52 0 106 35l27 -104q-77 -47 -168 -47z" />
    <glyph glyph-name="tilde" unicode="&#x2dc;" horiz-adv-x="729" 
d="M311 1126l-84 56q59 127 162 127q47 0 119.5 -34t97.5 -34q51 0 90 74l84 -58q-67 -122 -162 -122q-43 0 -113 33.5t-99 33.5q-56 0 -95 -76z" />
    <glyph glyph-name="hungarumlaut" unicode="&#x2dd;" horiz-adv-x="770" 
d="M274 1077l-73 56l229 284l96 -71zM604 1077l-74 56l244 284l98 -71z" />
    <glyph glyph-name="gravecomb" unicode="&#x300;" 
d="M-23 1102l-258 205l93 90l233 -232z" />
    <glyph glyph-name="acutecomb" unicode="&#x301;" 
d="M-270 1100l-60 78l307 227l72 -109z" />
    <glyph glyph-name="uni0302" unicode="&#x302;" 
d="M-492 1079l-55 72l299 209h31l229 -215l-63 -66l-197 154z" />
    <glyph glyph-name="tildecomb" unicode="&#x303;" 
d="M-426 1126l-84 56q59 127 162 127q47 0 119.5 -34t97.5 -34q51 0 90 74l84 -58q-67 -122 -162 -122q-43 0 -113.5 33.5t-99.5 33.5q-55 0 -94 -76z" />
    <glyph glyph-name="uni0304" unicode="&#x304;" 
d="M-553 1147l18 108h543l-18 -108h-543z" />
    <glyph glyph-name="uni0306" unicode="&#x306;" 
d="M-256 1081q-100 0 -167 58.5t-71 158.5l91 23q9 -65 48 -99t99 -34q72 0 124 36.5t73 96.5l94 -23q-30 -106 -108.5 -161.5t-182.5 -55.5z" />
    <glyph glyph-name="uni0307" unicode="&#x307;" 
d="M-86 1139q-45 0 -68 26t-20 64q2 42 28.5 72t73.5 30t70 -27.5t20 -66.5q-2 -39 -30.5 -68.5t-73.5 -29.5z" />
    <glyph glyph-name="uni0308" unicode="&#x308;" 
d="M-496 1149q-40 0 -63 23t-23 57q0 36 28.5 67t70.5 31q39 0 61.5 -23.5t22.5 -56.5q0 -37 -27 -67.5t-70 -30.5zM-84 1149q-40 0 -61 24t-21 58q0 37 26 66.5t68 29.5q40 0 62 -24t22 -58q0 -35 -27 -65.5t-69 -30.5z" />
    <glyph glyph-name="uni030A" unicode="&#x30a;" 
d="M-180 1034q-83 0 -136 48.5t-53 125.5q0 93 71.5 157.5t166.5 64.5q82 0 135 -48.5t53 -124.5q0 -92 -71 -157.5t-166 -65.5zM-178 1116q63 0 104 39t41 98q0 43 -27.5 71t-74.5 28q-61 0 -102.5 -41.5t-41.5 -100.5q0 -42 28 -68t73 -26z" />
    <glyph glyph-name="uni030B" unicode="&#x30b;" 
d="M-504 1077l-74 56l230 284l96 -71zM-174 1077l-74 56l244 284l98 -71z" />
    <glyph glyph-name="uni030C" unicode="&#x30c;" 
d="M-291 1085l-227 215l65 66l187 -156l246 156l61 -66l-303 -215h-29z" />
    <glyph glyph-name="uni0312" unicode="&#x312;" 
d="M-184 1108q58 227 164 350h98q-96 -182 -129 -350h-133z" />
    <glyph glyph-name="uni0326" unicode="&#x326;" 
d="M-479 -565q92 174 129 350h133q-55 -220 -164 -350h-98z" />
    <glyph glyph-name="uni0327" unicode="&#x327;" 
d="M-461 -434q-121 0 -203 57l52 80q58 -43 139 -43q54 0 93 20.5t46 59.5q10 44 -32.5 68t-116.5 24q-29 0 -43 -2l100 170h109l-72 -106q74 -6 119 -45t45 -99q0 -89 -69 -136.5t-167 -47.5z" />
    <glyph glyph-name="uni0328" unicode="&#x328;" 
d="M-381 -442q-75 0 -118.5 39t-43.5 104q0 86 69.5 167.5t211.5 184.5l86 -53q-105 -72 -168.5 -144.5t-63.5 -127.5q0 -24 15.5 -39t46.5 -15q52 0 106 35l27 -104q-77 -47 -168 -47z" />
    <glyph glyph-name="pi" unicode="&#x3c0;" horiz-adv-x="1216" 
d="M1251 905l-20 -114h-182l-140 -791h-125l142 791h-500l-141 -791h-123l139 791h-184l20 114h1114z" />
    <glyph glyph-name="uni0401" unicode="&#x401;" horiz-adv-x="1144" 
d="M637 1608q-38 0 -60 21.5t-22 53.5q0 36 26.5 65.5t67.5 29.5q38 0 59 -22.5t21 -53.5q0 -35 -25 -64.5t-67 -29.5zM1030 1608q-38 0 -59 22t-21 53q0 35 26.5 65t65.5 30q38 0 59 -22t21 -52q0 -15 -2 -21q-5 -31 -29 -53t-61 -22zM1192 1270h-707l-88 -496h617
l-23 -119h-614l-94 -532h718l-22 -123h-852l244 1393h841z" />
    <glyph glyph-name="uni0402" unicode="&#x402;" horiz-adv-x="1423" 
d="M938 860q182 0 273.5 -90t91.5 -248q0 -39 -11 -114q-16 -90 -53.5 -163.5t-91 -123.5t-115 -83.5t-131.5 -51.5l-22 116q249 77 290 330q7 47 7 78q0 108 -62.5 167.5t-195.5 59.5q-138 0 -291 -51l-121 -686h-135l225 1270h-406l23 123h1004l-23 -123h-465l-80 -455
q149 45 289 45z" />
    <glyph glyph-name="uni0403" unicode="&#x403;" horiz-adv-x="1081" 
d="M715 1563l-58 75l308 228l69 -109zM127 0l244 1393h833l-20 -123h-701l-223 -1270h-133z" />
    <glyph glyph-name="uni0404" unicode="&#x404;" horiz-adv-x="1427" 
d="M971 1290q-238 0 -420 -150.5t-242 -381.5h643l-20 -123h-645q-2 -18 -2 -55q0 -135 52.5 -242t160 -171.5t254.5 -64.5q155 0 271.5 61.5t231.5 184.5l86 -82q-123 -139 -276 -212.5t-320 -73.5q-181 0 -317.5 77t-207 209.5t-70.5 300.5q0 69 12 142q35 196 146.5 355
t288.5 254t386 95q312 0 494 -227l-91 -84q-72 93 -171 140.5t-244 47.5z" />
    <glyph glyph-name="uni0405" unicode="&#x405;" horiz-adv-x="1165" 
d="M539 -25q-286 0 -484 191l82 96q175 -164 410 -164q150 0 254 77t104 194q0 49 -20.5 89.5t-63 75t-86 59.5t-110.5 56q-62 29 -107 53.5t-95 61.5t-81 75t-51.5 89.5t-20.5 109.5q0 175 128.5 275t326.5 100q235 0 424 -147l-74 -97q-159 121 -348 121
q-137 0 -230.5 -63.5t-93.5 -179.5q0 -51 20 -92t63.5 -75.5t83.5 -57.5t108 -56q66 -31 113.5 -57.5t97.5 -63t80.5 -74.5t50.5 -88.5t20 -107.5q0 -174 -140 -287t-361 -113z" />
    <glyph glyph-name="uni0406" unicode="&#x406;" horiz-adv-x="546" 
d="M127 0l244 1393h133l-244 -1393h-133z" />
    <glyph glyph-name="uni0407" unicode="&#x407;" horiz-adv-x="546" 
d="M289 1608q-38 0 -60 21.5t-22 53.5q0 36 26.5 65.5t67.5 29.5q38 0 59 -22.5t21 -53.5q0 -35 -25 -64.5t-67 -29.5zM682 1608q-38 0 -59 22t-21 53q0 35 26.5 65t65.5 30q38 0 59 -22t21 -52q0 -15 -2 -21q-5 -31 -29 -53t-61 -22zM127 0l244 1393h133l-244 -1393h-133z
" />
    <glyph glyph-name="uni0408" unicode="&#x408;" horiz-adv-x="1030" 
d="M334 -25q-205 0 -363 131l78 107q60 -55 135.5 -85t153.5 -30q153 0 246.5 87t122.5 255l165 953h134l-170 -977q-37 -215 -164.5 -328t-337.5 -113z" />
    <glyph glyph-name="uni0409" unicode="&#x409;" horiz-adv-x="2021" 
d="M1567 815q169 0 276 -92.5t107 -247.5q0 -45 -8 -84q-34 -182 -164 -286.5t-334 -104.5h-467l223 1270h-500l-174 -613q-96 -342 -225.5 -499t-318.5 -168l-17 119q138 9 245.5 156.5t192.5 441.5l199 686h754l-103 -578h314zM1810 406q7 40 7 65q0 104 -71 162.5
t-200 58.5h-313l-100 -569h323q145 0 237.5 77t116.5 206z" />
    <glyph glyph-name="uni040A" unicode="&#x40a;" horiz-adv-x="2074" 
d="M1632 805q159 0 264 -96t105 -246q0 -33 -6 -70q-31 -174 -167 -283.5t-331 -109.5h-469l119 682h-768l-121 -682h-133l246 1393h133l-103 -588h768l105 588h133l-104 -588h329zM1868 455q0 101 -68 164t-182 63h-336l-98 -559h329q144 0 249.5 96t105.5 236z" />
    <glyph glyph-name="uni040B" unicode="&#x40b;" horiz-adv-x="1433" 
d="M944 860q156 0 254 -79t98 -222q0 -37 -6 -74l-86 -485h-133l86 500q4 18 4 53q0 93 -65 138.5t-183 45.5q-135 0 -286 -51l-121 -686h-133l223 1270h-406l23 123h1004l-23 -123h-465l-80 -455q139 45 295 45z" />
    <glyph glyph-name="uni040C" unicode="&#x40c;" horiz-adv-x="1196" 
d="M1130 1743l-321 -195l-57 76l307 227zM1280 1393v-7l-774 -692l590 -688v-6h-158l-563 662l-117 -662h-133l246 1393h133l-115 -650l725 650h166z" />
    <glyph glyph-name="uni040D" unicode="&#x40d;" horiz-adv-x="1601" 
d="M1221 1612l-68 -64l-258 205l92 92zM1522 1403h43l-248 -1403h-135l170 952q17 105 28 156q-28 -30 -116 -113l-1096 -1005h-43l246 1403h133l-164 -922q-5 -31 -39 -182q58 58 148 137z" />
    <glyph glyph-name="uni040E" unicode="&#x40e;" horiz-adv-x="1249" 
d="M799 1534q-103 0 -173 45.5t-102 122.5l82 57q63 -119 193 -119q146 0 243 115l80 -49q-110 -172 -323 -172zM1241 1393h150v-4l-633 -988q-130 -202 -267 -303t-309 -108l-16 119q121 10 218 74.5t191 187.5l-387 1018v4h142l336 -891z" />
    <glyph glyph-name="uni040F" unicode="&#x40f;" horiz-adv-x="1466" 
d="M1425 1393l-243 -1393h-461l-55 -311h-136l58 311h-461l244 1393h133l-223 -1270h788l223 1270h133z" />
    <glyph glyph-name="uni0410" unicode="&#x410;" horiz-adv-x="1392" 
d="M885 1403l405 -1397v-6h-135l-92 319h-764l-203 -319h-145v4l889 1399h45zM825 1155q-34 -65 -108 -180l-340 -533h653l-153 531q-9 32 -26.5 92t-25.5 90z" />
    <glyph glyph-name="uni0411" unicode="&#x411;" horiz-adv-x="1282" 
d="M1202 1270h-719l-80 -455h375q179 0 287.5 -92.5t108.5 -245.5q0 -15 -9 -80q-31 -182 -167 -289.5t-349 -107.5h-524l246 1393h854zM766 692h-385l-100 -569h383q143 0 244 78t126 211q6 30 6 61q0 105 -72.5 162t-201.5 57z" />
    <glyph glyph-name="uni0412" unicode="&#x412;" horiz-adv-x="1282" 
d="M127 0l244 1393h493q150 0 246 -82t96 -219q0 -32 -6 -70q-36 -211 -233 -301q87 -25 138.5 -96.5t51.5 -173.5q0 -24 -8 -78q-30 -178 -161 -275.5t-331 -97.5h-530zM399 782h375q122 0 210.5 86.5t88.5 210.5q0 92 -65 141.5t-179 49.5h-346zM283 123h393q133 0 227 74
t117 198q4 18 4 51q0 99 -70.5 156t-177.5 57h-399z" />
    <glyph glyph-name="uni0413" unicode="&#x413;" horiz-adv-x="1081" 
d="M127 0l244 1393h833l-20 -123h-701l-223 -1270h-133z" />
    <glyph glyph-name="uni0414" unicode="&#x414;" horiz-adv-x="1419" 
d="M1360 1393l-225 -1270h170l-78 -434h-133l55 311h-1086l-55 -311h-133l78 434h158q143 210 247 565l205 705h797zM481 645q-90 -310 -219 -522h739l203 1147h-545z" />
    <glyph glyph-name="uni0415" unicode="&#x415;" horiz-adv-x="1144" 
d="M1192 1270h-707l-88 -496h617l-23 -119h-614l-94 -532h718l-22 -123h-852l244 1393h841z" />
    <glyph glyph-name="uni0416" unicode="&#x416;" horiz-adv-x="1699" 
d="M1815 1393v-4l-736 -697l520 -688v-4h-153l-492 651h-2l-114 -651h-133l114 647l-704 -647h-174v4l770 713l-494 672v4h143l478 -643l112 643h133l-112 -639l676 639h168z" />
    <glyph glyph-name="uni0417" unicode="&#x417;" horiz-adv-x="1157" 
d="M475 -18q-305 0 -461 196l88 94q123 -168 377 -168q175 2 297.5 98t122.5 247q0 100 -70.5 157.5t-187.5 57.5h-211l23 122h182q119 0 192 64t91 168q4 18 4 55q0 99 -70 158t-195 59q-180 0 -352 -121l-55 105q202 139 424 139q168 0 274.5 -93.5t106.5 -238.5
q0 -33 -6 -67q-16 -94 -71 -173.5t-144 -117.5q87 -25 142.5 -102.5t55.5 -180.5q0 -30 -6 -65q-31 -176 -178.5 -284.5t-372.5 -108.5z" />
    <glyph glyph-name="uni0418" unicode="&#x418;" horiz-adv-x="1601" 
d="M1522 1403h43l-248 -1403h-135l170 952q17 105 28 156q-28 -30 -116 -113l-1096 -1005h-43l246 1403h133l-164 -922q-5 -31 -39 -182q58 58 148 137z" />
    <glyph glyph-name="uni0419" unicode="&#x419;" horiz-adv-x="1601" 
d="M1004 1534q-103 0 -173 45.5t-102 122.5l82 57q63 -119 193 -119q146 0 243 115l80 -49q-110 -172 -323 -172zM1522 1403h43l-248 -1403h-135l170 952q17 105 28 156q-28 -30 -116 -113l-1096 -1005h-43l246 1403h133l-164 -922q-5 -31 -39 -182q58 58 148 137z" />
    <glyph glyph-name="uni041A" unicode="&#x41a;" horiz-adv-x="1196" 
d="M1280 1393v-7l-774 -692l590 -688v-6h-158l-563 662l-117 -662h-133l246 1393h133l-115 -650l725 650h166z" />
    <glyph glyph-name="uni041B" unicode="&#x41b;" horiz-adv-x="1435" 
d="M-18 -10l-17 119q138 9 245.5 156.5t192.5 441.5l199 686h795l-246 -1393h-133l223 1270h-543l-176 -613q-98 -344 -225 -500t-315 -167z" />
    <glyph glyph-name="uni041C" unicode="&#x41c;" horiz-adv-x="1765" 
d="M1571 1403h39l-45 -1403h-133l32 922q1 18 11 165q-89 -112 -113 -141l-479 -598h-31l-256 588l-70 164q-22 -91 -45 -166l-301 -934h-139l451 1403h40l297 -688q11 -26 33.5 -77.5t32.5 -76.5q22 32 117 152z" />
    <glyph glyph-name="uni041D" unicode="&#x41d;" horiz-adv-x="1525" 
d="M1352 1393h133l-244 -1393h-133l113 641h-848l-113 -641h-133l244 1393h133l-111 -629h848z" />
    <glyph glyph-name="uni041E" unicode="&#x41e;" horiz-adv-x="1642" 
d="M752 -25q-273 0 -439 163t-166 425q0 50 15 146q37 202 151 362.5t289.5 253t382.5 92.5q171 0 306.5 -77t211.5 -213t76 -306q0 -67 -12 -137q-26 -149 -99 -279.5t-178.5 -225.5t-245 -149.5t-292.5 -54.5zM756 98q257 0 445 168.5t233 427.5q10 51 10 119
q0 209 -128.5 345t-340.5 136q-256 0 -444 -167t-236 -429q-12 -64 -12 -127q0 -210 127 -341.5t346 -131.5z" />
    <glyph glyph-name="uni041F" unicode="&#x41f;" horiz-adv-x="1468" 
d="M127 0l244 1393h1056l-245 -1393h-133l223 1270h-789l-223 -1270h-133z" />
    <glyph glyph-name="uni0420" unicode="&#x420;" horiz-adv-x="1220" 
d="M881 1393q181 0 275.5 -99t94.5 -250q0 -25 -8 -83q-14 -78 -52 -148t-98.5 -128t-152.5 -92t-203 -34h-381l-98 -559h-133l246 1393h510zM1112 979q6 34 6 63q0 108 -66.5 168t-187.5 60h-381l-104 -588h354q160 0 259.5 87t119.5 210z" />
    <glyph glyph-name="uni0421" unicode="&#x421;" horiz-adv-x="1425" 
d="M745 -25q-181 0 -317.5 78t-207 211.5t-70.5 302.5q0 69 12 142q26 147 98 276.5t176.5 225t245.5 151t297 55.5q305 0 494 -227l-91 -74q-74 87 -171.5 132.5t-239.5 45.5q-169 0 -314.5 -80.5t-239.5 -216.5t-122 -303q-10 -68 -10 -119q0 -134 52.5 -240.5t160 -171.5
t254.5 -65q152 0 271.5 61t229.5 179l84 -82q-126 -139 -270.5 -210t-321.5 -71z" />
    <glyph glyph-name="uni0422" unicode="&#x422;" horiz-adv-x="1085" 
d="M1204 1393l-20 -123h-428l-226 -1270h-133l224 1270h-431l23 123h991z" />
    <glyph glyph-name="uni0423" unicode="&#x423;" horiz-adv-x="1249" 
d="M1241 1393h150v-4l-633 -988q-130 -202 -267 -303t-309 -108l-16 119q121 10 218 74.5t191 187.5l-387 1018v4h142l336 -891z" />
    <glyph glyph-name="uni0424" unicode="&#x424;" horiz-adv-x="1681" 
d="M1061 1319q268 -19 422.5 -155.5t154.5 -350.5q0 -44 -10 -106q-44 -255 -250.5 -417t-529.5 -175l-39 -217h-129l37 217q-268 19 -425 157.5t-157 352.5q0 44 10 102q45 255 255 417t532 175l33 197h129zM1499 713q8 44 8 96q0 175 -123 275.5t-348 111.5l-168 -958
q261 17 428.5 143t202.5 332zM276 721q-8 -44 -8 -94q0 -177 124 -278.5t349 -110.5l172 958q-263 -15 -432.5 -142t-204.5 -333z" />
    <glyph glyph-name="uni0425" unicode="&#x425;" horiz-adv-x="1263" 
d="M-39 0v4l647 731l-350 654v4h141l244 -449q43 -84 53 -108q46 54 88 100l406 457h162v-4l-592 -668l383 -717v-4h-142l-249 465q-47 89 -82 160q-56 -75 -109 -133l-438 -492h-162z" />
    <glyph glyph-name="uni0426" unicode="&#x426;" horiz-adv-x="1497" 
d="M1421 1393l-225 -1270h186l-77 -434h-134l56 311h-1100l244 1393h133l-223 -1270h782l223 1270h135z" />
    <glyph glyph-name="uni0427" unicode="&#x427;" horiz-adv-x="1320" 
d="M1149 1393h133l-246 -1393h-133l103 580q-180 -62 -369 -62q-197 0 -315.5 91t-118.5 259q0 46 8 90l78 435h133l-78 -439q-6 -40 -6 -75q0 -236 301 -236q188 0 391 76z" />
    <glyph glyph-name="uni0428" unicode="&#x428;" horiz-adv-x="2078" 
d="M1905 1393h135l-246 -1393h-1669l246 1393h133l-223 -1270h632l226 1270h133l-225 -1270h634z" />
    <glyph glyph-name="uni0429" unicode="&#x429;" horiz-adv-x="2117" 
d="M2042 1393l-225 -1270h184l-76 -434h-135l55 311h-1720l246 1393h135l-225 -1270h632l226 1270h135l-227 -1270h636l224 1270h135z" />
    <glyph glyph-name="uni042A" unicode="&#x42a;" horiz-adv-x="1478" 
d="M1024 815q169 0 276 -89.5t107 -246.5q0 -49 -8 -90q-34 -177 -167 -283t-333 -106h-524l223 1270h-410l23 123h545l-103 -578h371zM1268 403q8 50 8 70q0 107 -72 163t-200 56h-373l-101 -569h383q142 0 237.5 78t117.5 202z" />
    <glyph glyph-name="uni042B" unicode="&#x42b;" horiz-adv-x="1759" 
d="M774 817q169 0 276 -89.5t107 -248.5q0 -49 -8 -90q-34 -176 -167.5 -282.5t-332.5 -106.5h-524l246 1393h133l-101 -576h371zM1583 1393h135l-243 -1393h-136zM1018 403q6 38 6 70q0 108 -70.5 164.5t-199.5 56.5h-373l-100 -571h383q142 0 237 78t117 202z" />
    <glyph glyph-name="uni042C" unicode="&#x42c;" horiz-adv-x="1228" 
d="M774 817q169 0 276 -89.5t107 -248.5q0 -49 -8 -90q-34 -176 -167.5 -282.5t-332.5 -106.5h-524l246 1393h133l-101 -576h371zM1018 403q6 38 6 70q0 108 -70.5 164.5t-199.5 56.5h-373l-100 -571h383q142 0 237 78t117 202z" />
    <glyph glyph-name="uni042D" unicode="&#x42d;" horiz-adv-x="1458" 
d="M797 1413q175 0 312.5 -77.5t211.5 -212t74 -300.5q0 -60 -13 -133q-26 -146 -96 -274.5t-173 -225.5t-244 -153.5t-300 -56.5q-96 0 -184.5 25.5t-157 69t-120.5 95.5t-87 111l105 63q86 -124 189 -183t259 -59q164 0 304 73.5t230 192.5t130 267h-668l21 123h670
q2 18 2 55q0 209 -130 343t-344 134q-139 0 -255 -44.5t-228 -141.5l-86 88q131 116 271 168.5t307 52.5z" />
    <glyph glyph-name="uni042E" unicode="&#x42e;" horiz-adv-x="2115" 
d="M1458 1413q171 0 306.5 -77t211.5 -213t76 -306q0 -65 -12 -133q-26 -149 -99 -278.5t-178.5 -223.5t-245 -148t-292.5 -54q-172 0 -309.5 77.5t-215 214t-77.5 306.5q0 41 2 61h-254l-113 -639h-133l246 1393h133l-111 -631h254q46 187 162 334.5t286 232t363 84.5z
M1909 694q10 65 10 115q0 210 -128.5 345.5t-340.5 135.5q-251 0 -443.5 -168t-238.5 -424q-10 -49 -10 -116q0 -208 129 -344t342 -136q170 0 315 77t240 211.5t125 303.5z" />
    <glyph glyph-name="uni042F" unicode="&#x42f;" horiz-adv-x="1327" 
d="M809 1393h479l-246 -1393h-133l103 588h-307l-562 -588h-166v6l576 598q-126 34 -198 124.5t-72 213.5q0 33 6 70q33 177 168.5 279t351.5 102zM684 711h350l99 559h-338q-150 0 -250 -71.5t-123 -201.5q-6 -30 -6 -57q0 -105 71.5 -167t196.5 -62z" />
    <glyph glyph-name="uni0430" unicode="&#x430;" horiz-adv-x="1181" 
d="M1006 905h96l-160 -905h-98l10 143q-150 -163 -377 -163q-179 0 -283 109.5t-104 279.5q0 42 10 100q36 200 177 327.5t341 127.5q112 0 198 -47t134 -132zM901 449q8 36 8 79q0 123 -75.5 201t-217.5 78q-147 0 -254 -96t-137 -248q-8 -39 -8 -84q0 -128 76.5 -205.5
t208.5 -77.5q155 0 263 102.5t136 250.5z" />
    <glyph glyph-name="uni0431" unicode="&#x431;" horiz-adv-x="1142" 
d="M684 915q101 0 183.5 -40t135 -123.5t52.5 -198.5q0 -36 -11 -100q-19 -114 -69.5 -204.5t-122 -148t-157.5 -88t-181 -30.5q-181 0 -289 99.5t-108 297.5q0 85 16 164l23 119q77 418 374 593q94 58 193 90t188 57t156 64l35 -110q-90 -50 -256.5 -98t-257.5 -101
q-213 -120 -293 -409q161 167 389 167zM920 453q6 40 6 75q0 122 -72.5 197.5t-204.5 75.5q-146 0 -258.5 -99.5t-138.5 -250.5q-8 -58 -8 -82q0 -128 74 -199.5t200 -71.5q160 0 267.5 100t134.5 255z" />
    <glyph glyph-name="uni0432" unicode="&#x432;" horiz-adv-x="972" 
d="M874 647q-24 -138 -157 -188q62 -19 97.5 -66t35.5 -112q0 -13 -4 -41q-20 -115 -106 -177.5t-228 -62.5h-430l158 905h391q111 0 179.5 -56t68.5 -153q0 -9 -5 -49zM756 680q0 50 -35 81.5t-105 31.5h-272l-49 -277h266q93 0 144 47t51 117zM723 262q2 10 2 27
q0 53 -37 83.5t-108 30.5h-304l-51 -290h299q86 0 137 41t62 108z" />
    <glyph glyph-name="uni0433" unicode="&#x433;" horiz-adv-x="794" 
d="M80 0l160 905h583l-18 -114h-461l-139 -791h-125z" />
    <glyph glyph-name="uni0434" unicode="&#x434;" horiz-adv-x="1056" 
d="M963 905l-140 -790h129l-61 -355h-121l41 240h-735l-41 -240h-121l61 355h115q55 65 84 132t59 179l136 479h594zM461 791l-109 -396q-26 -98 -51 -160t-65 -120h462l119 676h-356z" />
    <glyph glyph-name="uni0435" unicode="&#x435;" horiz-adv-x="966" 
d="M915 680q0 -91 -50 -159t-136 -106t-187 -55.5t-218 -17.5q-53 0 -107 4q9 -114 85.5 -182t191.5 -68q80 0 146.5 19t137.5 67l49 -98q-160 -104 -344 -104q-173 0 -283 109.5t-110 272.5q0 152 69.5 281.5t193 206t272.5 76.5q134 0 212 -66.5t78 -179.5zM223 457
q50 -4 99 -4q90 0 167.5 10.5t149.5 33.5t114 68.5t42 108.5q0 65 -46 100t-124 35q-152 0 -263 -103.5t-139 -248.5z" />
    <glyph glyph-name="uni0436" unicode="&#x436;" horiz-adv-x="1245" 
d="M1257 905v-4l-456 -434l346 -463v-4h-137l-328 430l-76 -430h-125l76 432l-457 -432h-161v4l518 485l-312 412v4h138l290 -387l68 387h125l-68 -383l404 383h155z" />
    <glyph glyph-name="uni0437" unicode="&#x437;" horiz-adv-x="841" 
d="M332 -14q-199 0 -336 106l74 94q101 -83 252 -86q117 0 187.5 46.5t84.5 121.5q2 8 2 27q0 54 -40 86.5t-116 32.5h-190l20 114h164q84 0 132 45.5t48 110.5q0 55 -41.5 88t-123.5 33q-113 0 -248 -66l-35 105q155 76 297 76q116 0 196 -58.5t80 -161.5q0 -33 -4 -49
q-10 -57 -49.5 -108t-101.5 -70q64 -17 99.5 -66.5t35.5 -117.5q0 -15 -4 -43q-22 -120 -125 -190t-258 -70z" />
    <glyph glyph-name="uni0438" unicode="&#x438;" horiz-adv-x="1081" 
d="M950 905h49l-159 -905h-123l92 528q14 72 27 125q-63 -66 -131 -125l-576 -528h-49l160 905h125l-95 -526q-7 -48 -26 -131q76 80 135 131z" />
    <glyph glyph-name="uni0439" unicode="&#x439;" horiz-adv-x="1081" 
d="M707 1110q-88 0 -150 37.5t-92 107.5l80 58q23 -48 65.5 -73.5t96.5 -25.5q120 0 206 99l78 -58q-104 -145 -284 -145zM950 905h49l-159 -905h-123l92 528q14 72 27 125q-63 -66 -131 -125l-576 -528h-49l160 905h125l-95 -526q-7 -48 -26 -131q76 80 135 131z" />
    <glyph glyph-name="uni043A" unicode="&#x43a;" horiz-adv-x="882" 
d="M901 905l-2 -6l-502 -436l385 -453v-10h-143l-360 422l-74 -422h-125l160 905h125l-70 -391l444 391h162z" />
    <glyph glyph-name="uni043B" unicode="&#x43b;" horiz-adv-x="1040" 
d="M-37 -12l-10 104q123 17 191.5 97.5t109.5 242.5l123 473h581l-159 -905h-123l137 791h-346l-96 -385q-53 -205 -148.5 -304t-259.5 -114z" />
    <glyph glyph-name="uni043C" unicode="&#x43c;" horiz-adv-x="1234" 
d="M1073 907h51l-88 -907h-123l52 541q8 71 14 112q-42 -53 -98 -112l-277 -297h-43l-180 297q-2 3 -68 121q-8 -52 -24 -119l-127 -543h-123l213 907h41l252 -422q27 -43 51 -90q33 44 78 92z" />
    <glyph glyph-name="uni043D" unicode="&#x43d;" horiz-adv-x="1069" 
d="M864 907h125l-160 -907h-124l71 401h-500l-71 -401h-125l160 907h125l-70 -393h500z" />
    <glyph glyph-name="uni043E" unicode="&#x43e;" horiz-adv-x="1134" 
d="M492 -20q-180 0 -291 110t-111 281q0 51 8 92q36 202 183 332.5t360 130.5q181 0 291 -109.5t110 -281.5q0 -51 -8 -95q-36 -204 -182 -332t-360 -128zM500 96q159 0 271 99t140 258q7 44 7 71q0 128 -76.5 206.5t-208.5 78.5q-158 0 -270.5 -102t-139.5 -254
q-6 -40 -6 -76q0 -126 76.5 -203.5t206.5 -77.5z" />
    <glyph glyph-name="uni043F" unicode="&#x43f;" horiz-adv-x="1069" 
d="M82 0l158 905h749l-160 -905h-122l137 791h-500l-137 -791h-125z" />
    <glyph glyph-name="uni0440" unicode="&#x440;" horiz-adv-x="1179" 
d="M700 924q181 0 285.5 -109t104.5 -280q0 -37 -11 -101q-16 -91 -57.5 -171t-104 -144t-153.5 -101.5t-197 -37.5q-121 0 -211.5 52.5t-132.5 143.5q-8 -116 -18 -170l-80 -457h-125l240 1356h94l2 -139q70 77 164.5 117.5t199.5 40.5zM954 440q9 44 9 84
q0 128 -75.5 205.5t-211.5 77.5q-155 0 -262 -100t-133 -242q-9 -61 -9 -80q0 -128 77 -208.5t214 -80.5q148 0 255.5 96t135.5 248z" />
    <glyph glyph-name="uni0441" unicode="&#x441;" horiz-adv-x="948" 
d="M477 -23q-162 0 -274.5 107t-112.5 285q0 42 10 100q37 210 187 333.5t342 123.5q97 0 170 -32.5t135 -100.5l-82 -80q-84 96 -225 96q-142 0 -259.5 -98t-144.5 -256q-6 -37 -6 -74q0 -127 74.5 -207t200.5 -80q88 0 152.5 25t135.5 86l58 -94q-155 -134 -361 -134z" />
    <glyph glyph-name="uni0442" unicode="&#x442;" horiz-adv-x="788" 
d="M254 0l137 791h-289l21 114h702l-20 -114h-289l-139 -791h-123z" />
    <glyph glyph-name="uni0443" unicode="&#x443;" horiz-adv-x="950" 
d="M860 905h137v-4l-559 -973q-154 -269 -454 -379l-39 113q261 94 385 307l37 64l-254 868v4h123l213 -729z" />
    <glyph glyph-name="uni0444" unicode="&#x444;" horiz-adv-x="1316" 
d="M801 918q196 -19 311 -125.5t115 -268.5q0 -24 -8 -82q-36 -197 -191.5 -320.5t-392.5 -135.5l-76 -439h-121l76 439q-196 19 -310 126.5t-114 270.5q0 24 8 82q34 195 189 318t393 135l88 507h123zM1096 453q6 34 6 65q0 121 -85.5 197t-236.5 86l-125 -699
q179 15 297 107.5t144 243.5zM221 455q-6 -37 -6 -68q0 -122 84 -197.5t236 -87.5l127 699q-179 -15 -297 -106.5t-144 -239.5z" />
    <glyph glyph-name="uni0445" unicode="&#x445;" horiz-adv-x="901" 
d="M905 905v-4l-383 -432l254 -465v-4h-131l-149 274q-10 19 -28 53.5t-28 53.5q-31 -38 -88 -107l-241 -274h-146v4l420 479l-225 418v4h129l123 -229q31 -54 55 -109q63 78 92 111l201 227h145z" />
    <glyph glyph-name="uni0446" unicode="&#x446;" horiz-adv-x="1075" 
d="M985 905l-139 -790h125l-60 -355h-123l43 240h-751l160 905h125l-140 -790h496l139 790h125z" />
    <glyph glyph-name="uni0447" unicode="&#x447;" horiz-adv-x="954" 
d="M748 905h124l-159 -905h-123l59 338q-119 -33 -227 -33q-145 0 -227 67t-82 185q0 29 6 59l51 289h125l-53 -301q-4 -28 -4 -41q0 -71 49.5 -107t138.5 -36q119 0 244 39z" />
    <glyph glyph-name="uni0448" unicode="&#x448;" horiz-adv-x="1486" 
d="M1284 905h123l-160 -905h-1167l160 905h125l-140 -790h398l139 790h125l-139 -790h397z" />
    <glyph glyph-name="uni0449" unicode="&#x449;" horiz-adv-x="1495" 
d="M1405 905l-139 -790h127l-64 -355h-121l43 240h-1171l160 905h125l-140 -790h398l137 790h125l-137 -790h393l139 790h125z" />
    <glyph glyph-name="uni044A" unicode="&#x44a;" horiz-adv-x="1058" 
d="M676 582q129 0 209 -64.5t80 -177.5q0 -35 -4 -55q-25 -138 -123 -211.5t-260 -73.5h-377l137 791h-250l21 114h374l-57 -323h250zM838 293q2 12 2 35q0 66 -47 102.5t-134 36.5h-253l-62 -352h244q105 0 170 45t80 133z" />
    <glyph glyph-name="uni044B" unicode="&#x44b;" horiz-adv-x="1353" 
d="M555 582q130 0 210.5 -65.5t80.5 -178.5q0 -37 -4 -57q-23 -135 -121.5 -208t-259.5 -73h-379l158 905h125l-58 -323h248zM1149 905h125l-160 -905h-125zM719 293q4 24 4 37q0 64 -47.5 100.5t-134.5 36.5h-254l-62 -352h246q104 0 169.5 45.5t78.5 132.5z" />
    <glyph glyph-name="uni044C" unicode="&#x44c;" horiz-adv-x="940" 
d="M555 582q130 0 210.5 -65.5t80.5 -178.5q0 -37 -4 -57q-23 -135 -121.5 -208t-259.5 -73h-379l158 905h125l-58 -323h248zM719 293q4 24 4 37q0 64 -47.5 100.5t-134.5 36.5h-254l-62 -352h246q104 0 169.5 45.5t78.5 132.5z" />
    <glyph glyph-name="uni044D" unicode="&#x44d;" horiz-adv-x="974" 
d="M483 926q171 0 286.5 -104.5t115.5 -284.5q0 -37 -11 -101q-36 -202 -182.5 -329t-351.5 -127q-224 0 -350 167l92 70q52 -64 113 -92.5t153 -28.5q139 0 248 88t145 219h-424l19 115h424q3 132 -75.5 211.5t-207.5 79.5q-157 0 -289 -102l-73 81q156 138 368 138z" />
    <glyph glyph-name="uni044E" unicode="&#x44e;" horiz-adv-x="1515" 
d="M1022 926q185 0 295 -107t110 -278q0 -43 -10 -101q-38 -204 -183.5 -332t-359.5 -128q-188 0 -300 119t-101 302h-197l-71 -401h-125l160 905h125l-70 -391h199q47 183 188.5 297.5t339.5 114.5zM1294 453q6 38 6 73q0 128 -76 205.5t-208 77.5q-158 0 -270.5 -102
t-139.5 -254q-6 -41 -6 -76q0 -126 76.5 -203.5t206.5 -77.5q159 0 271 99t140 258z" />
    <glyph glyph-name="uni044F" unicode="&#x44f;" horiz-adv-x="980" 
d="M528 905h371l-158 -905h-125l62 348h-225l-320 -348h-147v10l333 357q-74 27 -118.5 85.5t-44.5 139.5q0 17 4 49q22 127 117 195.5t251 68.5zM696 457l60 336h-238q-102 0 -161.5 -41.5t-73.5 -120.5q-4 -24 -4 -35q0 -66 44.5 -102.5t122.5 -36.5h250z" />
    <glyph glyph-name="uni0451" unicode="&#x451;" horiz-adv-x="966" 
d="M455 1149q-41 0 -63.5 23t-22.5 57q0 36 28 67t70 31q39 0 61.5 -23.5t22.5 -56.5q0 -36 -27 -67t-69 -31zM879 1327q40 0 62 -24t22 -58q0 -35 -27.5 -65.5t-69.5 -30.5q-40 0 -61 24t-21 58q0 36 26.5 66t68.5 30zM625 926q134 0 212 -66.5t78 -179.5q0 -91 -50 -159
t-136 -106t-187 -55.5t-218 -17.5q-53 0 -107 4q9 -114 85.5 -182t191.5 -68q80 0 146.5 19t137.5 67l49 -98q-160 -104 -344 -104q-173 0 -283 109.5t-110 272.5q0 152 69.5 281.5t193 206t272.5 76.5zM322 453q90 0 167.5 10.5t149.5 33.5t114 68.5t42 108.5q0 65 -46 100
t-124 35q-152 0 -263 -103.5t-139 -248.5q50 -4 99 -4z" />
    <glyph glyph-name="uni0452" unicode="&#x452;" horiz-adv-x="1064" 
d="M672 924q134 0 204 -71.5t70 -199.5q0 -48 -8 -92l-123 -688q-57 -326 -346 -326l-4 113q99 1 154 58.5t77 181.5l119 678q6 30 6 59q0 79 -44.5 124.5t-131.5 45.5q-138 0 -238.5 -104.5t-127.5 -258.5l-76 -444h-125l198 1133h-129l13 77h131l37 215h125l-37 -215h336
l-15 -77h-336l-41 -232q-12 -79 -32 -156q62 80 150 129.5t194 49.5z" />
    <glyph glyph-name="uni0453" unicode="&#x453;" horiz-adv-x="794" 
d="M453 1100l-60 78l307 227l72 -109zM80 0l160 905h583l-18 -114h-461l-139 -791h-125z" />
    <glyph glyph-name="uni0454" unicode="&#x454;" horiz-adv-x="954" 
d="M625 809q-128 0 -235.5 -79t-149.5 -210h419l-18 -114h-424q-9 -135 65.5 -222.5t206.5 -87.5q90 0 158.5 27t136.5 88l62 -92q-169 -139 -371 -139q-162 0 -273.5 105.5t-111.5 283.5q0 44 10 102q25 138 106 243t189.5 157.5t225.5 52.5q195 0 317 -140l-82 -77
q-51 57 -105 79.5t-126 22.5z" />
    <glyph glyph-name="uni0455" unicode="&#x455;" horiz-adv-x="804" 
d="M334 -16q-180 0 -309 104l65 96q102 -86 248 -86q93 0 156 40t63 110q0 49 -38.5 87t-129.5 81q-55 26 -90 47t-72 52t-55 70t-18 87q0 111 86 177t223 66q145 0 270 -84l-55 -94q-100 64 -217 64q-85 0 -133.5 -33.5t-48.5 -89.5q0 -49 39.5 -84.5t119.5 -73.5
q128 -62 185 -123t57 -145q0 -128 -96.5 -198t-249.5 -70z" />
    <glyph glyph-name="uni0456" unicode="&#x456;" horiz-adv-x="444" 
d="M352 1141q-44 0 -66.5 26t-19.5 62q2 40 29 70t72 30q47 0 69 -27t19 -65q-2 -37 -30.5 -66.5t-72.5 -29.5zM80 0l160 905h125l-160 -905h-125z" />
    <glyph glyph-name="uni0457" unicode="&#x457;" horiz-adv-x="444" 
d="M203 1149q-43 0 -64.5 27.5t-15.5 64.5q7 32 31.5 55t60.5 23q38 0 59 -21.5t21 -52.5q0 -36 -25.5 -66t-66.5 -30zM504 1149q-39 0 -58.5 23t-19.5 57t25 62t65 28q38 0 59 -22.5t21 -53.5q0 -37 -25 -65.5t-67 -28.5zM80 0l160 905h125l-160 -905h-125z" />
    <glyph glyph-name="uni0458" unicode="&#x458;" horiz-adv-x="471" 
d="M375 1141q-44 0 -66.5 26t-19.5 62q2 40 28.5 70t71.5 30q47 0 69 -27t19 -65q-2 -38 -30 -67t-72 -29zM-229 -471l2 106q87 3 142 19.5t89.5 54t52 86.5t31.5 131l172 979h125l-174 -987q-25 -148 -71 -229.5t-133.5 -120.5t-235.5 -39z" />
    <glyph glyph-name="uni0459" unicode="&#x459;" horiz-adv-x="1458" 
d="M1090 539q117 0 193.5 -61.5t76.5 -168.5q0 -15 -4 -51q-22 -125 -111.5 -191t-238.5 -67h-357l139 791h-327l-96 -383q-51 -204 -152 -305.5t-250 -116.5l-12 104q111 18 186.5 103t118.5 256l119 456h557l-64 -366h222zM1235 268q4 24 4 35q0 60 -42.5 91.5
t-119.5 31.5h-229l-53 -311h221q90 0 148 38t71 115z" />
    <glyph glyph-name="uni045A" unicode="&#x45a;" horiz-adv-x="1490" 
d="M1124 539q116 0 193.5 -60t77.5 -166q0 -15 -4 -51q-23 -125 -114.5 -193t-238.5 -69h-356l74 426h-475l-76 -426h-123l158 907h125l-66 -368h477l64 368h125l-64 -368h223zM1268 272q4 24 4 33q0 59 -42 90t-118 31h-231l-54 -311h222q90 0 148 39t71 118z" />
    <glyph glyph-name="uni045B" unicode="&#x45b;" horiz-adv-x="1064" 
d="M670 920q131 0 202.5 -71.5t71.5 -199.5q0 -40 -10 -102l-96 -547h-125l100 571q6 30 6 60q0 80 -45 127t-129 47q-141 0 -241 -105.5t-128 -259.5l-75 -440h-125l198 1133h-127l13 77h129l37 215h125l-39 -215h340l-15 -77h-338l-39 -215q-17 -101 -34 -177
q142 179 344 179z" />
    <glyph glyph-name="uni045C" unicode="&#x45c;" horiz-adv-x="882" 
d="M836 1296l-320 -196l-59 78l307 227zM901 905l-2 -6l-502 -436l385 -453v-10h-143l-360 422l-74 -422h-125l160 905h125l-70 -391l444 391h162z" />
    <glyph glyph-name="uni045D" unicode="&#x45d;" horiz-adv-x="1081" 
d="M864 1180l-65 -66l-260 207l92 90zM950 905h49l-159 -905h-123l92 528q14 72 27 125q-63 -66 -131 -125l-576 -528h-49l160 905h125l-95 -526q-7 -48 -26 -131q76 80 135 131z" />
    <glyph glyph-name="uni045E" unicode="&#x45e;" horiz-adv-x="950" 
d="M608 1110q-176 0 -241 145l79 58q23 -49 66 -74t98 -25q59 0 113 27t92 72l80 -58q-107 -145 -287 -145zM860 905h137v-4l-559 -973q-154 -269 -454 -379l-39 113q261 94 385 307l37 64l-254 868v4h123l213 -729z" />
    <glyph glyph-name="uni045F" unicode="&#x45f;" horiz-adv-x="1064" 
d="M985 905l-160 -905h-311l-43 -240h-121l43 240h-313l160 905h125l-140 -790h496l139 790h125z" />
    <glyph glyph-name="uni0490" unicode="&#x490;" horiz-adv-x="1077" 
d="M125 0l246 1393h704l55 311h125l-77 -434h-695l-225 -1270h-133z" />
    <glyph glyph-name="uni0491" unicode="&#x491;" horiz-adv-x="798" 
d="M82 0l158 905h465l40 232h125l-61 -346h-465l-137 -791h-125z" />
    <glyph glyph-name="Wgrave" unicode="&#x1e80;" horiz-adv-x="1976" 
d="M1329 1626l-65 -63l-260 204l92 93zM1954 1393h143v-4l-729 -1399h-41l-199 860q-29 139 -36 186q-43 -88 -103 -186l-500 -860h-40l-238 1399v4h129l154 -920q21 -117 28 -174q58 103 99 172l495 850h35l199 -848q6 -25 12.5 -53.5t14 -64.5t12.5 -58q22 45 90 176z" />
    <glyph glyph-name="wgrave" unicode="&#x1e81;" horiz-adv-x="1376" 
d="M946 1165l-67 -63l-258 205l92 90zM1280 905h133v-4l-485 -911h-37l-174 612l-389 -612h-37l-170 911v4h123l104 -567q9 -52 14 -94q10 21 30.5 52t25.5 40l317 512h31l147 -520q3 -11 10.5 -36.5t10.5 -39.5q11 27 39 78z" />
    <glyph glyph-name="Wacute" unicode="&#x1e82;" horiz-adv-x="1976" 
d="M1399 1757l-320 -194l-57 75l307 228zM1954 1393h143v-4l-729 -1399h-41l-199 860q-29 139 -36 186q-43 -88 -103 -186l-500 -860h-40l-238 1399v4h129l154 -920q21 -117 28 -174q58 103 99 172l495 850h35l199 -848q6 -25 12.5 -53.5t14 -64.5t12.5 -58q22 45 90 176z
" />
    <glyph glyph-name="wacute" unicode="&#x1e83;" horiz-adv-x="1376" 
d="M1016 1296l-320 -196l-59 78l307 227zM1280 905h133v-4l-485 -911h-37l-174 612l-389 -612h-37l-170 911v4h123l104 -567q9 -52 14 -94q10 21 30.5 52t25.5 40l317 512h31l147 -520q3 -11 10.5 -36.5t10.5 -39.5q11 27 39 78z" />
    <glyph glyph-name="Wdieresis" unicode="&#x1e84;" horiz-adv-x="1976" 
d="M1006 1608q-38 0 -60 21.5t-22 53.5q0 36 26.5 65.5t67.5 29.5q38 0 59 -22.5t21 -53.5q0 -35 -25 -64.5t-67 -29.5zM1399 1608q-38 0 -59 22t-21 53q0 35 26.5 65t65.5 30q38 0 59 -22t21 -52q0 -15 -2 -21q-5 -31 -29 -53t-61 -22zM1954 1393h143v-4l-729 -1399h-41
l-199 860q-29 139 -36 186q-43 -88 -103 -186l-500 -860h-40l-238 1399v4h129l154 -920q21 -117 28 -174q58 103 99 172l495 850h35l199 -848q6 -25 12.5 -53.5t14 -64.5t12.5 -58q22 45 90 176z" />
    <glyph glyph-name="wdieresis" unicode="&#x1e85;" horiz-adv-x="1376" 
d="M614 1149q-41 0 -63.5 23t-22.5 57q0 36 28.5 67t70.5 31q39 0 61.5 -23.5t22.5 -56.5q0 -36 -27.5 -67t-69.5 -31zM1026 1149q-40 0 -61 24t-21 58q0 37 26 66.5t68 29.5q40 0 62 -24t22 -58q0 -35 -27 -65.5t-69 -30.5zM1280 905h133v-4l-485 -911h-37l-174 612
l-389 -612h-37l-170 911v4h123l104 -567q9 -52 14 -94q10 21 30.5 52t25.5 40l317 512h31l147 -520q3 -11 10.5 -36.5t10.5 -39.5q11 27 39 78z" />
    <glyph glyph-name="uni1E9E" unicode="&#x1e9e;" horiz-adv-x="1357" 
d="M1311 1393l-8 -41l-416 -498h14q167 0 261.5 -97t94.5 -247q0 -225 -144 -367.5t-378 -142.5h-266l23 123h251q176 0 277.5 106.5t101.5 262.5q0 119 -66 182t-186 63h-149l22 123l344 410h-274q-161 0 -266 -100.5t-137 -282.5l-156 -887h-133l155 893q46 252 186.5 376
t381.5 124h467z" />
    <glyph glyph-name="Ygrave" unicode="&#x1ef2;" horiz-adv-x="1284" 
d="M901 1563l-260 204l92 93l234 -234zM496 0l114 643l-397 750h139l256 -480q40 -73 80 -157q33 46 127 153l426 484h164l-662 -750l-112 -643h-135z" />
    <glyph glyph-name="ygrave" unicode="&#x1ef3;" horiz-adv-x="946" 
d="M717 1165l-68 -63l-258 205l92 90zM858 905h137v-4l-778 -1352h-137v5l285 481l-254 866v4h125l184 -631q3 -11 12 -46t14 -56q7 18 16 34.5t21 37.5t17 30z" />
    <glyph glyph-name="endash" unicode="&#x2013;" horiz-adv-x="1091" 
d="M133 418l19 102h813l-19 -102h-813z" />
    <glyph glyph-name="emdash" unicode="&#x2014;" horiz-adv-x="1427" 
d="M131 418l19 102h1150l-18 -102h-1151z" />
    <glyph glyph-name="quoteleft" unicode="&#x2018;" horiz-adv-x="380" 
d="M442 1372q-104 -90 -137 -186q6 2 19 2q32 0 54.5 -24.5t22.5 -61.5q0 -48 -32 -76.5t-72 -28.5q-37 0 -61.5 25t-24.5 76q0 22 6 49q32 134 191 264z" />
    <glyph glyph-name="quoteright" unicode="&#x2019;" horiz-adv-x="382" 
d="M358 1403q38 0 62 -24t24 -72q0 -29 -4 -45q-18 -81 -66 -146t-126 -127l-35 39q58 50 90.5 92.5t48.5 93.5q-6 -2 -20 -2q-32 0 -55 23t-23 59q0 52 31 80.5t73 28.5z" />
    <glyph glyph-name="quotesinglbase" unicode="&#x201a;" horiz-adv-x="518" 
d="M197 166q39 0 63.5 -22.5t24.5 -67.5q0 -11 -4 -39q-26 -154 -193 -277l-35 39q109 86 140 183q-10 -2 -21 -2q-32 0 -54 22t-22 57q0 51 32 79t69 28z" />
    <glyph glyph-name="quotedblleft" unicode="&#x201c;" horiz-adv-x="688" 
d="M217 1147q32 134 191 264l34 -39q-104 -90 -137 -186q6 2 19 2q32 0 54.5 -24.5t22.5 -61.5q0 -48 -32 -76.5t-72 -28.5q-37 0 -61.5 25t-24.5 76q0 22 6 49zM750 1372q-108 -94 -140 -186q6 2 19 2q33 0 55.5 -23.5t22.5 -58.5q0 -50 -31.5 -79.5t-73.5 -29.5
q-35 0 -59.5 25t-24.5 74q0 161 197 315z" />
    <glyph glyph-name="quotedblright" unicode="&#x201d;" horiz-adv-x="665" 
d="M358 1403q38 0 62 -24t24 -72q0 -29 -4 -45q-18 -81 -66 -146t-126 -127l-35 39q58 50 90.5 92.5t48.5 93.5q-6 -2 -20 -2q-32 0 -55 23t-23 59q0 52 31 80.5t73 28.5zM641 1403q38 0 62 -24t24 -72q0 -29 -4 -45q-16 -81 -64 -146t-127 -127l-34 39q58 51 90.5 93
t46.5 93q-8 -2 -19 -2q-33 0 -56 24t-23 62q0 13 2 19q9 41 37.5 63.5t64.5 22.5z" />
    <glyph glyph-name="quotedblbase" unicode="&#x201e;" horiz-adv-x="800" 
d="M197 166q39 0 63.5 -22.5t24.5 -67.5q0 -11 -4 -39q-26 -154 -193 -277l-35 39q109 86 140 183q-10 -2 -21 -2q-32 0 -54 22t-22 57q0 51 32 79t69 28zM481 166q38 0 63 -22.5t25 -69.5q0 -13 -4 -37q-26 -153 -194 -277l-33 39q105 83 137 183q-8 -2 -20 -2
q-32 0 -54 22.5t-22 58.5q0 13 2 19q8 41 37.5 63.5t62.5 22.5z" />
    <glyph glyph-name="dagger" unicode="&#x2020;" horiz-adv-x="1214" 
d="M362 -602l218 1235h-418l20 112h416l117 650h123l-115 -650h416l-21 -112h-416l-217 -1235h-123z" />
    <glyph glyph-name="daggerdbl" unicode="&#x2021;" horiz-adv-x="1216" 
d="M362 -602l115 649h-418l21 113h416l84 473h-418l20 112h418l115 650h123l-115 -650h416l-21 -112h-416l-81 -473h415l-20 -113h-416l-115 -649h-123z" />
    <glyph glyph-name="bullet" unicode="&#x2022;" horiz-adv-x="634" 
d="M346 567q-61 0 -99 35t-38 92q0 73 51.5 122.5t120.5 49.5q62 0 100.5 -35t38.5 -90q0 -8 -4 -32q-9 -62 -57.5 -102t-112.5 -40z" />
    <glyph glyph-name="ellipsis" unicode="&#x2026;" horiz-adv-x="1308" 
d="M184 -20q-39 0 -63.5 22.5t-24.5 58.5q0 15 2 23q6 38 35 62t68 24q40 0 64 -24t24 -62q0 -45 -30.5 -74.5t-74.5 -29.5zM580 -20q-39 0 -63.5 22.5t-24.5 58.5q0 15 2 23q6 38 34.5 62t67.5 24q40 0 64 -24t24 -62q0 -45 -31 -74.5t-73 -29.5zM975 -20q-39 0 -63.5 22.5
t-24.5 58.5q0 15 2 23q6 38 34.5 62t67.5 24q40 0 64 -24t24 -62q0 -45 -31 -74.5t-73 -29.5z" />
    <glyph glyph-name="perthousand" unicode="&#x2030;" horiz-adv-x="2287" 
d="M469 807q-125 0 -192.5 76t-67.5 184q0 58 23.5 118t65.5 111.5t109.5 84t147.5 32.5q122 0 190 -75t68 -181q0 -60 -23.5 -121.5t-65.5 -112.5t-109 -83.5t-146 -32.5zM254 0l1042 1393h123l-1042 -1393h-123zM469 903q59 0 106.5 24t75.5 61.5t43 79.5t15 83
q0 69 -39.5 117.5t-118.5 48.5q-58 0 -105 -23.5t-75 -61t-43 -80t-15 -83.5q0 -68 38 -117t118 -49zM1104 -20q-122 0 -190 75.5t-68 182.5q0 59 23 119t65 112t109.5 84.5t148.5 32.5q122 0 189 -76t67 -182q0 -60 -23 -121t-65.5 -112t-109.5 -83t-146 -32zM1819 -20
q-122 0 -190 75.5t-68 182.5q0 59 23 119t65 112t109.5 84.5t148.5 32.5q122 0 189 -76t67 -182q0 -60 -23 -121t-65.5 -112t-109.5 -83t-146 -32zM1104 76q58 0 105.5 23.5t76.5 61t44.5 80t15.5 83.5q0 67 -40 116t-118 49q-58 0 -105 -23.5t-75 -60.5t-43 -79.5
t-15 -83.5q0 -68 38 -117t116 -49zM1819 76q58 0 105.5 23.5t76 61t44 80t15.5 83.5q0 67 -40 116t-117 49q-58 0 -105 -23.5t-75 -60.5t-43 -79.5t-15 -83.5q0 -68 38 -117t116 -49z" />
    <glyph glyph-name="guilsinglleft" unicode="&#x2039;" horiz-adv-x="522" 
d="M264 106l-180 398l309 385l88 -58l-256 -339l133 -336z" />
    <glyph glyph-name="guilsinglright" unicode="&#x203a;" horiz-adv-x="524" 
d="M143 106l-88 58l262 352l-133 326l97 47l178 -385z" />
    <glyph glyph-name="fraction" unicode="&#x2044;" horiz-adv-x="315" 
d="M-332 0l967 1393h104l-964 -1393h-107z" />
    <glyph glyph-name="Euro" unicode="&#x20ac;" horiz-adv-x="1204" 
d="M999 1249q-207 0 -354 -100t-217 -270h522l-55 -111h-502q-17 -68 -20 -154h444l-59 -112h-381q19 -188 130 -294t308 -106q121 0 223 48l27 -119q-125 -51 -256 -51q-241 0 -392.5 144t-172.5 378h-172l20 112h148q3 69 20 154h-141l18 111h154q79 225 265 359t445 134
q132 0 263 -49l-56 -109q-95 35 -209 35z" />
    <glyph glyph-name="uni20BD" unicode="&#x20bd;" horiz-adv-x="1245" 
d="M895 1354q114 0 200.5 -50.5t128.5 -129t42 -170.5q0 -34 -6 -64q-10 -62 -33.5 -117t-66.5 -107.5t-101.5 -90t-143.5 -60t-188 -22.5h-313l-25 -140h535l-21 -114h-534l-54 -289h-135l53 289h-184l21 114h184l25 140h-183l21 114h182l127 697h469zM1126 950q4 32 4 49
q0 99 -66.5 165.5t-184.5 66.5h-340l-105 -574h303q172 0 269.5 82.5t119.5 210.5z" />
    <glyph glyph-name="uni2113" unicode="&#x2113;" horiz-adv-x="942" 
d="M455 -20q-117 0 -179.5 65t-62.5 174q0 33 20 150q-83 -38 -153 -66l-37 86q130 52 211 94l88 500q74 430 367 430q121 0 189.5 -71t68.5 -187q0 -97 -33.5 -188t-89 -165t-136.5 -143.5t-165.5 -123.5t-186.5 -107q-30 -171 -30 -215q0 -58 38.5 -94.5t100.5 -36.5
q111 0 205 70l55 -82q-55 -41 -128.5 -65.5t-141.5 -24.5zM377 547q481 272 481 592q0 79 -39.5 125.5t-107.5 46.5q-199 0 -260 -344z" />
    <glyph glyph-name="uni2116" unicode="&#x2116;" horiz-adv-x="2140" 
d="M1950 1413q106 0 172.5 -63.5t66.5 -163.5q0 -33 -4 -51q-20 -115 -106.5 -186.5t-208.5 -71.5q-106 0 -174 63.5t-68 163.5q0 35 4 51q20 115 108 186.5t210 71.5zM1227 477l164 916h135l-248 -1403h-41l-674 981q-14 20 -50.5 72t-57.5 83q-16 -110 -35 -221l-160 -905
h-135l248 1403h43l653 -942q96 -134 125 -178q17 95 33 194zM2077 1145q4 24 4 37q0 61 -41 99t-101 38q-73 0 -128.5 -45.5t-69.5 -128.5q-4 -24 -4 -37q0 -62 41 -99.5t102 -37.5q72 0 127.5 45.5t69.5 128.5zM1565 641l16 96h520l-16 -96h-520z" />
    <glyph glyph-name="uni2117" unicode="&#x2117;" horiz-adv-x="1619" 
d="M741 -6q-172 0 -307.5 75.5t-209.5 207.5t-74 298q0 65 12 130q26 146 97.5 273t175 219.5t242 146t292.5 53.5q259 0 423 -161.5t164 -416.5q0 -63 -12 -131q-35 -200 -145 -357t-281.5 -247t-376.5 -90zM743 100q177 0 326 78t245 214t126 308q10 68 10 117
q0 208 -129 340.5t-354 132.5q-265 0 -459 -167t-240 -425q-10 -51 -10 -118q0 -211 130.5 -345.5t354.5 -134.5zM555 324l133 759h299q101 0 155 -57.5t54 -142.5q0 -15 -4 -47q-17 -98 -87 -162t-198 -64h-202l-50 -286h-100zM719 698h180q168 0 195 146q4 24 4 37
q0 54 -36 84t-106 30h-184z" />
    <glyph glyph-name="trademark" unicode="&#x2122;" horiz-adv-x="1394" 
d="M365 823l86 484h-193l16 86h478l-17 -86h-190l-86 -484h-94zM696 823l181 570h14l168 -308l278 308h21l-23 -570h-92l21 363l-213 -236h-17l-129 238l-112 -365h-97z" />
    <glyph glyph-name="uni2126" unicode="&#x2126;" horiz-adv-x="1636" 
d="M74 0l20 123h281q-107 65 -168.5 197t-61.5 284q0 48 11 119q37 216 154.5 374t285.5 237t367 79q268 0 436 -165t168 -433q0 -62 -13 -145q-27 -157 -136.5 -313.5t-250.5 -233.5h250l-20 -123h-514l14 119q195 47 342.5 206t183.5 353q13 76 13 133q0 217 -130.5 348
t-347.5 131q-118 0 -227.5 -37.5t-200 -108.5t-155 -181t-88.5 -246q-11 -71 -11 -117q0 -180 88 -312.5t238 -168.5l-16 -119h-512z" />
    <glyph glyph-name="estimated" unicode="&#x212e;" horiz-adv-x="1630" 
d="M770 -20q-183 0 -325 81t-217.5 218.5t-75.5 306.5q0 64 12 129q26 152 99.5 287t180 235t248.5 158.5t297 58.5q132 0 241.5 -47.5t181.5 -129.5t111.5 -191t39.5 -232q0 -42 -7 -100q-5 -50 -14 -84h-1139l-57 -336q112 -240 445 -240q141 0 271.5 67t227.5 181l80 -80
q-248 -282 -600 -282zM422 772h899l61 352q-57 110 -156.5 163.5t-250.5 53.5q-145 0 -277.5 -61.5t-216.5 -169.5z" />
    <glyph glyph-name="uni2153" unicode="&#x2153;" horiz-adv-x="1349" 
d="M276 813l76 412l-102 -84l-53 59l247 203h21l-103 -590h-86zM100 0l967 1393h104l-964 -1393h-107zM961 -20q-57 0 -104.5 21t-76.5 56l54 60q45 -56 127 -56q65 0 103 33.5t38 87.5q0 36 -24.5 59t-67.5 23h-84l16 80h57q44 0 78.5 23t42.5 67q2 6 2 17q0 31 -22 48
t-56 17q-63 0 -106 -43l-55 66q75 61 174 61q60 0 106.5 -38.5t46.5 -100.5q0 -50 -27.5 -91.5t-80.5 -62.5q37 -9 63.5 -47.5t26.5 -83.5q0 -14 -2 -20q-15 -84 -76 -130t-153 -46z" />
    <glyph glyph-name="uni2154" unicode="&#x2154;" horiz-adv-x="1503" 
d="M571 895l-12 -82h-385v21l287 294q54 57 63 111q5 41 -12 64.5t-53 23.5q-73 0 -105 -72l-82 29q61 129 193 129q63 0 105 -41.5t42 -107.5q0 -21 -2 -31q-9 -81 -86 -158l-174 -180h221zM1221 1393h104l-965 -1393h-106zM1364 461q0 -50 -28 -91.5t-81 -62.5
q37 -9 64 -47.5t27 -83.5q0 -11 -3 -20q-15 -84 -76 -130t-153 -46q-57 0 -104 21t-76 56l53 60q45 -56 127 -56q65 0 103 33.5t38 87.5q0 36 -24.5 59t-67.5 23h-84l17 80h57q44 0 78.5 23t42.5 67q2 6 2 17q0 31 -22 48t-56 17q-63 0 -106 -43l-56 66q75 61 174 61
q60 0 107 -38.5t47 -100.5z" />
    <glyph glyph-name="oneeighth" unicode="&#x215b;" horiz-adv-x="1370" 
d="M276 813l76 412l-102 -84l-53 59l247 203h21l-103 -590h-86zM100 0l967 1393h104l-964 -1393h-107zM985 -20q-77 0 -130.5 40.5t-53.5 108.5q0 65 40.5 120.5t92.5 69.5q-55 33 -55 99q0 84 59 133t139 49q67 0 110.5 -36t43.5 -99q0 -106 -101 -154q82 -43 82 -131
q0 -97 -69 -148.5t-158 -51.5zM1044 350q40 0 69.5 28t29.5 73q0 33 -19.5 51t-52.5 18q-38 0 -66.5 -21.5t-35.5 -64.5q-6 -39 15.5 -61.5t59.5 -22.5zM987 61q52 0 88.5 26.5t46.5 78.5q2 6 2 18q0 40 -27 65t-71 25q-52 0 -89 -31.5t-46 -76.5q-2 -8 -2 -23q0 -40 27 -61
t71 -21z" />
    <glyph glyph-name="threeeighths" unicode="&#x215c;" horiz-adv-x="1540" 
d="M356 793q-57 0 -104 21t-76 56l53 60q45 -56 127 -56q65 0 103.5 34t38.5 87q0 36 -24.5 59t-67.5 23h-84l16 80h57q44 0 78.5 23t42.5 67q2 6 2 17q0 31 -22 48t-56 17q-63 0 -106 -43l-55 66q75 61 174 61q60 0 106.5 -38.5t46.5 -100.5q0 -50 -27.5 -91.5t-80.5 -62.5
q37 -9 63.5 -47.5t26.5 -83.5q0 -14 -2 -20q-15 -84 -76.5 -130t-153.5 -46zM270 0l967 1393h104l-964 -1393h-107zM1155 -20q-77 0 -130.5 40.5t-53.5 108.5q0 65 40.5 120.5t92.5 69.5q-55 33 -55 99q0 84 59 133t139 49q67 0 110.5 -36t43.5 -99q0 -106 -101 -154
q82 -43 82 -131q0 -97 -69 -148.5t-158 -51.5zM1214 350q40 0 69.5 28t29.5 73q0 33 -19.5 51t-52.5 18q-38 0 -66.5 -21.5t-35.5 -64.5q-6 -39 15.5 -61.5t59.5 -22.5zM1157 61q52 0 88.5 26.5t46.5 78.5q2 6 2 18q0 40 -27 65t-71 25q-52 0 -89 -31.5t-46 -76.5
q-2 -8 -2 -23q0 -40 27 -61t71 -21z" />
    <glyph glyph-name="fiveeighths" unicode="&#x215d;" horiz-adv-x="1536" 
d="M356 793q-119 0 -174 84l72 51q26 -51 102 -51q62 0 103 37t41 98q0 45 -32 71.5t-85 26.5q-51 0 -107 -23l-14 15l86 291h279l-15 -86h-204l-41 -131q28 4 45 4q75 0 126.5 -43.5t51.5 -118.5q0 -100 -68 -162.5t-166 -62.5zM266 0l967 1393h104l-964 -1393h-107z
M1151 -20q-77 0 -130.5 40.5t-53.5 108.5q0 65 40.5 120.5t92.5 69.5q-56 34 -56 99q0 83 59.5 132.5t139.5 49.5q67 0 110.5 -36t43.5 -99q0 -106 -101 -154q82 -43 82 -131q0 -97 -69 -148.5t-158 -51.5zM1210 350q40 0 69.5 28t29.5 73q0 33 -19.5 51t-52.5 18
q-38 0 -66.5 -21.5t-35.5 -64.5q-6 -39 15.5 -61.5t59.5 -22.5zM1153 61q52 0 88.5 26.5t46.5 78.5q2 6 2 18q0 40 -27 65t-71 25q-52 0 -89 -31.5t-46 -76.5q-2 -8 -2 -23q0 -40 27 -61t71 -21z" />
    <glyph glyph-name="seveneighths" unicode="&#x215e;" horiz-adv-x="1409" 
d="M141 0l967 1393h104l-964 -1393h-107zM209 813l291 494h-242l14 86h365l-4 -19l-328 -561h-96zM1024 -20q-77 0 -130.5 40.5t-53.5 108.5q0 65 40.5 120.5t92.5 69.5q-55 33 -55 99q0 84 59 133t139 49q67 0 110.5 -36t43.5 -99q0 -106 -101 -154q82 -43 82 -131
q0 -97 -69 -148.5t-158 -51.5zM1083 350q40 0 69.5 28t29.5 73q0 33 -19.5 51t-52.5 18q-38 0 -66.5 -21.5t-35.5 -64.5q-6 -39 15.5 -61.5t59.5 -22.5zM1026 61q52 0 88.5 26.5t46.5 78.5q2 6 2 18q0 40 -27 65t-71 25q-52 0 -89 -31.5t-46 -76.5q-2 -8 -2 -23
q0 -40 27 -61t71 -21z" />
    <glyph glyph-name="arrowleft" unicode="&#x2190;" horiz-adv-x="1263" 
d="M1247 578h-862q-68 0 -109 2q33 -27 82 -76l269 -266l-84 -86l-488 487l490 487l82 -82l-260 -260q-4 -4 -91 -86q78 4 109 4h862v-124z" />
    <glyph glyph-name="arrowup" unicode="&#x2191;" horiz-adv-x="1046" 
d="M524 111v860q0 69 2 108q-7 -9 -75 -82l-267 -266l-84 84l488 488l487 -490l-84 -82l-260 260q-55 55 -86 88q4 -78 4 -108v-860h-125z" />
    <glyph glyph-name="arrowright" unicode="&#x2192;" horiz-adv-x="1263" 
d="M115 868h860q67 0 108 -2q-52 46 -82 78l-266 264l84 86l488 -487l-490 -488l-82 84l258 261q58 54 90 86q-97 -5 -108 -5h-860v123z" />
    <glyph glyph-name="arrowdown" unicode="&#x2193;" horiz-adv-x="1046" 
d="M618 1339v-860q0 -67 -2 -108q12 15 25 28.5t28 29t23 24.5l266 266l84 -84l-485 -488l-487 490l82 82l260 -258q24 -24 86 -90q-4 78 -4 108v860h124z" />
    <glyph glyph-name="arrowboth" unicode="&#x2194;" horiz-adv-x="1630" 
d="M557 240l-487 487l489 487l82 -84l-258 -260q-76 -71 -92 -84q43 2 110 2h926q68 0 109 -2q-33 27 -82 76l-267 266l82 84l488 -485l-490 -487l-80 82l259 260q40 41 90 84q-37 -2 -109 -2h-926q-67 0 -108 2q15 -12 28.5 -25t29 -28t24.5 -23l266 -266z" />
    <glyph glyph-name="arrowupdn" unicode="&#x2195;" horiz-adv-x="1155" 
d="M625 -68l-486 490l82 82l260 -260q55 -55 84 -88q-2 37 -2 108v926q0 67 2 108q-22 -27 -76 -81l-266 -267l-84 82l486 488l487 -490l-82 -80l-260 258q-45 45 -84 92q2 -43 2 -110v-926q0 -69 -2 -108q12 15 25 28.5t28 29t23 24.5l266 266l84 -84z" />
    <glyph glyph-name="uni2196" unicode="&#x2196;" horiz-adv-x="1099" 
d="M952 190l-608 609q-41 37 -76 78q4 -43 4 -113v-375l-118 -2v688h690v-117h-367q-57 0 -125 3q58 -54 80 -76l608 -609z" />
    <glyph glyph-name="uni2197" unicode="&#x2197;" horiz-adv-x="937" 
d="M8 340l608 608q49 49 80 76q-43 -4 -112 -4h-377v119h688l-2 -690h-117v368q0 19 1 59.5t1 63.5q-44 -51 -73 -80l-609 -608z" />
    <glyph glyph-name="uni2198" unicode="&#x2198;" horiz-adv-x="1099" 
d="M231 1188l609 -608q31 -31 75 -78q-4 43 -4 112l-2 377h121v-688h-692l2 117l367 2q34 0 124 -4q-43 41 -79 76l-609 608z" />
    <glyph glyph-name="uni2199" unicode="&#x2199;" horiz-adv-x="937" 
d="M1014 1049l-608 -609q-34 -35 -78 -75q41 2 112 2l375 2l2 -119h-690l2 690l117 -2v-367q0 -19 -1 -59t-1 -63q14 14 38 40t35 37l609 609z" />
    <glyph glyph-name="partialdiff" unicode="&#x2202;" horiz-adv-x="1019" 
d="M432 -20q-141 0 -245.5 97t-104.5 257q0 21 4 61q14 104 59.5 187.5t110.5 136.5t142 81.5t159 28.5q174 0 264 -120q-15 218 -124 384t-289 248l61 101q225 -114 348 -327t123 -476q0 -95 -18 -197q-17 -92 -54.5 -172.5t-96.5 -146.5t-146.5 -104.5t-192.5 -38.5z
M440 92q79 0 143.5 29.5t106 79t67.5 106t38 119.5q4 36 4 53q0 107 -68.5 172.5t-175.5 65.5q-126 0 -224 -85.5t-122 -242.5q-4 -18 -4 -55q0 -106 62.5 -174t172.5 -68z" />
    <glyph glyph-name="emptyset" unicode="&#x2205;" horiz-adv-x="1679" 
d="M1679 1405l-200 -191q135 -157 135 -387q0 -69 -12 -143q-35 -199 -149.5 -358.5t-294 -252.5t-390.5 -93q-270 0 -436 147l-150 -141h-98l201 190q-138 154 -138 387q0 50 15 146q37 202 149.5 360.5t292 251t397.5 92.5q263 0 431 -149l149 141h98zM264 698
q-12 -70 -12 -135q0 -195 102 -321l1008 954q-139 123 -365 123q-190 0 -345.5 -80.5t-254.5 -220t-133 -320.5zM1499 694q12 70 12 133q0 190 -102 320l-1008 -952q137 -121 367 -121q280 0 481.5 174.5t249.5 445.5z" />
    <glyph glyph-name="uni2206" unicode="&#x2206;" horiz-adv-x="1413" 
d="M-51 0l903 1403h39l414 -1403h-1356zM178 123h955l-297 1018z" />
    <glyph glyph-name="product" unicode="&#x220f;" horiz-adv-x="1490" 
d="M127 0l244 1393h1081l-246 -1393h-133l223 1270h-813l-223 -1270h-133z" />
    <glyph glyph-name="summation" unicode="&#x2211;" horiz-adv-x="1159" 
d="M12 0l6 43l570 653l-330 654l6 43h993l-22 -121h-809l307 -590l-495 -561h788l-20 -121h-994z" />
    <glyph glyph-name="minus" unicode="&#x2212;" horiz-adv-x="1116" 
d="M186 641l19 113h811l-19 -113h-811z" />
    <glyph glyph-name="radical" unicode="&#x221a;" horiz-adv-x="1140" 
d="M1245 1479h129l-899 -1479h-39l-198 719h-170l20 115h242l159 -605z" />
    <glyph glyph-name="infinity" unicode="&#x221e;" horiz-adv-x="1460" 
d="M414 434q-95 0 -169.5 66.5t-74.5 175.5q0 17 4 49q16 86 69.5 150t119.5 94t133 30q93 0 166 -55t124 -143q95 97 177.5 147.5t179.5 50.5q57 0 111 -26t92 -82t38 -129q0 -26 -6 -53q-22 -127 -116.5 -201t-200.5 -74q-172 0 -293 199q-96 -98 -176.5 -148.5
t-177.5 -50.5zM424 545q71 0 138.5 44.5t154.5 135.5q-52 82 -101 123t-114 41q-69 0 -132 -45.5t-79 -128.5q-2 -10 -2 -31q0 -64 41 -101.5t94 -37.5zM1053 545q35 0 71.5 13.5t68.5 38t52.5 66.5t20.5 93q0 61 -42 97t-94 36q-71 0 -138 -44.5t-152 -135.5
q52 -83 100.5 -123.5t112.5 -40.5z" />
    <glyph glyph-name="integral" unicode="&#x222b;" horiz-adv-x="944" 
d="M100 -373q-115 0 -209 78l62 92q70 -61 145 -61q82 0 140 53t79 168l201 1139q29 164 121.5 240.5t218.5 76.5q115 0 205 -78l-59 -88q-74 58 -148 58q-81 0 -138.5 -54.5t-78.5 -167.5l-201 -1138q-29 -164 -121.5 -241t-216.5 -77z" />
    <glyph glyph-name="approxequal" unicode="&#x2248;" horiz-adv-x="1193" 
d="M889 715q-12 -2 -37 -2q-97 0 -201 73q-37 24 -58.5 37t-52.5 24t-59 11q-18 0 -28 -2q-49 -8 -83 -37.5t-73 -87.5l-84 64q49 78 102 122.5t127 55.5q12 2 37 2q96 0 207 -80q54 -38 96.5 -55t87.5 -13q80 7 142 138l90 -60q-91 -174 -213 -190zM848 365q-18 -3 -37 -3
q-96 0 -201 74q-38 24 -58.5 36t-52.5 24t-61 12q-18 0 -26 -2q-49 -8 -81.5 -37t-74.5 -88l-84 63q52 80 103.5 124t127.5 55q12 2 35 2q96 0 207 -80q97 -70 164 -70q3 0 9.5 1t10.5 1q79 7 142 135l90 -57q-91 -174 -213 -190z" />
    <glyph glyph-name="notequal" unicode="&#x2260;" horiz-adv-x="1075" 
d="M985 834h-246l-202 -271h401l-20 -112h-467l-170 -226l-56 35l144 191h-181l19 112h246l204 271h-401l18 112h467l170 225l58 -34l-144 -191h181z" />
    <glyph glyph-name="lessequal" unicode="&#x2264;" horiz-adv-x="882" 
d="M756 461l-609 307l21 106l717 308l-27 -133l-567 -234l485 -233zM41 162l20 117h662l-21 -117h-661z" />
    <glyph glyph-name="greaterequal" unicode="&#x2265;" horiz-adv-x="882" 
d="M131 461l23 135l569 233l-487 232l22 121l606 -308l-18 -106zM78 162l20 117h662l-21 -117h-661z" />
    <glyph glyph-name="lozenge" unicode="&#x25ca;" horiz-adv-x="1120" 
d="M737 1393l355 -697l-596 -696h-27l-352 696l596 697h24zM258 686l248 -491l442 512l-248 493z" />
    <glyph glyph-name="i.loclTRK" horiz-adv-x="444" 
d="M350 1143q-42 0 -64.5 25t-19.5 61q2 40 28 70t71 30t67.5 -27t20.5 -65q-3 -38 -31 -66t-72 -28zM80 0l160 905h125l-160 -905h-125z" />
    <glyph glyph-name="germandbls.calt" horiz-adv-x="1357" 
d="M1311 1393l-8 -41l-416 -498h14q167 0 261.5 -97t94.5 -247q0 -225 -144 -367.5t-378 -142.5h-266l23 123h251q176 0 277.5 106.5t101.5 262.5q0 119 -66 182t-186 63h-149l22 123l344 410h-274q-161 0 -266 -100.5t-137 -282.5l-156 -887h-133l155 893q46 252 186.5 376
t381.5 124h467z" />
    <glyph glyph-name="a.ss01" horiz-adv-x="985" 
d="M573 915q137 0 216 -65t79 -184q0 -32 -6 -66l-104 -600h-92l4 164q-60 -85 -156 -132.5t-205 -47.5q-117 0 -185.5 59.5t-68.5 165.5q0 88 43 156.5t116 108.5t162.5 60.5t190.5 20.5q94 0 160 -10l10 57q4 18 4 49q0 76 -48.5 113t-129.5 37q-158 0 -327 -76l-35 102
q193 88 372 88zM338 98q132 0 239 93.5t138 252.5q-88 9 -144 9q-68 0 -132.5 -11.5t-125 -35.5t-97 -70t-36.5 -107q0 -131 158 -131z" />
    <glyph glyph-name="aacute.ss01" horiz-adv-x="985" 
d="M797 1296l-320 -196l-59 78l307 227zM573 915q137 0 216 -65t79 -184q0 -32 -6 -66l-104 -600h-92l4 164q-60 -85 -156 -132.5t-205 -47.5q-117 0 -185.5 59.5t-68.5 165.5q0 88 43 156.5t116 108.5t162.5 60.5t190.5 20.5q94 0 160 -10l10 57q4 18 4 49q0 76 -48.5 113
t-129.5 37q-158 0 -327 -76l-35 102q193 88 372 88zM338 98q132 0 239 93.5t138 252.5q-88 9 -144 9q-68 0 -132.5 -11.5t-125 -35.5t-97 -70t-36.5 -107q0 -131 158 -131z" />
    <glyph glyph-name="abreve.ss01" horiz-adv-x="985" 
d="M594 1081q-100 0 -167 58.5t-71 158.5l90 23q9 -65 48.5 -99t99.5 -34q72 0 124 36.5t73 96.5l94 -23q-30 -106 -108.5 -161.5t-182.5 -55.5zM573 915q137 0 216 -65t79 -184q0 -32 -6 -66l-104 -600h-92l4 164q-60 -85 -156 -132.5t-205 -47.5q-117 0 -185.5 59.5
t-68.5 165.5q0 88 43 156.5t116 108.5t162.5 60.5t190.5 20.5q94 0 160 -10l10 57q4 18 4 49q0 76 -48.5 113t-129.5 37q-158 0 -327 -76l-35 102q193 88 372 88zM338 98q132 0 239 93.5t138 252.5q-88 9 -144 9q-68 0 -132.5 -11.5t-125 -35.5t-97 -70t-36.5 -107
q0 -131 158 -131z" />
    <glyph glyph-name="acircumflex.ss01" horiz-adv-x="985" 
d="M612 1233l-243 -154l-56 72l299 209h31l229 -215l-63 -66zM573 915q137 0 216 -65t79 -184q0 -32 -6 -66l-104 -600h-92l4 164q-60 -85 -156 -132.5t-205 -47.5q-117 0 -185.5 59.5t-68.5 165.5q0 88 43 156.5t116 108.5t162.5 60.5t190.5 20.5q94 0 160 -10l10 57
q4 18 4 49q0 76 -48.5 113t-129.5 37q-158 0 -327 -76l-35 102q193 88 372 88zM338 98q132 0 239 93.5t138 252.5q-88 9 -144 9q-68 0 -132.5 -11.5t-125 -35.5t-97 -70t-36.5 -107q0 -131 158 -131z" />
    <glyph glyph-name="adieresis.ss01" horiz-adv-x="985" 
d="M397 1149q-41 0 -63.5 23t-22.5 57q0 36 28.5 67t70.5 31q39 0 61.5 -23.5t22.5 -56.5q0 -36 -27.5 -67t-69.5 -31zM821 1327q40 0 62 -24t22 -58q0 -35 -27 -65.5t-69 -30.5q-40 0 -61 24t-21 58q0 37 26 66.5t68 29.5zM573 915q137 0 216 -65t79 -184q0 -32 -6 -66
l-104 -600h-92l4 164q-60 -85 -156 -132.5t-205 -47.5q-117 0 -185.5 59.5t-68.5 165.5q0 88 43 156.5t116 108.5t162.5 60.5t190.5 20.5q94 0 160 -10l10 57q4 18 4 49q0 76 -48.5 113t-129.5 37q-158 0 -327 -76l-35 102q193 88 372 88zM338 98q132 0 239 93.5t138 252.5
q-88 9 -144 9q-68 0 -132.5 -11.5t-125 -35.5t-97 -70t-36.5 -107q0 -131 158 -131z" />
    <glyph glyph-name="agrave.ss01" horiz-adv-x="985" 
d="M729 1165l-67 -63l-259 205l93 90zM573 915q137 0 216 -65t79 -184q0 -32 -6 -66l-104 -600h-92l4 164q-60 -85 -156 -132.5t-205 -47.5q-117 0 -185.5 59.5t-68.5 165.5q0 88 43 156.5t116 108.5t162.5 60.5t190.5 20.5q94 0 160 -10l10 57q4 18 4 49q0 76 -48.5 113
t-129.5 37q-158 0 -327 -76l-35 102q193 88 372 88zM338 98q132 0 239 93.5t138 252.5q-88 9 -144 9q-68 0 -132.5 -11.5t-125 -35.5t-97 -70t-36.5 -107q0 -131 158 -131z" />
    <glyph glyph-name="amacron.ss01" horiz-adv-x="985" 
d="M879 1255l-19 -108h-543l19 108h543zM573 915q137 0 216 -65t79 -184q0 -32 -6 -66l-104 -600h-92l4 164q-60 -85 -156 -132.5t-205 -47.5q-117 0 -185.5 59.5t-68.5 165.5q0 88 43 156.5t116 108.5t162.5 60.5t190.5 20.5q94 0 160 -10l10 57q4 18 4 49q0 76 -48.5 113
t-129.5 37q-158 0 -327 -76l-35 102q193 88 372 88zM338 98q132 0 239 93.5t138 252.5q-88 9 -144 9q-68 0 -132.5 -11.5t-125 -35.5t-97 -70t-36.5 -107q0 -131 158 -131z" />
    <glyph glyph-name="aogonek.ss01" horiz-adv-x="985" 
d="M573 915q137 0 216 -65t79 -184q0 -32 -6 -66l-104 -600q-105 -72 -168.5 -144.5t-63.5 -127.5q0 -24 15.5 -39t46.5 -15q52 0 106 35l27 -104q-77 -47 -168 -47q-75 0 -118.5 39t-43.5 104q0 85 68.5 166t208.5 182l2 115q-60 -85 -156 -132.5t-205 -47.5
q-117 0 -185.5 59.5t-68.5 165.5q0 88 43 156.5t116 108.5t162.5 60.5t190.5 20.5q94 0 160 -10l10 57q4 18 4 49q0 76 -48.5 113t-129.5 37q-158 0 -327 -76l-35 102q193 88 372 88zM338 98q132 0 239 93.5t138 252.5q-88 9 -144 9q-68 0 -132.5 -11.5t-125 -35.5t-97 -70
t-36.5 -107q0 -131 158 -131z" />
    <glyph glyph-name="aring.ss01" horiz-adv-x="985" 
d="M582 1034q-83 0 -136 48.5t-53 125.5q0 93 71.5 157.5t166.5 64.5q82 0 135 -48.5t53 -124.5q0 -92 -71 -157.5t-166 -65.5zM483 1210q0 -42 28 -68t73 -26q63 0 104 39t41 98q0 43 -27.5 71t-74.5 28q-61 0 -102.5 -41.5t-41.5 -100.5zM573 915q137 0 216 -65t79 -184
q0 -32 -6 -66l-104 -600h-92l4 164q-60 -85 -156 -132.5t-205 -47.5q-117 0 -185.5 59.5t-68.5 165.5q0 88 43 156.5t116 108.5t162.5 60.5t190.5 20.5q94 0 160 -10l10 57q4 18 4 49q0 76 -48.5 113t-129.5 37q-158 0 -327 -76l-35 102q193 88 372 88zM338 98
q132 0 239 93.5t138 252.5q-88 9 -144 9q-68 0 -132.5 -11.5t-125 -35.5t-97 -70t-36.5 -107q0 -131 158 -131z" />
    <glyph glyph-name="atilde.ss01" horiz-adv-x="985" 
d="M506 1202q-55 0 -94 -76l-84 56q59 127 161 127q47 0 120 -34t98 -34q51 0 90 74l84 -58q-67 -122 -162 -122q-43 0 -113.5 33.5t-99.5 33.5zM573 915q137 0 216 -65t79 -184q0 -32 -6 -66l-104 -600h-92l4 164q-60 -85 -156 -132.5t-205 -47.5q-117 0 -185.5 59.5
t-68.5 165.5q0 88 43 156.5t116 108.5t162.5 60.5t190.5 20.5q94 0 160 -10l10 57q4 18 4 49q0 76 -48.5 113t-129.5 37q-158 0 -327 -76l-35 102q193 88 372 88zM338 98q132 0 239 93.5t138 252.5q-88 9 -144 9q-68 0 -132.5 -11.5t-125 -35.5t-97 -70t-36.5 -107
q0 -131 158 -131z" />
    <glyph glyph-name="ae.ss01" horiz-adv-x="1521" 
d="M1038 385q-113 0 -235 29q-2 -18 -2 -58q0 -126 67.5 -193t182.5 -67q154 0 280 97l55 -91q-150 -122 -337 -122q-128 0 -212.5 61.5t-115.5 171.5q-131 -233 -387 -233q-123 0 -198 65t-75 178q1 88 41.5 155t110 106t152.5 58t178 19q85 0 170 -14l12 74q4 28 4 38
q0 74 -50 110t-136 36q-143 0 -310 -76l-34 102q193 91 354 91q110 0 182.5 -47t89.5 -140q64 89 155 138t202 49q133 0 210.5 -66t77.5 -170q0 -78 -35 -137.5t-96.5 -94t-137 -52t-163.5 -17.5zM1180 805q-134 0 -228.5 -79t-130.5 -210q113 -22 219 -22q136 0 223 45.5
t87 140.5q0 59 -46 92t-124 33zM348 96q130 0 221 90t127 260q-54 11 -135 11q-68 0 -129 -10.5t-119 -34.5t-93 -70.5t-36 -110.5q0 -63 40.5 -99t123.5 -36z" />
    <glyph glyph-name="aeacute.ss01" horiz-adv-x="1521" 
d="M1104 1296l-320 -196l-59 78l307 227zM1038 385q-113 0 -235 29q-2 -18 -2 -58q0 -126 67.5 -193t182.5 -67q154 0 280 97l55 -91q-150 -122 -337 -122q-128 0 -212.5 61.5t-115.5 171.5q-131 -233 -387 -233q-123 0 -198 65t-75 178q1 88 41.5 155t110 106t152.5 58
t178 19q85 0 170 -14l12 74q4 28 4 38q0 74 -50 110t-136 36q-143 0 -310 -76l-34 102q193 91 354 91q110 0 182.5 -47t89.5 -140q64 89 155 138t202 49q133 0 210.5 -66t77.5 -170q0 -78 -35 -137.5t-96.5 -94t-137 -52t-163.5 -17.5zM1180 805q-134 0 -228.5 -79
t-130.5 -210q113 -22 219 -22q136 0 223 45.5t87 140.5q0 59 -46 92t-124 33zM348 96q130 0 221 90t127 260q-54 11 -135 11q-68 0 -129 -10.5t-119 -34.5t-93 -70.5t-36 -110.5q0 -63 40.5 -99t123.5 -36z" />
    <glyph glyph-name="g.ss01" horiz-adv-x="954" 
d="M979 899l-16 -88l-164 -8q73 -73 73 -182q0 -18 -4 -46q-23 -140 -134 -236.5t-277 -96.5q-113 0 -193 55q-53 -31 -63 -86q-6 -50 25 -81.5t106 -37.5l254 -22q113 -11 176 -61.5t63 -139.5q0 -15 -4 -47q-23 -137 -152 -215t-323 -78q-184 0 -280.5 74.5t-96.5 193.5
q0 35 4 53q9 66 46.5 125.5t97.5 98.5q-37 43 -37 106q0 117 115 189q-48 73 -48 166q0 34 5 59q26 139 135.5 233.5t273.5 94.5q72 0 211 -11t207 -12zM750 627q0 79 -52.5 130.5t-144.5 51.5q-123 0 -203 -79t-80 -189q0 -81 52 -134t143 -53q124 0 204.5 81t80.5 192z
M326 -23q-65 6 -123 31q-45 -35 -72 -73t-37 -95q-2 -10 -2 -30q0 -75 64 -120.5t192 -45.5q143 0 246.5 56.5t103.5 149.5q0 46 -35.5 73.5t-101.5 31.5z" />
    <glyph glyph-name="gbreve.ss01" horiz-adv-x="954" 
d="M618 1081q-99 0 -166 58.5t-71 158.5l90 23q9 -65 48 -99t99 -34q72 0 124 36.5t73 96.5l94 -23q-30 -106 -108.5 -161.5t-182.5 -55.5zM979 899l-16 -88l-164 -8q73 -73 73 -182q0 -18 -4 -46q-23 -140 -134 -236.5t-277 -96.5q-113 0 -193 55q-53 -31 -63 -86
q-6 -50 25 -81.5t106 -37.5l254 -22q113 -11 176 -61.5t63 -139.5q0 -15 -4 -47q-23 -137 -152 -215t-323 -78q-184 0 -280.5 74.5t-96.5 193.5q0 35 4 53q9 66 46.5 125.5t97.5 98.5q-37 43 -37 106q0 117 115 189q-48 73 -48 166q0 34 5 59q26 139 135.5 233.5t273.5 94.5
q72 0 211 -11t207 -12zM750 627q0 79 -52.5 130.5t-144.5 51.5q-123 0 -203 -79t-80 -189q0 -81 52 -134t143 -53q124 0 204.5 81t80.5 192zM326 -23q-65 6 -123 31q-45 -35 -72 -73t-37 -95q-2 -10 -2 -30q0 -75 64 -120.5t192 -45.5q143 0 246.5 56.5t103.5 149.5
q0 46 -35.5 73.5t-101.5 31.5z" />
    <glyph glyph-name="gcircumflex.ss01" horiz-adv-x="954" 
d="M639 1233l-244 -154l-55 72l299 209h31l229 -215l-63 -66zM979 899l-16 -88l-164 -8q73 -73 73 -182q0 -18 -4 -46q-23 -140 -134 -236.5t-277 -96.5q-113 0 -193 55q-53 -31 -63 -86q-6 -50 25 -81.5t106 -37.5l254 -22q113 -11 176 -61.5t63 -139.5q0 -15 -4 -47
q-23 -137 -152 -215t-323 -78q-184 0 -280.5 74.5t-96.5 193.5q0 35 4 53q9 66 46.5 125.5t97.5 98.5q-37 43 -37 106q0 117 115 189q-48 73 -48 166q0 34 5 59q26 139 135.5 233.5t273.5 94.5q72 0 211 -11t207 -12zM750 627q0 79 -52.5 130.5t-144.5 51.5q-123 0 -203 -79
t-80 -189q0 -81 52 -134t143 -53q124 0 204.5 81t80.5 192zM326 -23q-65 6 -123 31q-45 -35 -72 -73t-37 -95q-2 -10 -2 -30q0 -75 64 -120.5t192 -45.5q143 0 246.5 56.5t103.5 149.5q0 46 -35.5 73.5t-101.5 31.5z" />
    <glyph glyph-name="uni0123.ss01" horiz-adv-x="954" 
d="M801 1458q-96 -182 -129 -350h-133q58 229 163 350h99zM979 899l-16 -88l-164 -8q73 -73 73 -182q0 -18 -4 -46q-23 -140 -134 -236.5t-277 -96.5q-113 0 -193 55q-53 -31 -63 -86q-6 -50 25 -81.5t106 -37.5l254 -22q113 -11 176 -61.5t63 -139.5q0 -15 -4 -47
q-23 -137 -152 -215t-323 -78q-184 0 -280.5 74.5t-96.5 193.5q0 35 4 53q9 66 46.5 125.5t97.5 98.5q-37 43 -37 106q0 117 115 189q-48 73 -48 166q0 34 5 59q26 139 135.5 233.5t273.5 94.5q72 0 211 -11t207 -12zM750 627q0 79 -52.5 130.5t-144.5 51.5q-123 0 -203 -79
t-80 -189q0 -81 52 -134t143 -53q124 0 204.5 81t80.5 192zM326 -23q-65 6 -123 31q-45 -35 -72 -73t-37 -95q-2 -10 -2 -30q0 -75 64 -120.5t192 -45.5q143 0 246.5 56.5t103.5 149.5q0 46 -35.5 73.5t-101.5 31.5z" />
    <glyph glyph-name="gdotaccent.ss01" horiz-adv-x="954" 
d="M625 1139q-45 0 -68 26t-20 64q2 42 28.5 72t73.5 30t70 -27.5t20 -66.5q-2 -39 -30.5 -68.5t-73.5 -29.5zM979 899l-16 -88l-164 -8q73 -73 73 -182q0 -18 -4 -46q-23 -140 -134 -236.5t-277 -96.5q-113 0 -193 55q-53 -31 -63 -86q-6 -50 25 -81.5t106 -37.5l254 -22
q113 -11 176 -61.5t63 -139.5q0 -15 -4 -47q-23 -137 -152 -215t-323 -78q-184 0 -280.5 74.5t-96.5 193.5q0 35 4 53q9 66 46.5 125.5t97.5 98.5q-37 43 -37 106q0 117 115 189q-48 73 -48 166q0 34 5 59q26 139 135.5 233.5t273.5 94.5q72 0 211 -11t207 -12zM750 627
q0 79 -52.5 130.5t-144.5 51.5q-123 0 -203 -79t-80 -189q0 -81 52 -134t143 -53q124 0 204.5 81t80.5 192zM326 -23q-65 6 -123 31q-45 -35 -72 -73t-37 -95q-2 -10 -2 -30q0 -75 64 -120.5t192 -45.5q143 0 246.5 56.5t103.5 149.5q0 46 -35.5 73.5t-101.5 31.5z" />
    <glyph glyph-name="y.ss01" horiz-adv-x="1064" 
d="M360 -471q-216 0 -337 162l86 82q51 -67 111 -97t140 -30q116 0 209 74.5t119 216.5l39 215q-124 -172 -317 -172q-137 0 -213 79t-76 207q0 22 8 80l98 559h125l-102 -575q-4 -18 -4 -56q0 -81 44 -129.5t132 -48.5q138 0 234.5 101.5t123.5 255.5l80 452h125l-174 -985
q-15 -84 -48.5 -152t-78 -112t-99.5 -73t-110.5 -41.5t-114.5 -12.5z" />
    <glyph glyph-name="yacute.ss01" horiz-adv-x="1064" 
d="M526 1100l-59 78l307 227l72 -109zM360 -471q-216 0 -337 162l86 82q51 -67 111 -97t140 -30q116 0 209 74.5t119 216.5l39 215q-124 -172 -317 -172q-137 0 -213 79t-76 207q0 22 8 80l98 559h125l-102 -575q-4 -18 -4 -56q0 -81 44 -129.5t132 -48.5q138 0 234.5 101.5
t123.5 255.5l80 452h125l-174 -985q-15 -84 -48.5 -152t-78 -112t-99.5 -73t-110.5 -41.5t-114.5 -12.5z" />
    <glyph glyph-name="ycircumflex.ss01" horiz-adv-x="1064" 
d="M416 1079l-56 72l299 209h31l230 -215l-64 -66l-197 154zM360 -471q-216 0 -337 162l86 82q51 -67 111 -97t140 -30q116 0 209 74.5t119 216.5l39 215q-124 -172 -317 -172q-137 0 -213 79t-76 207q0 22 8 80l98 559h125l-102 -575q-4 -18 -4 -56q0 -81 44 -129.5
t132 -48.5q138 0 234.5 101.5t123.5 255.5l80 452h125l-174 -985q-15 -84 -48.5 -152t-78 -112t-99.5 -73t-110.5 -41.5t-114.5 -12.5z" />
    <glyph glyph-name="ydieresis.ss01" horiz-adv-x="1064" 
d="M446 1149q-41 0 -63.5 23t-22.5 57q0 36 28.5 67t70.5 31q39 0 61.5 -23.5t22.5 -56.5q0 -36 -27.5 -67t-69.5 -31zM858 1149q-40 0 -61 24t-21 58q0 37 26 66.5t68 29.5q40 0 62 -24t22 -58q0 -35 -27 -65.5t-69 -30.5zM360 -471q-216 0 -337 162l86 82q51 -67 111 -97
t140 -30q116 0 209 74.5t119 216.5l39 215q-124 -172 -317 -172q-137 0 -213 79t-76 207q0 22 8 80l98 559h125l-102 -575q-4 -18 -4 -56q0 -81 44 -129.5t132 -48.5q138 0 234.5 101.5t123.5 255.5l80 452h125l-174 -985q-15 -84 -48.5 -152t-78 -112t-99.5 -73
t-110.5 -41.5t-114.5 -12.5z" />
    <glyph glyph-name="ygrave.ss01" horiz-adv-x="1064" 
d="M709 1102l-258 205l92 90l233 -232zM360 -471q-216 0 -337 162l86 82q51 -67 111 -97t140 -30q116 0 209 74.5t119 216.5l39 215q-124 -172 -317 -172q-137 0 -213 79t-76 207q0 22 8 80l98 559h125l-102 -575q-4 -18 -4 -56q0 -81 44 -129.5t132 -48.5
q138 0 234.5 101.5t123.5 255.5l80 452h125l-174 -985q-15 -84 -48.5 -152t-78 -112t-99.5 -73t-110.5 -41.5t-114.5 -12.5z" />
    <glyph glyph-name="f_b" horiz-adv-x="1849" 
d="M1372 924q182 0 284.5 -105t102.5 -274q0 -47 -10 -109q-37 -203 -173 -329.5t-347 -126.5q-115 0 -205.5 48.5t-132.5 135.5l-47 -164h-96l229 1305q-92 71 -240 71q-112 0 -181.5 -63t-88.5 -172l-41 -236h301l-18 -110h-303l-140 -795h-125l140 795h-185l21 110h184
l43 244q29 162 125 253t262 91q153 0 270 -92l27 67h102l-102 -577q-7 -45 -29 -129q70 80 168 121t205 41zM1624 444q8 41 8 86q0 126 -74.5 201.5t-207.5 75.5q-156 0 -266.5 -100t-137.5 -248q-6 -37 -6 -72q0 -127 76.5 -209t214.5 -82q152 0 257.5 96t135.5 252z" />
    <glyph glyph-name="f_f_b" horiz-adv-x="2523" 
d="M2046 924q183 0 285 -105.5t102 -275.5q0 -45 -10 -107q-37 -203 -173 -329.5t-347 -126.5q-115 0 -205.5 48.5t-132.5 135.5l-47 -164h-97l230 1305q-92 71 -242 71q-114 0 -183.5 -63t-88.5 -172l-41 -236h297l-19 -110h-299l-139 -795h-125l139 795h-544l-140 -795
h-125l142 795h-187l21 110h186l45 258q26 154 111.5 242t234.5 88q113 0 209 -55l-53 -95q-67 33 -150 33q-192 0 -231 -223l-43 -248h545l43 244q29 162 125.5 253t263.5 91q159 0 272 -92l27 67h102l-102 -577q-6 -42 -29 -129q72 80 169 121t204 41zM2298 444q8 41 8 86
q0 126 -75 201.5t-208 75.5q-156 0 -266 -100t-137 -248q-6 -37 -6 -72q0 -127 76.5 -209t214.5 -82q152 0 258.5 96t134.5 252z" />
    <glyph glyph-name="f_f_h" horiz-adv-x="2410" 
d="M2019 924q133 0 202 -72.5t69 -200.5q0 -45 -9 -98l-98 -553h-125l101 573q6 30 6 62q0 80 -45 126t-133 46q-138 0 -237.5 -106.5t-125.5 -260.5l-78 -440h-125l230 1305q-92 71 -242 71q-114 0 -183.5 -63t-88.5 -172l-41 -236h297l-19 -110h-299l-139 -795h-125
l139 795h-544l-140 -795h-125l142 795h-187l21 110h186l45 258q26 154 111.5 242t234.5 88q113 0 209 -55l-53 -95q-67 33 -150 33q-192 0 -231 -223l-43 -248h545l43 244q29 162 125.5 253t263.5 91q153 0 274 -90l25 65h102l-98 -561q-13 -70 -35 -168q136 185 348 185z
" />
    <glyph glyph-name="f_f_j" horiz-adv-x="1798" 
d="M1718 905l-186 -1061q-27 -152 -101.5 -227.5t-207.5 -75.5q-97 0 -168 47l55 105q51 -39 115 -39q77 0 123 58t61 143l166 940h-502l-139 -795h-125l139 795h-542l-140 -795h-125l142 795h-187l21 110h186l45 258q26 154 111.5 242t234.5 88q113 0 209 -55l-53 -95
q-67 33 -150 33q-192 0 -231 -223l-43 -248h543l43 244q61 344 399 344q104 0 184 -34t156 -109l-74 -80q-106 106 -256 106q-244 0 -286 -235l-41 -236h624z" />
    <glyph glyph-name="f_f_k" horiz-adv-x="2224" 
d="M2243 905v-4l-506 -440l387 -457v-4h-142l-362 424l-74 -424h-125l230 1305q-92 71 -242 71q-114 0 -183.5 -63t-88.5 -172l-41 -236h297l-19 -110h-299l-139 -795h-125l139 795h-544l-140 -795h-125l142 795h-187l21 110h186l45 258q26 154 111.5 242t234.5 88
q113 0 209 -55l-53 -95q-67 33 -150 33q-192 0 -231 -223l-43 -248h545l43 244q29 162 125.5 253t263.5 91q159 0 274 -94l29 69h98l-166 -950l441 387h164z" />
    <glyph glyph-name="f_h" horiz-adv-x="1734" 
d="M1343 924q133 0 203 -71.5t70 -199.5q0 -42 -10 -100l-97 -553h-125l101 573q6 30 6 62q0 80 -45 126t-133 46q-138 0 -238 -106.5t-127 -260.5l-76 -440h-124l229 1303q-91 73 -240 73q-112 0 -181.5 -63t-88.5 -172l-41 -236h301l-18 -110h-303l-140 -795h-125l140 795
h-185l21 110h184l43 244q29 162 125 253t262 91q153 0 270 -92l27 67h102l-98 -561q-13 -70 -35 -168q136 185 346 185z" />
    <glyph glyph-name="f_j" horiz-adv-x="1130" 
d="M1051 905l-187 -1061q-27 -152 -101.5 -227.5t-207.5 -75.5q-97 0 -168 47l55 105q51 -39 115 -39q77 0 123 58t61 143l166 940h-501l-140 -795h-125l142 795h-187l21 110h186l43 244q60 344 387 344q113 0 200.5 -36.5t168.5 -106.5l-76 -86q-119 112 -289 112
q-225 0 -270 -237l-41 -234h625z" />
    <glyph glyph-name="f_k" horiz-adv-x="1552" 
d="M1569 905v-4l-506 -440l389 -457v-4h-143l-363 424l-74 -424h-124l229 1305q-92 71 -240 71q-112 0 -181.5 -63t-88.5 -172l-41 -236h301l-18 -110h-303l-140 -795h-125l140 795h-185l21 110h184l43 244q29 162 124.5 253t262.5 91q154 0 270 -92l27 67h102l-167 -952
l442 389h164z" />
    <glyph glyph-name="uni0414.loclBGR" horiz-adv-x="1507" 
d="M1284 123h146l-78 -434h-133l55 311h-1200l-56 -311h-133l76 434h143l791 1270h45zM883 1153q-37 -68 -95 -160l-538 -870h895l-227 872q-27 109 -35 158z" />
    <glyph glyph-name="uni041B.loclBGR" horiz-adv-x="1394" 
d="M891 1403l399 -1399v-4h-135l-266 940q-39 139 -58 236q-60 -122 -133 -236l-598 -940h-149v4l895 1399h45z" />
    <glyph glyph-name="uni0424.loclBGR" horiz-adv-x="1814" 
d="M1147 1425q273 -22 438.5 -189t165.5 -413q0 -65 -12 -129q-26 -145 -97 -270.5t-178 -221t-254 -154t-317 -66.5l-37 -203h-133l35 203q-276 23 -440 190t-164 414q0 73 10 127q54 301 280.5 498t571.5 214l35 203h133zM1608 705q10 65 10 114q0 204 -131.5 336.5
t-364.5 147.5l-211 -1199q274 23 463 189.5t234 411.5zM295 702q-10 -65 -10 -112q0 -204 131.5 -337.5t365.5 -148.5l213 1199q-185 -14 -335 -96.5t-243 -213t-122 -291.5z" />
    <glyph glyph-name="uni0414.ss02" horiz-adv-x="1507" 
d="M1284 123h146l-78 -434h-133l55 311h-1200l-56 -311h-133l76 434h143l791 1270h45zM883 1153q-37 -68 -95 -160l-538 -870h895l-227 872q-27 109 -35 158z" />
    <glyph glyph-name="uni041B.ss02" horiz-adv-x="1394" 
d="M891 1403l399 -1399v-4h-135l-266 940q-39 139 -58 236q-60 -122 -133 -236l-598 -940h-149v4l895 1399h45z" />
    <glyph glyph-name="uni0424.ss02" horiz-adv-x="1814" 
d="M1147 1425q273 -22 438.5 -189t165.5 -413q0 -65 -12 -129q-26 -145 -97 -270.5t-178 -221t-254 -154t-317 -66.5l-37 -203h-133l35 203q-276 23 -440 190t-164 414q0 73 10 127q54 301 280.5 498t571.5 214l35 203h133zM1608 705q10 65 10 114q0 204 -131.5 336.5
t-364.5 147.5l-211 -1199q274 23 463 189.5t234 411.5zM295 702q-10 -65 -10 -112q0 -204 131.5 -337.5t365.5 -148.5l213 1199q-185 -14 -335 -96.5t-243 -213t-122 -291.5z" />
    <glyph glyph-name="uni0414.ss03" horiz-adv-x="1507" 
d="M1284 123h146l-78 -434h-133l55 311h-1200l-56 -311h-133l76 434h143l791 1270h45zM883 1153q-37 -68 -95 -160l-538 -870h895l-227 872q-27 109 -35 158z" />
    <glyph glyph-name="uni041B.ss03" horiz-adv-x="1394" 
d="M891 1403l399 -1399v-4h-135l-266 940q-39 139 -58 236q-60 -122 -133 -236l-598 -940h-149v4l895 1399h45z" />
    <glyph glyph-name="uni0424.ss03" horiz-adv-x="1814" 
d="M1147 1425q273 -22 438.5 -189t165.5 -413q0 -65 -12 -129q-26 -145 -97 -270.5t-178 -221t-254 -154t-317 -66.5l-37 -203h-133l35 203q-276 23 -440 190t-164 414q0 73 10 127q54 301 280.5 498t571.5 214l35 203h133zM1608 705q10 65 10 114q0 204 -131.5 336.5
t-364.5 147.5l-211 -1199q274 23 463 189.5t234 411.5zM295 702q-10 -65 -10 -112q0 -204 131.5 -337.5t365.5 -148.5l213 1199q-185 -14 -335 -96.5t-243 -213t-122 -291.5z" />
    <glyph glyph-name="uni0432.loclBGR" horiz-adv-x="1130" 
d="M1079 1112q-17 -98 -94.5 -185t-196.5 -145q115 -23 178.5 -107.5t63.5 -201.5q0 -38 -6 -78q-33 -186 -171.5 -300.5t-350.5 -114.5q-164 0 -265.5 101.5t-101.5 295.5q0 71 15 153l51 295q55 311 208 466t369 155q146 0 226.5 -72.5t80.5 -195.5q0 -32 -6 -66z
M950 1167q0 78 -47 120t-139 42q-154 0 -271 -128t-161 -378l-17 -98l224 68q411 126 411 374zM895 410q4 20 4 59q0 104 -63 165.5t-170 61.5q-72 0 -158 -24l-213 -64l-14 -86q-13 -83 -13 -137q0 -146 65.5 -216.5t182.5 -70.5q147 0 250.5 87t128.5 225z" />
    <glyph glyph-name="uni0433.loclBGR" horiz-adv-x="798" 
d="M338 -18q-124 0 -206.5 64t-82.5 169q0 64 24.5 115t72 87t101.5 60.5t128 46.5q118 37 172.5 75.5t54.5 100.5q0 47 -38.5 74t-104.5 27q-115 0 -230 -64l-43 105q133 76 279 76q116 0 187 -59t71 -157q0 -110 -77 -175.5t-226 -110.5q-47 -15 -78 -25.5t-67 -28.5
t-56.5 -36t-34.5 -44.5t-14 -58.5q0 -59 47.5 -92t122.5 -33q132 0 250 88l55 -106q-148 -98 -307 -98z" />
    <glyph glyph-name="uni0434.loclBGR" horiz-adv-x="1179" 
d="M1006 905h92l-170 -971q-18 -105 -67 -185t-117.5 -127t-148 -70t-167.5 -23q-245 0 -383 174l82 82q63 -71 135 -105t168 -34q141 0 244.5 78t130.5 225q20 107 43 196q-145 -161 -371 -161q-180 0 -283.5 107.5t-103.5 277.5q0 52 8 96q17 96 61.5 179t111 145.5
t157.5 98.5t195 36q111 0 195 -44.5t132 -125.5zM899 459q8 50 8 76q0 118 -73.5 195t-212.5 77q-152 0 -261 -96.5t-137 -255.5q-8 -54 -8 -78q0 -126 77 -202.5t206 -76.5q159 0 265.5 102t135.5 259z" />
    <glyph glyph-name="uni0436.loclBGR" horiz-adv-x="1247" 
d="M1260 905v-4l-459 -434l346 -463v-4h-137l-328 430l-76 -430h-125l76 434l-455 -434h-163v4l518 485l-312 412v4h138l290 -387l160 907h125l-160 -903l404 383h158z" />
    <glyph glyph-name="uni0437.loclBGR" horiz-adv-x="811" 
d="M195 -471q-212 0 -347 104l64 93q118 -82 295 -82q137 0 230.5 73t115.5 197q6 38 6 70q0 111 -69.5 167t-188.5 56h-164l21 115h151q113 0 191 66.5t100 180.5q4 32 4 49q0 89 -56.5 139t-156.5 50q-66 0 -120.5 -15.5t-123.5 -50.5l-34 99q157 82 297 82q147 0 233 -76
t86 -209q0 -33 -6 -74q-37 -201 -213 -293q77 -34 125.5 -104t48.5 -176q0 -47 -8 -88q-31 -176 -159.5 -274.5t-321.5 -98.5z" />
    <glyph glyph-name="uni0438.loclBGR" horiz-adv-x="1064" 
d="M858 905h125l-158 -905h-98l2 154q-54 -76 -140.5 -123t-189.5 -47q-132 0 -205 76.5t-73 205.5q0 24 8 82l98 557h125l-102 -573q-4 -18 -4 -56q0 -80 43.5 -128t130.5 -48q140 0 236.5 102t125.5 263z" />
    <glyph glyph-name="uni0439.loclBGR" horiz-adv-x="1064" 
d="M631 1096q-177 0 -242 145l82 57q45 -96 162 -96q59 0 113 26t92 70l80 -57q-107 -145 -287 -145zM858 905h125l-158 -905h-98l2 154q-54 -76 -140.5 -123t-189.5 -47q-132 0 -205 76.5t-73 205.5q0 24 8 82l98 557h125l-102 -573q-4 -18 -4 -56q0 -80 43.5 -128
t130.5 -48q140 0 236.5 102t125.5 263z" />
    <glyph glyph-name="uni045D.loclBGR" horiz-adv-x="1064" 
d="M782 1165l-67 -63l-258 205l92 90zM858 905h125l-158 -905h-98l2 154q-54 -76 -140.5 -123t-189.5 -47q-132 0 -205 76.5t-73 205.5q0 24 8 82l98 557h125l-102 -573q-4 -18 -4 -56q0 -80 43.5 -128t130.5 -48q140 0 236.5 102t125.5 263z" />
    <glyph glyph-name="uni043A.loclBGR" horiz-adv-x="886" 
d="M901 905v-4l-502 -436l387 -461v-4h-145l-360 426l-74 -426h-125l250 1425h125l-158 -905l438 385h164z" />
    <glyph glyph-name="uni043B.loclBGR" horiz-adv-x="942" 
d="M-51 0v4l583 911h39l263 -911v-4h-127l-164 602q-14 48 -23 96q-36 -70 -53 -98l-379 -600h-139z" />
    <glyph glyph-name="uni043F.loclBGR" horiz-adv-x="1069" 
d="M676 924q133 0 203.5 -69.5t70.5 -201.5q0 -38 -10 -100l-98 -553h-125l100 565q6 37 6 70q0 82 -44.5 127t-135.5 45q-138 0 -235.5 -103t-126.5 -264l-76 -440h-125l160 905h92l2 -160q59 79 147 129t195 50z" />
    <glyph glyph-name="uni0442.loclBGR" horiz-adv-x="1636" 
d="M1249 924q125 0 197 -71t72 -198q0 -41 -9 -90l-98 -565h-125l103 582q4 20 4 57q0 81 -45 124.5t-125 43.5q-128 0 -220 -104t-118 -254l-78 -449h-125l100 580q6 30 6 61q0 76 -39 121t-118 45q-89 0 -164.5 -51t-121 -130t-62.5 -173l-78 -453h-125l160 905h92l2 -153
q124 172 317 172q103 0 167 -49t81 -140q132 189 350 189z" />
    <glyph glyph-name="uni0443.loclBGR" horiz-adv-x="1064" 
d="M360 -471q-216 0 -337 162l86 82q51 -67 111 -97t140 -30q116 0 209 74.5t119 216.5l39 215q-124 -172 -317 -172q-137 0 -213 79t-76 207q0 22 8 80l98 559h125l-102 -575q-4 -18 -4 -56q0 -81 44 -129.5t132 -48.5q138 0 234.5 101.5t123.5 255.5l80 452h125l-174 -985
q-15 -84 -48.5 -152t-78 -112t-99.5 -73t-110.5 -41.5t-114.5 -12.5z" />
    <glyph glyph-name="uni0446.loclBGR" horiz-adv-x="1085" 
d="M866 211q-4 -24 -4 -33q0 -35 21 -49t69 -14h29l-61 -355h-123l45 248q-107 27 -107 139q-54 -75 -137 -121t-190 -46q-134 0 -210.5 78t-76.5 208q0 26 8 80l98 559h125l-102 -575q-4 -18 -4 -56q0 -81 45 -129.5t131 -48.5q138 0 236 101t124 252l80 456h125z" />
    <glyph glyph-name="uni0448.loclBGR" horiz-adv-x="1640" 
d="M1434 905h125l-158 -905h-98l2 150q-57 -79 -139.5 -121.5t-178.5 -42.5q-103 0 -167 48.5t-81 139.5q-129 -188 -348 -188q-127 0 -198.5 72t-71.5 200q0 45 8 86l98 561h125l-100 -575q-6 -34 -6 -62q0 -81 44.5 -123.5t125.5 -42.5q128 0 220 104.5t118 254.5l77 444
h125l-100 -573q-6 -34 -6 -62q0 -77 40 -122.5t120 -45.5q132 0 226 103.5t120 249.5z" />
    <glyph glyph-name="uni0449.loclBGR" horiz-adv-x="1654" 
d="M1436 215q-4 -24 -4 -35q0 -34 20.5 -48.5t71.5 -14.5h28l-63 -357h-121l45 252q-101 28 -104 140q-129 -166 -326 -166q-106 0 -168 52t-76 138q-58 -88 -148 -139t-196 -51q-133 0 -203.5 71.5t-70.5 196.5q0 41 10 96l96 555h125l-100 -571q-6 -34 -6 -64
q0 -79 42 -123.5t126 -44.5q130 0 223 106t117 247l77 450h125l-100 -573q-6 -30 -6 -62q0 -76 39 -122t117 -46q135 0 228.5 101.5t121.5 251.5l78 450h125z" />
    <glyph glyph-name="uni044C.loclBGR" horiz-adv-x="958" 
d="M539 645q148 0 238.5 -73t90.5 -201q0 -33 -6 -68q-26 -154 -134.5 -238.5t-278.5 -84.5q-152 0 -239 81t-87 213q0 32 6 70l98 561h125l-59 -336q97 76 246 76zM741 313q4 28 4 43q0 82 -57 128t-160 46q-112 0 -187 -50.5t-95 -151.5q-4 -18 -4 -52q0 -85 56.5 -133.5
t156.5 -48.5q112 0 190 58t96 161z" />
    <glyph glyph-name="uni044A.loclBGR" horiz-adv-x="1077" 
d="M657 645q148 0 239 -73t91 -201q0 -33 -6 -68q-28 -154 -136 -238.5t-278 -84.5q-153 0 -240 80.5t-87 211.5q0 34 6 72l80 447h-246l20 114h369l-59 -338q102 78 247 78zM860 313q4 28 4 43q0 82 -57 128t-160 46q-113 0 -187.5 -51.5t-94.5 -152.5q-5 -45 -5 -50
q0 -86 56 -134t157 -48q111 0 190 58.5t97 160.5z" />
    <glyph glyph-name="uni044B.loclBGR" horiz-adv-x="1318" 
d="M539 645q148 0 238.5 -73t90.5 -201q0 -33 -6 -68q-26 -154 -134.5 -238.5t-278.5 -84.5q-152 0 -239 81t-87 213q0 32 6 70l98 561h125l-59 -336q97 76 246 76zM1114 905h125l-160 -905h-125zM741 313q4 28 4 43q0 82 -57 128t-160 46q-112 0 -187 -50.5t-95 -151.5
q-4 -18 -4 -52q0 -85 56.5 -133.5t156.5 -48.5q112 0 190 58t96 161z" />
    <glyph glyph-name="uni0430.ss01" horiz-adv-x="985" 
d="M573 915q137 0 216 -65t79 -184q0 -32 -6 -66l-104 -600h-92l4 164q-60 -85 -156 -132.5t-205 -47.5q-117 0 -185.5 59.5t-68.5 165.5q0 88 43 156.5t116 108.5t162.5 60.5t190.5 20.5q94 0 160 -10l10 57q4 18 4 49q0 76 -48.5 113t-129.5 37q-158 0 -327 -76l-35 102
q193 88 372 88zM338 98q132 0 239 93.5t138 252.5q-88 9 -144 9q-68 0 -132.5 -11.5t-125 -35.5t-97 -70t-36.5 -107q0 -131 158 -131z" />
    <glyph glyph-name="uni0443.ss01" horiz-adv-x="1064" 
d="M360 -471q-219 0 -329 166l90 78q85 -127 239 -127q76 0 142 30.5t118 100t70 168.5l37 207q-124 -172 -317 -172q-137 0 -213 79t-76 207q0 22 8 80l98 559h125l-102 -575q-4 -18 -4 -56q0 -81 44 -129.5t132 -48.5q138 0 234.5 101.5t123.5 255.5l80 452h125l-172 -979
q-19 -106 -66 -185.5t-110.5 -124t-133 -66t-143.5 -21.5z" />
    <glyph glyph-name="uni0432.ss02" horiz-adv-x="1130" 
d="M1079 1112q-17 -98 -94.5 -185t-196.5 -145q115 -23 178.5 -107.5t63.5 -201.5q0 -38 -6 -78q-33 -186 -171.5 -300.5t-350.5 -114.5q-164 0 -265.5 101.5t-101.5 295.5q0 71 15 153l51 295q55 311 208 466t369 155q146 0 226.5 -72.5t80.5 -195.5q0 -32 -6 -66z
M950 1167q0 78 -47 120t-139 42q-154 0 -271 -128t-161 -378l-17 -98l224 68q411 126 411 374zM895 410q4 20 4 59q0 104 -63 165.5t-170 61.5q-72 0 -158 -24l-213 -64l-14 -86q-13 -83 -13 -137q0 -146 65.5 -216.5t182.5 -70.5q147 0 250.5 87t128.5 225z" />
    <glyph glyph-name="uni0433.ss02" horiz-adv-x="798" 
d="M338 -18q-124 0 -206.5 64t-82.5 169q0 64 24.5 115t72 87t101.5 60.5t128 46.5q118 37 172.5 75.5t54.5 100.5q0 47 -38.5 74t-104.5 27q-115 0 -230 -64l-43 105q133 76 279 76q116 0 187 -59t71 -157q0 -110 -77 -175.5t-226 -110.5q-47 -15 -78 -25.5t-67 -28.5
t-56.5 -36t-34.5 -44.5t-14 -58.5q0 -59 47.5 -92t122.5 -33q132 0 250 88l55 -106q-148 -98 -307 -98z" />
    <glyph glyph-name="uni0434.ss02" horiz-adv-x="1179" 
d="M1006 905h92l-170 -971q-18 -105 -67 -185t-117.5 -127t-148 -70t-167.5 -23q-245 0 -383 174l82 82q63 -71 135 -105t168 -34q141 0 244.5 78t130.5 225q20 107 43 196q-145 -161 -371 -161q-180 0 -283.5 107.5t-103.5 277.5q0 52 8 96q17 96 61.5 179t111 145.5
t157.5 98.5t195 36q111 0 195 -44.5t132 -125.5zM899 459q8 50 8 76q0 118 -73.5 195t-212.5 77q-152 0 -261 -96.5t-137 -255.5q-8 -54 -8 -78q0 -126 77 -202.5t206 -76.5q159 0 265.5 102t135.5 259z" />
    <glyph glyph-name="uni0436.ss02" horiz-adv-x="1247" 
d="M1260 905v-4l-459 -434l346 -463v-4h-137l-328 430l-76 -430h-125l76 434l-455 -434h-163v4l518 485l-312 412v4h138l290 -387l160 907h125l-160 -903l404 383h158z" />
    <glyph glyph-name="uni0437.ss02" horiz-adv-x="811" 
d="M195 -471q-212 0 -347 104l64 93q118 -82 295 -82q137 0 230.5 73t115.5 197q6 38 6 70q0 111 -69.5 167t-188.5 56h-164l21 115h151q113 0 191 66.5t100 180.5q4 32 4 49q0 89 -56.5 139t-156.5 50q-66 0 -120.5 -15.5t-123.5 -50.5l-34 99q157 82 297 82q147 0 233 -76
t86 -209q0 -33 -6 -74q-37 -201 -213 -293q77 -34 125.5 -104t48.5 -176q0 -47 -8 -88q-31 -176 -159.5 -274.5t-321.5 -98.5z" />
    <glyph glyph-name="uni0438.ss02" horiz-adv-x="1064" 
d="M858 905h125l-158 -905h-98l2 154q-54 -76 -140.5 -123t-189.5 -47q-132 0 -205 76.5t-73 205.5q0 24 8 82l98 557h125l-102 -573q-4 -18 -4 -56q0 -80 43.5 -128t130.5 -48q140 0 236.5 102t125.5 263z" />
    <glyph glyph-name="uni0439.ss02" horiz-adv-x="1064" 
d="M631 1096q-177 0 -242 145l82 57q45 -96 162 -96q59 0 113 26t92 70l80 -57q-107 -145 -287 -145zM858 905h125l-158 -905h-98l2 154q-54 -76 -140.5 -123t-189.5 -47q-132 0 -205 76.5t-73 205.5q0 24 8 82l98 557h125l-102 -573q-4 -18 -4 -56q0 -80 43.5 -128
t130.5 -48q140 0 236.5 102t125.5 263z" />
    <glyph glyph-name="uni045D.ss02" horiz-adv-x="1069" 
d="M840 1180l-68 -66l-260 207l92 90zM858 905h125l-158 -905h-98l2 154q-54 -76 -140.5 -123t-189.5 -47q-132 0 -205 76.5t-73 205.5q0 24 8 82l98 557h125l-102 -573q-4 -18 -4 -56q0 -80 43.5 -128t130.5 -48q140 0 236.5 102t125.5 263z" />
    <glyph glyph-name="uni043A.ss02" horiz-adv-x="886" 
d="M901 905v-4l-502 -436l387 -461v-4h-145l-360 426l-74 -426h-125l250 1425h125l-158 -905l438 385h164z" />
    <glyph glyph-name="uni043B.ss02" horiz-adv-x="942" 
d="M-51 0v4l583 911h39l263 -911v-4h-127l-164 602q-14 48 -23 96q-36 -70 -53 -98l-379 -600h-139z" />
    <glyph glyph-name="uni043F.ss02" horiz-adv-x="1069" 
d="M676 924q133 0 203.5 -69.5t70.5 -201.5q0 -38 -10 -100l-98 -553h-125l100 565q6 37 6 70q0 82 -44.5 127t-135.5 45q-138 0 -235.5 -103t-126.5 -264l-76 -440h-125l160 905h92l2 -160q59 79 147 129t195 50z" />
    <glyph glyph-name="uni0442.ss02" horiz-adv-x="1636" 
d="M1249 924q125 0 197 -71t72 -198q0 -41 -9 -90l-98 -565h-125l103 582q4 20 4 57q0 81 -45 124.5t-125 43.5q-128 0 -220 -104t-118 -254l-78 -449h-125l100 580q6 30 6 61q0 76 -39 121t-118 45q-89 0 -164.5 -51t-121 -130t-62.5 -173l-78 -453h-125l160 905h92l2 -153
q124 172 317 172q103 0 167 -49t81 -140q132 189 350 189z" />
    <glyph glyph-name="uni0446.ss02" horiz-adv-x="1085" 
d="M866 211q-4 -24 -4 -33q0 -35 21 -49t69 -14h29l-61 -355h-123l45 248q-107 27 -107 139q-54 -75 -137 -121t-190 -46q-134 0 -210.5 78t-76.5 208q0 26 8 80l98 559h125l-102 -575q-4 -18 -4 -56q0 -81 45 -129.5t131 -48.5q138 0 236 101t124 252l80 456h125z" />
    <glyph glyph-name="uni0448.ss02" horiz-adv-x="1640" 
d="M1434 905h125l-158 -905h-98l2 150q-57 -79 -139.5 -121.5t-178.5 -42.5q-103 0 -167 48.5t-81 139.5q-129 -188 -348 -188q-127 0 -198.5 72t-71.5 200q0 45 8 86l98 561h125l-100 -575q-6 -34 -6 -62q0 -81 44.5 -123.5t125.5 -42.5q128 0 220 104.5t118 254.5l77 444
h125l-100 -573q-6 -34 -6 -62q0 -77 40 -122.5t120 -45.5q132 0 226 103.5t120 249.5z" />
    <glyph glyph-name="uni0449.ss02" horiz-adv-x="1654" 
d="M1436 215q-4 -24 -4 -35q0 -34 20.5 -48.5t71.5 -14.5h28l-63 -357h-121l45 252q-101 28 -104 140q-129 -166 -326 -166q-106 0 -168 52t-76 138q-58 -88 -148 -139t-196 -51q-133 0 -203.5 71.5t-70.5 196.5q0 41 10 96l96 555h125l-100 -571q-6 -34 -6 -64
q0 -79 42 -123.5t126 -44.5q130 0 223 106t117 247l77 450h125l-100 -573q-6 -30 -6 -62q0 -76 39 -122t117 -46q135 0 228.5 101.5t121.5 251.5l78 450h125z" />
    <glyph glyph-name="uni044C.ss02" horiz-adv-x="958" 
d="M539 645q148 0 238.5 -73t90.5 -201q0 -33 -6 -68q-26 -154 -134.5 -238.5t-278.5 -84.5q-152 0 -239 81t-87 213q0 32 6 70l98 561h125l-59 -336q97 76 246 76zM741 313q4 28 4 43q0 82 -57 128t-160 46q-112 0 -187 -50.5t-95 -151.5q-4 -18 -4 -52q0 -85 56.5 -133.5
t156.5 -48.5q112 0 190 58t96 161z" />
    <glyph glyph-name="uni044A.ss02" horiz-adv-x="1077" 
d="M657 645q148 0 239 -73t91 -201q0 -33 -6 -68q-28 -154 -136 -238.5t-278 -84.5q-153 0 -240 80.5t-87 211.5q0 34 6 72l80 447h-246l20 114h369l-59 -338q102 78 247 78zM860 313q4 28 4 43q0 82 -57 128t-160 46q-113 0 -187.5 -51.5t-94.5 -152.5q-5 -45 -5 -50
q0 -86 56 -134t157 -48q111 0 190 58.5t97 160.5z" />
    <glyph glyph-name="uni044B.ss02" horiz-adv-x="1318" 
d="M539 645q148 0 238.5 -73t90.5 -201q0 -33 -6 -68q-26 -154 -134.5 -238.5t-278.5 -84.5q-152 0 -239 81t-87 213q0 32 6 70l98 561h125l-59 -336q97 76 246 76zM1114 905h125l-160 -905h-125zM741 313q4 28 4 43q0 82 -57 128t-160 46q-112 0 -187 -50.5t-95 -151.5
q-4 -18 -4 -52q0 -85 56.5 -133.5t156.5 -48.5q112 0 190 58t96 161z" />
    <glyph glyph-name="uni0430.ss03" horiz-adv-x="985" 
d="M573 915q137 0 216 -65t79 -184q0 -32 -6 -66l-104 -600h-92l4 164q-60 -85 -156 -132.5t-205 -47.5q-117 0 -185.5 59.5t-68.5 165.5q0 88 43 156.5t116 108.5t162.5 60.5t190.5 20.5q94 0 160 -10l10 57q4 18 4 49q0 76 -48.5 113t-129.5 37q-158 0 -327 -76l-35 102
q193 88 372 88zM338 98q132 0 239 93.5t138 252.5q-88 9 -144 9q-68 0 -132.5 -11.5t-125 -35.5t-97 -70t-36.5 -107q0 -131 158 -131z" />
    <glyph glyph-name="uni0432.ss03" horiz-adv-x="1130" 
d="M1079 1112q-17 -98 -94.5 -185t-196.5 -145q115 -23 178.5 -107.5t63.5 -201.5q0 -38 -6 -78q-33 -186 -171.5 -300.5t-350.5 -114.5q-164 0 -265.5 101.5t-101.5 295.5q0 71 15 153l51 295q55 311 208 466t369 155q146 0 226.5 -72.5t80.5 -195.5q0 -32 -6 -66z
M950 1167q0 78 -47 120t-139 42q-154 0 -271 -128t-161 -378l-17 -98l224 68q411 126 411 374zM895 410q4 20 4 59q0 104 -63 165.5t-170 61.5q-72 0 -158 -24l-213 -64l-14 -86q-13 -83 -13 -137q0 -146 65.5 -216.5t182.5 -70.5q147 0 250.5 87t128.5 225z" />
    <glyph glyph-name="uni0433.ss03" horiz-adv-x="798" 
d="M338 -18q-124 0 -206.5 64t-82.5 169q0 64 24.5 115t72 87t101.5 60.5t128 46.5q118 37 172.5 75.5t54.5 100.5q0 47 -38.5 74t-104.5 27q-115 0 -230 -64l-43 105q133 76 279 76q116 0 187 -59t71 -157q0 -110 -77 -175.5t-226 -110.5q-47 -15 -78 -25.5t-67 -28.5
t-56.5 -36t-34.5 -44.5t-14 -58.5q0 -59 47.5 -92t122.5 -33q132 0 250 88l55 -106q-148 -98 -307 -98z" />
    <glyph glyph-name="uni0434.ss03" horiz-adv-x="1179" 
d="M1006 905h92l-170 -971q-18 -105 -67 -185t-117.5 -127t-148 -70t-167.5 -23q-245 0 -383 174l82 82q63 -71 135 -105t168 -34q141 0 244.5 78t130.5 225q20 107 43 196q-145 -161 -371 -161q-180 0 -283.5 107.5t-103.5 277.5q0 52 8 96q17 96 61.5 179t111 145.5
t157.5 98.5t195 36q111 0 195 -44.5t132 -125.5zM899 459q8 50 8 76q0 118 -73.5 195t-212.5 77q-152 0 -261 -96.5t-137 -255.5q-8 -54 -8 -78q0 -126 77 -202.5t206 -76.5q159 0 265.5 102t135.5 259z" />
    <glyph glyph-name="uni0436.ss03" horiz-adv-x="1247" 
d="M1260 905v-4l-459 -434l346 -463v-4h-137l-328 430l-76 -430h-125l76 434l-455 -434h-163v4l518 485l-312 412v4h138l290 -387l160 907h125l-160 -903l404 383h158z" />
    <glyph glyph-name="uni0437.ss03" horiz-adv-x="811" 
d="M195 -471q-212 0 -347 104l64 93q118 -82 295 -82q137 0 230.5 73t115.5 197q6 38 6 70q0 111 -69.5 167t-188.5 56h-164l21 115h151q113 0 191 66.5t100 180.5q4 32 4 49q0 89 -56.5 139t-156.5 50q-66 0 -120.5 -15.5t-123.5 -50.5l-34 99q157 82 297 82q147 0 233 -76
t86 -209q0 -33 -6 -74q-37 -201 -213 -293q77 -34 125.5 -104t48.5 -176q0 -47 -8 -88q-31 -176 -159.5 -274.5t-321.5 -98.5z" />
    <glyph glyph-name="uni0438.ss03" horiz-adv-x="1064" 
d="M858 905h125l-158 -905h-98l2 154q-54 -76 -140.5 -123t-189.5 -47q-132 0 -205 76.5t-73 205.5q0 24 8 82l98 557h125l-102 -573q-4 -18 -4 -56q0 -80 43.5 -128t130.5 -48q140 0 236.5 102t125.5 263z" />
    <glyph glyph-name="uni0439.ss03" horiz-adv-x="1064" 
d="M631 1096q-177 0 -242 145l82 57q45 -96 162 -96q59 0 113 26t92 70l80 -57q-107 -145 -287 -145zM858 905h125l-158 -905h-98l2 154q-54 -76 -140.5 -123t-189.5 -47q-132 0 -205 76.5t-73 205.5q0 24 8 82l98 557h125l-102 -573q-4 -18 -4 -56q0 -80 43.5 -128
t130.5 -48q140 0 236.5 102t125.5 263z" />
    <glyph glyph-name="uni045D.ss03" horiz-adv-x="1069" 
d="M840 1180l-68 -66l-260 207l92 90zM858 905h125l-158 -905h-98l2 154q-54 -76 -140.5 -123t-189.5 -47q-132 0 -205 76.5t-73 205.5q0 24 8 82l98 557h125l-102 -573q-4 -18 -4 -56q0 -80 43.5 -128t130.5 -48q140 0 236.5 102t125.5 263z" />
    </font>
</defs>
</svg>
