<svg width="189" height="141" viewBox="0 0 189 141" fill="none" xmlns="http://www.w3.org/2000/svg">
<path d="M91.3299 120.242C90.673 119.66 89.8644 119.237 89.0053 119.713C88.6515 119.871 88.2978 120.083 87.944 120.295C87.5903 120.506 87.2365 120.665 86.8828 120.877C86.1753 121.3 85.4677 121.67 84.7602 122.04C83.4968 122.728 82.1829 123.363 80.8184 124.103C80.9195 123.68 80.97 123.416 80.97 123.151C81.0711 120.877 81.1722 118.549 81.2733 116.221C81.2733 116.063 81.4249 115.798 81.5765 115.692C82.0313 115.428 82.5367 115.11 82.9915 114.846C83.4463 114.581 83.9517 114.264 84.4065 114C84.7097 113.841 85.0635 113.629 85.3667 113.471C86.7311 112.836 88.0956 112.254 89.5106 111.672C90.2181 111.407 90.673 110.931 90.673 110.402C90.673 110.349 90.673 110.244 90.673 110.191C90.673 110.085 90.6224 110.032 90.5719 109.926C90.3192 109.344 89.9149 108.815 89.4601 108.339C89.0053 107.863 88.601 107.704 88.0956 107.652C87.6408 107.652 87.1354 107.81 86.6301 108.075C85.114 108.868 83.5474 109.609 81.9302 110.402C81.9302 110.191 81.8797 110.085 81.9302 109.926C81.9302 109.873 81.9302 109.82 81.9302 109.82C82.1324 107.228 82.3345 104.636 82.5367 102.044C82.5367 101.938 82.5367 101.833 82.5872 101.674C82.6377 101.251 82.7893 100.827 83.042 100.51C83.0926 100.457 83.1431 100.404 83.1936 100.351C83.3452 100.193 83.5474 100.034 83.8001 99.8752C85.4678 98.8701 87.1354 97.9708 88.9547 97.2831C89.7128 97.0186 90.5214 97.0186 91.2289 96.7541C91.431 96.6483 91.6332 96.5425 91.7848 96.4367C91.9869 96.2251 92.1385 96.0135 92.189 95.749C92.189 95.5903 92.189 95.3787 92.088 95.1671C92.0374 95.0613 91.9869 94.9555 91.8858 94.8497C91.5826 94.4265 91.3299 93.9504 90.9256 93.5801C90.5214 93.1569 90.0665 92.6808 89.359 92.9453C88.4494 93.2627 87.5397 93.5272 86.6806 93.8446C85.4678 94.3207 84.2044 94.7968 83.042 95.3258C81.8797 95.8548 80.8184 96.5425 79.6561 97.0715C78.9486 97.3889 78.4432 97.4947 78.4938 98.6056C78.5443 100.669 78.2916 102.785 78.0895 104.901C77.9379 106.435 77.7357 107.969 77.5841 109.503C77.5336 109.768 77.5336 110.032 77.5336 110.297C77.4831 110.773 77.4831 111.302 77.4325 111.778C77.2304 113.365 76.9777 114.952 76.7756 116.592C76.6745 117.174 76.7756 117.808 76.725 118.443C76.6745 119.131 76.5734 119.766 76.5229 120.453C76.3713 122.252 76.2197 123.998 76.068 125.796C75.9164 127.013 76.1186 128.124 77.0788 128.97C77.2304 129.129 77.3315 129.341 77.4831 129.499C77.5336 129.552 77.5841 129.658 77.6347 129.711C77.7357 129.817 77.7863 129.87 77.8873 129.922C77.9884 129.975 78.0895 130.081 78.1906 130.081C78.3927 130.134 78.6454 130.134 78.8475 130.028C78.9486 129.975 78.9991 129.975 79.1002 129.922C80.6668 129.129 82.2334 128.23 83.8001 127.383C85.872 126.219 87.9946 125.109 90.0665 123.945C90.4203 123.733 90.7235 123.574 91.0773 123.416C91.2289 123.31 91.431 123.257 91.5826 123.151C91.7342 123.045 91.8858 122.94 92.0374 122.834C92.5933 122.464 92.6439 121.987 92.2901 121.406C92.088 121.035 91.7342 120.612 91.3299 120.242Z" fill="white"/>
<path d="M66.3145 115.163C65.3543 115.375 64.3941 115.534 63.2824 115.745C63.3329 115.692 63.3834 115.639 63.434 115.587C63.4845 115.534 63.535 115.481 63.5856 115.481C65.2027 113.682 66.921 111.936 68.0833 109.715C68.6897 108.604 69.1951 107.546 68.9929 106.382C68.9424 105.959 68.7402 105.483 68.437 105.007C67.679 103.896 66.8199 102.943 65.5565 102.573C63.9393 102.097 62.2716 102.256 60.6545 102.626C57.3696 103.314 54.2364 104.425 51.2548 105.959C50.4462 106.382 49.7387 106.911 49.6882 107.916C49.6882 108.075 49.6882 108.233 49.7387 108.392C49.7387 108.498 49.7387 108.604 49.6882 108.657C49.6882 108.71 49.6882 108.762 49.6882 108.815C49.486 110.349 49.2839 111.884 49.1323 113.418C48.9301 115.11 48.7785 116.75 48.6269 118.443C48.6269 118.708 48.5764 118.972 48.5764 119.184C48.4248 120.612 48.3237 122.04 48.1721 123.469C48.1721 123.68 48.1215 123.892 48.1215 124.103C47.9699 125.849 47.8689 127.595 47.7173 129.341C47.5656 130.98 47.414 132.567 47.2624 134.154C47.1614 135.212 47.1108 136.27 46.9087 137.328C46.9087 137.434 46.8581 137.54 46.8581 137.646C46.656 138.915 47.0098 139.55 48.1721 140.132C48.3742 140.238 48.6269 140.238 48.8796 140.291C49.2333 140.291 49.6882 140.185 49.9408 140.397C50.5978 140.926 51.2548 140.767 51.9117 140.45C52.3666 140.185 52.8214 139.868 53.2762 139.55C54.388 138.757 55.4998 137.857 56.6621 137.064C58.2288 135.953 59.8459 134.948 61.3115 133.784C63.3834 132.144 65.3543 130.293 67.022 128.124C68.1844 126.59 69.2961 124.95 70.2058 123.257C70.7617 122.199 71.0649 120.929 71.3176 119.713C71.3681 119.554 71.3681 119.395 71.3681 119.29C71.4187 118.337 70.7617 117.597 70.2058 116.856C69.2456 115.639 68.0327 114.793 66.3145 115.163ZM67.679 119.713C63.7372 126.325 58.0771 130.875 51.7096 134.578C51.9117 131.298 52.1644 128.071 52.3666 124.897C52.8214 124.685 53.2762 124.527 53.731 124.368C56.3589 123.257 58.9868 122.093 61.6652 121.088C63.5856 120.348 65.5059 119.766 67.679 119.713ZM52.8214 117.385C52.973 116.38 53.0741 115.428 53.1751 114.476C53.3268 113.1 53.4784 111.778 53.5794 110.402C53.63 109.926 53.8321 109.662 54.2869 109.45C56.4095 108.392 58.5825 107.599 60.8566 107.07C62.1706 106.752 63.535 106.699 64.8995 106.488C64.8995 106.594 64.95 106.699 65.0006 106.805C61.9179 111.46 57.9255 115.005 52.8214 117.385Z" fill="white"/>
<path d="M111.494 112.73C110.887 112.201 110.231 111.778 109.523 111.831C109.27 111.831 108.967 111.937 108.664 112.096C107.855 112.519 106.946 112.836 106.087 113.259C105.025 113.841 103.913 114.423 102.852 114.952C102.852 114.476 102.852 114.106 102.852 113.683C102.852 113.048 102.751 112.36 102.751 111.725C102.852 110.033 102.953 108.34 103.054 106.594C103.206 104.319 103.408 102.045 103.56 99.77C103.762 97.1779 103.964 94.5858 104.166 92.0466C104.217 91.3589 104.217 90.6183 104.318 89.9306C104.419 88.8726 104.166 88.3965 103.206 88.0791C103.054 88.0262 102.903 87.9733 102.751 87.9204C102.195 87.7088 101.69 87.3914 101.083 87.603C100.982 87.603 100.932 87.6559 100.831 87.7088C100.427 87.9204 100.022 88.1849 100.022 88.7668C99.9717 90.0893 99.9717 91.4118 99.8706 92.7343C99.719 94.4271 99.5674 96.1728 99.4158 97.8656C99.2642 99.6113 99.062 101.357 98.9104 103.103C98.7588 105.06 98.6577 107.017 98.5061 108.975C98.3545 112.043 98.1524 115.058 97.9502 118.073C97.8997 118.232 97.9502 118.497 98.0513 118.602C98.6577 119.29 99.2136 120.031 99.8706 120.718C100.073 120.877 100.275 120.983 100.528 120.983C100.679 120.983 100.881 120.93 101.033 120.824C101.538 120.507 102.094 120.348 102.6 120.031C104.52 118.973 106.39 117.809 108.31 116.751C109.018 116.328 109.826 115.904 110.584 115.852C111.494 115.799 111.949 115.217 112.505 114.688C112.606 114.582 112.606 114.265 112.555 114.159C112.252 113.63 111.898 113.101 111.494 112.73Z" fill="white"/>
<path d="M131.405 105.324C131.203 105.218 131.051 105.059 130.9 104.901C130.243 104.16 129.586 104.054 128.727 104.53C128.221 104.795 127.716 105.059 127.211 105.271C125.695 105.853 124.128 106.435 122.612 106.964C122.258 107.122 121.904 107.281 121.551 107.44C121.551 107.175 121.551 107.069 121.551 106.858C121.652 105.059 121.803 103.314 121.904 101.515C121.955 100.51 121.955 99.5047 122.005 98.5525C122.106 97.2829 122.258 95.9604 122.359 94.6379C122.46 93.527 122.511 92.3632 122.612 91.2523C122.612 91.1994 122.612 91.0936 122.612 91.0407C122.763 89.6653 122.915 88.2899 123.016 86.9674C123.016 86.9145 123.016 86.8616 123.016 86.8087C123.168 85.1159 123.269 83.476 123.471 81.8361C123.521 81.6774 123.521 81.5187 123.471 81.36C123.42 80.8839 123.218 80.5665 122.865 80.3549C122.005 79.9317 121.146 79.5614 120.085 79.7201C119.428 79.8259 119.276 80.1962 119.276 80.7252C119.125 83.1057 119.024 85.4333 118.822 87.8138C118.822 87.9196 118.822 88.0254 118.771 88.1312C118.619 89.3479 118.518 90.5646 118.367 91.8342C118.316 92.4161 118.215 93.0509 118.165 93.6328C117.963 95.5901 117.811 97.5474 117.609 99.5047C117.457 101.092 117.306 102.732 117.204 104.372C117.053 106.011 117.002 107.704 116.851 109.344C116.75 109.979 116.649 110.561 116.901 111.143C116.952 111.354 117.053 111.513 117.204 111.725C117.609 112.201 117.912 112.783 118.266 113.259C118.367 113.365 118.518 113.47 118.67 113.523C119.378 113.788 119.933 113.417 120.439 113.1C123.319 111.46 126.352 110.191 129.384 108.921C129.788 108.709 130.243 108.656 130.698 108.551C131.253 108.445 132.062 107.757 132.163 107.281C132.163 107.175 132.214 107.017 132.214 106.911C132.315 106.223 132.062 105.747 131.405 105.324Z" fill="white"/>
<path d="M32.9101 56.3379C32.9607 56.3908 33.0112 56.4966 33.0617 56.5495C33.365 56.9727 33.8198 57.1314 34.2746 56.9198C34.78 56.6553 35.2348 56.3908 35.7402 56.1792C36.953 55.756 38.2164 55.3328 39.4293 54.9096C39.4293 54.9625 39.4798 55.0154 39.4798 55.0683C39.4798 55.0683 39.4798 55.0683 39.5304 55.0683V55.1212C39.6314 55.1212 39.783 55.1212 39.8841 55.1212C40.7938 55.0154 41.2991 54.5393 41.198 53.8516C41.1475 53.5871 41.0464 53.3226 40.8948 53.111C40.7432 52.8994 40.5411 52.7936 40.2884 52.6878C40.1873 52.6349 40.1368 52.582 40.0357 52.4762C40.0357 52.4233 39.9852 52.4233 39.9852 52.3704L39.9346 52.3175C39.8336 52.053 39.682 51.8414 39.5304 51.6827C39.0755 51.1537 38.4691 50.9421 37.7111 51.2066C36.4477 51.5769 35.1843 51.8943 33.9714 52.3175C33.365 52.5291 32.8091 52.7936 32.3037 53.1639C31.95 53.4284 31.4951 53.7987 31.7983 54.3277C32.1521 55.0154 32.5564 55.6502 32.9101 56.3379Z" fill="white"/>
<path d="M158.088 5.7661C158.543 6.2951 159.099 6.5596 159.806 6.2422C160.261 6.0306 160.716 5.8719 161.171 5.7132C162.586 5.1842 163.95 4.7081 165.365 4.1791C165.82 4.0204 166.275 3.8088 166.477 3.3856C166.578 3.2269 166.629 3.0682 166.629 2.8037C166.679 2.2218 166.427 1.7986 165.921 1.4812C165.719 1.3754 165.567 1.2167 165.466 1.0051C165.062 0.2645 164.405 0.1587 163.698 0C163.597 0.0529 163.495 0.0529 163.445 0C162.384 0.4232 161.272 0.8993 160.211 1.3225C159.25 1.6928 158.29 2.0631 157.33 2.4334C157.077 2.5392 156.825 2.8566 156.724 3.174C156.623 3.4385 156.572 3.7559 156.724 3.9146C157.178 4.5494 157.583 5.1842 158.088 5.7661Z" fill="white"/>
<path d="M77.0788 65.861C77.7358 65.5965 78.3927 65.2791 78.9992 64.9617C78.797 67.6067 78.5443 70.1459 78.3422 72.738C78.2917 73.5315 78.1401 74.3779 78.0895 75.1714C77.9884 76.5997 77.8368 77.9751 77.7863 79.4034C77.7863 80.3027 78.2917 80.7788 79.1002 80.8317C79.5045 80.8846 79.9088 80.9375 80.2626 81.0962C80.5658 81.202 80.7679 81.202 81.0206 81.1491C81.4249 81.0962 81.7281 80.8846 82.0313 80.673C82.2335 80.5143 82.4356 80.0911 82.4862 79.7737C82.5872 78.6628 82.6378 77.499 82.7388 76.3881C82.9915 73.1612 83.2442 69.9872 83.5474 66.7603C83.7496 64.6443 84.0022 62.5283 84.3055 60.4123C84.5076 58.6137 84.8613 56.868 85.114 55.1223C85.4172 52.9005 85.7205 50.6787 85.9731 48.404C86.0237 47.875 86.0237 47.2931 85.8721 46.817C85.5688 46.0235 84.1538 45.3887 83.0926 45.3887C82.7388 45.3887 82.4356 45.4416 82.1829 45.5474C81.9808 45.6532 81.7281 45.9706 81.6776 46.2351C81.4754 47.5047 81.3744 48.8272 81.1722 50.1497C80.7174 53.2708 80.212 56.3919 79.7067 59.4601C79.7067 59.6188 79.5551 59.7775 79.4035 59.8833C78.5443 60.3594 77.6852 60.7826 76.8261 61.2058C75.31 61.9993 73.8445 62.687 72.1768 63.4805C72.3789 62.2109 72.48 61.0471 72.6822 59.8833C73.1875 56.9738 73.6929 54.1172 74.1477 51.2077C74.2488 50.5729 74.6531 49.7794 73.9456 49.2504C73.1875 48.6685 72.3789 48.1924 71.4693 48.2453C71.1661 48.2453 70.8123 48.2982 70.4586 48.404C70.0037 48.5627 69.8016 48.8272 69.7511 49.3033C69.65 49.991 69.5489 50.7316 69.4479 51.4193C69.1446 53.165 68.7403 54.9107 68.4371 56.6564C68.0328 59.1427 67.6791 61.5761 67.2748 64.0624C66.82 66.919 66.4157 69.7756 66.0114 72.6851C65.6577 75.3301 65.3039 77.9751 64.9501 80.6201C64.8491 81.3607 65.2028 82.4187 65.7082 82.5245C66.5168 82.6832 67.2243 83.1064 68.0328 83.0535C68.1339 83.0535 68.2855 83.0535 68.3866 83.0006C69.3468 82.8419 69.5995 82.6832 69.7005 81.6781C69.7511 80.8317 69.9027 80.0382 70.0038 79.1918C70.1554 78.0809 70.3575 76.97 70.5091 75.8062C70.8123 73.5844 71.065 71.3626 71.3682 69.1408C71.3682 68.8763 71.6209 68.5589 71.8231 68.4531C73.2886 67.7125 74.7036 66.9719 76.1691 66.2842C76.4724 66.1255 76.7756 65.9668 77.0788 65.861Z" fill="white"/>
<path d="M102.953 60.9405C103.004 61.0463 103.054 61.1521 102.953 61.2579C103.458 63.3739 103.913 65.5428 104.419 67.6588C104.722 68.9813 105.076 70.3038 105.328 71.6792C105.53 72.9488 106.187 73.6894 107.4 73.901C107.552 73.9539 107.703 73.9539 107.906 73.901C108.664 73.7952 109.927 73.2662 110.18 72.7901C110.281 72.6314 110.281 72.3669 110.23 72.2082C110.129 71.7321 109.978 71.3089 109.826 70.8328C109.321 68.9813 108.866 67.1298 108.411 65.2783C107.703 62.3688 106.996 59.5122 106.339 56.6027C105.884 54.5396 105.429 52.5294 105.076 50.4663C104.57 47.6626 104.115 44.806 103.661 42.0023C103.509 41.2088 103.408 40.4153 103.155 39.7276C102.953 39.1986 102.65 38.9341 102.195 38.9341C101.942 38.8812 101.69 38.8812 101.386 38.987C101.083 39.0399 100.831 39.0928 100.527 39.0399C100.426 38.987 100.325 38.987 100.224 38.8812C100.022 38.7754 99.8198 38.7225 99.6177 38.7225C98.8597 38.5638 98.1522 39.0928 97.95 39.8863C97.6468 40.9972 97.3941 42.161 97.0404 43.3248C96.3329 45.7582 95.5748 48.1916 94.8168 50.5721C93.9577 53.27 93.048 55.915 92.1889 58.6129C91.633 60.3586 91.0771 62.1043 90.5212 63.9029C90.0664 65.3841 89.6621 66.8653 89.2578 68.3465C88.7525 70.1451 88.2471 71.9437 87.6912 73.7423C87.4385 74.5887 87.8428 75.5409 88.7525 75.6467C89.2578 75.7525 89.8137 75.8054 90.3696 75.7525C90.5212 75.7525 90.6728 75.7525 90.7739 75.7525C91.1276 75.7525 91.5825 75.5938 91.8351 75.3293C92.0878 75.0648 92.1889 74.5887 92.3405 74.1655C93.0985 71.5734 93.8061 68.9284 94.5641 66.3363C94.6146 66.1776 94.7662 65.966 94.9178 65.9131C95.9286 65.3312 96.9393 64.8022 97.8995 64.2203C99.0618 63.4268 100.275 62.6333 101.589 61.7869C102.043 61.5224 102.498 61.205 102.953 60.9405ZM100.376 48.1387C100.932 50.9424 101.488 53.5874 102.043 56.1795C102.043 56.3382 101.942 56.6027 101.841 56.7085C100.325 57.7136 98.8091 58.7716 97.293 59.7767C97.0404 59.9354 96.7877 60.0412 96.4339 60.2528C97.7479 56.1795 99.0113 52.2649 100.376 48.1387Z" fill="white"/>
<path d="M137.52 58.4014C137.672 56.6557 137.823 54.91 137.874 53.1643C137.874 52.8998 137.874 52.6353 137.874 52.4237C137.874 51.8947 137.823 51.4186 137.823 50.8896C137.823 50.678 137.823 50.4135 137.823 50.2019C137.874 48.6149 137.975 47.0808 138.076 45.4938C138.126 44.9648 138.177 44.3829 138.43 44.0126C138.985 43.3249 139.693 42.7959 140.249 42.1611C141.917 40.2038 143.584 38.2465 145.1 36.1834C146.263 34.5435 147.324 32.7978 148.284 31.0521C149.093 29.5709 149.8 28.0368 150.457 26.5027C150.558 26.2382 150.659 25.9737 150.76 25.7092C151.013 24.9157 151.215 24.1222 151.417 23.4345C151.165 21.6888 150.407 20.5779 149.194 19.7844C147.476 18.6735 145.555 18.5148 143.635 19.0967C140.805 19.9431 138.278 21.3714 136.004 23.2758C135.903 23.3816 135.802 23.4874 135.751 23.5932L135.701 23.6461L135.65 23.699C135.65 23.699 135.65 23.7519 135.6 23.7519C135.6 23.7519 135.6 23.8048 135.549 23.8048C135.448 24.7041 135.448 25.6034 135.397 26.5027C135.296 28.2484 135.296 29.9412 135.145 31.6869C134.842 34.9138 134.387 38.1407 134.033 41.4205C134.033 41.4734 134.033 41.4734 134.033 41.5263C133.982 42.0024 133.982 42.5314 133.932 43.1133C133.932 43.2191 133.932 43.3249 133.932 43.4836C133.78 45.388 133.528 47.3453 133.477 49.2497C133.427 51.8947 133.325 54.4868 132.972 57.1318C132.972 57.2376 132.972 57.3434 132.972 57.4492C133.022 58.1898 133.629 59.0891 134.387 59.142C134.993 59.1949 135.549 59.3536 136.155 59.4594C136.913 59.5123 137.469 59.142 137.52 58.4014ZM140.198 25.4976C141.512 24.3867 143.028 23.8048 144.595 23.2229C145.454 22.9055 146.364 22.7468 147.324 22.641C145.454 27.931 142.624 32.4804 138.985 36.6595C138.985 35.9718 138.985 35.3899 138.985 34.808C139.137 32.5862 139.339 30.3115 139.491 28.0897C139.541 27.402 139.592 26.7143 139.744 26.0266C139.794 25.815 140.047 25.6563 140.198 25.4976Z" fill="white"/>
<path d="M187.854 4.23172C187.652 3.86142 187.348 3.54402 187.096 3.27952C186.793 2.96212 186.489 2.69762 186.186 2.38022C185.681 1.90412 185.125 1.69252 184.417 1.95702C182.699 2.64472 180.981 3.38532 179.263 4.07302C178.353 4.44332 177.494 5.02522 176.382 4.91942C175.27 4.81362 174.815 5.44842 174.765 6.29482C174.714 7.77602 174.613 9.31012 174.411 10.7913C174.057 13.4363 173.552 16.0284 173.148 18.6734C172.996 19.7314 172.996 20.7894 172.895 21.8474C172.744 23.117 172.491 24.3866 172.339 25.7091C172.137 27.6664 171.985 29.6237 171.783 31.5281C171.581 33.9615 171.278 36.3949 171.126 38.8283C171.076 39.6218 171.025 40.5211 171.682 41.0501C171.834 41.2617 172.036 41.3675 172.339 41.5262C172.339 41.5791 172.39 41.5791 172.39 41.5791C172.44 41.5791 172.44 41.632 172.491 41.632C172.541 41.6849 172.541 41.7378 172.592 41.7907C173.198 42.3197 173.805 42.5842 174.512 42.2668C175.776 41.6849 176.989 41.103 178.252 40.5211C179.364 39.9921 180.476 39.5689 181.587 39.0928C182.901 38.5109 184.266 37.929 185.63 37.3471C186.085 37.1355 186.287 36.5007 186.136 36.1304C185.883 35.5485 185.479 35.1253 185.074 34.7021C184.67 34.3318 184.266 34.0144 183.811 33.6441C183.407 33.3267 182.952 33.3267 182.497 33.6441C182.244 33.8028 181.992 33.9086 181.739 34.0144C180.223 34.6492 178.757 35.284 177.241 35.9188C176.938 36.0775 176.635 36.1833 176.281 36.342C176.281 35.4427 176.332 34.7021 176.382 33.9086C176.483 32.2687 176.685 30.6817 176.837 29.0418C176.938 28.1425 176.989 27.1903 177.09 26.291C177.09 26.1323 177.241 25.9207 177.393 25.8678C178.151 25.4446 178.909 24.9156 179.718 24.5982C180.981 24.0163 182.345 23.5402 183.659 23.117C184.165 22.9583 184.518 22.6409 184.771 22.2177C184.872 22.0061 184.822 21.5829 184.67 21.3184C184.367 20.8423 184.013 20.3662 183.609 19.9959C183.457 19.8372 183.255 19.6785 183.103 19.4669C182.345 18.7792 181.739 18.7263 180.88 19.0966C179.97 19.7843 178.808 20.2604 177.544 20.7894C177.595 20.2075 177.646 19.7843 177.898 19.6256C178.252 17.1922 178.606 14.7588 178.959 12.3254C179.01 11.9551 178.959 11.5848 179.01 11.2145C179.061 10.6855 178.959 10.0507 179.212 9.68042C179.515 9.15142 180.021 8.78112 180.526 8.51662C181.335 8.09342 182.194 7.77602 183.053 7.40572C183.912 7.03542 184.771 6.61222 185.63 6.29482C186.237 6.08322 186.894 6.18902 187.45 5.66002C188.056 5.07812 188.309 4.97232 187.854 4.23172Z" fill="white"/>
<path d="M43.826 63.9565C43.6238 63.7978 43.3712 63.5333 43.0679 63.3746C42.8658 63.2688 42.6637 63.2159 42.3604 63.2688C41.5013 63.5333 40.5917 63.6391 39.7326 63.9036C38.6208 64.2739 37.6101 64.75 36.4983 65.1203C35.6392 65.4377 34.8306 65.8609 33.8704 65.7551C33.365 65.7022 32.9102 66.2312 32.8091 66.7602C32.3543 69.1936 31.849 71.6799 31.3941 74.0604C31.2425 74.0604 31.1414 74.1133 31.0909 74.1133C31.192 74.3778 31.2931 74.5365 31.2931 74.6952C31.1414 75.8061 30.9393 76.8641 30.7372 77.975C30.4339 79.8794 30.0802 81.7309 29.7264 83.6353C29.3727 85.6455 28.9179 87.6028 28.5136 89.613C28.1598 91.4645 27.8566 93.316 27.5029 95.1675C27.1996 96.8603 26.8459 98.606 26.5932 100.299C26.4921 100.828 26.3911 101.463 26.947 101.939C27.5534 102.415 28.0587 103.05 28.6652 103.579C28.8168 103.737 29.0695 103.843 29.3222 103.896C29.4232 103.896 29.5243 103.949 29.6254 103.896C30.9898 103.473 32.3038 102.997 33.6177 102.521C35.2854 101.886 36.9531 101.198 38.6208 100.563C39.581 100.193 40.5917 100.087 41.4003 99.1879C42.0067 98.5531 42.0572 97.8125 41.5013 97.2835C41.0465 96.8074 40.4906 96.4371 39.8842 96.1197C39.8842 96.1197 39.8842 96.1197 39.8336 96.1197L39.7831 96.0668C39.4294 95.8552 38.8735 95.8023 38.4692 95.8552C37.7111 96.0139 37.0036 96.3313 36.2961 96.5958C34.7295 97.2306 33.1124 97.8125 31.4952 98.5002C31.6973 97.3893 31.7984 96.2255 32.0006 95.1146C32.4048 92.6812 32.8597 90.3007 33.3145 87.9202C33.365 87.7615 33.4661 87.5499 33.5672 87.497C34.3758 87.1267 35.2854 86.8622 36.094 86.439C37.7111 85.5926 39.6315 85.5926 41.097 84.2701C41.5519 83.8998 41.7035 83.5295 41.5013 83.0534C41.097 82.0483 40.339 81.4664 39.4799 81.0961C39.3283 81.0432 39.2272 80.9903 39.0756 80.9374C38.6208 80.7787 38.0143 80.9903 37.509 81.149C37.1552 81.3077 36.8015 81.4664 36.4477 81.5722C35.7908 81.8367 35.0833 82.1012 34.3758 82.3657C34.4263 82.207 34.4263 82.1012 34.4263 81.9954C34.4263 81.8896 34.4768 81.8367 34.5274 81.7838C34.78 80.2497 35.0833 78.6627 35.3359 77.1286C35.6897 74.9068 36.094 72.7379 36.4983 70.5161C36.5488 70.1458 36.7004 69.9871 37.0542 69.8813C37.7617 69.6697 38.4692 69.3523 39.1767 69.1407C40.6928 68.6646 42.2088 68.1356 43.7249 67.7653C44.8367 67.5008 45.5948 66.5486 45.1399 65.5964C44.8367 64.9616 44.3819 64.3797 43.826 63.9565Z" fill="white"/>
<path d="M167.336 12.0086C167.134 11.797 166.831 11.6383 166.527 11.5325C166.022 11.3209 165.466 11.3209 164.91 11.5854C163.9 12.0615 162.889 12.5905 161.878 13.0666C161.07 13.4369 160.261 13.8601 159.503 14.2304C158.694 14.6007 157.835 14.9181 157.027 15.3413C156.774 15.4471 156.572 15.7645 156.42 16.0819C156.319 16.3464 156.319 16.7167 156.269 17.0341C155.713 20.6313 154.803 24.1756 154.55 27.8257C154.55 27.9315 154.5 27.9844 154.5 28.0902C154.348 28.9366 154.197 29.7301 154.096 30.5765C153.843 32.6396 153.59 34.7027 153.338 36.7658C152.984 39.4108 152.63 42.1087 152.276 44.7537C152.125 45.8117 152.125 46.9226 151.923 47.9277C151.821 48.4567 151.872 48.8799 152.175 49.2502C152.63 49.7792 153.034 50.3611 153.489 50.8901C153.691 51.1017 153.893 51.3133 154.146 51.3662C154.5 51.5778 154.955 51.5778 155.41 51.3662C156.37 50.943 157.33 50.4669 158.29 49.9908C160.969 48.6683 163.596 47.2929 166.275 45.9175C166.881 45.6001 167.134 45.0182 166.932 44.3305C166.679 43.4312 165.972 42.8493 165.264 42.3732C165.112 42.2674 164.961 42.2145 164.86 42.1616C164.203 41.8442 163.445 41.8971 162.737 42.3732C161.676 43.0609 160.514 43.6428 159.402 44.2776C158.492 44.7537 157.583 45.2298 156.673 45.7588C156.723 45.3885 156.723 45.0711 156.774 44.8066C157.027 42.3732 157.33 39.9927 157.583 37.5593C157.684 36.5542 157.734 35.602 158.947 35.3904C159.149 35.3375 159.351 35.1788 159.553 35.073C160.665 34.4382 161.777 33.7505 162.889 33.1686C163.445 32.8512 164.102 32.5867 164.708 32.3751C165.921 31.899 166.174 30.7881 165.264 29.8359C165.062 29.6243 164.809 29.4127 164.607 29.2011C164.203 28.7779 163.9 28.5663 163.546 28.4076C163.04 28.1431 162.485 28.2489 161.676 28.6192C160.968 28.9895 160.261 29.3069 159.553 29.6772C159.301 29.9417 158.897 30.1533 158.391 30.4178C158.543 29.5185 158.644 28.7779 158.897 28.0373C159.048 26.7677 159.099 25.551 159.301 24.2814C159.553 22.7473 159.857 21.2661 160.109 19.732C160.16 19.3088 160.312 19.0443 160.665 18.8327C162.434 17.7218 164.203 16.7696 166.123 16.029C166.73 15.8174 167.387 15.6058 167.993 15.2884C168.903 14.8123 169.054 14.0188 168.448 13.2253C168.094 12.8021 167.69 12.3789 167.336 12.0086Z" fill="white"/>
<path d="M152.276 69.9339C152.074 69.7752 151.872 69.6165 151.721 69.4049C151.013 68.4527 150.002 68.0824 148.891 68.5056C148.84 68.5585 148.739 68.5585 148.688 68.6114C146.313 69.5636 143.989 70.4629 141.613 71.4151C140.754 71.7854 139.946 72.3673 139.087 72.5789C138.177 72.7905 137.874 73.3724 137.52 74.0601C137.419 74.2188 137.368 74.4304 137.469 74.5362C137.469 74.5891 137.469 74.5891 137.469 74.642C137.823 75.171 137.924 75.7 137.924 76.2819C137.924 76.8109 137.823 77.3928 137.773 77.9218C137.672 80.5139 137.469 83.106 137.318 85.6981C137.217 87.4438 137.166 89.1895 137.065 90.9352C137.015 91.9403 136.812 92.9983 136.762 94.0034C136.661 96.2781 136.509 98.5528 136.509 100.827C136.509 100.933 136.509 101.092 136.509 101.198C136.509 101.198 136.509 101.198 136.509 101.251C136.509 101.304 136.509 101.356 136.509 101.409C136.408 102.362 136.257 103.261 136.762 104.266C137.368 105.43 138.126 106.17 139.137 106.012C139.44 105.959 139.744 105.747 140.097 105.641C142.371 105.112 144.342 103.896 146.465 102.891C147.627 102.362 148.789 101.78 149.952 101.198C150.558 100.88 151.114 100.51 151.619 100.087C151.67 100.034 151.721 99.9282 151.721 99.7695C151.721 99.6637 151.721 99.505 151.67 99.4521C151.417 98.976 151.064 98.6057 150.811 98.1825C150.356 97.4948 149.598 97.3361 148.941 96.9658C148.84 96.86 148.638 96.9129 148.537 96.9658C147.021 97.7593 145.505 98.5528 143.989 99.2934C143.028 99.7695 142.068 100.246 141.007 100.722C141.007 100.193 141.007 99.8753 141.007 99.505C141.108 96.86 141.26 94.2679 141.361 91.6229C141.361 91.1468 141.563 90.9881 141.917 90.7765C143.382 89.983 145.05 89.6127 146.616 89.1895C147.425 88.9779 147.88 88.3431 148.537 88.0257C148.638 87.9728 148.638 87.7612 148.638 87.6554C148.638 87.6025 148.638 87.5496 148.638 87.4967C148.537 87.1793 148.335 86.8619 148.132 86.5974C147.779 86.2271 147.425 85.8568 147.021 85.5394C146.414 85.0633 145.858 84.5872 144.949 85.0104C143.887 85.4865 142.725 85.6981 141.613 86.0684C141.613 85.222 141.563 84.4814 141.613 83.6879C141.613 83.4234 141.613 83.1589 141.613 82.9473C141.613 82.8944 141.613 82.7886 141.613 82.7357C141.765 80.8842 141.917 79.0327 142.018 77.1283C142.018 77.0754 142.018 77.0225 142.018 76.9696C142.068 76.5464 142.169 76.2819 142.523 76.0703C143.938 75.3297 145.353 74.4833 146.819 73.8485C148.132 73.2666 149.547 72.8434 150.912 72.4731C151.316 72.3673 151.771 72.4202 151.822 71.8383C152.327 71.9441 152.529 71.8383 152.782 71.4151C152.832 71.3093 152.883 71.1506 152.883 70.9919C152.933 70.6216 152.681 70.1984 152.276 69.9339Z" fill="white"/>
<path d="M118.266 68.8233C118.266 67.924 118.316 66.9718 118.367 66.0196C118.367 65.3848 118.468 64.8029 118.468 64.221C118.518 63.4275 118.518 62.634 118.518 61.8405C118.518 60.6238 118.518 59.3542 118.569 58.1375C118.67 56.9208 118.872 55.7569 118.872 54.5402C118.923 53.4822 119.276 52.7417 120.186 52.2656L120.237 52.2126C120.894 51.5249 121.551 50.7843 122.258 50.0966C123.521 48.827 124.785 47.6632 125.998 46.3936C126.806 45.4943 127.665 44.5421 128.221 43.4312C128.878 42.0558 129.333 40.5746 129.788 39.0934C130.041 38.3528 130.041 37.5064 129.99 36.7129C129.94 36.0252 129.737 35.4433 129.434 34.9672C128.929 34.0679 128.12 33.4331 127.362 32.7454C126.351 31.8461 124.987 31.6345 123.572 31.8461C123.168 31.899 122.814 32.0048 122.41 32.0577C120.742 32.3751 119.074 32.7454 117.71 33.8034C117.305 34.1208 116.851 34.4382 116.446 34.8085C115.789 35.3375 116.042 36.1839 115.789 36.8716C115.486 37.6122 115.688 38.5115 115.638 39.3579C115.436 41.5797 115.183 43.7486 114.981 45.9704C114.93 46.5523 114.88 47.1342 114.88 47.7161C114.779 48.9328 114.627 50.1495 114.526 51.4191C114.627 51.4191 114.678 51.4192 114.728 51.472C114.627 52.7945 114.425 54.1171 114.374 55.4396C114.172 59.6187 114.021 63.7977 113.869 67.9768C113.819 68.6116 113.869 68.8762 114.021 69.0878C114.122 69.2994 114.425 69.4052 114.93 69.6168C115.031 69.6697 115.132 69.7225 115.183 69.7754C115.789 70.516 116.598 70.2515 117.356 70.0928C117.962 69.9342 118.266 69.4581 118.266 68.8233ZM126.351 36.9774C125.846 39.3579 124.936 41.5268 123.117 43.1667C121.955 44.2247 120.843 45.3356 119.731 46.3936C119.63 46.4465 119.529 46.4994 119.327 46.6581C119.479 45.124 119.63 43.8015 119.782 42.479C119.832 41.7913 119.933 41.0507 119.984 40.3101C120.085 39.4637 120.085 38.5644 120.237 37.718C120.287 37.4006 120.691 37.1361 120.944 36.9774C122.309 36.131 123.825 35.9194 125.391 35.7078C126.2 35.602 126.554 36.131 126.351 36.9774Z" fill="white"/>
<path d="M49.3344 90.5654C49.7893 90.9886 50.3452 91.2002 50.9011 91.5176C52.872 92.7343 54.7923 92.6814 56.7127 91.3589C58.3804 90.1951 59.3911 88.6081 59.7954 86.545C59.947 85.8573 59.7954 85.3812 59.4417 85.1167C59.2395 84.9051 58.9363 84.7993 58.4815 84.7464C58.3299 84.6935 58.1783 84.5877 58.0266 84.4819C57.3697 84.0058 56.2579 83.9529 55.9041 84.4819C55.5504 84.958 55.2977 85.5399 54.9945 86.0689C54.5902 86.9153 54.0848 87.7088 53.1246 88.3436C53.0236 88.132 52.9225 87.9204 52.8214 87.7088C52.7709 87.5501 52.6698 87.3914 52.6698 87.2327C52.5687 86.7037 52.6193 86.1218 52.6193 85.5928C52.6698 83.7413 52.7709 81.8898 52.872 80.0383C52.9225 78.6629 52.973 77.2346 53.1752 75.8592C53.3773 74.1135 53.7311 72.4207 53.9838 70.7279C54.3375 67.8713 54.8934 65.0147 56.0557 62.3697C56.3084 61.7878 56.46 61.0472 57.2686 60.8356C57.6224 60.7298 58.0772 60.624 58.5825 60.5182C58.6836 60.8356 58.8352 61.153 58.8352 61.4704C58.8352 61.9465 58.9868 62.211 59.29 62.3697C59.3911 62.4755 59.5427 62.5284 59.7449 62.6342C59.8965 62.6871 60.0481 62.74 60.1997 62.7929L60.2502 62.8458C60.4018 63.1103 60.5534 63.269 60.7556 63.3219C61.0588 63.5335 61.4631 63.5335 61.7663 63.6393C62.0695 63.6922 62.5243 63.4806 62.7265 63.269C63.1813 62.6342 63.5856 61.8936 63.3835 60.9943C63.3329 60.6769 63.1308 60.3595 63.0297 59.9892C62.7265 58.9312 62.3727 57.979 61.6147 57.3971C61.6147 57.3971 61.5642 57.3971 61.5642 57.3442C61.4631 57.2913 61.4126 57.2384 61.3115 57.1326C60.9577 56.8681 60.5534 56.7094 60.0481 56.6565C60.0481 56.6565 59.9975 56.6565 59.947 56.6565C59.8459 56.5507 59.7449 56.4449 59.6438 56.392C59.189 56.0217 58.6331 56.1275 58.0772 56.1804C57.875 56.2333 57.6224 56.1275 57.3697 56.1275C56.5106 56.0746 55.6514 55.8101 54.9439 56.3391C53.7311 57.2913 52.6698 58.4022 52.1139 59.8305C51.3559 61.7878 50.6484 63.7451 50.1936 65.8082C49.7387 67.9242 49.4861 70.146 49.1828 72.3149C48.8796 74.4838 48.6775 76.6527 48.4753 78.8216C48.4248 79.668 48.3743 80.5144 48.3237 81.3608C48.1721 83.3181 48.0205 85.2225 48.0205 87.1798C48.0205 88.2378 48.2732 89.19 48.8796 90.0893C48.9807 90.3009 49.1323 90.4596 49.3344 90.5654Z" fill="white"/>
<path d="M14.9194 104.901C14.3635 103.896 13.4033 103.578 12.3926 103.949C11.584 104.213 10.826 104.531 10.068 104.848C8.40028 105.536 6.73259 106.171 4.91329 106.911C5.11543 105.589 5.26704 104.425 5.57026 103.261C5.87347 101.304 6.22723 99.2936 6.58098 97.2834C6.93473 94.9029 7.33902 92.5224 7.74331 90.1419C7.99599 88.6607 7.74331 88.0259 6.63151 87.5498C6.37883 87.444 6.12615 87.3911 5.87347 87.2853C5.41865 87.1266 5.01436 87.1795 4.76168 87.3382C4.40793 87.4969 4.20578 87.8672 4.10471 88.4491C3.9531 89.6129 3.75096 90.8296 3.49828 91.9934C3.29614 93.0514 2.99292 94.0565 2.79078 95.1145C2.38649 97.3892 2.03273 99.611 1.67898 101.886C1.27469 104.16 0.870406 106.435 0.466118 108.71C0.263974 109.874 0.415582 110.244 1.4263 110.879C1.67898 111.037 1.93166 111.249 2.03273 111.513C2.33595 112.148 2.74024 112.307 3.34667 112.095C3.49828 112.042 3.59935 111.99 3.75096 111.937C4.35739 111.725 4.96382 111.461 5.57026 111.196C5.87347 111.09 6.12615 110.984 6.42937 110.879C8.95617 109.926 11.483 108.974 14.0098 108.022C14.313 107.916 14.5657 107.81 14.7678 107.652C15.0205 107.493 15.2226 107.387 15.4753 107.176C15.8796 106.858 15.9807 106.435 15.728 105.959C15.4753 105.589 15.1721 105.271 14.9194 104.901Z" fill="white"/>
<path d="M17.5473 81.3597C16.8398 80.672 16.1323 80.4075 15.2732 80.3017C14.313 80.2488 13.6055 80.9365 13.6055 81.8887C13.6055 82.6293 13.656 83.317 13.6055 84.0576C13.555 85.3272 13.4539 86.5968 13.3528 87.8664C13.3023 88.4483 13.8582 89.5592 14.4141 89.8237C14.5151 89.8766 14.6162 89.9295 14.6668 89.9295C15.3743 89.9824 16.0312 90.0882 16.7387 90.1411C17.143 89.7179 17.5978 89.2418 17.5978 88.5541C17.5473 87.6548 17.5473 86.7026 17.5978 85.7504C17.5978 84.7453 17.6989 83.7931 17.8 82.8409C17.8505 82.3119 18.0021 81.7829 17.5473 81.3597Z" fill="white"/>
</svg>
