<svg width="187" height="165" viewBox="0 0 187 165" fill="none" xmlns="http://www.w3.org/2000/svg">
<path d="M102.944 9.53223L106.145 9.91699L104.259 25.3943L112.248 26.3748L111.888 29.3288L100.699 27.9635L102.944 9.53223Z" fill="black"/>
<path d="M125.769 31.6372L124.727 34.2809L113.637 29.912L120.422 12.635L131.289 16.9046L130.247 19.5483L122.37 16.4578L120.571 21.0377L127.456 23.7434L126.451 26.3126L119.579 23.5945L117.669 28.4474L125.769 31.6372Z" fill="black"/>
<path d="M126.773 33.226L129.477 32.109C129.874 33.9087 130.941 35.5843 132.504 36.7385C133.993 37.8432 135.791 38.1286 136.771 36.813C137.813 35.4105 136.722 33.6729 135.444 31.8732C133.546 29.2047 132.603 26.3997 134.365 24.029C136.312 21.3978 139.686 21.6212 142.378 23.6319C144.115 24.9227 145.268 26.4245 146.099 28.7455L143.544 29.8501C142.874 28.1 142.043 26.9334 140.815 26.0149C139.5 25.0344 137.913 24.7489 137.081 25.866C136.077 27.2188 137.156 28.9192 138.309 30.5824C140.282 33.3377 141.361 36.0807 139.475 38.6251C137.404 41.4053 133.844 41.306 130.892 39.1091C128.832 37.5825 127.369 35.4725 126.773 33.226Z" fill="black"/>
<path d="M157.326 38.8359L161.084 44.8928C163.18 48.2812 161.878 51.7192 159.285 53.3327C156.705 54.9338 153.195 54.5366 151.036 51.0614L149.015 47.7847L143.259 51.3468L141.559 48.6039L157.326 38.8359ZM153.182 49.3113C154.423 51.3096 156.246 51.3965 157.586 50.5649C159.075 49.6465 159.596 47.8468 158.516 46.0967L156.631 43.0559L151.347 46.3326L153.182 49.3113Z" fill="black"/>
<path d="M153.195 75.6612L153.12 75.6861L152.178 72.459L154.969 70.0512L152.537 61.7106L148.891 61.1893L147.948 57.9375L147.997 57.925L168.316 61.1272L168.589 62.0705L153.195 75.6612ZM160.079 62.7283L155.266 62.0333L157.102 68.326L160.786 65.1486C161.605 64.4536 162.449 63.8082 163.478 63.051C162.2 62.9642 161.171 62.8649 160.079 62.7283Z" fill="black"/>
<path d="M152.562 90.9027H152.475L152.562 87.2412L159.695 83.0337L159.757 80.2162L152.723 80.0549L152.798 76.8279L171.355 77.2499L171.194 84.5355C171.107 88.2217 168.564 90.7909 165.264 90.7041C162.672 90.642 160.687 88.9664 159.992 86.2979L152.562 90.9027ZM162.362 84.0266C162.312 86.1614 163.453 87.4398 165.289 87.477C167.038 87.5143 168.378 86.2111 168.415 84.2128L168.502 80.4148L162.449 80.2783L162.362 84.0266Z" fill="black"/>
<path d="M161.258 94.4524C166.53 96.2397 169.06 101.341 167.261 106.665C166.356 109.334 164.88 111.047 162.436 112.412L160.898 110.128C162.486 109.259 163.739 107.944 164.47 105.809C165.686 102.21 163.9 98.8337 160.203 97.5801C156.606 96.3638 153.009 97.8159 151.793 101.39C151.036 103.637 151.409 105.673 152.537 107.348L149.92 108.589C148.407 106.169 148.022 103.389 149.039 100.385C150.888 94.9613 156.197 92.7272 161.258 94.4524Z" fill="black"/>
<path d="M154.534 113.206C158.913 116.644 159.633 122.279 156.122 126.747C152.587 131.253 146.98 131.849 142.601 128.411C138.334 125.059 137.429 119.35 140.976 114.832C144.474 110.377 150.255 109.855 154.534 113.206ZM144.623 125.841C147.65 128.224 151.421 128.026 153.827 124.948C156.221 121.895 155.527 118.196 152.5 115.813C149.56 113.504 145.665 113.604 143.271 116.644C140.852 119.71 141.683 123.52 144.623 125.841Z" fill="black"/>
<path d="M137.156 129.168L143.507 139.333L140.778 141.046L134.551 131.067C133.05 128.659 130.879 128.373 128.721 129.714C126.587 131.042 125.893 133.127 127.394 135.535L133.621 145.514L130.892 147.227L124.541 137.062C122.184 133.288 123.536 129.515 127.17 127.244C130.817 124.948 134.799 125.395 137.156 129.168Z" fill="black"/>
<path d="M104.681 135.994L104.656 135.92L108.204 135.026L114.17 140.785L116.899 140.09L115.163 133.264L118.289 132.469L122.854 150.466L115.795 152.253C112.223 153.159 109.072 151.397 108.266 148.195C107.633 145.675 108.725 143.317 111.094 141.927L104.681 135.994ZM113.922 143.59C111.863 144.111 110.933 145.563 111.379 147.338C111.814 149.026 113.426 149.97 115.361 149.486L119.033 148.555L117.544 142.684L113.922 143.59Z" fill="black"/>
<path d="M103.887 137.732L102.312 140.202C100.96 138.961 99.1239 138.191 97.1888 138.129C95.3281 138.067 93.7031 138.874 93.6535 140.512C93.6039 142.262 95.4894 143.056 97.5609 143.801C100.637 144.906 103.019 146.668 102.92 149.622C102.82 152.899 99.9302 154.636 96.5686 154.537C94.4102 154.475 92.5991 153.892 90.602 152.464L92.0657 150.106C93.6163 151.161 94.9684 151.645 96.4941 151.695C98.1315 151.744 99.5952 151.074 99.6449 149.684C99.6945 147.996 97.8338 147.227 95.9483 146.507C92.7604 145.365 90.3043 143.739 90.3911 140.574C90.5028 137.111 93.4799 135.15 97.164 135.262C99.7069 135.336 102.113 136.23 103.887 137.732Z" fill="black"/>
</svg>
